<svg width="512" height="512" viewBox="0 0 512 512" fill="none" xmlns="http://www.w3.org/2000/svg">
<g clip-path="url(#clip0_1521_2770)">
<path d="M256 512C397.385 512 512 397.385 512 256C512 114.615 397.385 0 256 0C114.615 0 0 114.615 0 256C0 397.385 114.615 512 256 512Z" fill="#1A1F29"/>
<path d="M427.241 215.426H427.197C426.141 210.962 424.934 206.555 423.531 202.226H284.206L314.244 112.148L314.31 112.175C320.348 114.635 326.226 117.473 331.909 120.672L331.948 120.694C333.835 121.76 335.698 122.862 337.538 124.001H337.567C347.972 130.481 357.578 138.162 366.187 146.887H393.979C387.453 138.631 380.206 130.972 372.323 124.001C372.188 123.881 372.046 123.771 371.91 123.652C370.28 122.219 368.618 120.817 366.923 119.445C366.576 119.161 366.229 118.88 365.882 118.601C362.062 115.538 358.116 112.633 354.044 109.887L353.555 109.559C351.663 108.294 349.746 107.067 347.804 105.878C347.535 105.714 347.266 105.545 346.995 105.389C342.766 102.825 338.425 100.438 333.972 98.2263L333.121 97.8132C331.13 96.8354 329.116 95.8975 327.081 94.9995L326.24 94.6231C321.735 92.6528 317.133 90.8748 312.435 89.2891C311.977 89.136 311.519 88.9844 311.061 88.8345C309.033 88.1647 306.988 87.5307 304.926 86.9326C304.601 86.8373 304.278 86.7371 303.948 86.6442C301.573 85.9711 299.176 85.3478 296.76 84.7741C296.408 84.6886 296.048 84.6177 295.697 84.5297C293.676 84.062 291.639 83.6309 289.586 83.2365C288.967 83.1159 288.347 82.9994 287.726 82.887C285.619 82.4975 283.495 82.1463 281.353 81.8334C281.05 81.7894 280.75 81.7356 280.447 81.694C278.027 81.3567 275.59 81.078 273.138 80.8409C272.517 80.7798 271.894 80.7334 271.271 80.6796C269.379 80.5166 267.478 80.3838 265.568 80.2811C264.864 80.2445 264.163 80.2029 263.454 80.1736C260.978 80.0709 258.492 80 255.989 80C253.066 80 250.16 80.0733 247.273 80.22C246.307 80.2665 245.356 80.3593 244.396 80.4229C242.479 80.5476 240.566 80.6674 238.669 80.858C237.522 80.9705 236.388 81.1245 235.247 81.2589C233.555 81.4667 231.864 81.6549 230.189 81.9018C228.967 82.0803 227.772 82.293 226.565 82.4958C224.986 82.7623 223.407 83.0312 221.84 83.3392C220.596 83.5837 219.364 83.8574 218.129 84.1288C216.626 84.4588 215.128 84.7961 213.639 85.1653C212.38 85.4757 211.131 85.8057 209.885 86.1431C208.448 86.5342 207.015 86.9375 205.593 87.3653C204.33 87.7418 203.073 88.1321 201.823 88.5362C200.447 88.9811 199.08 89.4432 197.724 89.9223C196.456 90.3672 195.192 90.817 193.936 91.2912C192.631 91.7801 191.337 92.3008 190.047 92.8239C188.756 93.347 187.495 93.8555 186.234 94.4006C185.012 94.9286 183.809 95.486 182.602 96.0409C181.304 96.6398 180.001 97.2289 178.72 97.8547C177.62 98.395 176.542 98.967 175.457 99.5268C174.103 100.226 172.739 100.913 171.404 101.646C170.556 102.113 169.73 102.624 168.892 103.091C162.931 106.484 157.174 110.222 151.65 114.287L151.405 114.455C149.694 115.722 148.022 117.039 146.358 118.367C145.932 118.706 145.497 119.032 145.077 119.374C143.5 120.655 141.96 121.982 140.433 123.317C139.958 123.73 139.475 124.133 139.005 124.539C137.502 125.879 136.033 127.255 134.576 128.643C134.117 129.083 133.652 129.516 133.198 129.961C131.731 131.379 130.316 132.831 128.908 134.3C128.495 134.73 128.082 135.16 127.686 135.596C126.258 137.116 124.86 138.664 123.491 140.24C123.147 140.636 122.802 141.032 122.462 141.428C121.051 143.071 119.666 144.739 118.307 146.432C118.063 146.75 117.806 147.073 117.554 147.39C116.141 149.183 114.762 151.007 113.416 152.864L113.03 153.406C96.0347 177.023 85.1972 204.505 81.4984 233.366C80.8555 238.375 80.4009 243.43 80.1882 248.552C80.0782 251.023 80 253.504 80 256.005C80.0021 265.953 80.8517 275.882 82.5396 285.686C82.5983 286.033 82.6716 286.373 82.7327 286.718C83.0089 288.272 83.2949 289.822 83.6127 291.362C83.8449 292.497 84.1015 293.621 84.346 294.748C84.5171 295.494 84.6759 296.244 84.8544 296.987C85.1672 298.293 85.5045 299.588 85.8467 300.881C85.9592 301.307 86.057 301.734 86.1718 302.16H86.1841C86.8807 304.722 87.614 307.271 88.423 309.787H227.748L197.734 399.862L197.685 399.842C191.637 397.377 185.75 394.534 180.06 391.328C178.161 390.256 176.29 389.149 174.447 388.009H174.418C156.487 376.856 140.999 362.19 128.886 344.892H104.15C113.628 361.053 125.613 375.607 139.655 388.009C139.797 388.133 139.946 388.253 140.088 388.373C141.718 389.8 143.372 391.197 145.052 392.563C145.398 392.846 145.745 393.127 146.094 393.406C149.912 396.47 153.856 399.374 157.926 402.118C158.098 402.233 158.271 402.343 158.445 402.458C160.33 403.719 162.241 404.942 164.179 406.125C164.448 406.291 164.717 406.457 164.988 406.614C169.213 409.177 173.554 411.564 178.009 413.774C178.292 413.915 178.581 414.052 178.867 414.192C180.861 415.17 182.875 416.108 184.909 417.008L185.74 417.379C190.247 419.346 194.851 421.125 199.55 422.716C200.007 422.872 200.464 423.021 200.924 423.173C202.958 423.843 205.007 424.477 207.071 425.077C207.392 425.17 207.707 425.27 208.027 425.361C210.405 426.032 212.801 426.656 215.216 427.233C215.575 427.319 215.949 427.392 216.299 427.478C218.314 427.942 220.342 428.372 222.382 428.766C223.003 428.886 223.627 429.01 224.25 429.12C226.368 429.505 228.496 429.854 230.634 430.167C230.937 430.211 231.238 430.264 231.541 430.306C233.961 430.643 236.398 430.922 238.847 431.159C239.47 431.22 240.096 431.267 240.72 431.32C242.61 431.483 244.509 431.616 246.417 431.719C247.121 431.756 247.825 431.797 248.531 431.826C251.01 431.929 253.496 432 255.999 432C259.028 432 262.039 431.924 265.03 431.773C266.057 431.719 267.069 431.609 268.091 431.54C270.046 431.408 272.002 431.296 273.937 431.096C275.238 430.964 276.519 430.766 277.812 430.607C279.449 430.404 281.094 430.23 282.717 429.983C284.145 429.766 285.55 429.48 286.965 429.228C288.432 428.969 289.899 428.739 291.351 428.446C292.873 428.135 294.372 427.756 295.88 427.407C297.197 427.101 298.527 426.827 299.832 426.493C301.416 426.087 302.968 425.615 304.533 425.168C305.738 424.82 306.957 424.508 308.153 424.138C309.79 423.63 311.399 423.056 313.017 422.503C314.107 422.129 315.217 421.787 316.295 421.393C317.991 420.775 319.655 420.09 321.327 419.421C322.305 419.032 323.283 418.673 324.261 418.267C326.018 417.533 327.739 416.724 329.464 415.93C330.313 415.539 331.175 415.179 332.016 414.776C333.832 413.906 335.609 412.972 337.394 412.041C338.127 411.664 338.86 411.307 339.572 410.926C341.432 409.919 343.255 408.853 345.074 407.782C345.68 407.425 346.296 407.095 346.902 406.731C348.796 405.585 350.652 404.382 352.499 403.167C352.988 402.839 353.509 402.534 354.005 402.189C355.929 400.896 357.813 399.547 359.683 398.18C360.074 397.894 360.478 397.625 360.866 397.339C362.807 395.895 364.704 394.406 366.583 392.878C366.879 392.634 367.185 392.414 367.48 392.174C369.436 390.578 371.325 388.93 373.203 387.256C373.41 387.07 373.625 386.894 373.833 386.708C375.764 384.965 377.651 383.171 379.504 381.345C379.641 381.21 379.783 381.086 379.917 380.951C381.824 379.062 383.684 377.128 385.5 375.148C385.573 375.067 385.649 374.994 385.722 374.904C387.595 372.862 389.418 370.776 391.193 368.648L391.234 368.599C417.244 337.452 431.639 298.242 431.961 257.662C431.961 257.098 432 256.543 432 255.978C431.996 242.322 430.398 228.712 427.241 215.426ZM104.648 290.228C104.612 290.069 104.582 289.91 104.546 289.751C104.025 287.432 103.568 285.09 103.145 282.736C103.059 282.247 102.971 281.758 102.901 281.281C102.47 278.714 102.094 276.128 101.793 273.52C101.771 273.329 101.759 273.138 101.737 272.948C101.473 270.582 101.278 268.196 101.126 265.8C101.084 265.147 101.043 264.492 101.011 263.844C100.867 261.241 100.776 258.635 100.776 256.005C100.776 253.67 100.85 251.36 100.952 249.04C100.992 248.187 101.043 247.329 101.097 246.491C101.182 245.066 101.295 243.648 101.422 242.233C101.512 241.211 101.593 240.186 101.705 239.172C101.737 238.864 101.786 238.561 101.823 238.253C102.008 236.622 102.206 234.994 102.443 233.378C102.725 231.469 103.062 229.58 103.421 227.693C103.519 227.167 103.602 226.639 103.705 226.116C104.042 224.39 104.438 222.694 104.822 220.982C104.978 220.317 105.122 219.648 105.286 218.983C105.685 217.355 106.122 215.741 106.574 214.133C106.775 213.417 106.975 212.695 107.185 211.982C107.65 210.415 108.144 208.862 108.652 207.315C108.896 206.582 109.141 205.848 109.385 205.132C109.917 203.607 110.469 202.092 111.043 200.588C111.318 199.872 111.6 199.159 111.888 198.449C112.487 196.95 113.11 195.459 113.748 193.983C114.044 193.306 114.357 192.638 114.662 191.966C115.342 190.472 116.029 188.984 116.752 187.515C117.043 186.925 117.354 186.346 117.652 185.762C118.432 184.232 119.219 182.701 120.047 181.2C120.248 180.836 120.463 180.484 120.668 180.125C123.691 174.747 127.033 169.554 130.675 164.575C130.853 164.331 131.022 164.086 131.203 163.842C132.154 162.556 133.158 161.304 134.136 160.048C134.625 159.437 135.089 158.826 135.581 158.21C136.5 157.08 137.453 155.978 138.401 154.873C139.005 154.174 139.599 153.47 140.215 152.783C141.137 151.749 142.083 150.739 143.031 149.73C143.713 148.996 144.392 148.283 145.087 147.574C146.025 146.613 146.981 145.672 147.942 144.738C148.688 144.014 149.44 143.297 150.198 142.587C151.153 141.695 152.12 140.815 153.099 139.944C153.906 139.229 154.72 138.522 155.543 137.825C156.521 136.996 157.499 136.175 158.476 135.38C159.344 134.679 160.229 133.994 161.111 133.31C162.089 132.545 163.067 131.78 164.084 131.041C165.02 130.35 165.976 129.685 166.929 129.015C167.882 128.345 168.884 127.619 169.896 126.949C170.94 126.25 172.008 125.585 173.074 124.913C174.02 124.312 174.951 123.691 175.909 123.116C177.476 122.168 179.087 121.263 180.678 120.371C181.763 119.765 182.861 119.178 183.963 118.599C185.417 117.834 186.874 117.066 188.363 116.345C189.255 115.912 190.169 115.514 191.071 115.096C192.359 114.499 193.642 113.9 194.948 113.341C195.911 112.928 196.903 112.544 197.864 112.148C199.135 111.634 200.406 111.119 201.691 110.637C202.696 110.261 203.713 109.904 204.73 109.552C206.013 109.102 207.299 108.657 208.597 108.239C209.626 107.909 210.664 107.596 211.706 107.286C213.016 106.895 214.333 106.516 215.658 106.159C216.703 105.877 217.751 105.606 218.804 105.347C220.153 105.021 221.51 104.708 222.874 104.406C223.92 104.176 224.968 103.951 226.022 103.744C227.427 103.467 228.843 103.223 230.26 102.986C231.292 102.812 232.323 102.631 233.362 102.48C234.848 102.262 236.347 102.084 237.845 101.908C238.823 101.793 239.815 101.663 240.808 101.565C242.472 101.402 244.149 101.292 245.828 101.182C246.671 101.128 247.507 101.047 248.353 101.006C250.885 100.849 253.43 100.778 255.989 100.778C258.245 100.778 260.484 100.844 262.718 100.94C263.23 100.961 263.741 100.985 264.251 101.013C268.802 101.256 273.299 101.691 277.743 102.318L278.694 102.453C283.381 103.147 287.996 104.043 292.541 105.142L292.619 105.161C299.596 106.862 306.445 109.048 313.117 111.703L159.056 265.783H305.713L241.697 329.805L254.889 290.228H104.648ZM411.162 257.689C410.808 293.43 398.078 327.944 375.138 355.352L375.085 355.418C373.522 357.286 371.918 359.116 370.274 360.909L370.074 361.119C368.47 362.856 366.831 364.559 365.156 366.228C365.034 366.348 364.912 366.472 364.782 366.582C363.152 368.188 361.49 369.759 359.793 371.295C359.595 371.474 359.39 371.64 359.192 371.819C357.552 373.285 355.89 374.72 354.191 376.114C353.915 376.338 353.629 376.549 353.352 376.771C351.712 378.099 350.055 379.404 348.361 380.665C348.002 380.932 347.628 381.179 347.269 381.44C345.636 382.633 343.991 383.814 342.309 384.943C341.864 385.241 341.402 385.518 340.953 385.813C339.334 386.877 337.709 387.93 336.064 388.935C335.514 389.267 334.947 389.571 334.395 389.896C332.811 390.827 331.217 391.756 329.604 392.634C328.951 392.986 328.279 393.306 327.621 393.65C326.074 394.46 324.527 395.271 322.95 396.029C322.198 396.391 321.425 396.713 320.667 397.063C319.157 397.757 317.649 398.461 316.114 399.109C315.263 399.468 314.403 399.786 313.53 400.131C312.063 400.72 310.597 401.321 309.103 401.867C308.155 402.214 307.185 402.514 306.229 402.844C304.799 403.333 303.379 403.844 301.929 404.291C300.871 404.621 299.788 404.9 298.718 405.206C297.349 405.599 295.99 406.015 294.606 406.369C293.418 406.675 292.209 406.924 291.008 407.203C289.718 407.501 288.437 407.826 287.137 408.093C285.836 408.359 284.482 408.569 283.155 408.804C281.933 409.019 280.747 409.264 279.53 409.449C278.095 409.669 276.641 409.823 275.194 410.002C274.062 410.144 272.938 410.317 271.796 410.432C270.173 410.598 268.528 410.694 266.888 410.809C265.91 410.875 264.933 410.98 263.955 411.031C261.323 411.163 258.674 411.23 256.009 411.231C253.752 411.231 251.511 411.165 249.277 411.07C248.769 411.048 248.258 411.024 247.749 410.997C243.196 410.756 238.698 410.32 234.254 409.691L233.304 409.557C228.617 408.863 224.001 407.966 219.457 406.868L219.378 406.848C212.402 405.148 205.552 402.962 198.881 400.307L352.922 246.227H206.265L270.281 182.205L257.089 221.782H407.337C408.42 226.524 409.241 231.362 409.877 236.258H409.852C410.4 240.432 410.782 244.653 410.999 248.921C411.109 251.272 411.202 253.626 411.202 256.01C411.202 256.574 411.158 257.129 411.153 257.694L411.162 257.689Z" fill="white"/>
</g>
<defs>
<clipPath id="clip0_1521_2770">
<rect width="512" height="512" fill="white"/>
</clipPath>
</defs>
</svg>
