<svg width="2400" height="1547" viewBox="0 0 2400 1547" fill="none" xmlns="http://www.w3.org/2000/svg">
<path d="M166.591 1478.74C166.591 1404.87 57.521 1422.16 57.521 1383.81C57.521 1369.98 67.265 1363.38 80.1523 1363.7C94.6111 1364.01 104.669 1372.5 105.612 1386.64H163.762C161.562 1344.52 129.187 1320.63 81.0952 1320.63C34.8898 1320.63 0.628645 1343.89 0.628645 1385.7C0 1463.96 110.327 1441.96 110.327 1482.82C110.327 1495.71 100.269 1503.57 84.5528 1503.57C69.4653 1503.57 58.7783 1495.4 57.2067 1478.42H0C1.57161 1523.06 38.6617 1546.63 86.1244 1546.63C137.673 1546.63 166.591 1515.83 166.591 1478.74Z" fill="white"/>
<path d="M187.724 1366.84H246.188V1544.43H299.937V1366.84H358.401V1323.78H187.724V1366.84Z" fill="white"/>
<path d="M501.99 1395.44C501.99 1412.73 492.561 1423.1 472.444 1423.1H439.126V1368.41H472.444C492.561 1368.41 501.99 1379.1 501.99 1395.44ZM385.377 1323.78V1544.43H439.126V1461.14H452.013L497.904 1544.43H558.568L507.648 1457.05C541.595 1446.99 556.682 1420.9 556.682 1393.24C556.682 1354.89 529.651 1323.78 475.587 1323.78H385.377Z" fill="white"/>
<path d="M807.62 1433.48C807.62 1367.15 757.643 1320.63 694.778 1320.63C632.228 1320.63 581.308 1367.15 581.308 1433.48C581.308 1499.8 632.228 1546.63 694.778 1546.63C757.328 1546.63 807.62 1499.8 807.62 1433.48ZM636.314 1433.48C636.314 1394.19 658.945 1369.35 694.778 1369.35C729.982 1369.35 752.928 1394.19 752.928 1433.48C752.928 1472.14 729.982 1497.6 694.778 1497.6C658.945 1497.6 636.314 1472.14 636.314 1433.48Z" fill="white"/>
<path d="M981.168 1323.78V1460.51L891.271 1323.78H837.522V1544.43H891.271V1408.33L981.168 1544.43H1034.92V1323.78H981.168Z" fill="white"/>
<path d="M1176.98 1321.26C1110.97 1321.26 1064.76 1367.78 1064.76 1433.79C1064.76 1499.8 1111.28 1546 1177.29 1546C1235.44 1546 1272.22 1507.97 1283.53 1469.94V1419.96H1166.6V1459.56H1234.81C1226.64 1484.4 1208.09 1498.54 1181.38 1498.54C1142.71 1498.54 1119.45 1474.65 1119.45 1433.79C1119.45 1395.44 1142.4 1370.93 1176.98 1370.93C1197.09 1370.93 1212.18 1378.78 1220.35 1393.56H1279.76C1268.13 1348.29 1229.78 1321.26 1176.98 1321.26Z" fill="white"/>
<path d="M1450.66 1544.43H1504.41V1323.78H1450.66V1410.22H1367.05V1323.78H1313.3V1544.43H1367.05V1453.59H1450.66V1544.43Z" fill="white"/>
<path d="M1693.77 1544.43H1750.67L1670.83 1323.78H1608.59L1528.75 1544.43H1585.02L1598.22 1505.46H1680.57L1693.77 1544.43ZM1666.74 1463.96H1612.36L1639.4 1383.18L1666.74 1463.96Z" fill="white"/>
<path d="M1918.61 1323.78V1460.51L1828.71 1323.78H1774.96V1544.43H1828.71V1408.33L1918.61 1544.43H1972.36V1323.78H1918.61Z" fill="white"/>
<path d="M2093.99 1323.78H2011.32V1544.43H2093.99C2164.4 1544.43 2209.66 1499.48 2209.66 1434.1C2209.66 1368.41 2164.4 1323.78 2093.99 1323.78ZM2065.07 1497.91V1369.67H2090.53C2131.08 1369.67 2154.97 1393.56 2154.97 1434.1C2154.97 1474.65 2131.08 1497.91 2090.53 1497.91H2065.07Z" fill="white"/>
<path d="M2400 1478.74C2400 1404.87 2290.93 1422.16 2290.93 1383.81C2290.93 1369.98 2300.67 1363.38 2313.56 1363.7C2328.02 1364.01 2338.08 1372.5 2339.02 1386.64H2397.17C2394.97 1344.52 2362.6 1320.63 2314.5 1320.63C2268.3 1320.63 2234.04 1343.89 2234.04 1385.7C2233.41 1463.96 2343.74 1441.96 2343.74 1482.82C2343.74 1495.71 2333.68 1503.57 2317.96 1503.57C2302.87 1503.57 2292.19 1495.4 2290.62 1478.42H2233.41C2234.98 1523.06 2272.07 1546.63 2319.53 1546.63C2371.08 1546.63 2400 1515.83 2400 1478.74Z" fill="white"/>
<g clip-path="url(#clip0_25_1411)">
<path d="M1532.24 840.712L1498.06 771.711L1458.86 750.998L1426.38 758.659L1341.86 801.122H1341.8L1241.86 821.453L1137.81 827.33L1040.56 817.39L986.319 824.162H986.185L946.39 803.379L946.284 803.259L935.884 777.502V777.312L950.782 749.347L954.404 664.451L975.192 578.102L1010.5 484.981L1045.8 404.557L1086.96 310.568L1107.3 241.432L1107.34 241.347L1140.81 203.845L1208.2 148.72L1252.06 111.224L1252.18 111.167L1273.89 108.458H1274.03L1312.47 130.145L1358.16 159.52L1358.25 159.64L1365.03 180.43V180.6L1349.71 212.106L1366.82 235.04V235.259L1358.25 256.085L1358.21 256.148L1341.93 275.132L1341.71 275.203L1320.96 270.702L1266.3 287.831H1266.24L1203.99 290.54L1191.37 334.208L1180.08 395.584L1186.43 445.672L1190.96 505.778V505.841L1174.67 581.326V581.404L1148.48 620.811L1199.61 590.603L1221.74 564.875L1268.8 521.933L1268.86 521.891L1318.61 502.003H1318.69H1386.01L1415.34 480.839L1466.46 451.915H1466.55L1546.6 441.975H1546.65L1600.87 449.651L1666.05 429.474L1632.77 481.129L1631.42 519.929L1631.36 520.077L1595.63 557.129L1548.27 590.039L1585.27 667.132V667.344L1559.54 708.839L1574.45 791.442L1574.4 791.626L1532.24 840.712ZM1458.86 750.54H1459.01L1498.36 771.33L1498.46 771.421L1532.26 840.691L1573.95 791.372L1559.05 708.783V708.621L1584.76 667.153L1547.73 590.003L1547.8 589.714L1595.29 556.734L1630.93 519.774L1632.27 480.973L1632.32 480.854L1666 429.397L1600.91 450.018H1600.81L1546.58 442.342L1466.63 452.31L1415.56 481.234L1386.19 502.455L1386.05 502.497H1318.74L1269.07 522.349L1222.07 565.22L1199.92 590.956L1199.87 591.005L1147.86 621.728L1147.55 621.411L1174.22 581.199L1190.48 505.82L1185.96 445.757L1179.6 395.612V395.548L1190.9 334.095L1203.57 290.243L1203.78 290.081L1266.15 287.372L1320.85 270.208H1320.97L1341.64 274.702L1357.8 255.852L1366.36 235.231L1349.25 212.289V212.056L1364.59 180.508L1357.86 159.887L1312.25 130.561L1273.87 108.917L1252.3 111.612L1208.49 149.065L1141.12 204.197L1107.72 241.637L1087.38 310.723L1046.22 404.734L1010.91 485.157L975.65 578.236L954.856 664.55L951.241 749.453V749.545L936.357 777.425L946.687 803.005L986.348 823.725L1040.55 816.952H1040.6L1137.83 826.892L1241.81 821.016L1341.7 800.698L1426.24 758.236H1426.29L1458.86 750.54Z" fill="white"/>
<path d="M1216.56 199.937L1162.08 236.085L1170.66 203.633L1216.56 199.937Z" fill="white" fill-opacity="0.5"/>
<path d="M981.399 696.599L1004.88 743.485L1028.4 691.083L981.399 696.599Z" fill="white" fill-opacity="0.5"/>
<path d="M1161 315.646L1122.9 375.505L1145.55 389.84L1161 315.646Z" fill="white" fill-opacity="0.5"/>
<path d="M1574.6 555.859L1500.17 597.869L1522.82 555.859H1574.6Z" fill="white" fill-opacity="0.5"/>
<path d="M1106.1 447.668L1087.39 500.226L1116.27 505.206L1106.1 447.668Z" fill="white" fill-opacity="0.5"/>
<path d="M1039.54 554.949L1035.34 628.903L1080.53 590.61L1039.54 554.949Z" fill="white" fill-opacity="0.5"/>
<path d="M1176.79 685.115L1131.65 730.561L1218.87 739.774L1176.79 685.115Z" fill="white" fill-opacity="0.5"/>
<path d="M1306.78 577.594L1367.58 614.342L1296.64 622.01L1306.78 577.594Z" fill="white" fill-opacity="0.5"/>
<path d="M1349.65 212.254L1349.22 212.191L1345.02 181.968L1345.23 181.707L1364.8 180.296L1365.03 180.621L1349.65 212.254ZM1345.5 182.145L1349.56 211.386L1364.45 180.783L1345.5 182.145Z" fill="white" stroke="white" stroke-width="0.4"/>
<path d="M1345.09 182.102L1314.3 153.644L1314.49 153.256L1358.07 159.52L1358.24 159.852L1345.44 182.046L1345.09 182.102ZM1315.14 153.792L1345.18 181.58L1357.66 159.915L1315.14 153.792Z" fill="white" stroke="white" stroke-width="0.4"/>
<path d="M1314.32 153.665L1285.69 134.286L1285.78 133.876L1312.33 130.145L1312.59 130.349L1314.71 153.46L1314.32 153.665ZM1286.43 134.236L1314.18 153.023L1312.16 130.631L1286.43 134.236Z" fill="white" stroke="white" stroke-width="0.4"/>
<path d="M1334.69 224.946L1334.33 224.72L1345.02 181.884H1345.47L1349.67 212.106L1349.59 212.311L1334.69 224.946ZM1345.18 183.125L1334.93 224.148L1349.2 212.064L1345.18 183.125Z" fill="white" stroke="white" stroke-width="0.4"/>
<path d="M1345.24 182.159H1324.15L1323.94 182.01L1314.24 153.552L1314.61 153.312L1345.4 181.771L1345.24 182.159ZM1324.32 181.707H1344.66L1314.95 154.25L1324.32 181.707Z" fill="white" stroke="white" stroke-width="0.4"/>
<path d="M1334.77 224.825L1334.32 224.776V198.011V197.884L1345.02 181.813L1345.43 181.989L1334.77 224.825ZM1334.77 198.081V222.928L1344.7 183.139L1334.77 198.081Z" fill="white" stroke="white" stroke-width="0.4"/>
<path d="M1334.73 198.137H1334.36L1324 182.06L1324.19 181.707H1345.28L1345.47 182.06L1334.73 198.137ZM1324.57 182.159L1334.55 197.594L1344.82 182.159H1324.57Z" fill="white" stroke="white" stroke-width="0.4"/>
<path d="M1324 182.074L1285.66 134.237L1285.97 133.912L1314.6 153.291L1314.69 153.404L1324.39 181.863L1324 182.074ZM1286.93 135.118L1323.52 180.79L1314.27 153.623L1286.93 135.118Z" fill="white" stroke="white" stroke-width="0.4"/>
<path d="M1319.82 248.444L1304.81 229.065L1304.95 228.705L1334.51 224.55L1334.74 224.896L1320.19 248.43L1319.82 248.444ZM1305.41 229.101L1319.97 247.915L1334.09 225.065L1305.41 229.101Z" fill="white" stroke="white" stroke-width="0.4"/>
<path d="M1319.95 248.529L1300.09 244.381L1299.92 244.092L1304.77 228.868L1305.17 228.797L1320.18 248.177L1319.95 248.529ZM1300.43 243.986L1319.44 247.965L1305.07 229.404L1300.43 243.986Z" fill="white" stroke="white" stroke-width="0.4"/>
<path d="M1305.15 229.086L1304.78 228.839L1323.94 181.848L1324.34 181.813L1334.74 197.884V198.166L1305.15 229.086ZM1324.22 182.42L1305.64 227.908L1334.25 197.982L1324.22 182.42Z" fill="white" stroke="white" stroke-width="0.4"/>
<path d="M1304.78 229.016L1286.53 186.328L1286.72 186.018L1324.14 181.714L1324.38 182.018L1305.21 229.016H1304.78ZM1287.07 186.434L1304.98 228.339L1323.8 182.201L1287.07 186.434Z" fill="white" stroke="white" stroke-width="0.4"/>
<path d="M1286.76 186.469L1286.52 186.243L1285.59 134.102L1286 133.954L1324.33 181.792L1324.18 182.159L1286.76 186.469ZM1286.06 134.758L1286.97 185.989L1323.73 181.757L1286.06 134.758Z" fill="white" stroke="white" stroke-width="0.4"/>
<path d="M1268.41 253.827L1236.77 240.423L1236.69 240.063L1255.63 218.603L1256.01 218.674L1268.72 253.517L1268.41 253.827ZM1237.23 240.148L1268.1 253.206L1255.71 219.21L1237.23 240.148Z" fill="white" stroke="white" stroke-width="0.4"/>
<path d="M1289.89 253.785H1289.58L1255.63 218.949L1255.91 218.596L1300.24 243.993L1300.29 244.36L1289.89 253.785ZM1257.08 219.774L1289.75 253.305L1299.76 244.198L1257.08 219.774Z" fill="white" stroke="white" stroke-width="0.4"/>
<path d="M1289.74 253.841H1268.5L1268.29 253.693L1255.58 218.85L1255.95 218.617L1289.9 253.46L1289.74 253.841ZM1268.65 253.39H1289.21L1256.37 219.689L1268.65 253.39Z" fill="white" stroke="white" stroke-width="0.4"/>
<path d="M1304.93 229.15L1255.74 218.998L1255.63 218.617L1286.57 186.088L1286.95 186.152L1305.19 228.84L1304.93 229.15ZM1256.21 218.639L1304.58 228.621L1286.64 186.646L1256.21 218.639Z" fill="white" stroke="white" stroke-width="0.4"/>
<path d="M1255.96 218.928L1255.57 218.737L1265.73 157.976L1266.14 157.884L1286.92 186.102V186.392L1255.96 218.928ZM1266.1 158.582L1256.14 218.088L1286.45 186.244L1266.1 158.582Z" fill="white" stroke="white" stroke-width="0.4"/>
<path d="M1266.13 158.159L1265.74 158.081L1251.98 111.464L1252.32 111.21L1285.93 133.919L1285.97 134.251L1266.13 158.159ZM1252.6 111.937L1266.06 157.545L1285.48 134.145L1252.6 111.937Z" fill="white" stroke="white" stroke-width="0.4"/>
<path d="M1285.87 134.321L1285.64 134.194L1273.74 108.797L1274.06 108.508L1312.5 130.194L1312.41 130.617L1285.87 134.321ZM1274.44 109.227L1285.97 133.848L1311.69 130.236L1274.44 109.227Z" fill="white" stroke="white" stroke-width="0.4"/>
<path d="M1239.27 159.076L1208.29 149.115L1208.21 148.727L1252.07 111.224L1252.44 111.45L1239.56 158.921L1239.27 159.076ZM1208.81 148.804L1239.17 158.575L1251.81 112.014L1208.81 148.804Z" fill="white" stroke="white" stroke-width="0.4"/>
<path d="M1187.89 205.658L1140.95 204.247L1140.82 203.852L1208.2 148.72L1208.56 148.974L1188.08 205.51L1187.89 205.658ZM1141.57 203.817L1187.74 205.228L1207.85 149.623L1141.57 203.817Z" fill="white" stroke="white" stroke-width="0.4"/>
<path d="M1255.58 218.836L1239.1 158.921L1239.32 158.639L1265.95 157.792L1266.18 158.053L1256.02 218.815L1255.58 218.836ZM1239.62 159.076L1255.74 217.729L1265.69 158.251L1239.62 159.076Z" fill="white" stroke="white" stroke-width="0.4"/>
<path d="M1224.18 213.538L1187.85 205.651L1187.72 205.291L1239.14 158.73L1239.51 158.956L1224.44 213.375L1224.18 213.538ZM1188.38 205.291L1224.07 213.051L1238.9 159.555L1188.38 205.291Z" fill="white" stroke="white" stroke-width="0.4"/>
<path d="M1237.03 240.381L1236.65 240.331L1224.03 213.411L1224.28 213.093L1255.83 218.554L1255.97 218.927L1237.03 240.381ZM1224.62 213.608L1236.92 239.823L1255.36 218.927L1224.62 213.608Z" fill="white" stroke="white" stroke-width="0.4"/>
<path d="M1149.28 250.836L1107.45 241.75L1107.32 241.376L1140.79 203.873L1141.19 203.986L1149.56 250.547L1149.28 250.836ZM1107.94 241.39L1149.07 250.321L1140.83 204.522L1107.94 241.39Z" fill="white" stroke="white" stroke-width="0.4"/>
<path d="M1195.68 266.751L1149.26 250.829L1149.16 250.469L1187.72 205.291L1188.12 205.411L1195.97 266.518L1195.68 266.751ZM1149.72 250.526L1195.49 266.208L1187.72 205.996L1149.72 250.526Z" fill="white" stroke="white" stroke-width="0.4"/>
<path d="M1195.88 266.73L1195.55 266.427L1224.04 213.207H1224.44L1237.06 240.127L1236.98 240.409L1195.88 266.73ZM1224.22 213.82L1196.36 265.877L1236.61 240.148L1224.22 213.82Z" fill="white" stroke="white" stroke-width="0.4"/>
<path d="M1137.36 274.603L1137.12 274.279L1149.13 250.512L1149.4 250.406L1195.82 266.321L1195.78 266.758L1137.36 274.603ZM1149.45 250.893L1137.73 274.102L1194.78 266.441L1149.45 250.893Z" fill="white" stroke="white" stroke-width="0.4"/>
<path d="M1137.16 274.533L1107.33 241.679L1107.54 241.305L1149.38 250.399L1149.54 250.716L1137.53 274.483L1137.16 274.533ZM1108.13 241.898L1137.27 273.989L1149 250.773L1108.13 241.898Z" fill="white" stroke="white" stroke-width="0.4"/>
<path d="M1203.77 290.547L1137.27 274.603V274.159L1195.7 266.314L1195.95 266.462L1204.01 290.25L1203.77 290.547ZM1138.56 274.427L1203.48 289.989L1195.6 266.765L1138.56 274.427Z" fill="white" stroke="white" stroke-width="0.4"/>
<path d="M1266.17 287.831L1195.69 266.751L1195.63 266.349L1236.74 240.042L1237.05 240.113L1266.42 287.499L1266.17 287.831ZM1196.27 266.462L1265.7 287.231L1236.75 240.55L1196.27 266.462Z" fill="white" stroke="white" stroke-width="0.4"/>
<path d="M1266.3 287.831L1266.01 287.598L1268.27 253.601L1268.57 253.404L1321.02 270.229V270.66L1266.3 287.831ZM1268.7 253.919L1266.48 287.301L1320.2 270.441L1268.7 253.919Z" fill="white" stroke="white" stroke-width="0.4"/>
<path d="M1320.85 270.645L1289.64 253.813L1289.59 253.446L1299.99 243.986H1300.32L1321.14 270.279L1320.85 270.645ZM1290.11 253.566L1320.06 269.728L1300.08 244.487L1290.11 253.566Z" fill="white" stroke="white" stroke-width="0.4"/>
<path d="M1341.71 275.182L1320.9 270.667L1320.73 270.455L1319.76 248.324L1320.16 248.176L1341.92 274.829L1341.71 275.182ZM1321.17 270.243L1341.17 274.582L1320.25 248.959L1321.17 270.243Z" fill="white" stroke="white" stroke-width="0.4"/>
<path d="M1357.99 256.205L1319.95 248.529L1319.8 248.191L1334.35 224.656H1334.72L1358.22 255.866L1357.99 256.205ZM1320.36 248.148L1357.5 255.647L1334.59 225.171L1320.36 248.148Z" fill="white" stroke="white" stroke-width="0.4"/>
<path d="M1366.56 235.414L1334.48 224.988L1334.4 224.6L1349.3 211.986H1349.63L1366.81 235.033L1366.56 235.414ZM1335 224.684L1366.02 234.765L1349.42 212.487L1335 224.684Z" fill="white" stroke="white" stroke-width="0.4"/>
<path d="M1087.2 310.878L1086.92 310.596L1107.28 241.46L1107.72 241.503L1114.69 303.887L1114.52 304.134L1087.2 310.878ZM1107.39 242.667L1087.46 310.349L1114.2 303.746L1107.39 242.667Z" fill="white" stroke="white" stroke-width="0.4"/>
<path d="M1046.11 404.832L1045.78 404.557L1086.94 310.568L1087.37 310.653L1089.98 376.586L1089.87 376.79L1046.11 404.832ZM1086.96 311.647L1046.51 404.049L1089.53 376.473L1086.96 311.647Z" fill="white" stroke="white" stroke-width="0.4"/>
<path d="M1010.79 485.284L1010.5 484.981L1045.81 404.558H1046.23L1065.06 465.341L1064.92 465.623L1010.79 485.284ZM1045.95 405.291L1011.13 484.656L1064.53 465.263L1045.95 405.291Z" fill="white" stroke="white" stroke-width="0.4"/>
<path d="M975.558 578.342L975.227 578.074L1010.53 484.995H1010.96L1024.88 546.37L1024.78 546.61L975.558 578.342ZM1010.66 485.855L975.89 577.566L1024.38 546.286L1010.66 485.855Z" fill="white" stroke="white" stroke-width="0.4"/>
<path d="M954.715 664.663L954.391 664.409L975.192 578.102L975.608 578.046L1009.56 637.213L1009.47 637.524L954.715 664.663ZM975.503 578.758L954.97 664.042L1009.08 637.228L975.503 578.758Z" fill="white" stroke="white" stroke-width="0.4"/>
<path d="M951.142 749.594L950.789 749.397L954.411 664.452L954.793 664.296L1005.39 712.381V712.727L951.142 749.594ZM954.835 664.938L951.262 748.938L1004.85 712.522L954.835 664.938Z" fill="white" stroke="white" stroke-width="0.4"/>
<path d="M936.138 777.644L935.891 777.312L950.817 749.298L951.1 749.199L993.535 765.63L993.5 766.06L936.138 777.644ZM951.121 749.693L936.519 777.107L992.653 765.771L951.121 749.693Z" fill="white" stroke="white" stroke-width="0.4"/>
<path d="M986.185 824.162L946.39 803.379L946.354 802.998L993.316 765.665L993.676 765.87L986.488 823.986L986.185 824.162ZM946.905 803.139L986.107 823.598L993.168 766.349L946.905 803.139Z" fill="white" stroke="white" stroke-width="0.4"/>
<path d="M986.32 824.184L986.129 823.803L1032.32 777.242L1032.7 777.355L1040.78 817.115L1040.59 817.39L986.32 824.184ZM1032.35 777.884L986.913 823.654L1040.29 816.988L1032.35 777.884Z" fill="white" stroke="white" stroke-width="0.4"/>
<path d="M1137.77 827.351L1040.54 817.411L1040.44 816.995L1096.79 782.723L1097.08 782.766L1137.96 826.97L1137.77 827.351ZM1041.25 817.03L1137.22 826.843L1096.87 783.203L1041.25 817.03Z" fill="white" stroke="white" stroke-width="0.4"/>
<path d="M1137.81 827.351L1137.65 826.949L1190.53 783.661H1190.81L1241.94 821.051L1241.82 821.453L1137.81 827.351ZM1190.68 784.127L1138.47 826.864L1241.17 821.058L1190.68 784.127Z" fill="white" stroke="white" stroke-width="0.4"/>
<path d="M1191.05 334.391L1160.08 317.037V316.642L1203.71 290.13L1204.05 290.391L1191.38 334.215L1191.05 334.391ZM1160.64 316.825L1191 333.82L1203.42 290.786L1160.64 316.825Z" fill="white" stroke="white" stroke-width="0.4"/>
<path d="M1179.69 395.767L1147.56 365.037V364.692L1191 333.961L1191.35 334.187L1180.05 395.64L1179.69 395.767ZM1148.08 364.903L1179.71 395.147L1190.84 334.653L1148.08 364.903Z" fill="white" stroke="white" stroke-width="0.4"/>
<path d="M1186.08 445.968L1149.77 427.69L1149.71 427.33L1179.69 395.45L1180.08 395.577L1186.43 445.735L1186.08 445.968ZM1150.24 427.421L1185.91 445.369L1179.69 396.113L1150.24 427.421Z" fill="white" stroke="white" stroke-width="0.4"/>
<path d="M1190.63 506.074L1147.65 491.005L1147.55 490.646L1186.01 445.602L1186.41 445.736L1190.94 505.827L1190.63 506.074ZM1148.1 490.702L1190.47 505.517L1186.01 446.314L1148.1 490.702Z" fill="white" stroke="white" stroke-width="0.4"/>
<path d="M1174.24 581.453L1143.85 541.475L1143.89 541.157L1190.55 505.679L1190.91 505.905L1174.62 581.39L1174.24 581.453ZM1144.34 541.383L1174.31 580.79L1190.36 506.406L1144.34 541.383Z" fill="white" stroke="white" stroke-width="0.4"/>
<path d="M1147.56 621.665L1117.05 578.286L1117.25 577.933L1174.44 581.093L1174.62 581.446L1147.94 621.658L1147.56 621.665ZM1117.69 578.406L1147.74 621.136L1174.02 581.524L1117.69 578.406Z" fill="white" stroke="white" stroke-width="0.4"/>
<path d="M1160.13 317.051L1114.4 304.134L1114.29 303.775L1137.15 274.244H1137.53L1160.39 316.755L1160.13 317.051ZM1114.85 303.789L1159.74 316.487L1137.29 274.808L1114.85 303.789Z" fill="white" stroke="white" stroke-width="0.4"/>
<path d="M1147.52 364.988L1114.29 304.056L1114.55 303.732L1160.28 316.656L1160.44 316.931L1147.96 364.974L1147.52 364.988ZM1114.92 304.282L1147.65 364.247L1159.92 316.981L1114.92 304.282Z" fill="white" stroke="white" stroke-width="0.4"/>
<path d="M1089.8 376.818L1089.54 376.522L1114.25 303.859L1114.67 303.824L1147.93 364.79L1147.77 365.115L1089.8 376.818ZM1114.51 304.48L1090.09 376.296L1147.38 364.727L1114.51 304.48Z" fill="white" stroke="white" stroke-width="0.4"/>
<path d="M1149.8 427.704L1113 415.111L1112.89 414.772L1147.53 364.755L1147.95 364.875L1150.07 427.478L1149.8 427.704ZM1113.44 414.815L1149.64 427.203L1147.52 365.609L1113.44 414.815Z" fill="white" stroke="white" stroke-width="0.4"/>
<path d="M1064.98 465.609L1064.6 465.39L1089.53 376.557L1089.94 376.501L1113.24 414.801V415.076L1064.98 465.609ZM1089.83 377.178L1065.27 464.656L1112.79 414.907L1089.83 377.178Z" fill="white" stroke="white" stroke-width="0.4"/>
<path d="M1147.65 491.005L1105.28 476.007L1105.19 475.647L1149.72 427.323L1150.11 427.478L1147.99 490.801L1147.65 491.005ZM1105.74 475.697L1147.48 490.49L1149.59 428.085L1105.74 475.697Z" fill="white" stroke="white" stroke-width="0.4"/>
<path d="M1105.29 476.028L1064.76 465.644L1064.65 465.27L1112.91 414.744L1113.3 414.928L1105.57 475.838L1105.29 476.028ZM1065.25 465.305L1105.15 475.527L1112.76 415.562L1065.25 465.305Z" fill="white" stroke="white" stroke-width="0.4"/>
<path d="M1143.83 541.453L1105.15 475.922L1105.41 475.598L1147.78 490.596L1147.93 490.822L1144.24 541.355L1143.83 541.453ZM1105.85 476.233L1143.85 540.6L1147.48 490.963L1105.85 476.233Z" fill="white" stroke="white" stroke-width="0.4"/>
<path d="M1117.42 578.286H1117.05L1086.75 535.584L1086.96 535.231L1144.07 541.115L1144.23 541.474L1117.42 578.286ZM1087.39 535.732L1117.24 577.778L1143.61 541.531L1087.39 535.732Z" fill="white" stroke="white" stroke-width="0.4"/>
<path d="M1024.67 546.638L1024.43 546.314L1064.61 465.326L1065.03 465.361L1087.13 535.386L1086.96 535.675L1024.67 546.638ZM1064.77 466.032L1025.03 546.116L1086.63 535.28L1064.77 466.032Z" fill="white" stroke="white" stroke-width="0.4"/>
<path d="M1086.7 535.52L1064.6 465.496L1064.87 465.206L1105.4 475.591L1105.56 475.88L1087.13 535.52H1086.7ZM1065.15 465.749L1086.91 534.695L1105.05 475.972L1065.15 465.749Z" fill="white" stroke="white" stroke-width="0.4"/>
<path d="M1105.51 667.125H1105.15L1067.17 611.393L1067.38 611.041L1147.77 621.326L1147.91 621.7L1105.51 667.125ZM1067.82 611.541L1105.37 666.61L1147.28 621.7L1067.82 611.541Z" fill="white" stroke="white" stroke-width="0.4"/>
<path d="M1067.48 611.443L1067.14 611.196L1086.7 535.4L1087.1 535.323L1117.42 578.025L1117.36 578.342L1067.48 611.443ZM1087.01 535.958L1067.69 610.737L1116.89 578.095L1087.01 535.958Z" fill="white" stroke="white" stroke-width="0.4"/>
<path d="M1009.48 637.531L1009.17 637.284L1024.41 546.377L1024.82 546.293L1067.54 611.125L1067.45 611.457L1009.48 637.531ZM1024.76 547.019L1009.68 636.945L1067.02 611.153L1024.76 547.019Z" fill="white" stroke="white" stroke-width="0.4"/>
<path d="M1241.86 821.474L1241.62 821.114L1285.16 761.552L1285.48 761.502L1341.87 800.733L1341.8 801.143L1241.86 821.474ZM1285.41 761.996L1242.34 820.91L1341.19 800.804L1285.41 761.996Z" fill="white" stroke="white" stroke-width="0.4"/>
<path d="M1341.86 801.122L1341.54 800.839L1367.82 729.157L1368.13 729.03L1426.43 758.243V758.645L1341.86 801.122ZM1368.16 729.545L1342.16 800.458L1425.82 758.448L1368.16 729.545Z" fill="white" stroke="white" stroke-width="0.4"/>
<path d="M1426.38 758.667L1426.1 758.42L1431.7 706.751L1432.11 706.659L1459.08 750.645L1458.94 750.984L1426.38 758.667ZM1432.08 707.457L1426.58 758.152L1458.53 750.617L1432.08 707.457Z" fill="white" stroke="white" stroke-width="0.4"/>
<path d="M1498.12 771.781L1458.78 750.998L1458.72 750.646L1500.88 703.887L1501.27 704.049L1498.45 771.591L1498.12 771.781ZM1459.25 750.737L1498.02 771.196L1500.79 704.635L1459.25 750.737Z" fill="white" stroke="white" stroke-width="0.4"/>
<path d="M1532.24 840.712L1498.03 771.647L1498.29 771.33L1574.27 791.21L1574.39 791.569L1532.24 840.712ZM1498.66 771.894L1532.24 840.712L1573.82 791.562L1498.66 771.894Z" fill="white" stroke="white" stroke-width="0.4"/>
<path d="M1498.4 771.704L1498.01 771.541L1500.84 703.993L1501.08 703.781L1559.32 708.515L1559.46 708.896L1498.4 771.704ZM1501.27 704.247L1498.49 770.963L1558.8 708.924L1501.27 704.247Z" fill="white" stroke="white" stroke-width="0.4"/>
<path d="M1559.48 708.861H1559.12L1522.94 646.328L1523.21 645.996L1585.17 666.963L1585.29 667.294L1559.48 708.861ZM1523.6 646.61L1559.29 708.303L1584.71 667.294L1523.6 646.61Z" fill="white" stroke="white" stroke-width="0.4"/>
<path d="M1584.99 667.372L1523.03 646.406L1522.89 646.102L1547.78 589.799H1548.19L1585.25 667.076L1584.99 667.372ZM1523.41 646.06L1584.63 666.772L1547.99 590.476L1523.41 646.06Z" fill="white" stroke="white" stroke-width="0.4"/>
<path d="M1548.11 590.088L1547.75 589.905L1548.16 519.189L1548.53 519.012L1595.61 556.741V557.1L1548.11 590.088ZM1548.61 519.654L1548.21 589.495L1595.09 556.931L1548.61 519.654Z" fill="white" stroke="white" stroke-width="0.4"/>
<path d="M1631.19 520.092L1548.39 519.386L1548.24 518.998L1584.91 483.725H1585.21L1631.33 519.704L1631.19 520.092ZM1548.95 518.97L1630.53 519.633L1585.08 484.183L1548.95 518.97Z" fill="white" stroke="white" stroke-width="0.4"/>
<path d="M1585.08 484.113L1584.86 483.788L1600.69 449.735L1601.05 449.672L1632.71 480.846L1632.56 481.234L1585.08 484.113ZM1600.97 450.215L1585.43 483.64L1632.03 480.818L1600.97 450.215Z" fill="white" stroke="white" stroke-width="0.4"/>
<path d="M1585.06 484.113L1505.78 482.384L1505.62 481.996L1546.46 441.989H1546.79L1585.23 483.725L1585.06 484.113ZM1506.32 481.94L1584.54 483.647L1546.62 442.469L1506.32 481.94Z" fill="white" stroke="white" stroke-width="0.4"/>
<path d="M1443.56 530.787L1443.21 530.547L1466.36 452.028L1466.71 451.908L1505.92 481.975V482.335L1443.56 530.787ZM1466.7 452.48L1443.85 530.018L1505.41 482.173L1466.7 452.48Z" fill="white" stroke="white" stroke-width="0.4"/>
<path d="M1443.32 530.815L1385.97 502.448V502.06L1415.37 480.825L1415.7 480.896L1443.66 530.497L1443.32 530.815ZM1386.51 502.208L1442.87 530.081L1415.39 481.34L1386.51 502.208Z" fill="white" stroke="white" stroke-width="0.4"/>
<path d="M1490.63 554.737L1490.29 554.497L1505.53 482.109L1505.91 481.982L1548.51 519.019V519.379L1490.63 554.737ZM1505.9 482.582L1490.84 554.081L1547.98 519.161L1505.9 482.582Z" fill="white" stroke="white" stroke-width="0.4"/>
<path d="M1474.69 620.106L1474.39 619.845L1490.32 554.483L1490.66 554.349L1548.1 589.707V590.102L1474.69 620.106ZM1490.69 554.892L1474.93 619.52L1547.48 589.891L1490.69 554.892Z" fill="white" stroke="white" stroke-width="0.4"/>
<path d="M1421.7 585.157L1421.39 584.861L1443.22 530.54L1443.53 530.42L1490.64 554.356V554.765L1421.7 585.157ZM1443.55 530.921L1422.02 584.536L1490.01 554.554L1443.55 530.921Z" fill="white" stroke="white" stroke-width="0.4"/>
<path d="M1349.75 561.876H1349.35L1318.49 502.349L1318.69 502.018H1386.08L1386.27 502.363L1349.75 561.876ZM1319.05 502.469L1349.56 561.298L1385.67 502.469H1319.05Z" fill="white" stroke="white" stroke-width="0.4"/>
<path d="M1271.68 587.93L1271.39 587.725L1268.72 522.116L1269.04 521.905L1349.66 561.552V561.968L1271.68 587.93ZM1269.18 522.497L1271.83 587.4L1348.96 561.714L1269.18 522.497Z" fill="white" stroke="white" stroke-width="0.4"/>
<path d="M1218.79 634.956L1218.42 634.772L1221.69 565.079L1222 564.882L1271.71 587.549L1271.77 587.922L1218.79 634.956ZM1222.15 565.397L1218.9 634.257L1271.23 587.774L1222.15 565.397Z" fill="white" stroke="white" stroke-width="0.4"/>
<path d="M1218.57 635.005L1147.7 621.757L1147.62 621.34L1199.63 590.61L1199.96 590.716L1218.83 634.695L1218.57 635.005ZM1148.37 621.418L1218.27 634.483L1199.68 591.132L1148.37 621.418Z" fill="white" stroke="white" stroke-width="0.4"/>
<path d="M1159.68 680L1105.31 667.196L1105.2 666.822L1147.56 621.383L1147.95 621.489L1159.95 679.732L1159.68 680ZM1105.77 666.843L1159.44 679.478L1147.61 622.011L1105.77 666.843Z" fill="white" stroke="white" stroke-width="0.4"/>
<path d="M1159.73 680.007L1159.59 679.598L1218.48 634.603L1218.82 634.688L1238.91 677.376L1238.72 677.7L1159.73 680.007ZM1218.53 635.132L1160.43 679.534L1238.36 677.249L1218.53 635.132Z" fill="white" stroke="white" stroke-width="0.4"/>
<path d="M1349.63 561.975L1349.36 561.644L1385.89 502.123L1386.17 502.039L1443.53 530.406V530.822L1349.63 561.975ZM1386.13 502.54L1350.04 561.347L1442.81 530.568L1386.13 502.54Z" fill="white" stroke="white" stroke-width="0.4"/>
<path d="M1005.34 712.741L1005.01 712.529L1009.16 637.312L1009.55 637.164L1055.94 685.136L1055.88 685.496L1005.34 712.741ZM1009.58 637.855L1005.48 712.155L1055.4 685.256L1009.58 637.855Z" fill="white" stroke="white" stroke-width="0.4"/>
<path d="M1055.85 685.531L1055.55 685.284L1067.13 611.21L1067.54 611.118L1105.53 666.85L1105.42 667.189L1055.85 685.531ZM1067.49 611.852L1056.06 685.009L1104.99 666.899L1067.49 611.852Z" fill="white" stroke="white" stroke-width="0.4"/>
<path d="M1032.42 777.637L993.387 766.06L993.231 765.792L1005.01 712.522H1005.44L1032.69 777.425L1032.42 777.637ZM993.719 765.686L1032.09 777.065L1005.3 713.284L993.719 765.686Z" fill="white" stroke="white" stroke-width="0.4"/>
<path d="M1096.89 783.139L1032.46 777.644L1032.32 777.263L1074.35 734.653L1074.71 734.716L1097.12 782.822L1096.89 783.139ZM1032.98 777.235L1096.53 782.66L1074.43 735.196L1032.98 777.235Z" fill="white" stroke="white" stroke-width="0.4"/>
<path d="M1074.45 735.026L1005.16 712.755L1005.12 712.346L1055.66 685.115L1055.98 685.234L1074.72 734.73L1074.45 735.026ZM1005.81 712.522L1074.13 734.483L1055.68 685.637L1005.81 712.522Z" fill="white" stroke="white" stroke-width="0.4"/>
<path d="M1074.64 734.998L1074.3 734.716L1105.11 666.878L1105.37 666.751L1159.73 679.555L1159.8 679.965L1074.64 734.998ZM1105.47 667.238L1075.04 734.201L1159.16 679.88L1105.47 667.238Z" fill="white" stroke="white" stroke-width="0.4"/>
<path d="M1190.67 784.063L1096.91 783.139L1096.78 782.737L1147.62 744.804H1147.9L1190.83 783.654L1190.67 784.063ZM1097.58 782.695L1190.08 783.605L1147.72 745.277L1097.58 782.695Z" fill="white" stroke="white" stroke-width="0.4"/>
<path d="M1190.72 784.056L1190.48 783.711L1229.17 726.723L1229.47 726.66L1285.47 761.496L1285.41 761.912L1190.72 784.056ZM1229.42 727.153L1191.18 783.485L1284.77 761.616L1229.42 727.153Z" fill="white" stroke="white" stroke-width="0.4"/>
<path d="M1147.71 745.206L1074.48 735.034L1074.39 734.617L1159.61 679.591L1159.95 679.817L1147.95 745.023L1147.71 745.206ZM1075.15 734.667L1147.56 744.727L1159.41 680.254L1075.15 734.667Z" fill="white" stroke="white" stroke-width="0.4"/>
<path d="M1147.79 745.199L1147.52 744.938L1159.52 679.739L1159.87 679.591L1229.48 726.631L1229.4 727.04L1147.79 745.199ZM1159.89 680.162L1148.03 744.684L1228.8 726.744L1159.89 680.162Z" fill="white" stroke="white" stroke-width="0.4"/>
<path d="M1285.44 761.905L1285.14 761.63L1306.04 696.677L1306.36 696.543L1368.13 729.037V729.446L1285.44 761.905ZM1306.39 697.072L1285.71 761.312L1367.49 729.206L1306.39 697.072Z" fill="white" stroke="white" stroke-width="0.4"/>
<path d="M1368.11 729.453L1367.81 729.192L1379.11 673.855L1379.45 673.707L1432.03 706.589L1431.99 706.991L1368.11 729.453ZM1379.5 674.265L1368.33 728.896L1431.41 706.723L1379.5 674.265Z" fill="white" stroke="white" stroke-width="0.4"/>
<path d="M1501.26 704.056H1500.84L1474.39 619.972L1474.71 619.704L1523.21 646.01L1523.31 646.286L1501.26 704.056ZM1474.99 620.339L1501.07 703.351L1522.82 646.349L1474.99 620.339Z" fill="white" stroke="white" stroke-width="0.4"/>
<path d="M1431.93 706.998L1431.7 706.716L1443.21 661.383L1443.57 661.256L1501.18 703.824L1501.05 704.233L1431.93 706.998ZM1443.57 661.848L1432.21 706.568L1500.4 703.831L1443.57 661.848Z" fill="white" stroke="white" stroke-width="0.4"/>
<path d="M1443.61 661.573L1443.21 661.496L1421.39 585.009L1421.73 584.762L1474.73 619.718L1474.79 620.042L1443.61 661.573ZM1421.99 585.474L1443.52 660.96L1474.28 619.979L1421.99 585.474Z" fill="white" stroke="white" stroke-width="0.4"/>
<path d="M1229.44 727.062L1229.13 726.808L1238.48 677.425L1238.77 677.249L1306.35 696.522V696.945L1229.44 727.062ZM1238.89 677.757L1229.65 726.49L1305.55 696.769L1238.89 677.757Z" fill="white" stroke="white" stroke-width="0.4"/>
<path d="M1306.34 696.952L1306.06 696.67L1323.01 639.048L1323.34 638.921L1379.46 673.7L1379.4 674.109L1306.34 696.952ZM1323.38 639.457L1306.61 696.395L1378.82 673.82L1323.38 639.457Z" fill="white" stroke="white" stroke-width="0.4"/>
<path d="M1379.39 674.116L1379.12 673.898V617.827L1379.47 617.637L1443.56 661.249L1443.47 661.658L1379.39 674.116ZM1379.57 618.258V673.623L1442.85 661.319L1379.57 618.258Z" fill="white" stroke="white" stroke-width="0.4"/>
<path d="M1379.49 617.989L1379.15 617.919L1349.35 561.848L1349.63 561.531L1421.65 584.719L1421.72 585.115L1379.49 617.989ZM1350.02 562.13L1379.42 617.467L1421.13 585.016L1350.02 562.13Z" fill="white" stroke="white" stroke-width="0.4"/>
<path d="M1323.07 639.273L1271.46 587.873L1271.54 587.499L1349.49 561.552L1349.77 561.841L1323.45 639.153L1323.07 639.273ZM1272.04 587.817L1323.13 638.695L1349.2 562.116L1272.04 587.817Z" fill="white" stroke="white" stroke-width="0.4"/>
<path d="M1379.23 674.088L1323.11 639.302L1323.15 638.9L1379.26 617.615L1379.57 617.827V673.898L1379.23 674.088ZM1323.74 639.153L1379.12 673.482V618.152L1323.74 639.153Z" fill="white" stroke="white" stroke-width="0.4"/>
<path d="M1323.22 639.337L1218.61 635.012L1218.47 634.617L1271.46 587.548H1271.75L1323.36 638.942L1323.22 639.337ZM1219.19 634.582L1322.66 638.864L1271.61 588.028L1219.19 634.582Z" fill="white" stroke="white" stroke-width="0.4"/>
<path d="M1306.19 696.952L1238.65 677.693V677.27L1323.17 638.906L1323.48 639.175L1306.54 696.804L1306.19 696.952ZM1239.36 677.425L1306.1 696.473L1322.87 639.534L1239.36 677.425Z" fill="white" stroke="white" stroke-width="0.4"/>
<path d="M1695.45 526.984L1643.5 479.154V478.822L1682.65 441.997L1683.03 442.131L1695.84 526.787L1695.45 526.984ZM1643.98 479.012L1695.29 526.243L1682.63 442.61L1643.98 479.012Z" fill="white" stroke="white" stroke-width="0.4"/>
<path d="M1607.29 570.638L1607.1 570.264L1650.06 519.041L1650.46 519.139L1661.19 567.936L1660.98 568.212L1607.29 570.638ZM1650.11 519.69L1607.74 570.166L1660.66 567.774L1650.11 519.69Z" fill="white" stroke="white" stroke-width="0.4"/>
<path d="M1631.07 634.286L1568.01 595.175L1568.13 594.758H1631.19L1631.42 594.984V634.095L1631.07 634.286ZM1568.94 595.21L1630.97 633.686V595.21H1568.94Z" fill="white" stroke="white" stroke-width="0.4"/>
<path d="M1592.15 682.744L1591.81 682.511L1604.63 607.062L1604.99 606.921L1656.6 646.025V646.406L1592.15 682.744ZM1605.02 607.506L1592.31 682.116L1656.03 646.18L1605.02 607.506Z" fill="white" stroke="white" stroke-width="0.4"/>
<path d="M1610.55 786.145L1567.94 713.481L1568.15 713.136L1607.29 716.254L1607.5 716.466L1610.96 786.032L1610.55 786.145ZM1568.55 713.608L1610.47 785.122L1607.06 716.691L1568.55 713.608Z" fill="white" stroke="white" stroke-width="0.4"/>
<path d="M1583.51 832.247L1583.15 832.042L1591.81 741.037H1592.25L1610.96 811.986L1610.87 812.226L1583.51 832.247ZM1592.14 742.321L1583.67 831.584L1610.5 811.894L1592.14 742.321Z" fill="white" stroke="white" stroke-width="0.4"/>
<path d="M1603.87 696.959L1603.69 696.55L1648.03 666.984L1648.37 667.217L1643.87 686.751L1643.71 686.92L1603.87 696.959ZM1647.81 667.675L1605.02 696.197L1643.44 686.518L1647.81 667.675Z" fill="white" stroke="white" stroke-width="0.4"/>
<path d="M1255.8 218.772L1240.01 225.7L1236.86 240.233L1268.5 253.615H1289.74L1300.14 244.155L1304.98 228.924L1286.74 186.243L1265.96 158.018L1228.29 168.846L1255.8 167.704L1252.64 186.088L1269.01 179.548L1275.88 191.316L1266.23 205.432L1284.2 198.935L1298.29 228.924L1291.59 239.929L1284.43 223.675L1281.66 243.231L1269.23 232.557L1274.97 241.524L1250.25 240.233L1248.74 226.772L1255.8 218.772Z" fill="white"/>
<path d="M1285.82 134.095L1324.15 181.933L1334.55 198.011V224.776L1319.99 248.31L1300.14 244.155L1317.46 236.197L1325.54 218.772L1327.08 205.813L1314.45 213.312L1324.15 201.467L1312.36 201.242L1320.95 183.704L1294.83 183.471L1305.45 172.861L1292.29 148.896L1277.97 155.788L1281.89 141.926L1260.41 134.095H1285.82Z" fill="white"/>
<path d="M1252.21 111.394L1273.92 108.685L1312.36 130.371L1358.04 159.739L1364.82 180.529L1349.44 212.155L1355.03 181.933L1349.44 166.166L1336.25 160.17L1339.02 153.482L1310.07 134.702L1307.3 141.926L1300.14 126.942L1273.92 115.866L1252.21 111.394Z" fill="white"/>
<path d="M1285.82 134.095L1314.45 153.481L1345.24 181.933L1349.44 212.155L1334.55 224.776L1342 210.928V188.395L1334.55 179.436L1326 169.171L1312.36 155.323L1285.82 134.095Z" fill="white"/>
<path d="M1319.99 248.31L1320.95 270.448L1341.75 274.963L1358.04 255.986L1366.63 235.203L1349.44 212.155L1358.04 235.203L1350.59 253.616L1337.78 240.381L1334.7 249.235L1343.32 257.298L1339.89 266.54L1327.62 262.497L1319.99 248.31Z" fill="white"/>
<path d="M1252.21 111.394L1208.34 148.896L1140.96 204.021C1140.96 204.021 1105.37 241.065 1107.49 241.524C1109.61 241.983 1137.33 274.385 1137.33 274.385L1203.82 290.328L1266.23 287.612L1319.76 270.815L1274.27 276.092L1230.98 281.538L1187.91 279.69L1191.18 268.402L1227.4 257.319L1236.87 240.254L1211.7 250.639L1162.52 257.976L1140.97 251.789L1146.58 216.953L1180.29 196.36L1187.91 180.551L1225.79 146.117L1248.86 123.796L1252.21 111.394Z" fill="white"/>
<path d="M1107.49 241.524L1087.14 310.66L1045.99 404.642L1010.69 485.065L975.382 578.152L954.638 664.459L951.016 749.404L936.089 777.425L946.497 803.182L986.291 823.972L1040.56 817.192L1137.8 827.132L1241.81 821.256L1341.76 800.924L1426.32 758.448L1458.89 750.772L1498.23 771.556L1532.24 840.691L1574.21 791.407L1559.29 708.72L1585.07 667.146L1547.98 589.884L1548.39 661.933L1540.67 727.873L1559.29 766.286L1531.75 786.039L1501.03 745.312L1520.43 716.014L1486.48 714.603L1496.42 682.533C1496.42 682.533 1492.49 640.536 1491.57 640.078C1490.64 639.619 1466.47 594.97 1466.47 594.97L1475.65 640.31L1466.47 701.552L1450 724.529L1433.84 692.226L1434.99 735.372L1399.97 747.831L1336.15 765.058L1280.97 740.035L1265.96 679.781L1260.58 746.272L1206.28 780.19L1113.08 791.478L1092.3 755.351L1074.51 726.857L1053.96 777.425L995.146 795.69L1001.46 778.307L978.157 786.152L956.233 768.155L1002.73 749.411L970.009 723.393L1002.73 648.282L995.336 578.159L1048.42 505.82L1075.67 373.136L1126.51 312.24L1107.52 284.071L1107.49 241.524Z" fill="white"/>
<path d="M1203.82 290.328L1191.16 334.159L1179.86 395.605L1186.22 445.764L1190.75 505.862L1174.43 581.305L1147.74 621.517L1199.73 590.808L1221.91 565.079L1268.92 522.124L1318.67 502.243H1386.06L1415.45 481.009L1466.56 452.085L1546.6 442.138L1600.87 449.82L1666.02 429.418L1632.56 481.009L1631.2 519.866L1595.47 556.917L1547.99 589.905L1573.1 557.778L1607.29 522.124L1615.6 481.009V458.504L1556.02 472.353L1534.31 519.866C1534.31 519.866 1466.1 484.593 1466.49 484.473C1466.88 484.353 1419.3 526.801 1419.3 526.801L1431.93 639.111L1363.88 691.083L1398.06 607.132L1370.34 542.272L1274.32 550.37L1241.84 600.459L1231.8 653.728L1199.25 623.21L1147.77 657.305H1117.11L1080.55 706.794L1088.94 667.944L1115.47 628.571L1141.26 599.88L1159.73 565.079L1132.54 526.37L1168.03 470.533L1159.73 411.464L1162.04 340.282L1203.82 290.328Z" fill="white"/>
<path d="M1532.24 840.712C1457.71 913.386 1360.96 959.009 1257.43 970.294C1153.91 981.578 1049.58 957.873 961.125 902.964C872.667 848.056 805.179 765.112 769.441 667.383C733.703 569.654 731.777 462.777 763.97 363.825C796.164 264.874 860.619 179.557 947.041 121.502C1033.46 63.447 1136.86 36.0044 1240.73 43.5575C1344.59 51.1105 1442.93 93.2236 1520.02 163.17C1597.12 233.115 1648.53 326.859 1666.05 429.425L1706.86 416.903C1686.67 305.913 1630.08 204.794 1546.01 129.487C1461.94 54.1803 1355.18 8.96819 1242.56 0.977772C1129.93 -7.01265 1017.85 22.6731 923.974 85.3556C830.1 148.038 759.774 240.152 724.083 347.177C688.392 454.203 689.365 570.052 726.85 676.464C764.334 782.875 836.197 873.797 931.111 934.896C1026.02 995.995 1138.59 1023.8 1251.07 1013.92C1363.54 1004.04 1469.53 957.045 1552.32 880.338L1532.24 840.712Z" fill="white"/>
<circle cx="1322.44" cy="638.549" r="7.25626" fill="white"/>
<ellipse cx="1086.61" cy="536.961" rx="7.25626" ry="7.25623" fill="white"/>
<circle cx="1113.83" cy="415.42" r="5.44217" fill="white"/>
<ellipse cx="1146.48" cy="745.578" rx="5.44215" ry="5.44217" fill="white"/>
<circle cx="1491.15" cy="553.288" r="5.44217" fill="white"/>
</g>
<defs>
<clipPath id="clip0_25_1411">
<rect width="1008.46" height="1015.87" fill="white" transform="translate(698.406)"/>
</clipPath>
</defs>
</svg>
