<svg width="2400" height="1547" viewBox="0 0 2400 1547" fill="none" xmlns="http://www.w3.org/2000/svg">
<path d="M166.591 1478.83C166.591 1404.96 57.521 1422.25 57.521 1383.9C57.521 1370.07 67.265 1363.47 80.1523 1363.78C94.6111 1364.1 104.669 1372.58 105.612 1386.73H163.762C161.562 1344.61 129.187 1320.72 81.0952 1320.72C34.8898 1320.72 0.628645 1343.98 0.628645 1385.79C0 1464.05 110.327 1442.05 110.327 1482.91C110.327 1495.8 100.269 1503.66 84.5528 1503.66C69.4653 1503.66 58.7783 1495.48 57.2067 1478.51H0C1.57161 1523.14 38.6617 1546.72 86.1244 1546.72C137.673 1546.72 166.591 1515.92 166.591 1478.83Z" fill="white"/>
<path d="M187.724 1366.93H246.188V1544.52H299.937V1366.93H358.401V1323.86H187.724V1366.93Z" fill="white"/>
<path d="M501.99 1395.53C501.99 1412.82 492.561 1423.19 472.444 1423.19H439.126V1368.5H472.444C492.561 1368.5 501.99 1379.19 501.99 1395.53ZM385.377 1323.86V1544.52H439.126V1461.22H452.013L497.904 1544.52H558.568L507.648 1457.14C541.595 1447.08 556.682 1420.99 556.682 1393.33C556.682 1354.98 529.651 1323.86 475.587 1323.86H385.377Z" fill="white"/>
<path d="M807.62 1433.56C807.62 1367.24 757.643 1320.72 694.778 1320.72C632.228 1320.72 581.308 1367.24 581.308 1433.56C581.308 1499.89 632.228 1546.72 694.778 1546.72C757.328 1546.72 807.62 1499.89 807.62 1433.56ZM636.314 1433.56C636.314 1394.27 658.945 1369.44 694.778 1369.44C729.982 1369.44 752.928 1394.27 752.928 1433.56C752.928 1472.22 729.982 1497.68 694.778 1497.68C658.945 1497.68 636.314 1472.22 636.314 1433.56Z" fill="white"/>
<path d="M981.168 1323.86V1460.59L891.271 1323.86H837.522V1544.52H891.271V1408.42L981.168 1544.52H1034.92V1323.86H981.168Z" fill="white"/>
<path d="M1176.98 1321.35C1110.97 1321.35 1064.76 1367.87 1064.76 1433.88C1064.76 1499.89 1111.28 1546.09 1177.29 1546.09C1235.44 1546.09 1272.22 1508.06 1283.53 1470.02V1420.05H1166.6V1459.65H1234.81C1226.64 1484.48 1208.09 1498.63 1181.38 1498.63C1142.71 1498.63 1119.45 1474.74 1119.45 1433.88C1119.45 1395.53 1142.4 1371.01 1176.98 1371.01C1197.09 1371.01 1212.18 1378.87 1220.35 1393.64H1279.76C1268.13 1348.38 1229.78 1321.35 1176.98 1321.35Z" fill="white"/>
<path d="M1450.66 1544.52H1504.41V1323.86H1450.66V1410.3H1367.05V1323.86H1313.3V1544.52H1367.05V1453.68H1450.66V1544.52Z" fill="white"/>
<path d="M1693.77 1544.52H1750.67L1670.83 1323.86H1608.59L1528.75 1544.52H1585.02L1598.22 1505.54H1680.57L1693.77 1544.52ZM1666.74 1464.05H1612.36L1639.4 1383.27L1666.74 1464.05Z" fill="white"/>
<path d="M1918.61 1323.86V1460.59L1828.71 1323.86H1774.96V1544.52H1828.71V1408.42L1918.61 1544.52H1972.36V1323.86H1918.61Z" fill="white"/>
<path d="M2093.99 1323.86H2011.32V1544.52H2093.99C2164.4 1544.52 2209.66 1499.57 2209.66 1434.19C2209.66 1368.5 2164.4 1323.86 2093.99 1323.86ZM2065.07 1498V1369.76H2090.53C2131.08 1369.76 2154.97 1393.64 2154.97 1434.19C2154.97 1474.74 2131.08 1498 2090.53 1498H2065.07Z" fill="white"/>
<path d="M2400 1478.83C2400 1404.96 2290.93 1422.25 2290.93 1383.9C2290.93 1370.07 2300.67 1363.47 2313.56 1363.78C2328.02 1364.1 2338.08 1372.58 2339.02 1386.73H2397.17C2394.97 1344.61 2362.6 1320.72 2314.5 1320.72C2268.3 1320.72 2234.04 1343.98 2234.04 1385.79C2233.41 1464.05 2343.74 1442.05 2343.74 1482.91C2343.74 1495.8 2333.68 1503.66 2317.96 1503.66C2302.87 1503.66 2292.19 1495.48 2290.62 1478.51H2233.41C2234.98 1523.14 2272.07 1546.72 2319.53 1546.72C2371.08 1546.72 2400 1515.92 2400 1478.83Z" fill="white"/>
<g clip-path="url(#clip0_25_1105)">
<path d="M1532.24 840.799L1498.07 771.797L1458.87 751.085L1426.39 758.746L1341.87 801.208H1341.81L1241.86 821.54L1137.82 827.416L1040.57 817.476L986.325 824.249H986.191L946.396 803.466L946.29 803.346L935.89 777.589V777.399L950.788 749.434L954.41 664.538L975.197 578.189L1010.5 485.067L1045.81 404.644L1086.96 310.654L1107.31 241.518L1107.35 241.434L1140.82 203.931L1208.21 148.806L1252.07 111.31L1252.19 111.254L1273.9 108.545H1274.04L1312.48 130.231L1358.16 159.607L1358.26 159.727L1365.04 180.517V180.686L1349.72 212.192L1366.83 235.127V235.346L1358.26 256.171L1358.21 256.235L1341.94 275.219L1341.71 275.289L1320.97 270.788L1266.3 287.917H1266.25L1204 290.626L1191.38 334.294L1180.08 395.67L1186.44 445.758L1190.96 505.864V505.928L1174.68 581.413V581.49L1148.48 620.898L1199.61 590.69L1221.75 564.961L1268.8 522.019L1268.86 521.977L1318.62 502.09H1318.7H1386.01L1415.35 480.926L1466.47 452.002H1466.55L1546.6 442.062H1546.66L1600.88 449.737L1666.05 429.561L1632.78 481.215L1631.43 520.016L1631.36 520.164L1595.63 557.215L1548.28 590.125L1585.28 667.219V667.43L1559.55 708.926L1574.45 791.529L1574.41 791.712L1532.24 840.799ZM1458.87 750.626H1459.02L1498.36 771.416L1498.46 771.508L1532.26 840.778L1573.96 791.459L1559.05 708.869V708.707L1584.77 667.24L1547.73 590.09L1547.81 589.801L1595.29 556.82L1630.93 519.861L1632.28 481.06L1632.32 480.94L1666 429.483L1600.92 450.104H1600.82L1546.58 442.429L1466.63 452.397L1415.57 481.321L1386.19 502.541L1386.06 502.584H1318.74L1269.08 522.436L1222.07 565.307L1199.93 591.042L1199.87 591.092L1147.86 621.815L1147.56 621.497L1174.22 581.286L1190.48 505.906L1185.96 445.843L1179.61 395.698V395.635L1190.91 334.182L1203.57 290.33L1203.79 290.168L1266.16 287.459L1320.85 270.294H1320.97L1341.64 274.788L1357.81 255.938L1366.37 235.317L1349.26 212.376V212.143L1364.6 180.594L1357.87 159.973L1312.26 130.647L1273.87 109.003L1252.31 111.698L1208.49 149.152L1141.13 204.284L1107.72 241.723L1087.39 310.809L1046.22 404.82L1010.92 485.243L975.656 578.323L954.862 664.637L951.247 749.54V749.631L936.363 777.511L946.693 803.092L986.353 823.811L1040.55 817.039H1040.6L1137.84 826.979L1241.81 821.102L1341.7 800.785L1426.24 758.323H1426.29L1458.87 750.626Z" fill="#FFE74C"/>
<path d="M1216.57 200.023L1162.08 236.171L1170.66 203.72L1216.57 200.023Z" fill="#2E3645"/>
<path d="M981.405 696.685L1004.88 743.571L1028.41 691.169L981.405 696.685Z" fill="#2E3645"/>
<path d="M1161 315.732L1122.9 375.591L1145.55 389.926L1161 315.732Z" fill="#2E3645"/>
<path d="M1574.6 555.945L1500.17 597.956L1522.83 555.945H1574.6Z" fill="#2E3645"/>
<path d="M1106.11 447.755L1087.39 500.312L1116.28 505.293L1106.11 447.755Z" fill="#2E3645"/>
<path d="M1039.55 555.035L1035.34 628.989L1080.53 590.697L1039.55 555.035Z" fill="#2E3645"/>
<path d="M1176.8 685.201L1131.65 730.647L1218.87 739.861L1176.8 685.201Z" fill="#2E3645"/>
<path d="M1306.78 577.681L1367.58 614.428L1296.64 622.097L1306.78 577.681Z" fill="#2E3645"/>
<path d="M1349.66 212.34L1349.22 212.277L1345.02 182.055L1345.24 181.794L1364.81 180.383L1365.03 180.707L1349.66 212.34ZM1345.51 182.231L1349.57 211.473L1364.45 180.87L1345.51 182.231Z" fill="#FFE74C" stroke="#FFE74C" stroke-width="0.4"/>
<path d="M1345.09 182.189L1314.31 153.73L1314.49 153.342L1358.07 159.607L1358.24 159.938L1345.45 182.132L1345.09 182.189ZM1315.15 153.878L1345.19 181.667L1357.67 160.002L1315.15 153.878Z" fill="#FFE74C" stroke="#FFE74C" stroke-width="0.4"/>
<path d="M1314.33 153.751L1285.7 134.372L1285.79 133.963L1312.33 130.231L1312.59 130.436L1314.71 153.547L1314.33 153.751ZM1286.44 134.323L1314.19 153.109L1312.16 130.718L1286.44 134.323Z" fill="#FFE74C" stroke="#FFE74C" stroke-width="0.4"/>
<path d="M1334.69 225.032L1334.33 224.806L1345.03 181.97H1345.47L1349.68 212.192L1349.6 212.397L1334.69 225.032ZM1345.19 183.212L1334.94 224.235L1349.21 212.15L1345.19 183.212Z" fill="#FFE74C" stroke="#FFE74C" stroke-width="0.4"/>
<path d="M1345.25 182.245H1324.16L1323.95 182.097L1314.25 153.638L1314.61 153.398L1345.4 181.857L1345.25 182.245ZM1324.32 181.793H1344.67L1314.96 154.337L1324.32 181.793Z" fill="#FFE74C" stroke="#FFE74C" stroke-width="0.4"/>
<path d="M1334.77 224.912L1334.33 224.862V198.097V197.97L1345.03 181.899L1345.43 182.076L1334.77 224.912ZM1334.77 198.168V223.014L1344.71 183.226L1334.77 198.168Z" fill="#FFE74C" stroke="#FFE74C" stroke-width="0.4"/>
<path d="M1334.74 198.224H1334.36L1324 182.147L1324.19 181.794H1345.28L1345.48 182.147L1334.74 198.224ZM1324.57 182.245L1334.55 197.681L1344.83 182.245H1324.57Z" fill="#FFE74C" stroke="#FFE74C" stroke-width="0.4"/>
<path d="M1324 182.16L1285.67 134.323L1285.97 133.998L1314.61 153.377L1314.7 153.49L1324.39 181.949L1324 182.16ZM1286.93 135.204L1323.53 180.876L1314.27 153.709L1286.93 135.204Z" fill="#FFE74C" stroke="#FFE74C" stroke-width="0.4"/>
<path d="M1319.82 248.531L1304.81 229.152L1304.96 228.792L1334.52 224.637L1334.74 224.982L1320.2 248.517L1319.82 248.531ZM1305.41 229.187L1319.98 248.002L1334.1 225.152L1305.41 229.187Z" fill="#FFE74C" stroke="#FFE74C" stroke-width="0.4"/>
<path d="M1319.96 248.616L1300.1 244.468L1299.93 244.178L1304.78 228.954L1305.17 228.884L1320.18 248.263L1319.96 248.616ZM1300.43 244.072L1319.45 248.051L1305.07 229.491L1300.43 244.072Z" fill="#FFE74C" stroke="#FFE74C" stroke-width="0.4"/>
<path d="M1305.16 229.173L1304.78 228.926L1323.95 181.935L1324.35 181.899L1334.74 197.97V198.252L1305.16 229.173ZM1324.22 182.506L1305.64 227.995L1334.26 198.069L1324.22 182.506Z" fill="#FFE74C" stroke="#FFE74C" stroke-width="0.4"/>
<path d="M1304.78 229.102L1286.54 186.415L1286.72 186.104L1324.14 181.801L1324.38 182.104L1305.21 229.102H1304.78ZM1287.07 186.52L1304.99 228.425L1323.81 182.288L1287.07 186.52Z" fill="#FFE74C" stroke="#FFE74C" stroke-width="0.4"/>
<path d="M1286.77 186.556L1286.52 186.33L1285.6 134.189L1286 134.041L1324.33 181.878L1324.19 182.245L1286.77 186.556ZM1286.06 134.845L1286.98 186.076L1323.73 181.843L1286.06 134.845Z" fill="#FFE74C" stroke="#FFE74C" stroke-width="0.4"/>
<path d="M1268.41 253.913L1236.77 240.51L1236.7 240.15L1255.63 218.689L1256.01 218.76L1268.72 253.603L1268.41 253.913ZM1237.24 240.234L1268.11 253.293L1255.72 219.296L1237.24 240.234Z" fill="#FFE74C" stroke="#FFE74C" stroke-width="0.4"/>
<path d="M1289.9 253.871H1289.59L1255.64 219.035L1255.92 218.683L1300.25 244.079L1300.29 244.446L1289.9 253.871ZM1257.09 219.861L1289.76 253.392L1299.76 244.284L1257.09 219.861Z" fill="#FFE74C" stroke="#FFE74C" stroke-width="0.4"/>
<path d="M1289.75 253.928H1268.5L1268.29 253.779L1255.58 218.936L1255.96 218.704L1289.91 253.547L1289.75 253.928ZM1268.66 253.476H1289.21L1256.37 219.776L1268.66 253.476Z" fill="#FFE74C" stroke="#FFE74C" stroke-width="0.4"/>
<path d="M1304.94 229.237L1255.75 219.085L1255.63 218.704L1286.58 186.175L1286.95 186.238L1305.2 228.926L1304.94 229.237ZM1256.22 218.725L1304.59 228.707L1286.64 186.732L1256.22 218.725Z" fill="#FFE74C" stroke="#FFE74C" stroke-width="0.4"/>
<path d="M1255.96 219.014L1255.58 218.824L1265.74 158.062L1266.15 157.97L1286.93 186.189V186.478L1255.96 219.014ZM1266.1 158.669L1256.15 218.175L1286.45 186.33L1266.1 158.669Z" fill="#FFE74C" stroke="#FFE74C" stroke-width="0.4"/>
<path d="M1266.14 158.245L1265.74 158.168L1251.98 111.55L1252.32 111.296L1285.93 134.005L1285.97 134.337L1266.14 158.245ZM1252.61 112.023L1266.06 157.631L1285.49 134.231L1252.61 112.023Z" fill="#FFE74C" stroke="#FFE74C" stroke-width="0.4"/>
<path d="M1285.87 134.407L1285.64 134.28L1273.74 108.883L1274.06 108.594L1312.5 130.28L1312.42 130.704L1285.87 134.407ZM1274.45 109.314L1285.98 133.935L1311.7 130.323L1274.45 109.314Z" fill="#FFE74C" stroke="#FFE74C" stroke-width="0.4"/>
<path d="M1239.27 159.162L1208.3 149.201L1208.22 148.813L1252.08 111.311L1252.45 111.536L1239.56 159.007L1239.27 159.162ZM1208.82 148.891L1239.18 158.662L1251.81 112.101L1208.82 148.891Z" fill="#FFE74C" stroke="#FFE74C" stroke-width="0.4"/>
<path d="M1187.9 205.744L1140.96 204.334L1140.82 203.938L1208.2 148.806L1208.56 149.06L1188.09 205.596L1187.9 205.744ZM1141.58 203.903L1187.75 205.314L1207.86 149.709L1141.58 203.903Z" fill="#FFE74C" stroke="#FFE74C" stroke-width="0.4"/>
<path d="M1255.58 218.923L1239.11 159.007L1239.32 158.725L1265.96 157.878L1266.19 158.139L1256.03 218.901L1255.58 218.923ZM1239.63 159.162L1255.75 217.815L1265.69 158.337L1239.63 159.162Z" fill="#FFE74C" stroke="#FFE74C" stroke-width="0.4"/>
<path d="M1224.19 213.624L1187.86 205.737L1187.73 205.377L1239.15 158.816L1239.52 159.042L1224.44 213.462L1224.19 213.624ZM1188.39 205.377L1224.08 213.137L1238.91 159.642L1188.39 205.377Z" fill="#FFE74C" stroke="#FFE74C" stroke-width="0.4"/>
<path d="M1237.03 240.468L1236.66 240.418L1224.04 213.498L1224.28 213.18L1255.84 218.64L1255.97 219.014L1237.03 240.468ZM1224.63 213.695L1236.92 239.91L1255.36 219.014L1224.63 213.695Z" fill="#FFE74C" stroke="#FFE74C" stroke-width="0.4"/>
<path d="M1149.29 250.922L1107.45 241.836L1107.33 241.462L1140.8 203.959L1141.19 204.072L1149.57 250.633L1149.29 250.922ZM1107.94 241.476L1149.07 250.407L1140.84 204.608L1107.94 241.476Z" fill="#FFE74C" stroke="#FFE74C" stroke-width="0.4"/>
<path d="M1195.69 266.838L1149.27 250.915L1149.17 250.556L1187.73 205.377L1188.12 205.497L1195.98 266.605L1195.69 266.838ZM1149.73 250.612L1195.5 266.294L1187.73 206.083L1149.73 250.612Z" fill="#FFE74C" stroke="#FFE74C" stroke-width="0.4"/>
<path d="M1195.88 266.817L1195.56 266.513L1224.04 213.293H1224.44L1237.07 240.214L1236.98 240.496L1195.88 266.817ZM1224.23 213.907L1196.36 265.963L1236.61 240.235L1224.23 213.907Z" fill="#FFE74C" stroke="#FFE74C" stroke-width="0.4"/>
<path d="M1137.36 274.69L1137.13 274.365L1149.13 250.598L1149.41 250.492L1195.83 266.408L1195.79 266.845L1137.36 274.69ZM1149.45 250.979L1137.73 274.189L1194.78 266.527L1149.45 250.979Z" fill="#FFE74C" stroke="#FFE74C" stroke-width="0.4"/>
<path d="M1137.17 274.619L1107.33 241.765L1107.55 241.392L1149.39 250.485L1149.54 250.803L1137.54 274.57L1137.17 274.619ZM1108.14 241.984L1137.28 274.076L1149.01 250.859L1108.14 241.984Z" fill="#FFE74C" stroke="#FFE74C" stroke-width="0.4"/>
<path d="M1203.78 290.633L1137.28 274.69V274.245L1195.71 266.4L1195.95 266.549L1204.02 290.337L1203.78 290.633ZM1138.56 274.513L1203.48 290.076L1195.6 266.852L1138.56 274.513Z" fill="#FFE74C" stroke="#FFE74C" stroke-width="0.4"/>
<path d="M1266.17 287.917L1195.69 266.838L1195.64 266.436L1236.74 240.129L1237.06 240.199L1266.43 287.586L1266.17 287.917ZM1196.27 266.549L1265.71 287.318L1236.76 240.637L1196.27 266.549Z" fill="#FFE74C" stroke="#FFE74C" stroke-width="0.4"/>
<path d="M1266.3 287.917L1266.01 287.684L1268.28 253.688L1268.57 253.49L1321.03 270.316V270.746L1266.3 287.917ZM1268.71 254.005L1266.48 287.388L1320.21 270.527L1268.71 254.005Z" fill="#FFE74C" stroke="#FFE74C" stroke-width="0.4"/>
<path d="M1320.85 270.732L1289.65 253.899L1289.6 253.533L1300 244.072H1300.33L1321.14 270.365L1320.85 270.732ZM1290.11 253.653L1320.07 269.815L1300.09 244.573L1290.11 253.653Z" fill="#FFE74C" stroke="#FFE74C" stroke-width="0.4"/>
<path d="M1341.71 275.268L1320.91 270.753L1320.73 270.541L1319.77 248.411L1320.17 248.263L1341.93 274.915L1341.71 275.268ZM1321.18 270.33L1341.18 274.668L1320.25 249.046L1321.18 270.33Z" fill="#FFE74C" stroke="#FFE74C" stroke-width="0.4"/>
<path d="M1358 256.291L1319.96 248.616L1319.81 248.277L1334.35 224.743H1334.73L1358.23 255.952L1358 256.291ZM1320.37 248.235L1357.51 255.734L1334.59 225.258L1320.37 248.235Z" fill="#FFE74C" stroke="#FFE74C" stroke-width="0.4"/>
<path d="M1366.57 235.501L1334.48 225.074L1334.4 224.686L1349.3 212.072H1349.63L1366.82 235.12L1366.57 235.501ZM1335 224.771L1366.03 234.852L1349.42 212.573L1335 224.771Z" fill="#FFE74C" stroke="#FFE74C" stroke-width="0.4"/>
<path d="M1087.2 310.965L1086.93 310.683L1107.28 241.547L1107.72 241.589L1114.7 303.974L1114.52 304.221L1087.2 310.965ZM1107.4 242.753L1087.46 310.436L1114.21 303.833L1107.4 242.753Z" fill="#FFE74C" stroke="#FFE74C" stroke-width="0.4"/>
<path d="M1046.12 404.919L1045.78 404.644L1086.94 310.654L1087.37 310.739L1089.99 376.672L1089.88 376.877L1046.12 404.919ZM1086.96 311.734L1046.51 404.136L1089.54 376.559L1086.96 311.734Z" fill="#FFE74C" stroke="#FFE74C" stroke-width="0.4"/>
<path d="M1010.8 485.37L1010.51 485.067L1045.81 404.644H1046.24L1065.06 465.427L1064.93 465.709L1010.8 485.37ZM1045.95 405.377L1011.14 484.742L1064.54 465.349L1045.95 405.377Z" fill="#FFE74C" stroke="#FFE74C" stroke-width="0.4"/>
<path d="M975.564 578.429L975.232 578.16L1010.54 485.081H1010.97L1024.88 546.457L1024.79 546.697L975.564 578.429ZM1010.66 485.942L975.896 577.653L1024.38 546.372L1010.66 485.942Z" fill="#FFE74C" stroke="#FFE74C" stroke-width="0.4"/>
<path d="M954.721 664.75L954.396 664.496L975.198 578.189L975.614 578.132L1009.56 637.3L1009.47 637.61L954.721 664.75ZM975.508 578.845L954.975 664.129L1009.09 637.314L975.508 578.845Z" fill="#FFE74C" stroke="#FFE74C" stroke-width="0.4"/>
<path d="M951.148 749.681L950.795 749.483L954.417 664.538L954.798 664.383L1005.4 712.467V712.813L951.148 749.681ZM954.841 665.025L951.268 749.025L1004.85 712.609L954.841 665.025Z" fill="#FFE74C" stroke="#FFE74C" stroke-width="0.4"/>
<path d="M936.144 777.73L935.896 777.398L950.823 749.384L951.106 749.286L993.541 765.716L993.506 766.146L936.144 777.73ZM951.127 749.779L936.525 777.194L992.659 765.857L951.127 749.779Z" fill="#FFE74C" stroke="#FFE74C" stroke-width="0.4"/>
<path d="M986.191 824.249L946.396 803.466L946.36 803.085L993.322 765.751L993.682 765.956L986.494 824.072L986.191 824.249ZM946.911 803.226L986.113 823.684L993.174 766.436L946.911 803.226Z" fill="#FFE74C" stroke="#FFE74C" stroke-width="0.4"/>
<path d="M986.325 824.27L986.135 823.889L1032.33 777.328L1032.71 777.441L1040.79 817.201L1040.6 817.476L986.325 824.27ZM1032.36 777.97L986.919 823.741L1040.3 817.074L1032.36 777.97Z" fill="#FFE74C" stroke="#FFE74C" stroke-width="0.4"/>
<path d="M1137.77 827.437L1040.55 817.497L1040.45 817.081L1096.8 782.81L1097.09 782.852L1137.96 827.056L1137.77 827.437ZM1041.26 817.116L1137.23 826.929L1096.88 783.289L1041.26 817.116Z" fill="#FFE74C" stroke="#FFE74C" stroke-width="0.4"/>
<path d="M1137.82 827.437L1137.65 827.035L1190.53 783.748H1190.81L1241.95 821.138L1241.83 821.54L1137.82 827.437ZM1190.69 784.213L1138.48 826.951L1241.17 821.145L1190.69 784.213Z" fill="#FFE74C" stroke="#FFE74C" stroke-width="0.4"/>
<path d="M1191.05 334.478L1160.08 317.123V316.728L1203.71 290.217L1204.05 290.478L1191.39 334.301L1191.05 334.478ZM1160.64 316.912L1191 333.906L1203.42 290.873L1160.64 316.912Z" fill="#FFE74C" stroke="#FFE74C" stroke-width="0.4"/>
<path d="M1179.7 395.854L1147.57 365.124V364.778L1191 334.048L1191.36 334.274L1180.06 395.727L1179.7 395.854ZM1148.08 364.99L1179.71 395.233L1190.84 334.739L1148.08 364.99Z" fill="#FFE74C" stroke="#FFE74C" stroke-width="0.4"/>
<path d="M1186.09 446.055L1149.78 427.776L1149.71 427.416L1179.69 395.536L1180.08 395.663L1186.44 445.822L1186.09 446.055ZM1150.25 427.508L1185.91 445.455L1179.69 396.199L1150.25 427.508Z" fill="#FFE74C" stroke="#FFE74C" stroke-width="0.4"/>
<path d="M1190.64 506.161L1147.65 491.092L1147.55 490.732L1186.02 445.688L1186.42 445.822L1190.94 505.914L1190.64 506.161ZM1148.11 490.789L1190.48 505.603L1186.02 446.4L1148.11 490.789Z" fill="#FFE74C" stroke="#FFE74C" stroke-width="0.4"/>
<path d="M1174.25 581.54L1143.85 541.561L1143.89 541.244L1190.55 505.766L1190.91 505.991L1174.63 581.476L1174.25 581.54ZM1144.35 541.469L1174.31 580.877L1190.36 506.492L1144.35 541.469Z" fill="#FFE74C" stroke="#FFE74C" stroke-width="0.4"/>
<path d="M1147.57 621.752L1117.06 578.372L1117.25 578.02L1174.45 581.18L1174.62 581.533L1147.95 621.744L1147.57 621.752ZM1117.69 578.492L1147.74 621.222L1174.02 581.61L1117.69 578.492Z" fill="#FFE74C" stroke="#FFE74C" stroke-width="0.4"/>
<path d="M1160.13 317.138L1114.41 304.221L1114.3 303.861L1137.16 274.33H1137.54L1160.4 316.842L1160.13 317.138ZM1114.85 303.875L1159.75 316.573L1137.3 274.894L1114.85 303.875Z" fill="#FFE74C" stroke="#FFE74C" stroke-width="0.4"/>
<path d="M1147.52 365.074L1114.3 304.143L1114.56 303.818L1160.28 316.743L1160.45 317.018L1147.97 365.06L1147.52 365.074ZM1114.92 304.369L1147.65 364.333L1159.92 317.067L1114.92 304.369Z" fill="#FFE74C" stroke="#FFE74C" stroke-width="0.4"/>
<path d="M1089.8 376.905L1089.55 376.609L1114.26 303.945L1114.68 303.91L1147.93 364.877L1147.78 365.201L1089.8 376.905ZM1114.51 304.566L1090.1 376.383L1147.38 364.813L1114.51 304.566Z" fill="#FFE74C" stroke="#FFE74C" stroke-width="0.4"/>
<path d="M1149.8 427.79L1113.01 415.198L1112.9 414.859L1147.54 364.841L1147.95 364.961L1150.07 427.564L1149.8 427.79ZM1113.44 414.901L1149.64 427.289L1147.52 365.695L1113.44 414.901Z" fill="#FFE74C" stroke="#FFE74C" stroke-width="0.4"/>
<path d="M1064.98 465.695L1064.6 465.476L1089.54 376.644L1089.95 376.587L1113.25 414.887V415.162L1064.98 465.695ZM1089.84 377.265L1065.28 464.743L1112.8 414.993L1089.84 377.265Z" fill="#FFE74C" stroke="#FFE74C" stroke-width="0.4"/>
<path d="M1147.65 491.092L1105.29 476.093L1105.19 475.734L1149.73 427.409L1150.12 427.564L1148 490.887L1147.65 491.092ZM1105.75 475.783L1147.48 490.577L1149.6 428.171L1105.75 475.783Z" fill="#FFE74C" stroke="#FFE74C" stroke-width="0.4"/>
<path d="M1105.29 476.115L1064.76 465.73L1064.66 465.356L1112.92 414.831L1113.31 415.014L1105.58 475.924L1105.29 476.115ZM1065.25 465.391L1105.16 475.614L1112.77 415.649L1065.25 465.391Z" fill="#FFE74C" stroke="#FFE74C" stroke-width="0.4"/>
<path d="M1143.84 541.54L1105.15 476.009L1105.42 475.684L1147.79 490.683L1147.93 490.908L1144.24 541.441L1143.84 541.54ZM1105.86 476.319L1143.86 540.686L1147.49 491.049L1105.86 476.319Z" fill="#FFE74C" stroke="#FFE74C" stroke-width="0.4"/>
<path d="M1117.42 578.372H1117.06L1086.76 535.67L1086.96 535.317L1144.07 541.201L1144.23 541.561L1117.42 578.372ZM1087.39 535.818L1117.25 577.864L1143.62 541.617L1087.39 535.818Z" fill="#FFE74C" stroke="#FFE74C" stroke-width="0.4"/>
<path d="M1024.67 546.725L1024.43 546.4L1064.62 465.413L1065.03 465.448L1087.14 535.473L1086.96 535.762L1024.67 546.725ZM1064.77 466.118L1025.04 546.203L1086.63 535.367L1064.77 466.118Z" fill="#FFE74C" stroke="#FFE74C" stroke-width="0.4"/>
<path d="M1086.71 535.607L1064.6 465.582L1064.88 465.293L1105.41 475.677L1105.56 475.966L1087.14 535.607H1086.71ZM1065.16 465.836L1086.92 534.781L1105.06 476.058L1065.16 465.836Z" fill="#FFE74C" stroke="#FFE74C" stroke-width="0.4"/>
<path d="M1105.51 667.212H1105.16L1067.17 611.48L1067.39 611.127L1147.78 621.413L1147.91 621.787L1105.51 667.212ZM1067.83 611.628L1105.38 666.697L1147.28 621.787L1067.83 611.628Z" fill="#FFE74C" stroke="#FFE74C" stroke-width="0.4"/>
<path d="M1067.48 611.529L1067.14 611.282L1086.7 535.487L1087.1 535.409L1117.42 578.111L1117.37 578.429L1067.48 611.529ZM1087.02 536.044L1067.69 610.824L1116.89 578.182L1087.02 536.044Z" fill="#FFE74C" stroke="#FFE74C" stroke-width="0.4"/>
<path d="M1009.48 637.617L1009.17 637.37L1024.41 546.464L1024.83 546.379L1067.55 611.212L1067.45 611.543L1009.48 637.617ZM1024.76 547.106L1009.69 637.032L1067.02 611.24L1024.76 547.106Z" fill="#FFE74C" stroke="#FFE74C" stroke-width="0.4"/>
<path d="M1241.86 821.561L1241.63 821.201L1285.17 761.638L1285.49 761.589L1341.88 800.82L1341.8 801.229L1241.86 821.561ZM1285.42 762.083L1242.34 820.997L1341.2 800.891L1285.42 762.083Z" fill="#FFE74C" stroke="#FFE74C" stroke-width="0.4"/>
<path d="M1341.87 801.208L1341.55 800.926L1367.82 729.243L1368.14 729.116L1426.43 758.33V758.732L1341.87 801.208ZM1368.16 729.631L1342.17 800.545L1425.83 758.535L1368.16 729.631Z" fill="#FFE74C" stroke="#FFE74C" stroke-width="0.4"/>
<path d="M1426.38 758.753L1426.11 758.506L1431.7 706.838L1432.12 706.746L1459.08 750.732L1458.94 751.071L1426.38 758.753ZM1432.08 707.543L1426.59 758.238L1458.54 750.704L1432.08 707.543Z" fill="#FFE74C" stroke="#FFE74C" stroke-width="0.4"/>
<path d="M1498.13 771.868L1458.79 751.085L1458.72 750.732L1500.88 703.974L1501.28 704.136L1498.46 771.677L1498.13 771.868ZM1459.25 750.824L1498.02 771.282L1500.8 704.721L1459.25 750.824Z" fill="#FFE74C" stroke="#FFE74C" stroke-width="0.4"/>
<path d="M1532.24 840.799L1498.04 771.734L1498.3 771.416L1574.27 791.296L1574.4 791.656L1532.24 840.799ZM1498.67 771.981L1532.24 840.799L1573.83 791.649L1498.67 771.981Z" fill="#FFE74C" stroke="#FFE74C" stroke-width="0.4"/>
<path d="M1498.41 771.79L1498.02 771.628L1500.84 704.079L1501.09 703.868L1559.33 708.601L1559.47 708.982L1498.41 771.79ZM1501.28 704.333L1498.5 771.049L1558.8 709.011L1501.28 704.333Z" fill="#FFE74C" stroke="#FFE74C" stroke-width="0.4"/>
<path d="M1559.48 708.947H1559.13L1522.95 646.415L1523.22 646.083L1585.18 667.05L1585.3 667.381L1559.48 708.947ZM1523.61 646.697L1559.3 708.39L1584.72 667.381L1523.61 646.697Z" fill="#FFE74C" stroke="#FFE74C" stroke-width="0.4"/>
<path d="M1585 667.459L1523.03 646.492L1522.9 646.189L1547.78 589.885H1548.19L1585.25 667.162L1585 667.459ZM1523.41 646.146L1584.63 666.859L1547.99 590.563L1523.41 646.146Z" fill="#FFE74C" stroke="#FFE74C" stroke-width="0.4"/>
<path d="M1548.11 590.175L1547.76 589.991L1548.17 519.275L1548.54 519.099L1595.61 556.827V557.187L1548.11 590.175ZM1548.62 519.741L1548.21 589.582L1595.1 557.018L1548.62 519.741Z" fill="#FFE74C" stroke="#FFE74C" stroke-width="0.4"/>
<path d="M1631.2 520.178L1548.4 519.473L1548.24 519.085L1584.92 483.811H1585.21L1631.34 519.79L1631.2 520.178ZM1548.95 519.056L1630.54 519.719L1585.08 484.27L1548.95 519.056Z" fill="#FFE74C" stroke="#FFE74C" stroke-width="0.4"/>
<path d="M1585.09 484.199L1584.87 483.875L1600.7 449.822L1601.06 449.758L1632.72 480.933L1632.57 481.321L1585.09 484.199ZM1600.97 450.302L1585.44 483.727L1632.04 480.905L1600.97 450.302Z" fill="#FFE74C" stroke="#FFE74C" stroke-width="0.4"/>
<path d="M1585.06 484.199L1505.78 482.471L1505.63 482.083L1546.47 442.076H1546.79L1585.24 483.811L1585.06 484.199ZM1506.33 482.026L1584.55 483.734L1546.62 442.555L1506.33 482.026Z" fill="#FFE74C" stroke="#FFE74C" stroke-width="0.4"/>
<path d="M1443.57 530.873L1443.22 530.633L1466.36 452.115L1466.72 451.995L1505.92 482.062V482.421L1443.57 530.873ZM1466.7 452.566L1443.85 530.104L1505.42 482.259L1466.7 452.566Z" fill="#FFE74C" stroke="#FFE74C" stroke-width="0.4"/>
<path d="M1443.33 530.901L1385.98 502.534V502.146L1415.38 480.912L1415.7 480.982L1443.66 530.584L1443.33 530.901ZM1386.51 502.295L1442.87 530.168L1415.4 481.427L1386.51 502.295Z" fill="#FFE74C" stroke="#FFE74C" stroke-width="0.4"/>
<path d="M1490.64 554.824L1490.3 554.584L1505.54 482.196L1505.91 482.069L1548.52 519.106V519.466L1490.64 554.824ZM1505.9 482.668L1490.84 554.168L1547.99 519.247L1505.9 482.668Z" fill="#FFE74C" stroke="#FFE74C" stroke-width="0.4"/>
<path d="M1474.7 620.192L1474.39 619.931L1490.33 554.57L1490.67 554.436L1548.11 589.794V590.189L1474.7 620.192ZM1490.7 554.979L1474.94 619.607L1547.49 589.977L1490.7 554.979Z" fill="#FFE74C" stroke="#FFE74C" stroke-width="0.4"/>
<path d="M1421.7 585.244L1421.4 584.947L1443.23 530.626L1443.54 530.506L1490.65 554.443V554.852L1421.7 585.244ZM1443.56 531.007L1422.03 584.623L1490.02 554.64L1443.56 531.007Z" fill="#FFE74C" stroke="#FFE74C" stroke-width="0.4"/>
<path d="M1349.75 561.963H1349.36L1318.5 502.436L1318.7 502.104H1386.08L1386.27 502.45L1349.75 561.963ZM1319.06 502.555L1349.57 561.384L1385.67 502.555H1319.06Z" fill="#FFE74C" stroke="#FFE74C" stroke-width="0.4"/>
<path d="M1271.69 588.016L1271.39 587.811L1268.72 522.203L1269.05 521.991L1349.66 561.638V562.055L1271.69 588.016ZM1269.19 522.584L1271.84 587.487L1348.97 561.801L1269.19 522.584Z" fill="#FFE74C" stroke="#FFE74C" stroke-width="0.4"/>
<path d="M1218.8 635.042L1218.42 634.859L1221.69 565.166L1222.01 564.968L1271.72 587.635L1271.77 588.009L1218.8 635.042ZM1222.16 565.483L1218.9 634.344L1271.24 587.861L1222.16 565.483Z" fill="#FFE74C" stroke="#FFE74C" stroke-width="0.4"/>
<path d="M1218.58 635.092L1147.71 621.843L1147.63 621.427L1199.64 590.697L1199.96 590.803L1218.83 634.781L1218.58 635.092ZM1148.38 621.504L1218.28 634.57L1199.68 591.219L1148.38 621.504Z" fill="#FFE74C" stroke="#FFE74C" stroke-width="0.4"/>
<path d="M1159.68 680.087L1105.31 667.282L1105.2 666.908L1147.57 621.469L1147.95 621.575L1159.96 679.818L1159.68 680.087ZM1105.78 666.93L1159.44 679.565L1147.62 622.097L1105.78 666.93Z" fill="#FFE74C" stroke="#FFE74C" stroke-width="0.4"/>
<path d="M1159.74 680.094L1159.6 679.684L1218.49 634.69L1218.82 634.774L1238.92 677.462L1238.72 677.787L1159.74 680.094ZM1218.54 635.219L1160.43 679.621L1238.36 677.335L1218.54 635.219Z" fill="#FFE74C" stroke="#FFE74C" stroke-width="0.4"/>
<path d="M1349.63 562.062L1349.37 561.73L1385.89 502.21L1386.18 502.125L1443.54 530.492V530.908L1349.63 562.062ZM1386.14 502.626L1350.05 561.434L1442.82 530.654L1386.14 502.626Z" fill="#FFE74C" stroke="#FFE74C" stroke-width="0.4"/>
<path d="M1005.35 712.827L1005.02 712.616L1009.17 637.399L1009.56 637.25L1055.95 685.222L1055.89 685.582L1005.35 712.827ZM1009.58 637.942L1005.48 712.242L1055.4 685.342L1009.58 637.942Z" fill="#FFE74C" stroke="#FFE74C" stroke-width="0.4"/>
<path d="M1055.86 685.617L1055.56 685.37L1067.14 611.296L1067.55 611.205L1105.53 666.937L1105.43 667.275L1055.86 685.617ZM1067.5 611.938L1056.07 685.095L1105 666.986L1067.5 611.938Z" fill="#FFE74C" stroke="#FFE74C" stroke-width="0.4"/>
<path d="M1032.42 777.723L993.393 766.146L993.237 765.878L1005.01 712.608H1005.45L1032.7 777.511L1032.42 777.723ZM993.725 765.772L1032.09 777.152L1005.3 713.37L993.725 765.772Z" fill="#FFE74C" stroke="#FFE74C" stroke-width="0.4"/>
<path d="M1096.9 783.226L1032.47 777.73L1032.33 777.349L1074.36 734.739L1074.72 734.803L1097.12 782.908L1096.9 783.226ZM1032.99 777.321L1096.54 782.746L1074.44 735.282L1032.99 777.321Z" fill="#FFE74C" stroke="#FFE74C" stroke-width="0.4"/>
<path d="M1074.45 735.113L1005.17 712.841L1005.13 712.432L1055.67 685.201L1055.99 685.321L1074.73 734.817L1074.45 735.113ZM1005.81 712.609L1074.14 734.57L1055.69 685.723L1005.81 712.609Z" fill="#FFE74C" stroke="#FFE74C" stroke-width="0.4"/>
<path d="M1074.64 735.085L1074.31 734.803L1105.12 666.965L1105.37 666.838L1159.74 679.642L1159.81 680.051L1074.64 735.085ZM1105.48 667.325L1075.04 734.288L1159.17 679.967L1105.48 667.325Z" fill="#FFE74C" stroke="#FFE74C" stroke-width="0.4"/>
<path d="M1190.67 784.15L1096.92 783.226L1096.79 782.824L1147.62 744.891H1147.91L1190.84 783.741L1190.67 784.15ZM1097.59 782.781L1190.09 783.691L1147.72 745.363L1097.59 782.781Z" fill="#FFE74C" stroke="#FFE74C" stroke-width="0.4"/>
<path d="M1190.73 784.143L1190.49 783.797L1229.18 726.81L1229.48 726.746L1285.48 761.582L1285.42 761.998L1190.73 784.143ZM1229.42 727.24L1191.19 783.572L1284.78 761.702L1229.42 727.24Z" fill="#FFE74C" stroke="#FFE74C" stroke-width="0.4"/>
<path d="M1147.72 745.293L1074.49 735.12L1074.4 734.704L1159.61 679.677L1159.96 679.903L1147.96 745.109L1147.72 745.293ZM1075.15 734.753L1147.57 744.813L1159.42 680.34L1075.15 734.753Z" fill="#FFE74C" stroke="#FFE74C" stroke-width="0.4"/>
<path d="M1147.8 745.286L1147.52 745.025L1159.53 679.825L1159.87 679.677L1229.49 726.718L1229.41 727.127L1147.8 745.286ZM1159.9 680.249L1148.03 744.771L1228.8 726.831L1159.9 680.249Z" fill="#FFE74C" stroke="#FFE74C" stroke-width="0.4"/>
<path d="M1285.44 761.991L1285.15 761.716L1306.05 696.764L1306.37 696.63L1368.14 729.123V729.533L1285.44 761.991ZM1306.39 697.159L1285.72 761.399L1367.49 729.293L1306.39 697.159Z" fill="#FFE74C" stroke="#FFE74C" stroke-width="0.4"/>
<path d="M1368.11 729.54L1367.82 729.279L1379.11 673.942L1379.46 673.794L1432.03 706.676L1431.99 707.078L1368.11 729.54ZM1379.51 674.351L1368.34 728.982L1431.41 706.81L1379.51 674.351Z" fill="#FFE74C" stroke="#FFE74C" stroke-width="0.4"/>
<path d="M1501.27 704.143H1500.84L1474.4 620.058L1474.72 619.79L1523.22 646.097L1523.32 646.372L1501.27 704.143ZM1474.99 620.425L1501.07 703.437L1522.83 646.436L1474.99 620.425Z" fill="#FFE74C" stroke="#FFE74C" stroke-width="0.4"/>
<path d="M1431.93 707.085L1431.71 706.803L1443.22 661.469L1443.57 661.342L1501.19 703.91L1501.06 704.319L1431.93 707.085ZM1443.57 661.935L1432.22 706.654L1500.4 703.917L1443.57 661.935Z" fill="#FFE74C" stroke="#FFE74C" stroke-width="0.4"/>
<path d="M1443.61 661.66L1443.22 661.582L1421.39 585.095L1421.74 584.848L1474.74 619.804L1474.79 620.129L1443.61 661.66ZM1422 585.561L1443.53 661.046L1474.29 620.065L1422 585.561Z" fill="#FFE74C" stroke="#FFE74C" stroke-width="0.4"/>
<path d="M1229.44 727.148L1229.14 726.894L1238.49 677.512L1238.78 677.335L1306.35 696.609V697.032L1229.44 727.148ZM1238.89 677.843L1229.66 726.577L1305.55 696.855L1238.89 677.843Z" fill="#FFE74C" stroke="#FFE74C" stroke-width="0.4"/>
<path d="M1306.35 697.039L1306.07 696.757L1323.01 639.134L1323.35 639.007L1379.47 673.787L1379.41 674.196L1306.35 697.039ZM1323.39 639.543L1306.62 696.482L1378.83 673.907L1323.39 639.543Z" fill="#FFE74C" stroke="#FFE74C" stroke-width="0.4"/>
<path d="M1379.4 674.203L1379.13 673.984V617.914L1379.48 617.723L1443.56 661.335L1443.48 661.744L1379.4 674.203ZM1379.58 618.344V673.709L1442.86 661.406L1379.58 618.344Z" fill="#FFE74C" stroke="#FFE74C" stroke-width="0.4"/>
<path d="M1379.49 618.076L1379.16 618.005L1349.36 561.935L1349.63 561.617L1421.65 584.806L1421.73 585.201L1379.49 618.076ZM1350.02 562.217L1379.42 617.554L1421.14 585.102L1350.02 562.217Z" fill="#FFE74C" stroke="#FFE74C" stroke-width="0.4"/>
<path d="M1323.08 639.36L1271.46 587.959L1271.55 587.586L1349.49 561.638L1349.77 561.928L1323.45 639.24L1323.08 639.36ZM1272.04 587.903L1323.13 638.781L1349.2 562.203L1272.04 587.903Z" fill="#FFE74C" stroke="#FFE74C" stroke-width="0.4"/>
<path d="M1379.23 674.175L1323.11 639.388L1323.16 638.986L1379.27 617.702L1379.58 617.914V673.984L1379.23 674.175ZM1323.74 639.24L1379.13 673.568V618.238L1323.74 639.24Z" fill="#FFE74C" stroke="#FFE74C" stroke-width="0.4"/>
<path d="M1323.23 639.423L1218.61 635.099L1218.47 634.704L1271.47 587.635H1271.75L1323.37 639.028L1323.23 639.423ZM1219.19 634.669L1322.66 638.951L1271.61 588.115L1219.19 634.669Z" fill="#FFE74C" stroke="#FFE74C" stroke-width="0.4"/>
<path d="M1306.2 697.039L1238.65 677.78V677.356L1323.18 638.993L1323.49 639.261L1306.54 696.891L1306.2 697.039ZM1239.36 677.511L1306.1 696.559L1322.88 639.621L1239.36 677.511Z" fill="#FFE74C" stroke="#FFE74C" stroke-width="0.4"/>
<path d="M1695.46 527.071L1643.51 479.24V478.908L1682.65 442.083L1683.03 442.217L1695.85 526.873L1695.46 527.071ZM1643.99 479.099L1695.3 526.33L1682.64 442.697L1643.99 479.099Z" fill="#FFE74C" stroke="#FFE74C" stroke-width="0.4"/>
<path d="M1607.29 570.725L1607.11 570.351L1650.07 519.127L1650.46 519.226L1661.19 568.023L1660.99 568.298L1607.29 570.725ZM1650.11 519.776L1607.75 570.252L1660.66 567.861L1650.11 519.776Z" fill="#FFE74C" stroke="#FFE74C" stroke-width="0.4"/>
<path d="M1631.08 634.372L1568.02 595.261L1568.14 594.845H1631.2L1631.43 595.07V634.182L1631.08 634.372ZM1568.94 595.296L1630.98 633.772V595.296H1568.94Z" fill="#FFE74C" stroke="#FFE74C" stroke-width="0.4"/>
<path d="M1592.15 682.831L1591.82 682.598L1604.64 607.148L1605 607.007L1656.61 646.111V646.492L1592.15 682.831ZM1605.02 607.593L1592.31 682.203L1656.03 646.266L1605.02 607.593Z" fill="#FFE74C" stroke="#FFE74C" stroke-width="0.4"/>
<path d="M1610.55 786.231L1567.94 713.568L1568.16 713.222L1607.3 716.34L1607.51 716.552L1610.97 786.118L1610.55 786.231ZM1568.56 713.695L1610.48 785.208L1607.07 716.778L1568.56 713.695Z" fill="#FFE74C" stroke="#FFE74C" stroke-width="0.4"/>
<path d="M1583.52 832.333L1583.16 832.129L1591.81 741.124H1592.26L1610.96 812.072L1610.88 812.312L1583.52 832.333ZM1592.15 742.407L1583.67 831.67L1610.5 811.981L1592.15 742.407Z" fill="#FFE74C" stroke="#FFE74C" stroke-width="0.4"/>
<path d="M1603.87 697.046L1603.7 696.637L1648.03 667.071L1648.38 667.303L1643.87 686.838L1643.71 687.007L1603.87 697.046ZM1647.81 667.762L1605.02 696.284L1643.45 686.605L1647.81 667.762Z" fill="#FFE74C" stroke="#FFE74C" stroke-width="0.4"/>
<path d="M1255.8 218.859L1240.02 225.787L1236.86 240.319L1268.5 253.702H1289.75L1300.14 244.242L1304.99 229.011L1286.75 186.33L1265.96 158.104L1228.3 168.933L1255.8 167.79L1252.65 186.175L1269.02 179.635L1275.89 191.402L1266.24 205.518L1284.21 199.021L1298.29 229.011L1291.59 240.016L1284.44 223.762L1281.67 243.317L1269.23 232.644L1274.97 241.61L1250.26 240.319L1248.74 226.859L1255.8 218.859Z" fill="#FFE74C"/>
<path d="M1285.82 134.182L1324.16 182.019L1334.55 198.097V224.862L1320 248.397L1300.14 244.242L1317.46 236.284L1325.54 218.859L1327.09 205.899L1314.46 213.399L1324.16 201.554L1312.37 201.328L1320.96 183.79L1294.83 183.557L1305.45 172.947L1292.29 148.982L1277.97 155.875L1281.9 142.012L1260.42 134.182H1285.82Z" fill="#FFE74C"/>
<path d="M1252.21 111.48L1273.93 108.771L1312.37 130.457L1358.04 159.826L1364.83 180.616L1349.45 212.242L1355.03 182.02L1349.45 166.252L1336.25 160.256L1339.02 153.568L1310.07 134.789L1307.3 142.013L1300.14 127.028L1273.93 115.953L1252.21 111.48Z" fill="#FFE74C"/>
<path d="M1285.83 134.182L1314.46 153.568L1345.25 182.019L1349.45 212.242L1334.55 224.862L1342 211.014V188.481L1334.55 179.522L1326.01 169.257L1312.37 155.409L1285.83 134.182Z" fill="#FFE74C"/>
<path d="M1320 248.397L1320.96 270.534L1341.76 275.049L1358.04 256.072L1366.64 235.289L1349.45 212.242L1358.04 235.289L1350.59 253.702L1337.79 240.467L1334.71 249.321L1343.32 257.385L1339.9 266.626L1327.62 262.584L1320 248.397Z" fill="#FFE74C"/>
<path d="M1252.22 111.48L1208.35 148.983L1140.96 204.108C1140.96 204.108 1105.38 241.152 1107.5 241.61C1109.61 242.069 1137.34 274.471 1137.34 274.471L1203.83 290.415L1266.24 287.699L1319.77 270.902L1274.27 276.178L1230.99 281.625L1187.92 279.776L1191.18 268.489L1227.41 257.406L1236.88 240.341L1211.71 250.725L1162.52 258.062L1140.98 251.875L1146.59 217.039L1180.3 196.446L1187.92 180.637L1225.79 146.203L1248.87 123.882L1252.22 111.48Z" fill="#FFE74C"/>
<path d="M1107.5 241.61L1087.15 310.746L1046 404.729L1010.69 485.152L975.388 578.238L954.644 664.545L951.021 749.49L936.095 777.512L946.502 803.268L986.297 824.058L1040.57 817.279L1137.8 827.219L1241.82 821.342L1341.76 801.011L1426.33 758.535L1458.89 750.859L1498.24 771.642L1532.24 840.778L1574.22 791.494L1559.29 708.806L1585.07 667.233L1547.99 589.97L1548.4 662.02L1540.68 727.96L1559.29 766.372L1531.75 786.125L1501.04 745.399L1520.44 716.101L1486.49 714.69L1496.42 682.619C1496.42 682.619 1492.5 640.623 1491.57 640.164C1490.65 639.706 1466.48 595.057 1466.48 595.057L1475.66 640.397L1466.48 701.639L1450 724.616L1433.84 692.312L1434.99 735.459L1399.97 747.917L1336.16 765.145L1280.97 740.122L1265.96 679.868L1260.58 746.358L1206.28 780.277L1113.08 791.565L1092.3 755.438L1074.52 726.944L1053.97 777.512L995.152 795.776L1001.46 778.393L978.163 786.238L956.239 768.242L1002.73 749.497L970.015 723.48L1002.73 648.369L995.342 578.245L1048.43 505.907L1075.67 373.222L1126.51 312.326L1107.52 284.157L1107.5 241.61Z" fill="#FFE74C"/>
<path d="M1203.83 290.415L1191.17 334.245L1179.87 395.691L1186.23 445.85L1190.75 505.949L1174.43 581.392L1147.75 621.603L1199.73 590.894L1221.92 565.166L1268.93 522.21L1318.68 502.33H1386.06L1415.46 481.095L1466.56 452.171L1546.61 442.224L1600.88 449.907L1666.03 429.504L1632.56 481.095L1631.21 519.952L1595.48 557.004L1547.99 589.991L1573.11 557.864L1607.29 522.21L1615.6 481.095V458.591L1556.02 472.439L1534.32 519.952C1534.32 519.952 1466.11 484.679 1466.5 484.559C1466.89 484.439 1419.31 526.887 1419.31 526.887L1431.94 639.198L1363.88 691.169L1398.06 607.219L1370.35 542.358L1274.32 550.457L1241.84 600.545L1231.81 653.815L1199.25 623.296L1147.78 657.392H1117.12L1080.56 706.88L1088.95 668.03L1115.48 628.658L1141.26 599.967L1159.73 565.166L1132.54 526.457L1168.04 470.619L1159.73 411.55L1162.04 340.369L1203.83 290.415Z" fill="#FFE74C"/>
<path d="M1532.24 840.799C1457.71 913.473 1360.96 959.096 1257.44 970.38C1153.91 981.664 1049.59 957.959 961.131 903.051C872.673 848.142 805.185 765.199 769.447 667.469C733.709 569.74 731.783 462.863 763.976 363.912C796.169 264.96 860.625 179.643 947.046 121.588C1033.47 63.5335 1136.87 36.0908 1240.73 43.6439C1344.6 51.197 1442.93 93.31 1520.03 163.256C1597.13 233.202 1648.54 326.945 1666.05 429.511L1706.87 416.989C1686.67 305.999 1630.08 204.881 1546.01 129.574C1461.95 54.2668 1355.19 9.05462 1242.56 1.0642C1129.94 -6.92622 1017.85 22.7596 923.98 85.442C830.106 148.124 759.78 240.239 724.089 347.264C688.398 454.289 689.371 570.138 726.855 676.55C764.34 782.962 836.203 873.883 931.117 934.983C1026.03 996.082 1138.6 1023.88 1251.07 1014.01C1363.55 1004.13 1469.53 957.131 1552.32 880.425L1532.24 840.799Z" fill="#FFE74C"/>
<circle cx="1322.45" cy="638.635" r="7.25626" fill="#FFE74C"/>
<ellipse cx="1086.62" cy="537.048" rx="7.25626" ry="7.25623" fill="#FFE74C"/>
<ellipse cx="1113.83" cy="415.506" rx="5.44217" ry="5.44215" fill="#FFE74C"/>
<ellipse cx="1146.49" cy="745.665" rx="5.44215" ry="5.44217" fill="#FFE74C"/>
<ellipse cx="1491.16" cy="553.374" rx="5.44217" ry="5.4422" fill="#FFE74C"/>
</g>
<defs>
<clipPath id="clip0_25_1105">
<rect width="1008.46" height="1015.87" fill="white" transform="translate(698.412 0.0864258)"/>
</clipPath>
</defs>
</svg>
