<svg width="2400" height="1547" viewBox="0 0 2400 1547" fill="none" xmlns="http://www.w3.org/2000/svg">
<path d="M166.591 1478.74C166.591 1404.87 57.521 1422.16 57.521 1383.81C57.521 1369.98 67.265 1363.38 80.1523 1363.7C94.6111 1364.01 104.669 1372.5 105.612 1386.64H163.762C161.562 1344.52 129.187 1320.63 81.0952 1320.63C34.8898 1320.63 0.628645 1343.89 0.628645 1385.7C0 1463.97 110.327 1441.96 110.327 1482.83C110.327 1495.71 100.269 1503.57 84.5528 1503.57C69.4653 1503.57 58.7783 1495.4 57.2067 1478.42H0C1.57161 1523.06 38.6617 1546.63 86.1244 1546.63C137.673 1546.63 166.591 1515.83 166.591 1478.74Z" fill="#1A1F29"/>
<path d="M187.724 1366.84H246.188V1544.43H299.937V1366.84H358.401V1323.78H187.724V1366.84Z" fill="#1A1F29"/>
<path d="M501.99 1395.44C501.99 1412.73 492.561 1423.1 472.444 1423.1H439.126V1368.41H472.444C492.561 1368.41 501.99 1379.1 501.99 1395.44ZM385.377 1323.78V1544.43H439.126V1461.14H452.013L497.904 1544.43H558.568L507.648 1457.05C541.595 1446.99 556.682 1420.9 556.682 1393.24C556.682 1354.9 529.651 1323.78 475.587 1323.78H385.377Z" fill="#1A1F29"/>
<path d="M807.62 1433.48C807.62 1367.15 757.643 1320.63 694.778 1320.63C632.228 1320.63 581.308 1367.15 581.308 1433.48C581.308 1499.8 632.228 1546.63 694.778 1546.63C757.328 1546.63 807.62 1499.8 807.62 1433.48ZM636.314 1433.48C636.314 1394.19 658.945 1369.35 694.778 1369.35C729.982 1369.35 752.928 1394.19 752.928 1433.48C752.928 1472.14 729.982 1497.6 694.778 1497.6C658.945 1497.6 636.314 1472.14 636.314 1433.48Z" fill="#1A1F29"/>
<path d="M981.168 1323.78V1460.51L891.271 1323.78H837.522V1544.43H891.271V1408.33L981.168 1544.43H1034.92V1323.78H981.168Z" fill="#1A1F29"/>
<path d="M1176.98 1321.26C1110.97 1321.26 1064.76 1367.78 1064.76 1433.79C1064.76 1499.8 1111.28 1546 1177.29 1546C1235.44 1546 1272.22 1507.97 1283.53 1469.94V1419.96H1166.6V1459.57H1234.81C1226.64 1484.4 1208.09 1498.54 1181.38 1498.54C1142.71 1498.54 1119.45 1474.65 1119.45 1433.79C1119.45 1395.44 1142.4 1370.93 1176.98 1370.93C1197.09 1370.93 1212.18 1378.78 1220.35 1393.56H1279.76C1268.13 1348.3 1229.78 1321.26 1176.98 1321.26Z" fill="#1A1F29"/>
<path d="M1450.66 1544.43H1504.41V1323.78H1450.66V1410.22H1367.05V1323.78H1313.3V1544.43H1367.05V1453.59H1450.66V1544.43Z" fill="#1A1F29"/>
<path d="M1693.77 1544.43H1750.67L1670.83 1323.78H1608.59L1528.75 1544.43H1585.02L1598.22 1505.46H1680.57L1693.77 1544.43ZM1666.74 1463.97H1612.36L1639.4 1383.18L1666.74 1463.97Z" fill="#1A1F29"/>
<path d="M1918.61 1323.78V1460.51L1828.71 1323.78H1774.96V1544.43H1828.71V1408.33L1918.61 1544.43H1972.36V1323.78H1918.61Z" fill="#1A1F29"/>
<path d="M2093.99 1323.78H2011.32V1544.43H2093.99C2164.4 1544.43 2209.66 1499.48 2209.66 1434.11C2209.66 1368.41 2164.4 1323.78 2093.99 1323.78ZM2065.07 1497.91V1369.67H2090.53C2131.08 1369.67 2154.97 1393.56 2154.97 1434.11C2154.97 1474.65 2131.08 1497.91 2090.53 1497.91H2065.07Z" fill="#1A1F29"/>
<path d="M2400 1478.74C2400 1404.87 2290.93 1422.16 2290.93 1383.81C2290.93 1369.98 2300.67 1363.38 2313.56 1363.7C2328.02 1364.01 2338.08 1372.5 2339.02 1386.64H2397.17C2394.97 1344.52 2362.6 1320.63 2314.5 1320.63C2268.3 1320.63 2234.04 1343.89 2234.04 1385.7C2233.41 1463.97 2343.74 1441.96 2343.74 1482.83C2343.74 1495.71 2333.68 1503.57 2317.96 1503.57C2302.87 1503.57 2292.19 1495.4 2290.62 1478.42H2233.41C2234.98 1523.06 2272.07 1546.63 2319.53 1546.63C2371.08 1546.63 2400 1515.83 2400 1478.74Z" fill="#1A1F29"/>
<g clip-path="url(#clip0_25_1258)">
<path d="M1532.24 840.712L1498.07 771.711L1458.87 750.998L1426.39 758.66L1341.87 801.122H1341.81L1241.87 821.453L1137.82 827.33L1040.57 817.39L986.326 824.162H986.192L946.397 803.379L946.291 803.259L935.891 777.503V777.312L950.789 749.347L954.411 664.451L975.198 578.102L1010.5 484.981L1045.81 404.557L1086.96 310.568L1107.31 241.432L1107.35 241.347L1140.82 203.845L1208.21 148.72L1252.07 111.224L1252.19 111.167L1273.9 108.458H1274.04L1312.48 130.145L1358.16 159.52L1358.26 159.64L1365.04 180.43V180.6L1349.72 212.106L1366.83 235.041V235.259L1358.26 256.085L1358.21 256.148L1341.94 275.132L1341.71 275.203L1320.97 270.702L1266.3 287.831H1266.25L1204 290.54L1191.38 334.208L1180.08 395.584L1186.44 445.672L1190.96 505.778V505.841L1174.68 581.326V581.404L1148.49 620.811L1199.61 590.603L1221.75 564.875L1268.8 521.933L1268.87 521.891L1318.62 502.003H1318.7H1386.01L1415.35 480.839L1466.47 451.915H1466.56L1546.6 441.975H1546.66L1600.88 449.651L1666.05 429.474L1632.78 481.129L1631.43 519.929L1631.36 520.078L1595.63 557.129L1548.28 590.039L1585.28 667.132V667.344L1559.55 708.839L1574.45 791.443L1574.41 791.626L1532.24 840.712ZM1458.87 750.54H1459.02L1498.36 771.33L1498.46 771.421L1532.26 840.691L1573.96 791.372L1559.05 708.783V708.621L1584.77 667.153L1547.73 590.003L1547.81 589.714L1595.3 556.734L1630.93 519.774L1632.28 480.973L1632.32 480.854L1666 429.397L1600.92 450.018H1600.82L1546.58 442.342L1466.63 452.31L1415.57 481.234L1386.2 502.455L1386.06 502.497H1318.74L1269.08 522.349L1222.07 565.22L1199.93 590.956L1199.87 591.005L1147.86 621.728L1147.56 621.411L1174.22 581.199L1190.48 505.82L1185.96 445.757L1179.61 395.612V395.548L1190.91 334.095L1203.57 290.243L1203.79 290.081L1266.16 287.372L1320.85 270.208H1320.97L1341.64 274.702L1357.81 255.852L1366.37 235.231L1349.26 212.289V212.056L1364.6 180.508L1357.87 159.887L1312.26 130.561L1273.87 108.917L1252.31 111.612L1208.5 149.065L1141.13 204.197L1107.72 241.637L1087.39 310.723L1046.22 404.734L1010.92 485.157L975.657 578.236L954.863 664.55L951.248 749.453V749.545L936.364 777.425L946.694 803.005L986.354 823.725L1040.55 816.952H1040.6L1137.84 826.892L1241.82 821.016L1341.71 800.698L1426.25 758.236H1426.29L1458.87 750.54Z" fill="#1A1F29"/>
<g opacity="0.5">
<path d="M1216.57 199.937L1162.08 236.085L1170.66 203.633L1216.57 199.937Z" fill="#7B8291"/>
<path d="M981.406 696.599L1004.88 743.485L1028.41 691.083L981.406 696.599Z" fill="#7B8291"/>
<path d="M1161 315.646L1122.9 375.505L1145.55 389.84L1161 315.646Z" fill="#7B8291"/>
<path d="M1574.6 555.859L1500.17 597.87L1522.83 555.859H1574.6Z" fill="#7B8291"/>
<path d="M1106.11 447.668L1087.4 500.226L1116.28 505.206L1106.11 447.668Z" fill="#7B8291"/>
<path d="M1039.55 554.949L1035.34 628.903L1080.53 590.61L1039.55 554.949Z" fill="#7B8291"/>
<path d="M1176.8 685.115L1131.65 730.561L1218.87 739.774L1176.8 685.115Z" fill="#7B8291"/>
<path d="M1306.78 577.594L1367.58 614.342L1296.64 622.01L1306.78 577.594Z" fill="#7B8291"/>
</g>
<path d="M1349.66 212.254L1349.23 212.191L1345.02 181.968L1345.24 181.707L1364.81 180.296L1365.03 180.621L1349.66 212.254ZM1345.51 182.145L1349.57 211.386L1364.46 180.783L1345.51 182.145Z" fill="#1A1F29" stroke="#1A1F29" stroke-width="0.4"/>
<path d="M1345.09 182.102L1314.31 153.644L1314.49 153.256L1358.07 159.52L1358.24 159.852L1345.45 182.046L1345.09 182.102ZM1315.15 153.792L1345.19 181.58L1357.67 159.915L1315.15 153.792Z" fill="#1A1F29" stroke="#1A1F29" stroke-width="0.4"/>
<path d="M1314.33 153.665L1285.7 134.286L1285.79 133.876L1312.33 130.145L1312.59 130.349L1314.71 153.46L1314.33 153.665ZM1286.44 134.236L1314.19 153.023L1312.16 130.631L1286.44 134.236Z" fill="#1A1F29" stroke="#1A1F29" stroke-width="0.4"/>
<path d="M1334.69 224.946L1334.33 224.72L1345.03 181.884H1345.48L1349.68 212.106L1349.6 212.311L1334.69 224.946ZM1345.19 183.125L1334.94 224.148L1349.21 212.064L1345.19 183.125Z" fill="#1A1F29" stroke="#1A1F29" stroke-width="0.4"/>
<path d="M1345.25 182.159H1324.16L1323.95 182.01L1314.25 153.552L1314.61 153.312L1345.41 181.771L1345.25 182.159ZM1324.32 181.707H1344.67L1314.96 154.25L1324.32 181.707Z" fill="#1A1F29" stroke="#1A1F29" stroke-width="0.4"/>
<path d="M1334.77 224.825L1334.33 224.776V198.011V197.884L1345.03 181.813L1345.43 181.989L1334.77 224.825ZM1334.77 198.081V222.928L1344.71 183.139L1334.77 198.081Z" fill="#1A1F29" stroke="#1A1F29" stroke-width="0.4"/>
<path d="M1334.74 198.138H1334.36L1324 182.06L1324.19 181.708H1345.29L1345.48 182.06L1334.74 198.138ZM1324.58 182.159L1334.55 197.595L1344.83 182.159H1324.58Z" fill="#1A1F29" stroke="#1A1F29" stroke-width="0.4"/>
<path d="M1324 182.074L1285.67 134.236L1285.97 133.912L1314.61 153.291L1314.7 153.404L1324.39 181.862L1324 182.074ZM1286.93 135.118L1323.53 180.79L1314.27 153.622L1286.93 135.118Z" fill="#1A1F29" stroke="#1A1F29" stroke-width="0.4"/>
<path d="M1319.82 248.444L1304.81 229.065L1304.96 228.705L1334.52 224.55L1334.74 224.896L1320.2 248.43L1319.82 248.444ZM1305.41 229.101L1319.98 247.915L1334.1 225.065L1305.41 229.101Z" fill="#1A1F29" stroke="#1A1F29" stroke-width="0.4"/>
<path d="M1319.96 248.529L1300.1 244.381L1299.93 244.092L1304.78 228.868L1305.17 228.797L1320.18 248.177L1319.96 248.529ZM1300.44 243.986L1319.45 247.965L1305.07 229.404L1300.44 243.986Z" fill="#1A1F29" stroke="#1A1F29" stroke-width="0.4"/>
<path d="M1305.16 229.086L1304.78 228.839L1323.95 181.848L1324.35 181.813L1334.74 197.884V198.166L1305.16 229.086ZM1324.22 182.42L1305.65 227.908L1334.26 197.982L1324.22 182.42Z" fill="#1A1F29" stroke="#1A1F29" stroke-width="0.4"/>
<path d="M1304.78 229.016L1286.54 186.328L1286.72 186.018L1324.15 181.714L1324.39 182.018L1305.22 229.016H1304.78ZM1287.08 186.434L1304.99 228.339L1323.81 182.201L1287.08 186.434Z" fill="#1A1F29" stroke="#1A1F29" stroke-width="0.4"/>
<path d="M1286.77 186.469L1286.52 186.243L1285.6 134.102L1286 133.954L1324.34 181.792L1324.19 182.159L1286.77 186.469ZM1286.07 134.758L1286.98 185.989L1323.74 181.757L1286.07 134.758Z" fill="#1A1F29" stroke="#1A1F29" stroke-width="0.4"/>
<path d="M1268.41 253.827L1236.77 240.423L1236.7 240.063L1255.63 218.603L1256.01 218.674L1268.72 253.517L1268.41 253.827ZM1237.24 240.148L1268.11 253.206L1255.72 219.21L1237.24 240.148Z" fill="#1A1F29" stroke="#1A1F29" stroke-width="0.4"/>
<path d="M1289.9 253.785H1289.59L1255.64 218.949L1255.92 218.596L1300.25 243.993L1300.29 244.36L1289.9 253.785ZM1257.09 219.774L1289.76 253.305L1299.76 244.198L1257.09 219.774Z" fill="#1A1F29" stroke="#1A1F29" stroke-width="0.4"/>
<path d="M1289.75 253.841H1268.51L1268.29 253.693L1255.58 218.85L1255.96 218.617L1289.91 253.46L1289.75 253.841ZM1268.66 253.39H1289.21L1256.37 219.69L1268.66 253.39Z" fill="#1A1F29" stroke="#1A1F29" stroke-width="0.4"/>
<path d="M1304.94 229.15L1255.75 218.998L1255.63 218.617L1286.58 186.088L1286.96 186.152L1305.2 228.84L1304.94 229.15ZM1256.22 218.639L1304.59 228.621L1286.64 186.646L1256.22 218.639Z" fill="#1A1F29" stroke="#1A1F29" stroke-width="0.4"/>
<path d="M1255.97 218.928L1255.58 218.737L1265.74 157.976L1266.15 157.884L1286.93 186.102V186.392L1255.97 218.928ZM1266.1 158.582L1256.15 218.088L1286.45 186.244L1266.1 158.582Z" fill="#1A1F29" stroke="#1A1F29" stroke-width="0.4"/>
<path d="M1266.14 158.159L1265.74 158.081L1251.98 111.464L1252.32 111.21L1285.93 133.919L1285.97 134.251L1266.14 158.159ZM1252.61 111.937L1266.06 157.545L1285.49 134.145L1252.61 111.937Z" fill="#1A1F29" stroke="#1A1F29" stroke-width="0.4"/>
<path d="M1285.88 134.321L1285.64 134.194L1273.75 108.797L1274.06 108.508L1312.5 130.194L1312.42 130.617L1285.88 134.321ZM1274.45 109.227L1285.98 133.848L1311.7 130.236L1274.45 109.227Z" fill="#1A1F29" stroke="#1A1F29" stroke-width="0.4"/>
<path d="M1239.27 159.076L1208.3 149.115L1208.22 148.727L1252.08 111.224L1252.45 111.45L1239.56 158.921L1239.27 159.076ZM1208.82 148.804L1239.18 158.575L1251.81 112.014L1208.82 148.804Z" fill="#1A1F29" stroke="#1A1F29" stroke-width="0.4"/>
<path d="M1187.9 205.658L1140.96 204.247L1140.82 203.852L1208.21 148.72L1208.57 148.974L1188.09 205.51L1187.9 205.658ZM1141.58 203.817L1187.75 205.228L1207.86 149.623L1141.58 203.817Z" fill="#1A1F29" stroke="#1A1F29" stroke-width="0.4"/>
<path d="M1255.58 218.836L1239.11 158.921L1239.32 158.639L1265.96 157.792L1266.19 158.053L1256.03 218.815L1255.58 218.836ZM1239.63 159.076L1255.75 217.729L1265.7 158.251L1239.63 159.076Z" fill="#1A1F29" stroke="#1A1F29" stroke-width="0.4"/>
<path d="M1224.19 213.538L1187.86 205.651L1187.73 205.291L1239.15 158.73L1239.52 158.956L1224.45 213.375L1224.19 213.538ZM1188.39 205.291L1224.08 213.051L1238.91 159.555L1188.39 205.291Z" fill="#1A1F29" stroke="#1A1F29" stroke-width="0.4"/>
<path d="M1237.04 240.381L1236.66 240.332L1224.04 213.411L1224.28 213.094L1255.84 218.554L1255.97 218.928L1237.04 240.381ZM1224.63 213.609L1236.92 239.824L1255.37 218.928L1224.63 213.609Z" fill="#1A1F29" stroke="#1A1F29" stroke-width="0.4"/>
<path d="M1149.29 250.836L1107.46 241.75L1107.33 241.376L1140.8 203.873L1141.19 203.986L1149.57 250.547L1149.29 250.836ZM1107.94 241.39L1149.07 250.321L1140.84 204.522L1107.94 241.39Z" fill="#1A1F29" stroke="#1A1F29" stroke-width="0.4"/>
<path d="M1195.69 266.751L1149.27 250.829L1149.17 250.469L1187.73 205.291L1188.12 205.411L1195.98 266.518L1195.69 266.751ZM1149.73 250.526L1195.5 266.208L1187.73 205.996L1149.73 250.526Z" fill="#1A1F29" stroke="#1A1F29" stroke-width="0.4"/>
<path d="M1195.89 266.73L1195.56 266.427L1224.04 213.207H1224.45L1237.07 240.127L1236.99 240.409L1195.89 266.73ZM1224.23 213.82L1196.37 265.877L1236.61 240.148L1224.23 213.82Z" fill="#1A1F29" stroke="#1A1F29" stroke-width="0.4"/>
<path d="M1137.36 274.603L1137.13 274.279L1149.14 250.512L1149.41 250.406L1195.83 266.321L1195.79 266.758L1137.36 274.603ZM1149.45 250.893L1137.73 274.102L1194.78 266.441L1149.45 250.893Z" fill="#1A1F29" stroke="#1A1F29" stroke-width="0.4"/>
<path d="M1137.17 274.533L1107.33 241.679L1107.55 241.305L1149.39 250.399L1149.54 250.716L1137.54 274.483L1137.17 274.533ZM1108.14 241.898L1137.28 273.989L1149.01 250.773L1108.14 241.898Z" fill="#1A1F29" stroke="#1A1F29" stroke-width="0.4"/>
<path d="M1203.78 290.547L1137.28 274.603V274.159L1195.71 266.314L1195.96 266.462L1204.02 290.25L1203.78 290.547ZM1138.57 274.427L1203.48 289.989L1195.6 266.765L1138.57 274.427Z" fill="#1A1F29" stroke="#1A1F29" stroke-width="0.4"/>
<path d="M1266.18 287.831L1195.69 266.751L1195.64 266.349L1236.75 240.042L1237.06 240.113L1266.43 287.499L1266.18 287.831ZM1196.27 266.462L1265.71 287.231L1236.76 240.55L1196.27 266.462Z" fill="#1A1F29" stroke="#1A1F29" stroke-width="0.4"/>
<path d="M1266.3 287.831L1266.01 287.598L1268.28 253.601L1268.58 253.404L1321.03 270.229V270.66L1266.3 287.831ZM1268.71 253.919L1266.49 287.302L1320.21 270.441L1268.71 253.919Z" fill="#1A1F29" stroke="#1A1F29" stroke-width="0.4"/>
<path d="M1320.86 270.645L1289.65 253.813L1289.6 253.446L1300 243.986H1300.33L1321.14 270.279L1320.86 270.645ZM1290.11 253.566L1320.07 269.728L1300.09 244.487L1290.11 253.566Z" fill="#1A1F29" stroke="#1A1F29" stroke-width="0.4"/>
<path d="M1341.71 275.182L1320.91 270.667L1320.73 270.455L1319.77 248.324L1320.17 248.176L1341.93 274.829L1341.71 275.182ZM1321.18 270.243L1341.18 274.582L1320.25 248.959L1321.18 270.243Z" fill="#1A1F29" stroke="#1A1F29" stroke-width="0.4"/>
<path d="M1358 256.205L1319.96 248.529L1319.81 248.191L1334.35 224.656H1334.73L1358.23 255.866L1358 256.205ZM1320.37 248.148L1357.51 255.647L1334.6 225.171L1320.37 248.148Z" fill="#1A1F29" stroke="#1A1F29" stroke-width="0.4"/>
<path d="M1366.57 235.414L1334.48 224.988L1334.4 224.6L1349.3 211.986H1349.63L1366.82 235.033L1366.57 235.414ZM1335 224.684L1366.03 234.765L1349.42 212.487L1335 224.684Z" fill="#1A1F29" stroke="#1A1F29" stroke-width="0.4"/>
<path d="M1087.2 310.878L1086.93 310.596L1107.29 241.46L1107.72 241.503L1114.7 303.887L1114.52 304.134L1087.2 310.878ZM1107.4 242.667L1087.47 310.349L1114.21 303.746L1107.4 242.667Z" fill="#1A1F29" stroke="#1A1F29" stroke-width="0.4"/>
<path d="M1046.12 404.832L1045.79 404.557L1086.94 310.568L1087.37 310.653L1089.99 376.586L1089.88 376.79L1046.12 404.832ZM1086.96 311.647L1046.51 404.049L1089.54 376.473L1086.96 311.647Z" fill="#1A1F29" stroke="#1A1F29" stroke-width="0.4"/>
<path d="M1010.8 485.284L1010.51 484.98L1045.81 404.557H1046.24L1065.06 465.34L1064.93 465.622L1010.8 485.284ZM1045.96 405.291L1011.14 484.656L1064.54 465.263L1045.96 405.291Z" fill="#1A1F29" stroke="#1A1F29" stroke-width="0.4"/>
<path d="M975.565 578.342L975.233 578.074L1010.54 484.995H1010.97L1024.89 546.37L1024.79 546.61L975.565 578.342ZM1010.66 485.855L975.897 577.566L1024.38 546.286L1010.66 485.855Z" fill="#1A1F29" stroke="#1A1F29" stroke-width="0.4"/>
<path d="M954.722 664.663L954.397 664.409L975.199 578.102L975.615 578.046L1009.56 637.213L1009.47 637.524L954.722 664.663ZM975.509 578.758L954.976 664.042L1009.09 637.228L975.509 578.758Z" fill="#1A1F29" stroke="#1A1F29" stroke-width="0.4"/>
<path d="M951.149 749.594L950.796 749.397L954.418 664.452L954.799 664.296L1005.4 712.381V712.727L951.149 749.594ZM954.842 664.938L951.269 748.938L1004.85 712.522L954.842 664.938Z" fill="#1A1F29" stroke="#1A1F29" stroke-width="0.4"/>
<path d="M936.145 777.644L935.897 777.312L950.824 749.298L951.107 749.199L993.542 765.63L993.507 766.06L936.145 777.644ZM951.128 749.693L936.526 777.107L992.66 765.771L951.128 749.693Z" fill="#1A1F29" stroke="#1A1F29" stroke-width="0.4"/>
<path d="M986.192 824.162L946.397 803.379L946.361 802.998L993.323 765.665L993.683 765.87L986.495 823.986L986.192 824.162ZM946.912 803.139L986.114 823.598L993.175 766.349L946.912 803.139Z" fill="#1A1F29" stroke="#1A1F29" stroke-width="0.4"/>
<path d="M986.326 824.184L986.136 823.803L1032.33 777.242L1032.71 777.355L1040.79 817.115L1040.6 817.39L986.326 824.184ZM1032.36 777.884L986.919 823.654L1040.3 816.988L1032.36 777.884Z" fill="#1A1F29" stroke="#1A1F29" stroke-width="0.4"/>
<path d="M1137.77 827.351L1040.55 817.411L1040.45 816.995L1096.8 782.723L1097.09 782.766L1137.96 826.97L1137.77 827.351ZM1041.26 817.03L1137.23 826.843L1096.88 783.203L1041.26 817.03Z" fill="#1A1F29" stroke="#1A1F29" stroke-width="0.4"/>
<path d="M1137.82 827.351L1137.65 826.949L1190.53 783.661H1190.82L1241.95 821.051L1241.83 821.453L1137.82 827.351ZM1190.69 784.127L1138.48 826.864L1241.17 821.058L1190.69 784.127Z" fill="#1A1F29" stroke="#1A1F29" stroke-width="0.4"/>
<path d="M1191.05 334.391L1160.09 317.037V316.642L1203.71 290.13L1204.05 290.391L1191.39 334.215L1191.05 334.391ZM1160.64 316.825L1191.01 333.82L1203.43 290.786L1160.64 316.825Z" fill="#1A1F29" stroke="#1A1F29" stroke-width="0.4"/>
<path d="M1179.7 395.767L1147.57 365.037V364.692L1191.01 333.961L1191.36 334.187L1180.06 395.64L1179.7 395.767ZM1148.08 364.903L1179.72 395.147L1190.84 334.653L1148.08 364.903Z" fill="#1A1F29" stroke="#1A1F29" stroke-width="0.4"/>
<path d="M1186.09 445.968L1149.78 427.69L1149.71 427.33L1179.69 395.45L1180.08 395.577L1186.44 445.735L1186.09 445.968ZM1150.25 427.421L1185.91 445.369L1179.69 396.113L1150.25 427.421Z" fill="#1A1F29" stroke="#1A1F29" stroke-width="0.4"/>
<path d="M1190.64 506.074L1147.65 491.005L1147.55 490.646L1186.02 445.602L1186.42 445.736L1190.94 505.827L1190.64 506.074ZM1148.11 490.702L1190.48 505.517L1186.02 446.314L1148.11 490.702Z" fill="#1A1F29" stroke="#1A1F29" stroke-width="0.4"/>
<path d="M1174.25 581.453L1143.85 541.475L1143.9 541.157L1190.55 505.679L1190.91 505.905L1174.63 581.39L1174.25 581.453ZM1144.35 541.383L1174.31 580.79L1190.36 506.406L1144.35 541.383Z" fill="#1A1F29" stroke="#1A1F29" stroke-width="0.4"/>
<path d="M1147.57 621.665L1117.06 578.286L1117.26 577.933L1174.45 581.094L1174.62 581.446L1147.95 621.658L1147.57 621.665ZM1117.69 578.406L1147.74 621.136L1174.02 581.524L1117.69 578.406Z" fill="#1A1F29" stroke="#1A1F29" stroke-width="0.4"/>
<path d="M1160.14 317.051L1114.41 304.134L1114.3 303.774L1137.16 274.243H1137.54L1160.4 316.755L1160.14 317.051ZM1114.85 303.788L1159.75 316.487L1137.3 274.808L1114.85 303.788Z" fill="#1A1F29" stroke="#1A1F29" stroke-width="0.4"/>
<path d="M1147.53 364.988L1114.3 304.056L1114.56 303.732L1160.28 316.656L1160.45 316.931L1147.97 364.974L1147.53 364.988ZM1114.93 304.282L1147.65 364.247L1159.92 316.981L1114.93 304.282Z" fill="#1A1F29" stroke="#1A1F29" stroke-width="0.4"/>
<path d="M1089.8 376.818L1089.55 376.522L1114.26 303.859L1114.68 303.824L1147.93 364.79L1147.78 365.115L1089.8 376.818ZM1114.52 304.48L1090.1 376.296L1147.38 364.727L1114.52 304.48Z" fill="#1A1F29" stroke="#1A1F29" stroke-width="0.4"/>
<path d="M1149.81 427.704L1113.01 415.111L1112.9 414.772L1147.54 364.755L1147.96 364.875L1150.07 427.478L1149.81 427.704ZM1113.44 414.815L1149.64 427.203L1147.52 365.609L1113.44 414.815Z" fill="#1A1F29" stroke="#1A1F29" stroke-width="0.4"/>
<path d="M1064.98 465.609L1064.6 465.39L1089.54 376.557L1089.95 376.501L1113.25 414.801V415.076L1064.98 465.609ZM1089.84 377.178L1065.28 464.656L1112.8 414.907L1089.84 377.178Z" fill="#1A1F29" stroke="#1A1F29" stroke-width="0.4"/>
<path d="M1147.65 491.005L1105.29 476.007L1105.2 475.647L1149.73 427.323L1150.12 427.478L1148 490.801L1147.65 491.005ZM1105.75 475.697L1147.48 490.49L1149.6 428.085L1105.75 475.697Z" fill="#1A1F29" stroke="#1A1F29" stroke-width="0.4"/>
<path d="M1105.29 476.028L1064.77 465.644L1064.66 465.27L1112.92 414.744L1113.31 414.928L1105.58 475.838L1105.29 476.028ZM1065.25 465.305L1105.16 475.527L1112.77 415.562L1065.25 465.305Z" fill="#1A1F29" stroke="#1A1F29" stroke-width="0.4"/>
<path d="M1143.84 541.453L1105.15 475.922L1105.42 475.598L1147.79 490.596L1147.93 490.822L1144.24 541.354L1143.84 541.453ZM1105.86 476.233L1143.86 540.6L1147.49 490.963L1105.86 476.233Z" fill="#1A1F29" stroke="#1A1F29" stroke-width="0.4"/>
<path d="M1117.42 578.286H1117.06L1086.76 535.584L1086.96 535.231L1144.07 541.115L1144.23 541.474L1117.42 578.286ZM1087.4 535.732L1117.25 577.778L1143.62 541.531L1087.4 535.732Z" fill="#1A1F29" stroke="#1A1F29" stroke-width="0.4"/>
<path d="M1024.67 546.638L1024.43 546.314L1064.62 465.326L1065.03 465.361L1087.14 535.386L1086.96 535.675L1024.67 546.638ZM1064.77 466.032L1025.04 546.116L1086.63 535.28L1064.77 466.032Z" fill="#1A1F29" stroke="#1A1F29" stroke-width="0.4"/>
<path d="M1086.71 535.52L1064.6 465.496L1064.88 465.206L1105.41 475.591L1105.56 475.88L1087.14 535.52H1086.71ZM1065.16 465.749L1086.92 534.695L1105.06 475.972L1065.16 465.749Z" fill="#1A1F29" stroke="#1A1F29" stroke-width="0.4"/>
<path d="M1105.51 667.125H1105.16L1067.17 611.393L1067.39 611.041L1147.78 621.326L1147.91 621.7L1105.51 667.125ZM1067.83 611.541L1105.38 666.61L1147.29 621.7L1067.83 611.541Z" fill="#1A1F29" stroke="#1A1F29" stroke-width="0.4"/>
<path d="M1067.48 611.443L1067.14 611.196L1086.7 535.4L1087.11 535.323L1117.42 578.025L1117.37 578.342L1067.48 611.443ZM1087.02 535.958L1067.7 610.737L1116.9 578.095L1087.02 535.958Z" fill="#1A1F29" stroke="#1A1F29" stroke-width="0.4"/>
<path d="M1009.49 637.531L1009.17 637.284L1024.41 546.377L1024.83 546.293L1067.55 611.125L1067.45 611.457L1009.49 637.531ZM1024.77 547.019L1009.69 636.945L1067.02 611.153L1024.77 547.019Z" fill="#1A1F29" stroke="#1A1F29" stroke-width="0.4"/>
<path d="M1241.86 821.474L1241.63 821.115L1285.17 761.552L1285.49 761.503L1341.88 800.734L1341.8 801.143L1241.86 821.474ZM1285.42 761.997L1242.35 820.91L1341.2 800.804L1285.42 761.997Z" fill="#1A1F29" stroke="#1A1F29" stroke-width="0.4"/>
<path d="M1341.87 801.122L1341.55 800.84L1367.82 729.157L1368.14 729.03L1426.44 758.243V758.646L1341.87 801.122ZM1368.16 729.545L1342.17 800.459L1425.83 758.448L1368.16 729.545Z" fill="#1A1F29" stroke="#1A1F29" stroke-width="0.4"/>
<path d="M1426.39 758.667L1426.11 758.42L1431.7 706.751L1432.12 706.66L1459.08 750.646L1458.94 750.984L1426.39 758.667ZM1432.08 707.457L1426.59 758.152L1458.54 750.617L1432.08 707.457Z" fill="#1A1F29" stroke="#1A1F29" stroke-width="0.4"/>
<path d="M1498.13 771.781L1458.79 750.998L1458.72 750.646L1500.88 703.887L1501.28 704.049L1498.46 771.591L1498.13 771.781ZM1459.25 750.737L1498.03 771.196L1500.8 704.635L1459.25 750.737Z" fill="#1A1F29" stroke="#1A1F29" stroke-width="0.4"/>
<path d="M1532.24 840.713L1498.04 771.647L1498.3 771.33L1574.28 791.21L1574.4 791.57L1532.24 840.713ZM1498.67 771.894L1532.24 840.713L1573.83 791.563L1498.67 771.894Z" fill="#1A1F29" stroke="#1A1F29" stroke-width="0.4"/>
<path d="M1498.41 771.704L1498.02 771.541L1500.84 703.993L1501.09 703.781L1559.33 708.515L1559.47 708.896L1498.41 771.704ZM1501.28 704.247L1498.5 770.963L1558.81 708.924L1501.28 704.247Z" fill="#1A1F29" stroke="#1A1F29" stroke-width="0.4"/>
<path d="M1559.48 708.861H1559.13L1522.95 646.328L1523.22 645.997L1585.18 666.963L1585.3 667.295L1559.48 708.861ZM1523.61 646.61L1559.3 708.304L1584.72 667.295L1523.61 646.61Z" fill="#1A1F29" stroke="#1A1F29" stroke-width="0.4"/>
<path d="M1585 667.372L1523.03 646.406L1522.9 646.102L1547.78 589.799H1548.19L1585.25 667.076L1585 667.372ZM1523.42 646.06L1584.63 666.772L1547.99 590.476L1523.42 646.06Z" fill="#1A1F29" stroke="#1A1F29" stroke-width="0.4"/>
<path d="M1548.11 590.088L1547.76 589.905L1548.17 519.189L1548.54 519.012L1595.61 556.741V557.1L1548.11 590.088ZM1548.62 519.654L1548.21 589.495L1595.1 556.931L1548.62 519.654Z" fill="#1A1F29" stroke="#1A1F29" stroke-width="0.4"/>
<path d="M1631.2 520.092L1548.4 519.386L1548.24 518.998L1584.92 483.725H1585.21L1631.34 519.704L1631.2 520.092ZM1548.96 518.97L1630.54 519.633L1585.09 484.183L1548.96 518.97Z" fill="#1A1F29" stroke="#1A1F29" stroke-width="0.4"/>
<path d="M1585.09 484.113L1584.87 483.788L1600.7 449.735L1601.06 449.672L1632.72 480.846L1632.57 481.234L1585.09 484.113ZM1600.97 450.215L1585.44 483.64L1632.04 480.818L1600.97 450.215Z" fill="#1A1F29" stroke="#1A1F29" stroke-width="0.4"/>
<path d="M1585.06 484.113L1505.79 482.384L1505.63 481.996L1546.47 441.989H1546.79L1585.24 483.725L1585.06 484.113ZM1506.33 481.94L1584.55 483.647L1546.63 442.469L1506.33 481.94Z" fill="#1A1F29" stroke="#1A1F29" stroke-width="0.4"/>
<path d="M1443.57 530.786L1443.22 530.547L1466.36 452.028L1466.72 451.908L1505.93 481.975V482.335L1443.57 530.786ZM1466.7 452.48L1443.85 530.017L1505.42 482.173L1466.7 452.48Z" fill="#1A1F29" stroke="#1A1F29" stroke-width="0.4"/>
<path d="M1443.33 530.815L1385.98 502.448V502.06L1415.38 480.825L1415.7 480.896L1443.66 530.497L1443.33 530.815ZM1386.51 502.208L1442.87 530.081L1415.4 481.34L1386.51 502.208Z" fill="#1A1F29" stroke="#1A1F29" stroke-width="0.4"/>
<path d="M1490.64 554.737L1490.3 554.497L1505.54 482.109L1505.91 481.982L1548.52 519.019V519.379L1490.64 554.737ZM1505.91 482.582L1490.84 554.081L1547.99 519.161L1505.91 482.582Z" fill="#1A1F29" stroke="#1A1F29" stroke-width="0.4"/>
<path d="M1474.7 620.106L1474.39 619.845L1490.33 554.483L1490.67 554.349L1548.11 589.707V590.102L1474.7 620.106ZM1490.7 554.892L1474.94 619.52L1547.49 589.891L1490.7 554.892Z" fill="#1A1F29" stroke="#1A1F29" stroke-width="0.4"/>
<path d="M1421.7 585.157L1421.4 584.861L1443.23 530.54L1443.54 530.42L1490.65 554.356V554.766L1421.7 585.157ZM1443.56 530.921L1422.03 584.536L1490.02 554.554L1443.56 530.921Z" fill="#1A1F29" stroke="#1A1F29" stroke-width="0.4"/>
<path d="M1349.75 561.876H1349.36L1318.5 502.349L1318.7 502.018H1386.08L1386.27 502.363L1349.75 561.876ZM1319.06 502.469L1349.57 561.298L1385.67 502.469H1319.06Z" fill="#1A1F29" stroke="#1A1F29" stroke-width="0.4"/>
<path d="M1271.69 587.929L1271.39 587.725L1268.72 522.116L1269.05 521.905L1349.66 561.552V561.968L1271.69 587.929ZM1269.19 522.497L1271.84 587.4L1348.97 561.714L1269.19 522.497Z" fill="#1A1F29" stroke="#1A1F29" stroke-width="0.4"/>
<path d="M1218.8 634.956L1218.42 634.772L1221.69 565.079L1222.01 564.882L1271.72 587.549L1271.77 587.922L1218.8 634.956ZM1222.16 565.397L1218.9 634.257L1271.24 587.774L1222.16 565.397Z" fill="#1A1F29" stroke="#1A1F29" stroke-width="0.4"/>
<path d="M1218.58 635.005L1147.71 621.757L1147.63 621.34L1199.64 590.61L1199.97 590.716L1218.83 634.695L1218.58 635.005ZM1148.38 621.418L1218.28 634.483L1199.68 591.132L1148.38 621.418Z" fill="#1A1F29" stroke="#1A1F29" stroke-width="0.4"/>
<path d="M1159.68 680L1105.32 667.196L1105.2 666.822L1147.57 621.383L1147.96 621.489L1159.96 679.732L1159.68 680ZM1105.78 666.843L1159.44 679.478L1147.62 622.011L1105.78 666.843Z" fill="#1A1F29" stroke="#1A1F29" stroke-width="0.4"/>
<path d="M1159.74 680.007L1159.6 679.598L1218.49 634.603L1218.83 634.688L1238.92 677.376L1238.72 677.7L1159.74 680.007ZM1218.54 635.132L1160.43 679.534L1238.36 677.249L1218.54 635.132Z" fill="#1A1F29" stroke="#1A1F29" stroke-width="0.4"/>
<path d="M1349.63 561.975L1349.37 561.644L1385.89 502.123L1386.18 502.039L1443.54 530.406V530.822L1349.63 561.975ZM1386.14 502.54L1350.05 561.347L1442.82 530.568L1386.14 502.54Z" fill="#1A1F29" stroke="#1A1F29" stroke-width="0.4"/>
<path d="M1005.35 712.741L1005.02 712.529L1009.17 637.312L1009.56 637.164L1055.95 685.136L1055.89 685.496L1005.35 712.741ZM1009.58 637.855L1005.48 712.155L1055.4 685.256L1009.58 637.855Z" fill="#1A1F29" stroke="#1A1F29" stroke-width="0.4"/>
<path d="M1055.86 685.531L1055.56 685.284L1067.14 611.21L1067.55 611.118L1105.53 666.85L1105.43 667.189L1055.86 685.531ZM1067.5 611.852L1056.07 685.009L1105 666.899L1067.5 611.852Z" fill="#1A1F29" stroke="#1A1F29" stroke-width="0.4"/>
<path d="M1032.43 777.637L993.394 766.06L993.238 765.792L1005.02 712.522H1005.45L1032.7 777.425L1032.43 777.637ZM993.725 765.686L1032.09 777.065L1005.31 713.284L993.725 765.686Z" fill="#1A1F29" stroke="#1A1F29" stroke-width="0.4"/>
<path d="M1096.9 783.139L1032.47 777.644L1032.33 777.263L1074.36 734.653L1074.72 734.716L1097.12 782.822L1096.9 783.139ZM1032.99 777.235L1096.54 782.66L1074.44 735.196L1032.99 777.235Z" fill="#1A1F29" stroke="#1A1F29" stroke-width="0.4"/>
<path d="M1074.45 735.027L1005.17 712.755L1005.13 712.346L1055.67 685.115L1055.99 685.235L1074.73 734.73L1074.45 735.027ZM1005.81 712.522L1074.14 734.483L1055.69 685.637L1005.81 712.522Z" fill="#1A1F29" stroke="#1A1F29" stroke-width="0.4"/>
<path d="M1074.64 734.998L1074.31 734.716L1105.12 666.878L1105.37 666.751L1159.74 679.556L1159.81 679.965L1074.64 734.998ZM1105.48 667.238L1075.05 734.201L1159.17 679.88L1105.48 667.238Z" fill="#1A1F29" stroke="#1A1F29" stroke-width="0.4"/>
<path d="M1190.67 784.063L1096.92 783.139L1096.79 782.737L1147.62 744.804H1147.91L1190.84 783.654L1190.67 784.063ZM1097.59 782.695L1190.09 783.605L1147.72 745.277L1097.59 782.695Z" fill="#1A1F29" stroke="#1A1F29" stroke-width="0.4"/>
<path d="M1190.73 784.057L1190.49 783.711L1229.18 726.723L1229.48 726.66L1285.48 761.496L1285.42 761.912L1190.73 784.057ZM1229.42 727.153L1191.19 783.485L1284.78 761.616L1229.42 727.153Z" fill="#1A1F29" stroke="#1A1F29" stroke-width="0.4"/>
<path d="M1147.72 745.206L1074.49 735.034L1074.4 734.617L1159.61 679.591L1159.96 679.817L1147.96 745.023L1147.72 745.206ZM1075.15 734.667L1147.57 744.727L1159.42 680.254L1075.15 734.667Z" fill="#1A1F29" stroke="#1A1F29" stroke-width="0.4"/>
<path d="M1147.8 745.199L1147.53 744.938L1159.53 679.739L1159.87 679.591L1229.49 726.631L1229.41 727.041L1147.8 745.199ZM1159.9 680.162L1148.03 744.684L1228.8 726.744L1159.9 680.162Z" fill="#1A1F29" stroke="#1A1F29" stroke-width="0.4"/>
<path d="M1285.44 761.905L1285.15 761.63L1306.05 696.677L1306.37 696.543L1368.14 729.037V729.446L1285.44 761.905ZM1306.39 697.072L1285.72 761.312L1367.49 729.206L1306.39 697.072Z" fill="#1A1F29" stroke="#1A1F29" stroke-width="0.4"/>
<path d="M1368.11 729.453L1367.82 729.192L1379.11 673.855L1379.46 673.707L1432.03 706.589L1431.99 706.991L1368.11 729.453ZM1379.51 674.265L1368.34 728.896L1431.41 706.723L1379.51 674.265Z" fill="#1A1F29" stroke="#1A1F29" stroke-width="0.4"/>
<path d="M1501.27 704.056H1500.84L1474.4 619.972L1474.72 619.704L1523.22 646.01L1523.32 646.286L1501.27 704.056ZM1474.99 620.339L1501.08 703.351L1522.83 646.349L1474.99 620.339Z" fill="#1A1F29" stroke="#1A1F29" stroke-width="0.4"/>
<path d="M1431.94 706.998L1431.71 706.716L1443.22 661.383L1443.57 661.256L1501.19 703.824L1501.06 704.233L1431.94 706.998ZM1443.57 661.848L1432.22 706.568L1500.4 703.831L1443.57 661.848Z" fill="#1A1F29" stroke="#1A1F29" stroke-width="0.4"/>
<path d="M1443.62 661.573L1443.22 661.496L1421.39 585.009L1421.74 584.762L1474.74 619.718L1474.8 620.042L1443.62 661.573ZM1422 585.474L1443.53 660.96L1474.29 619.979L1422 585.474Z" fill="#1A1F29" stroke="#1A1F29" stroke-width="0.4"/>
<path d="M1229.45 727.062L1229.14 726.808L1238.49 677.425L1238.78 677.249L1306.35 696.522V696.945L1229.45 727.062ZM1238.89 677.757L1229.66 726.49L1305.55 696.769L1238.89 677.757Z" fill="#1A1F29" stroke="#1A1F29" stroke-width="0.4"/>
<path d="M1306.35 696.952L1306.07 696.67L1323.02 639.048L1323.35 638.921L1379.47 673.7L1379.41 674.109L1306.35 696.952ZM1323.39 639.457L1306.62 696.395L1378.83 673.82L1323.39 639.457Z" fill="#1A1F29" stroke="#1A1F29" stroke-width="0.4"/>
<path d="M1379.4 674.116L1379.13 673.898V617.827L1379.48 617.637L1443.57 661.249L1443.48 661.658L1379.4 674.116ZM1379.58 618.258V673.623L1442.86 661.319L1379.58 618.258Z" fill="#1A1F29" stroke="#1A1F29" stroke-width="0.4"/>
<path d="M1379.5 617.989L1379.16 617.919L1349.36 561.848L1349.63 561.531L1421.66 584.719L1421.73 585.115L1379.5 617.989ZM1350.02 562.13L1379.42 617.467L1421.14 585.016L1350.02 562.13Z" fill="#1A1F29" stroke="#1A1F29" stroke-width="0.4"/>
<path d="M1323.08 639.273L1271.46 587.873L1271.55 587.499L1349.49 561.552L1349.78 561.841L1323.45 639.153L1323.08 639.273ZM1272.04 587.817L1323.14 638.695L1349.2 562.116L1272.04 587.817Z" fill="#1A1F29" stroke="#1A1F29" stroke-width="0.4"/>
<path d="M1379.23 674.088L1323.11 639.302L1323.16 638.899L1379.27 617.615L1379.58 617.827V673.898L1379.23 674.088ZM1323.74 639.153L1379.13 673.482V618.152L1323.74 639.153Z" fill="#1A1F29" stroke="#1A1F29" stroke-width="0.4"/>
<path d="M1323.23 639.337L1218.61 635.012L1218.47 634.617L1271.47 587.549H1271.75L1323.37 638.942L1323.23 639.337ZM1219.19 634.582L1322.66 638.864L1271.61 588.028L1219.19 634.582Z" fill="#1A1F29" stroke="#1A1F29" stroke-width="0.4"/>
<path d="M1306.2 696.952L1238.65 677.693V677.27L1323.18 638.906L1323.49 639.175L1306.54 696.804L1306.2 696.952ZM1239.37 677.425L1306.1 696.473L1322.88 639.534L1239.37 677.425Z" fill="#1A1F29" stroke="#1A1F29" stroke-width="0.4"/>
<path d="M1695.46 526.984L1643.51 479.154V478.822L1682.65 441.997L1683.03 442.131L1695.85 526.787L1695.46 526.984ZM1643.99 479.012L1695.3 526.244L1682.64 442.61L1643.99 479.012Z" fill="#1A1F29" stroke="#1A1F29" stroke-width="0.4"/>
<path d="M1607.29 570.638L1607.11 570.265L1650.07 519.041L1650.46 519.139L1661.19 567.936L1660.99 568.212L1607.29 570.638ZM1650.12 519.69L1607.75 570.166L1660.66 567.774L1650.12 519.69Z" fill="#1A1F29" stroke="#1A1F29" stroke-width="0.4"/>
<path d="M1631.08 634.286L1568.02 595.175L1568.14 594.758H1631.2L1631.43 594.984V634.095L1631.08 634.286ZM1568.94 595.21L1630.98 633.686V595.21H1568.94Z" fill="#1A1F29" stroke="#1A1F29" stroke-width="0.4"/>
<path d="M1592.15 682.744L1591.82 682.512L1604.64 607.062L1605 606.921L1656.61 646.025V646.406L1592.15 682.744ZM1605.03 607.506L1592.32 682.116L1656.03 646.18L1605.03 607.506Z" fill="#1A1F29" stroke="#1A1F29" stroke-width="0.4"/>
<path d="M1610.55 786.145L1567.94 713.481L1568.16 713.136L1607.3 716.254L1607.51 716.466L1610.97 786.032L1610.55 786.145ZM1568.56 713.608L1610.48 785.122L1607.07 716.691L1568.56 713.608Z" fill="#1A1F29" stroke="#1A1F29" stroke-width="0.4"/>
<path d="M1583.52 832.247L1583.16 832.042L1591.81 741.037H1592.26L1610.96 811.986L1610.88 812.226L1583.52 832.247ZM1592.15 742.321L1583.67 831.584L1610.5 811.894L1592.15 742.321Z" fill="#1A1F29" stroke="#1A1F29" stroke-width="0.4"/>
<path d="M1603.87 696.959L1603.7 696.55L1648.03 666.984L1648.38 667.217L1643.87 686.751L1643.71 686.921L1603.87 696.959ZM1647.81 667.675L1605.03 696.198L1643.45 686.519L1647.81 667.675Z" fill="#1A1F29" stroke="#1A1F29" stroke-width="0.4"/>
<path d="M1255.8 218.772L1240.02 225.7L1236.87 240.233L1268.51 253.615H1289.75L1300.14 244.155L1304.99 228.924L1286.75 186.243L1265.96 158.018L1228.3 168.847L1255.8 167.704L1252.65 186.088L1269.02 179.548L1275.89 191.316L1266.24 205.432L1284.21 198.935L1298.3 228.924L1291.59 239.929L1284.44 223.675L1281.67 243.231L1269.23 232.557L1274.97 241.524L1250.26 240.233L1248.74 226.772L1255.8 218.772Z" fill="#1A1F29"/>
<path d="M1285.83 134.095L1324.16 181.933L1334.55 198.011V224.776L1320 248.31L1300.15 244.155L1317.47 236.198L1325.54 218.772L1327.09 205.813L1314.46 213.312L1324.16 201.467L1312.37 201.242L1320.96 183.704L1294.84 183.471L1305.45 172.861L1292.29 148.896L1277.97 155.788L1281.9 141.926L1260.42 134.095H1285.83Z" fill="#1A1F29"/>
<path d="M1252.22 111.394L1273.93 108.685L1312.37 130.371L1358.04 159.739L1364.83 180.529L1349.45 212.155L1355.04 181.933L1349.45 166.166L1336.25 160.17L1339.02 153.482L1310.07 134.702L1307.31 141.926L1300.15 126.942L1273.93 115.866L1252.22 111.394Z" fill="#1A1F29"/>
<path d="M1285.83 134.095L1314.46 153.481L1345.25 181.933L1349.45 212.155L1334.55 224.776L1342 210.928V188.395L1334.55 179.436L1326.01 169.171L1312.37 155.323L1285.83 134.095Z" fill="#1A1F29"/>
<path d="M1320 248.31L1320.96 270.448L1341.76 274.963L1358.04 255.986L1366.64 235.203L1349.45 212.155L1358.04 235.203L1350.59 253.616L1337.79 240.381L1334.71 249.235L1343.32 257.298L1339.9 266.54L1327.63 262.497L1320 248.31Z" fill="#1A1F29"/>
<path d="M1252.22 111.394L1208.35 148.896L1140.97 204.021C1140.97 204.021 1105.38 241.066 1107.5 241.524C1109.62 241.983 1137.34 274.385 1137.34 274.385L1203.83 290.328L1266.24 287.612L1319.77 270.815L1274.27 276.092L1230.99 281.538L1187.92 279.69L1191.18 268.402L1227.41 257.319L1236.88 240.254L1211.71 250.639L1162.52 257.976L1140.98 251.789L1146.59 216.953L1180.3 196.36L1187.92 180.551L1225.79 146.117L1248.87 123.796L1252.22 111.394Z" fill="#1A1F29"/>
<path d="M1107.5 241.524L1087.15 310.66L1046 404.642L1010.69 485.065L975.389 578.152L954.645 664.459L951.022 749.404L936.096 777.425L946.503 803.182L986.298 823.972L1040.57 817.192L1137.8 827.132L1241.82 821.256L1341.76 800.924L1426.33 758.448L1458.89 750.773L1498.24 771.556L1532.24 840.691L1574.22 791.407L1559.29 708.72L1585.07 667.146L1547.99 589.884L1548.4 661.933L1540.68 727.873L1559.29 766.286L1531.76 786.039L1501.04 745.312L1520.44 716.014L1486.49 714.603L1496.42 682.533C1496.42 682.533 1492.5 640.536 1491.57 640.078C1490.65 639.619 1466.48 594.97 1466.48 594.97L1475.66 640.31L1466.48 701.552L1450.01 724.529L1433.84 692.226L1434.99 735.372L1399.97 747.831L1336.16 765.058L1280.98 740.035L1265.96 679.781L1260.58 746.272L1206.29 780.191L1113.08 791.478L1092.3 755.351L1074.52 726.857L1053.97 777.425L995.153 795.69L1001.46 778.307L978.164 786.152L956.24 768.155L1002.74 749.411L970.016 723.393L1002.74 648.282L995.343 578.159L1048.43 505.82L1075.67 373.136L1126.51 312.24L1107.53 284.071L1107.5 241.524Z" fill="#1A1F29"/>
<path d="M1203.83 290.328L1191.17 334.159L1179.87 395.605L1186.23 445.764L1190.75 505.863L1174.43 581.305L1147.75 621.517L1199.73 590.808L1221.92 565.079L1268.93 522.124L1318.68 502.243H1386.06L1415.46 481.009L1466.56 452.085L1546.61 442.138L1600.88 449.82L1666.03 429.418L1632.56 481.009L1631.21 519.866L1595.48 556.917L1548 589.905L1573.11 557.778L1607.29 522.124L1615.6 481.009V458.504L1556.02 472.353L1534.32 519.866C1534.32 519.866 1466.11 484.593 1466.5 484.473C1466.89 484.353 1419.31 526.801 1419.31 526.801L1431.94 639.111L1363.88 691.083L1398.07 607.132L1370.35 542.272L1274.32 550.37L1241.84 600.459L1231.81 653.728L1199.25 623.21L1147.78 657.305H1117.12L1080.56 706.794L1088.95 667.944L1115.48 628.571L1141.26 599.88L1159.73 565.079L1132.54 526.37L1168.04 470.533L1159.73 411.464L1162.04 340.282L1203.83 290.328Z" fill="#1A1F29"/>
<path d="M1532.24 840.712C1457.72 913.386 1360.96 959.009 1257.44 970.294C1153.91 981.578 1049.59 957.873 961.132 902.964C872.674 848.056 805.186 765.112 769.448 667.383C733.71 569.654 731.784 462.777 763.977 363.825C796.17 264.874 860.626 179.557 947.047 121.502C1033.47 63.447 1136.87 36.0044 1240.73 43.5575C1344.6 51.1105 1442.93 93.2236 1520.03 163.17C1597.13 233.115 1648.54 326.859 1666.05 429.425L1706.87 416.903C1686.67 305.913 1630.08 204.794 1546.02 129.487C1461.95 54.1803 1355.19 8.96819 1242.56 0.977772C1129.94 -7.01265 1017.85 22.6731 923.981 85.3556C830.107 148.038 759.781 240.152 724.09 347.177C688.399 454.203 689.372 570.052 726.856 676.464C764.341 782.875 836.204 873.797 931.118 934.896C1026.03 995.995 1138.6 1023.8 1251.07 1013.92C1363.55 1004.04 1469.53 957.045 1552.32 880.338L1532.24 840.712Z" fill="#1A1F29"/>
<ellipse cx="1322.45" cy="638.549" rx="7.25623" ry="7.25626" fill="#1A1F29"/>
<ellipse cx="1086.62" cy="536.961" rx="7.25624" ry="7.25623" fill="#1A1F29"/>
<ellipse cx="1113.83" cy="415.42" rx="5.44215" ry="5.44217" fill="#1A1F29"/>
<ellipse cx="1146.49" cy="745.578" rx="5.44215" ry="5.44217" fill="#1A1F29"/>
<ellipse cx="1491.16" cy="553.288" rx="5.44217" ry="5.4422" fill="#1A1F29"/>
</g>
<defs>
<clipPath id="clip0_25_1258">
<rect width="1008.46" height="1015.87" fill="white" transform="translate(698.413)"/>
</clipPath>
</defs>
</svg>
