<svg width="160" height="160" viewBox="0 0 160 160" fill="none" xmlns="http://www.w3.org/2000/svg">
<path d="M150.057 63.4015H150.039C149.607 61.5755 149.113 59.7724 148.539 58.0014H91.5411L103.83 21.1514L103.857 21.1624C106.327 22.1689 108.732 23.3299 111.056 24.6385L111.072 24.6475C111.844 25.0835 112.607 25.5345 113.359 26.0005H113.371C117.628 28.6513 121.558 31.7936 125.08 35.3628H136.45C133.78 31.9853 130.815 28.8522 127.59 26.0005C127.535 25.9515 127.477 25.9065 127.421 25.8575C126.754 25.2715 126.074 24.6978 125.381 24.1364C125.239 24.0204 125.097 23.9054 124.955 23.7914C123.392 22.5381 121.778 21.3497 120.112 20.2263L119.912 20.0923C119.138 19.575 118.354 19.073 117.559 18.5863C117.449 18.5193 117.339 18.4503 117.228 18.3863C115.498 17.3376 113.722 16.3609 111.9 15.4562L111.552 15.2872C110.738 14.8872 109.914 14.5035 109.081 14.1362L108.737 13.9822C106.894 13.1761 105.012 12.4488 103.09 11.8001C102.902 11.7374 102.715 11.6754 102.528 11.6141C101.698 11.3401 100.861 11.0808 100.018 10.8361C99.8848 10.7971 99.7528 10.7561 99.6178 10.7181C98.6459 10.4427 97.6656 10.1877 96.6769 9.95305C96.5329 9.91805 96.3859 9.88905 96.2419 9.85305C95.4153 9.66171 94.582 9.48537 93.742 9.32404C93.4887 9.2747 93.235 9.22703 92.981 9.18103C92.1191 9.0217 91.2501 8.87802 90.3741 8.75002C90.2501 8.73202 90.1271 8.71002 90.0031 8.69302C89.0132 8.55502 88.0162 8.44101 87.0133 8.34401C86.7593 8.31901 86.5043 8.30001 86.2493 8.27801C85.4753 8.21134 84.6977 8.157 83.9164 8.115C83.6284 8.1 83.3414 8.083 83.0514 8.071C82.0384 8.029 81.0215 8 79.9975 8C78.8015 8 77.6129 8.03 76.4316 8.09C76.0366 8.109 75.6477 8.147 75.2547 8.173C74.4707 8.22401 73.6877 8.27301 72.9117 8.35101C72.4428 8.39701 71.9788 8.46001 71.5118 8.51501C70.8198 8.60002 70.1278 8.67702 69.4429 8.77802C68.9429 8.85102 68.4539 8.93803 67.9599 9.02103C67.3139 9.13003 66.668 9.24003 66.027 9.36604C65.518 9.46604 65.014 9.57804 64.509 9.68905C63.8941 9.82405 63.2811 9.96205 62.6721 10.1131C62.1571 10.2401 61.6461 10.3751 61.1362 10.5131C60.5482 10.6731 59.9622 10.8381 59.3802 11.0131C58.8636 11.1671 58.3496 11.3268 57.8383 11.4921C57.275 11.6741 56.716 11.8631 56.1613 12.0591C55.6423 12.2411 55.1254 12.4251 54.6114 12.6191C54.0774 12.8191 53.5484 13.0321 53.0204 13.2461C52.4925 13.4602 51.9765 13.6682 51.4605 13.8912C50.9605 14.1072 50.4685 14.3352 49.9745 14.5622C49.4436 14.8072 48.9106 15.0482 48.3866 15.3042C47.9366 15.5252 47.4956 15.7592 47.0516 15.9882C46.4977 16.2742 45.9397 16.5552 45.3937 16.8552C45.0467 17.0463 44.7087 17.2553 44.3657 17.4463C41.9273 18.8344 39.5721 20.3637 37.312 22.0264L37.212 22.0954C36.512 22.6134 35.828 23.1524 35.1471 23.6954C34.9731 23.8344 34.7951 23.9674 34.6231 24.1074C33.9781 24.6315 33.3481 25.1745 32.7231 25.7205C32.5291 25.8895 32.3312 26.0545 32.1392 26.2205C31.5242 26.7685 30.9232 27.3315 30.3272 27.8996C30.1392 28.0796 29.9492 28.2566 29.7632 28.4386C29.1633 29.0186 28.5843 29.6126 28.0083 30.2136C27.8393 30.3896 27.6703 30.5656 27.5083 30.7436C26.9243 31.3656 26.3524 31.999 25.7924 32.6437C25.6514 32.8057 25.5104 32.9677 25.3714 33.1297C24.7941 33.8017 24.2274 34.4841 23.6715 35.1768C23.5715 35.3068 23.4665 35.4388 23.3635 35.5688C22.7855 36.3021 22.2212 37.0485 21.6705 37.8078L21.5125 38.0298C14.5598 47.6912 10.1262 58.9341 8.61298 70.7407V70.7407C8.34999 72.7898 8.16399 74.8579 8.077 76.9529C8.032 77.9639 8 78.979 8 80.002C8.00086 84.0716 8.34844 88.1337 9.03896 92.1443C9.06296 92.2863 9.09296 92.4253 9.11796 92.5664C9.23096 93.2024 9.34795 93.8364 9.47795 94.4664C9.57295 94.9304 9.67794 95.3904 9.77794 95.8514C9.84794 96.1564 9.91293 96.4635 9.98593 96.7675C10.1139 97.3015 10.2519 97.8315 10.3919 98.3605C10.4379 98.5345 10.4779 98.7095 10.5249 98.8835H10.5299C10.8149 99.9316 11.1149 100.975 11.4459 102.004H68.4439L56.1653 138.853L56.1453 138.845C53.671 137.836 51.2626 136.673 48.9346 135.362V135.362C48.1579 134.923 47.3926 134.47 46.6387 134.003H46.6267C39.2911 129.441 32.9547 123.441 27.9993 116.365H17.8797C21.7574 122.976 26.6603 128.93 32.4052 134.003V134.003C32.4632 134.055 32.5241 134.104 32.5821 134.153C33.2488 134.737 33.9258 135.308 34.6131 135.867C34.7544 135.983 34.8964 136.098 35.0391 136.212C36.601 137.465 38.2146 138.653 39.8799 139.776C39.9499 139.823 40.0209 139.868 40.0919 139.915C40.8632 140.431 41.6452 140.931 42.4378 141.415C42.5478 141.483 42.6578 141.551 42.7688 141.615C44.4974 142.663 46.273 143.64 48.0956 144.544C48.2116 144.602 48.3296 144.658 48.4466 144.715C49.2626 145.115 50.0865 145.499 50.9185 145.867L51.2585 146.019C53.1024 146.824 54.9857 147.551 56.9083 148.202C57.0953 148.266 57.2823 148.327 57.4703 148.389C58.3023 148.663 59.1406 148.923 59.9852 149.168C60.1162 149.206 60.2452 149.247 60.3762 149.284C61.3488 149.559 62.3291 149.814 63.3171 150.05C63.4641 150.085 63.6171 150.115 63.7601 150.15C64.5847 150.34 65.4143 150.516 66.249 150.677C66.503 150.726 66.758 150.777 67.0129 150.822C67.8796 150.979 68.7502 151.122 69.6249 151.25C69.7489 151.268 69.8719 151.29 69.9958 151.307C70.9858 151.445 71.9828 151.559 72.9847 151.656C73.2397 151.681 73.4957 151.7 73.7507 151.722C74.524 151.789 75.301 151.843 76.0816 151.885C76.3696 151.9 76.6576 151.917 76.9466 151.929C77.9606 151.971 78.9775 152 80.0015 152C81.2408 152 82.4724 151.969 83.6964 151.907C84.1164 151.885 84.5303 151.84 84.9483 151.812C85.7483 151.758 86.5483 151.712 87.3402 151.63C87.8722 151.576 88.3962 151.495 88.9252 151.43C89.5952 151.347 90.2681 151.276 90.9321 151.175C91.5161 151.086 92.0911 150.969 92.6701 150.866C93.27 150.76 93.87 150.666 94.464 150.546C95.087 150.419 95.7 150.264 96.3169 150.121C96.8559 149.996 97.3999 149.884 97.9339 149.747C98.5818 149.581 99.2168 149.388 99.8568 149.205C100.35 149.063 100.849 148.935 101.338 148.784C102.008 148.576 102.666 148.341 103.328 148.115C103.774 147.962 104.228 147.822 104.669 147.661C105.363 147.408 106.044 147.128 106.728 146.854C107.128 146.695 107.528 146.548 107.928 146.382C108.647 146.082 109.35 145.751 110.056 145.426C110.403 145.266 110.756 145.119 111.1 144.954C111.843 144.598 112.57 144.216 113.3 143.835C113.6 143.681 113.9 143.535 114.191 143.379C114.952 142.967 115.698 142.531 116.442 142.093C116.69 141.947 116.942 141.812 117.19 141.663C117.965 141.194 118.724 140.702 119.48 140.205C119.68 140.071 119.893 139.946 120.096 139.805C120.883 139.276 121.654 138.724 122.419 138.165C122.579 138.048 122.744 137.938 122.903 137.821C123.697 137.23 124.473 136.621 125.242 135.996C125.363 135.896 125.488 135.806 125.609 135.708C126.409 135.055 127.182 134.381 127.95 133.695C128.035 133.619 128.123 133.547 128.208 133.471C128.998 132.758 129.77 132.024 130.528 131.277C130.584 131.222 130.642 131.171 130.697 131.116C131.477 130.344 132.238 129.552 132.981 128.742C133.011 128.709 133.042 128.679 133.072 128.642C133.838 127.807 134.584 126.954 135.31 126.083L135.327 126.063C145.967 113.321 151.856 97.2807 151.988 80.68V80.68C151.988 80.449 152.004 80.222 152.004 79.991C152.002 74.4043 151.349 68.8369 150.057 63.4015V63.4015ZM18.0836 94.0024C18.0686 93.9374 18.0567 93.8724 18.0417 93.8074C17.8287 92.8584 17.6417 91.9003 17.4687 90.9373C17.4337 90.7373 17.3977 90.5373 17.3687 90.3423C17.1927 89.2923 17.0387 88.2342 16.9157 87.1672C16.9067 87.0892 16.9017 87.0112 16.8927 86.9332C16.7847 85.9652 16.7047 84.9891 16.6427 84.0091C16.6257 83.7421 16.6087 83.4741 16.5957 83.2091C16.5367 82.1441 16.4997 81.078 16.4997 80.002C16.4997 79.047 16.5297 78.1019 16.5717 77.1529C16.5877 76.8039 16.6087 76.4529 16.6307 76.1099C16.6657 75.5269 16.7117 74.9469 16.7637 74.3678C16.8007 73.9498 16.8337 73.5308 16.8797 73.1158C16.8927 72.9898 16.9127 72.8658 16.9277 72.7398C17.0037 72.0728 17.0847 71.4068 17.1817 70.7457C17.2967 69.9647 17.4347 69.1917 17.5817 68.4197C17.6217 68.2047 17.6557 67.9887 17.6977 67.7747C17.8357 67.0686 17.9977 66.3746 18.1546 65.6746C18.2186 65.4026 18.2776 65.1286 18.3446 64.8566C18.5076 64.1906 18.6866 63.5305 18.8716 62.8725C18.9536 62.5795 19.0356 62.2845 19.1216 61.9925C19.3116 61.3515 19.5136 60.7165 19.7216 60.0834C19.8216 59.7834 19.9216 59.4834 20.0216 59.1904C20.2389 58.5664 20.4649 57.9467 20.6996 57.3314C20.8122 57.0387 20.9276 56.747 21.0455 56.4563C21.2905 55.8433 21.5455 55.2333 21.8065 54.6293C21.9275 54.3523 22.0555 54.0793 22.1805 53.8043C22.4585 53.1933 22.7395 52.5842 23.0355 51.9832C23.1545 51.7422 23.2815 51.5052 23.4035 51.2662C23.7225 50.6402 24.0444 50.0142 24.3834 49.4001C24.4654 49.2511 24.5534 49.1071 24.6374 48.9601C25.8741 46.7601 27.2412 44.6359 28.7313 42.599C28.8043 42.499 28.8733 42.399 28.9473 42.299C29.3363 41.7729 29.7472 41.2609 30.1472 40.7469C30.3472 40.4969 30.5372 40.2469 30.7382 39.9949C31.1142 39.5329 31.5042 39.0819 31.8922 38.6299C32.1392 38.3438 32.3822 38.0558 32.6341 37.7748C33.0111 37.3518 33.3981 36.9388 33.7861 36.5258C34.0651 36.2258 34.3431 35.9338 34.6271 35.6438C35.0111 35.2508 35.402 34.8657 35.795 34.4837C36.1004 34.1877 36.408 33.8944 36.718 33.6037C37.1087 33.239 37.5043 32.8787 37.905 32.5227C38.2349 32.23 38.5683 31.941 38.9049 31.6557C39.3049 31.3166 39.7049 30.9806 40.1049 30.6556C40.4599 30.3686 40.8219 30.0886 41.1828 29.8086C41.5828 29.4956 41.9828 29.1826 42.3988 28.8806C42.7818 28.5976 43.1728 28.3256 43.5628 28.0516C43.9527 27.7775 44.3627 27.4805 44.7767 27.2065C45.2037 26.9205 45.6407 26.6485 46.0767 26.3735C46.4637 26.1275 46.8446 25.8735 47.2366 25.6385C47.8776 25.2505 48.5366 24.8805 49.1876 24.5155C49.6316 24.2675 50.0805 24.0274 50.5315 23.7904C51.1265 23.4774 51.7225 23.1634 52.3315 22.8684C52.6964 22.6914 53.0704 22.5284 53.4394 22.3574C53.9664 22.1134 54.4914 21.8684 55.0254 21.6394C55.4194 21.4704 55.8253 21.3134 56.2183 21.1514C56.7383 20.9414 57.2583 20.7304 57.7843 20.5333C58.1953 20.3793 58.6112 20.2333 59.0272 20.0893C59.5522 19.9053 60.0782 19.7233 60.6092 19.5523C61.0302 19.4173 61.4551 19.2893 61.8811 19.1623C62.4171 19.0023 62.9561 18.8473 63.4981 18.7013C63.9254 18.586 64.3544 18.4753 64.785 18.3693C65.337 18.236 65.892 18.1076 66.45 17.9843C66.878 17.8903 67.3069 17.7983 67.7379 17.7133C68.3129 17.6003 68.8919 17.5003 69.4719 17.4033C69.8938 17.3323 70.3158 17.2583 70.7408 17.1963C71.3488 17.1073 71.9618 17.0343 72.5748 16.9622C72.9747 16.9152 73.3807 16.8622 73.7867 16.8222C74.4677 16.7552 75.1537 16.7102 75.8406 16.6652C76.1856 16.6432 76.5276 16.6102 76.8736 16.5932C77.9096 16.5292 78.9505 16.5002 79.9975 16.5002C80.9205 16.5002 81.8364 16.5272 82.7504 16.5662C82.9597 16.5749 83.1687 16.5849 83.3774 16.5962C85.2393 16.6956 87.0793 16.8736 88.8972 17.1303L89.2862 17.1853C91.2034 17.4693 93.0917 17.8359 94.951 18.2853L94.983 18.2933C97.8371 18.989 100.639 19.8832 103.369 20.9694L40.3419 84.0021H100.34L74.1507 110.193L79.5475 94.0024H18.0836ZM143.479 80.691C143.334 95.3124 138.126 109.431 128.742 120.644L128.72 120.671C128.08 121.435 127.425 122.184 126.752 122.917L126.67 123.003C126.014 123.714 125.343 124.411 124.658 125.093C124.608 125.142 124.558 125.193 124.505 125.238C123.838 125.895 123.158 126.538 122.464 127.166C122.383 127.239 122.299 127.307 122.218 127.38C121.547 127.98 120.867 128.567 120.172 129.137C120.059 129.229 119.942 129.315 119.829 129.406C119.158 129.949 118.48 130.483 117.787 130.999C117.64 131.108 117.487 131.209 117.34 131.316C116.672 131.804 115.999 132.287 115.311 132.749C115.129 132.871 114.94 132.984 114.756 133.105C114.094 133.54 113.429 133.971 112.756 134.383C112.531 134.519 112.299 134.643 112.073 134.776C111.425 135.157 110.773 135.537 110.113 135.896C109.846 136.04 109.571 136.171 109.302 136.312C108.67 136.643 108.037 136.975 107.392 137.285C107.084 137.433 106.768 137.565 106.458 137.708C105.84 137.992 105.223 138.28 104.595 138.545C104.247 138.692 103.895 138.822 103.538 138.963C102.938 139.204 102.338 139.45 101.727 139.673C101.339 139.815 100.942 139.938 100.551 140.073C99.9658 140.273 99.3848 140.482 98.7918 140.665C98.3589 140.8 97.9159 140.914 97.4779 141.039C96.9179 141.2 96.3619 141.37 95.796 141.515C95.31 141.64 94.815 141.742 94.324 141.856C93.796 141.978 93.272 142.111 92.7401 142.22C92.2081 142.329 91.6541 142.415 91.1111 142.511C90.6111 142.599 90.1261 142.699 89.6282 142.775C89.0412 142.865 88.4462 142.928 87.8542 143.001C87.3912 143.059 86.9313 143.13 86.4643 143.177C85.8003 143.245 85.1273 143.284 84.4563 143.331C84.0564 143.358 83.6564 143.401 83.2564 143.422C82.1798 143.476 81.0961 143.503 80.0055 143.504C79.0825 143.504 78.1656 143.477 77.2516 143.438C77.0436 143.429 76.8346 143.419 76.6266 143.408C74.764 143.309 72.9237 143.131 71.1058 142.874L70.7168 142.819C68.7996 142.535 66.9113 142.168 65.052 141.719L65.02 141.711C62.1658 141.015 59.3638 140.121 56.6343 139.035L119.653 76.0019H59.6552L85.8443 49.8112L80.4475 66.0016H141.914C142.357 67.9417 142.693 69.9207 142.953 71.9238H142.943C143.167 73.6312 143.324 75.3579 143.412 77.1039C143.457 78.0659 143.495 79.029 143.495 80.004C143.495 80.235 143.477 80.462 143.475 80.693L143.479 80.691Z" fill="#4DED54"/>
</svg>
