<svg width="2400" height="1826" viewBox="0 0 2400 1826" fill="none" xmlns="http://www.w3.org/2000/svg">
<path d="M166.591 1478.74C166.591 1404.87 57.521 1422.16 57.521 1383.81C57.521 1369.98 67.265 1363.38 80.1523 1363.7C94.6111 1364.01 104.669 1372.5 105.612 1386.64H163.762C161.562 1344.52 129.187 1320.63 81.0952 1320.63C34.8898 1320.63 0.628645 1343.89 0.628645 1385.7C0 1463.97 110.327 1441.96 110.327 1482.83C110.327 1495.71 100.269 1503.57 84.5528 1503.57C69.4653 1503.57 58.7783 1495.4 57.2067 1478.42H0C1.57161 1523.06 38.6617 1546.63 86.1244 1546.63C137.673 1546.63 166.591 1515.83 166.591 1478.74Z" fill="#1A1F29"/>
<path d="M187.724 1366.84H246.188V1544.43H299.937V1366.84H358.401V1323.78H187.724V1366.84Z" fill="#1A1F29"/>
<path d="M501.99 1395.44C501.99 1412.73 492.561 1423.1 472.444 1423.1H439.126V1368.41H472.444C492.561 1368.41 501.99 1379.1 501.99 1395.44ZM385.377 1323.78V1544.43H439.126V1461.14H452.013L497.904 1544.43H558.568L507.648 1457.05C541.595 1446.99 556.682 1420.9 556.682 1393.24C556.682 1354.9 529.651 1323.78 475.587 1323.78H385.377Z" fill="#1A1F29"/>
<path d="M807.62 1433.48C807.62 1367.15 757.643 1320.63 694.778 1320.63C632.228 1320.63 581.308 1367.15 581.308 1433.48C581.308 1499.8 632.228 1546.63 694.778 1546.63C757.328 1546.63 807.62 1499.8 807.62 1433.48ZM636.314 1433.48C636.314 1394.19 658.945 1369.35 694.778 1369.35C729.982 1369.35 752.928 1394.19 752.928 1433.48C752.928 1472.14 729.982 1497.6 694.778 1497.6C658.945 1497.6 636.314 1472.14 636.314 1433.48Z" fill="#1A1F29"/>
<path d="M981.168 1323.78V1460.51L891.271 1323.78H837.522V1544.43H891.271V1408.33L981.168 1544.43H1034.92V1323.78H981.168Z" fill="#1A1F29"/>
<path d="M1176.98 1321.26C1110.97 1321.26 1064.76 1367.78 1064.76 1433.79C1064.76 1499.8 1111.28 1546 1177.29 1546C1235.44 1546 1272.22 1507.97 1283.53 1469.94V1419.96H1166.6V1459.57H1234.81C1226.64 1484.4 1208.09 1498.54 1181.38 1498.54C1142.71 1498.54 1119.45 1474.65 1119.45 1433.79C1119.45 1395.44 1142.4 1370.93 1176.98 1370.93C1197.09 1370.93 1212.18 1378.78 1220.35 1393.56H1279.76C1268.13 1348.3 1229.78 1321.26 1176.98 1321.26Z" fill="#1A1F29"/>
<path d="M1450.66 1544.43H1504.41V1323.78H1450.66V1410.22H1367.05V1323.78H1313.3V1544.43H1367.05V1453.59H1450.66V1544.43Z" fill="#1A1F29"/>
<path d="M1693.77 1544.43H1750.67L1670.83 1323.78H1608.59L1528.75 1544.43H1585.02L1598.22 1505.46H1680.57L1693.77 1544.43ZM1666.74 1463.97H1612.36L1639.4 1383.18L1666.74 1463.97Z" fill="#1A1F29"/>
<path d="M1918.61 1323.78V1460.51L1828.71 1323.78H1774.96V1544.43H1828.71V1408.33L1918.61 1544.43H1972.36V1323.78H1918.61Z" fill="#1A1F29"/>
<path d="M2093.99 1323.78H2011.32V1544.43H2093.99C2164.4 1544.43 2209.66 1499.48 2209.66 1434.11C2209.66 1368.41 2164.4 1323.78 2093.99 1323.78ZM2065.07 1497.91V1369.67H2090.53C2131.08 1369.67 2154.97 1393.56 2154.97 1434.11C2154.97 1474.65 2131.08 1497.91 2090.53 1497.91H2065.07Z" fill="#1A1F29"/>
<path d="M2400 1478.74C2400 1404.87 2290.93 1422.16 2290.93 1383.81C2290.93 1369.98 2300.67 1363.38 2313.56 1363.7C2328.02 1364.01 2338.08 1372.5 2339.02 1386.64H2397.17C2394.97 1344.52 2362.6 1320.63 2314.5 1320.63C2268.3 1320.63 2234.04 1343.89 2234.04 1385.7C2233.41 1463.97 2343.74 1441.96 2343.74 1482.83C2343.74 1495.71 2333.68 1503.57 2317.96 1503.57C2302.87 1503.57 2292.19 1495.4 2290.62 1478.42H2233.41C2234.98 1523.06 2272.07 1546.63 2319.53 1546.63C2371.08 1546.63 2400 1515.83 2400 1478.74Z" fill="#1A1F29"/>
<path d="M380.404 1702.9V1824.37H372.448V1719.52L325.771 1824.37H319.406L272.552 1719.52V1824.37H264.596V1702.9H273.082L322.588 1813.94L372.094 1702.9H380.404Z" fill="#1A1F29"/>
<path d="M568.404 1792.54H509.528L497.682 1824.37H489.018L534.634 1703.08H543.475L588.914 1824.37H580.25L568.404 1792.54ZM565.929 1785.83L539.055 1713.51L512.003 1785.83H565.929Z" fill="#1A1F29"/>
<path d="M733.18 1825.61C725.164 1825.61 718.151 1824.19 712.14 1821.36C706.128 1818.54 701.413 1814.7 697.995 1809.87C694.695 1805.04 692.809 1799.68 692.337 1793.78H700.647C701.59 1800.27 704.596 1806.04 709.664 1811.11C714.851 1816.18 722.689 1818.71 733.18 1818.71C739.309 1818.71 744.613 1817.59 749.092 1815.35C753.689 1813.11 757.225 1810.05 759.701 1806.16C762.176 1802.27 763.414 1797.97 763.414 1793.25C763.414 1787.24 761.94 1782.47 758.993 1778.93C756.165 1775.39 752.569 1772.74 748.208 1770.97C743.965 1769.21 738.189 1767.32 730.881 1765.32C722.866 1763.19 716.383 1761.07 711.432 1758.95C706.6 1756.83 702.474 1753.59 699.056 1749.23C695.756 1744.75 694.105 1738.68 694.105 1731.02C694.105 1725.12 695.638 1719.76 698.702 1714.93C701.885 1709.98 706.364 1706.09 712.14 1703.26C717.915 1700.43 724.575 1699.01 732.119 1699.01C743.081 1699.01 751.921 1701.72 758.64 1707.15C765.358 1712.57 769.366 1719.23 770.663 1727.13H762.176C761.469 1723.94 759.877 1720.7 757.402 1717.4C755.045 1714.1 751.627 1711.39 747.147 1709.27C742.786 1707.03 737.541 1705.91 731.412 1705.91C723.161 1705.91 716.206 1708.21 710.548 1712.8C704.891 1717.28 702.062 1723.3 702.062 1730.84C702.062 1736.85 703.535 1741.68 706.482 1745.34C709.429 1748.87 713.024 1751.58 717.267 1753.47C721.628 1755.24 727.463 1757.07 734.771 1758.95C742.904 1761.19 749.328 1763.37 754.043 1765.49C758.876 1767.5 762.942 1770.74 766.243 1775.22C769.661 1779.58 771.37 1785.53 771.37 1793.07C771.37 1798.61 769.897 1803.86 766.95 1808.81C764.003 1813.76 759.642 1817.83 753.866 1821.01C748.208 1824.08 741.313 1825.61 733.18 1825.61Z" fill="#1A1F29"/>
<path d="M952.192 1700.25V1706.97H916.831V1824.37H908.874V1706.97H873.513V1700.25H952.192Z" fill="#1A1F29"/>
<path d="M1067.49 1706.97V1758.77H1117V1765.49H1067.49V1817.65H1122.3V1824.37H1059.53V1700.25H1122.3V1706.97H1067.49Z" fill="#1A1F29"/>
<path d="M1301.8 1824.37L1269.97 1771.5H1242.74V1824.37H1234.79V1700.25H1268.91C1282.7 1700.25 1293.01 1703.49 1299.85 1709.98C1306.81 1716.46 1310.28 1725.06 1310.28 1735.79C1310.28 1745.34 1307.57 1753.23 1302.15 1759.48C1296.85 1765.61 1289.07 1769.38 1278.81 1770.8L1311.34 1824.37H1301.8ZM1242.74 1764.79H1269.26C1280.23 1764.79 1288.42 1762.13 1293.84 1756.83C1299.26 1751.53 1301.97 1744.51 1301.97 1735.79C1301.97 1716.81 1290.95 1707.32 1268.91 1707.32H1242.74V1764.79Z" fill="#1A1F29"/>
<path d="M1511.05 1824.37H1503.1L1430.25 1713.34V1824.37H1422.3V1700.43H1430.25L1503.1 1811.11V1700.43H1511.05V1824.37Z" fill="#1A1F29"/>
<path d="M1683.97 1825.78C1672.54 1825.78 1662.22 1823.13 1653.03 1817.83C1643.83 1812.41 1636.64 1804.86 1631.46 1795.2C1626.27 1785.53 1623.68 1774.63 1623.68 1762.49C1623.68 1750.23 1626.27 1739.33 1631.46 1729.78C1636.64 1720.11 1643.83 1712.63 1653.03 1707.32C1662.22 1701.9 1672.54 1699.19 1683.97 1699.19C1695.4 1699.19 1705.72 1701.9 1714.91 1707.32C1724.11 1712.63 1731.3 1720.11 1736.48 1729.78C1741.67 1739.33 1744.26 1750.23 1744.26 1762.49C1744.26 1774.63 1741.67 1785.53 1736.48 1795.2C1731.3 1804.86 1724.11 1812.41 1714.91 1817.83C1705.72 1823.13 1695.4 1825.78 1683.97 1825.78ZM1683.97 1818.71C1693.75 1818.71 1702.59 1816.41 1710.49 1811.82C1718.39 1807.22 1724.58 1800.68 1729.06 1792.19C1733.65 1783.7 1735.95 1773.8 1735.95 1762.49C1735.95 1751.05 1733.65 1741.09 1729.06 1732.61C1724.58 1724.12 1718.39 1717.58 1710.49 1712.98C1702.59 1708.38 1693.75 1706.09 1683.97 1706.09C1674.19 1706.09 1665.35 1708.38 1657.45 1712.98C1649.55 1717.58 1643.3 1724.12 1638.71 1732.61C1634.11 1741.09 1631.81 1751.05 1631.81 1762.49C1631.81 1773.8 1634.11 1783.7 1638.71 1792.19C1643.3 1800.68 1649.55 1807.22 1657.45 1811.82C1665.35 1816.41 1674.19 1818.71 1683.97 1818.71Z" fill="#1A1F29"/>
<path d="M1891.55 1700.25C1912.53 1700.25 1928.68 1705.73 1939.99 1716.69C1951.43 1727.66 1957.14 1742.92 1957.14 1762.49C1957.14 1782.05 1951.43 1797.26 1939.99 1808.1C1928.68 1818.95 1912.53 1824.37 1891.55 1824.37H1856.72V1700.25H1891.55ZM1891.55 1817.65C1910.29 1817.65 1924.55 1812.82 1934.33 1803.15C1944.12 1793.37 1949.01 1779.81 1949.01 1762.49C1949.01 1745.04 1944.12 1731.43 1934.33 1721.65C1924.55 1711.86 1910.29 1706.97 1891.55 1706.97H1864.67V1817.65H1891.55Z" fill="#1A1F29"/>
<path d="M2077.57 1706.97V1758.77H2127.07V1765.49H2077.57V1817.65H2132.38V1824.37H2069.61V1700.25H2132.38V1706.97H2077.57Z" fill="#1A1F29"/>
<g clip-path="url(#clip0_25_2639)">
<path d="M873.042 840.712L907.216 771.711L946.418 750.998L978.898 758.66L1063.42 801.122H1063.47L1163.42 821.453L1267.47 827.33L1364.72 817.39L1418.96 824.162H1419.09L1458.89 803.379L1458.99 803.259L1469.39 777.503V777.312L1454.5 749.347L1450.87 664.451L1430.09 578.102L1394.78 484.981L1359.48 404.557L1318.32 310.568L1297.98 241.432L1297.94 241.347L1264.47 203.845L1197.08 148.72L1153.22 111.224L1153.1 111.167L1131.38 108.458H1131.24L1092.8 130.145L1047.12 159.52L1047.03 159.64L1040.24 180.43V180.6L1055.56 212.106L1038.46 235.041V235.259L1047.03 256.085L1047.07 256.148L1063.35 275.132L1063.57 275.203L1084.32 270.702L1138.98 287.831H1139.04L1201.29 290.54L1213.9 334.208L1225.2 395.584L1218.85 445.672L1214.32 505.778V505.841L1230.6 581.326V581.404L1256.8 620.811L1205.67 590.603L1183.54 564.875L1136.48 521.933L1136.42 521.891L1086.67 502.003H1086.58H1019.27L989.934 480.839L938.813 451.915H938.729L858.68 441.975H858.623L804.403 449.651L739.232 429.474L772.502 481.129L773.858 519.929L773.921 520.078L809.649 557.129L857.007 590.039L820.008 667.132V667.344L845.737 708.839L830.832 791.443L830.874 791.626L873.042 840.712ZM946.418 750.54H946.263L906.92 771.33L906.821 771.421L873.02 840.691L831.326 791.372L846.232 708.783V708.621L820.516 667.153L857.55 590.003L857.473 589.714L809.988 556.734L774.352 519.774L773.004 480.973L772.961 480.854L739.281 429.397L804.368 450.018H804.467L858.701 442.342L938.651 452.31L989.715 481.234L1019.09 502.455L1019.22 502.497H1086.54L1136.21 522.349L1183.21 565.22L1205.35 590.956L1205.41 591.005L1257.42 621.728L1257.72 621.411L1231.06 581.199L1214.8 505.82L1219.32 445.757L1225.67 395.612V395.548L1214.38 334.095L1201.71 290.243L1201.5 290.081L1139.12 287.372L1084.43 270.208H1084.31L1063.64 274.702L1047.47 255.852L1038.92 235.231L1056.02 212.289V212.056L1040.69 180.508L1047.42 159.887L1093.02 130.561L1131.41 108.917L1152.98 111.612L1196.79 149.065L1264.16 204.197L1297.56 241.637L1317.9 310.723L1359.06 404.734L1394.37 485.157L1429.63 578.236L1450.42 664.55L1454.04 749.453V749.545L1468.92 777.425L1458.59 803.005L1418.93 823.725L1364.73 816.952H1364.68L1267.45 826.892L1163.47 821.016L1063.58 800.698L979.039 758.236H978.99L946.418 750.54Z" fill="#1A1F29"/>
<g opacity="0.5">
<path d="M1188.72 199.937L1243.2 236.085L1234.62 203.633L1188.72 199.937Z" fill="#7B8291"/>
<path d="M1423.88 696.599L1400.4 743.485L1376.88 691.083L1423.88 696.599Z" fill="#7B8291"/>
<path d="M1244.28 315.646L1282.38 375.505L1259.73 389.84L1244.28 315.646Z" fill="#7B8291"/>
<path d="M830.681 555.859L905.112 597.87L882.454 555.859H830.681Z" fill="#7B8291"/>
<path d="M1299.18 447.668L1317.89 500.226L1289 505.206L1299.18 447.668Z" fill="#7B8291"/>
<path d="M1365.73 554.949L1369.94 628.903L1324.75 590.61L1365.73 554.949Z" fill="#7B8291"/>
<path d="M1228.48 685.115L1273.63 730.561L1186.41 739.774L1228.48 685.115Z" fill="#7B8291"/>
<path d="M1098.5 577.594L1037.7 614.342L1108.64 622.01L1098.5 577.594Z" fill="#7B8291"/>
</g>
<path d="M1055.63 212.254L1056.06 212.191L1060.26 181.968L1060.05 181.707L1040.48 180.296L1040.25 180.621L1055.63 212.254ZM1059.77 182.145L1055.71 211.386L1040.83 180.783L1059.77 182.145Z" fill="#1A1F29" stroke="#1A1F29" stroke-width="0.4"/>
<path d="M1060.19 182.102L1090.97 153.644L1090.79 153.256L1047.21 159.52L1047.04 159.852L1059.84 182.046L1060.19 182.102ZM1090.13 153.792L1060.1 181.58L1047.61 159.915L1090.13 153.792Z" fill="#1A1F29" stroke="#1A1F29" stroke-width="0.4"/>
<path d="M1090.95 153.665L1119.58 134.286L1119.49 133.876L1092.95 130.145L1092.69 130.349L1090.57 153.46L1090.95 153.665ZM1118.84 134.236L1091.09 153.023L1093.12 130.631L1118.84 134.236Z" fill="#1A1F29" stroke="#1A1F29" stroke-width="0.4"/>
<path d="M1070.59 224.946L1070.95 224.72L1060.25 181.884H1059.81L1055.61 212.106L1055.68 212.311L1070.59 224.946ZM1060.1 183.125L1070.34 224.148L1056.07 212.064L1060.1 183.125Z" fill="#1A1F29" stroke="#1A1F29" stroke-width="0.4"/>
<path d="M1060.03 182.159H1081.12L1081.34 182.01L1091.04 153.552L1090.67 153.312L1059.88 181.771L1060.03 182.159ZM1080.96 181.707H1060.61L1090.32 154.25L1080.96 181.707Z" fill="#1A1F29" stroke="#1A1F29" stroke-width="0.4"/>
<path d="M1070.51 224.825L1070.96 224.776V198.011V197.884L1060.25 181.813L1059.85 181.989L1070.51 224.825ZM1070.51 198.081V222.928L1060.58 183.139L1070.51 198.081Z" fill="#1A1F29" stroke="#1A1F29" stroke-width="0.4"/>
<path d="M1070.55 198.138H1070.92L1081.28 182.06L1081.09 181.708H1060L1059.81 182.06L1070.55 198.138ZM1080.71 182.159L1070.73 197.595L1060.46 182.159H1080.71Z" fill="#1A1F29" stroke="#1A1F29" stroke-width="0.4"/>
<path d="M1081.28 182.074L1119.61 134.236L1119.31 133.912L1090.68 153.291L1090.59 153.404L1080.89 181.862L1081.28 182.074ZM1118.35 135.118L1081.75 180.79L1091.01 153.622L1118.35 135.118Z" fill="#1A1F29" stroke="#1A1F29" stroke-width="0.4"/>
<path d="M1085.46 248.444L1100.47 229.065L1100.32 228.705L1070.77 224.55L1070.54 224.896L1085.09 248.43L1085.46 248.444ZM1099.87 229.101L1085.31 247.915L1071.18 225.065L1099.87 229.101Z" fill="#1A1F29" stroke="#1A1F29" stroke-width="0.4"/>
<path d="M1085.33 248.529L1105.19 244.381L1105.36 244.092L1100.51 228.868L1100.11 228.797L1085.1 248.177L1085.33 248.529ZM1104.85 243.986L1085.83 247.965L1100.21 229.404L1104.85 243.986Z" fill="#1A1F29" stroke="#1A1F29" stroke-width="0.4"/>
<path d="M1100.13 229.086L1100.5 228.839L1081.34 181.848L1080.93 181.813L1070.54 197.884V198.166L1100.13 229.086ZM1081.06 182.42L1099.64 227.908L1071.03 197.982L1081.06 182.42Z" fill="#1A1F29" stroke="#1A1F29" stroke-width="0.4"/>
<path d="M1100.5 229.016L1118.75 186.328L1118.56 186.018L1081.14 181.714L1080.9 182.018L1100.07 229.016H1100.5ZM1118.21 186.434L1100.3 228.339L1081.48 182.201L1118.21 186.434Z" fill="#1A1F29" stroke="#1A1F29" stroke-width="0.4"/>
<path d="M1118.51 186.469L1118.76 186.243L1119.68 134.102L1119.28 133.954L1080.95 181.792L1081.1 182.159L1118.51 186.469ZM1119.22 134.758L1118.31 185.989L1081.55 181.757L1119.22 134.758Z" fill="#1A1F29" stroke="#1A1F29" stroke-width="0.4"/>
<path d="M1136.87 253.827L1168.51 240.423L1168.59 240.063L1149.65 218.603L1149.27 218.674L1136.56 253.517L1136.87 253.827ZM1168.04 240.148L1137.17 253.206L1149.57 219.21L1168.04 240.148Z" fill="#1A1F29" stroke="#1A1F29" stroke-width="0.4"/>
<path d="M1115.38 253.785H1115.7L1149.64 218.949L1149.37 218.596L1105.03 243.993L1104.99 244.36L1115.38 253.785ZM1148.2 219.774L1115.53 253.305L1105.52 244.198L1148.2 219.774Z" fill="#1A1F29" stroke="#1A1F29" stroke-width="0.4"/>
<path d="M1115.53 253.841H1136.78L1136.99 253.693L1149.7 218.85L1149.33 218.617L1115.38 253.46L1115.53 253.841ZM1136.62 253.39H1116.07L1148.91 219.69L1136.62 253.39Z" fill="#1A1F29" stroke="#1A1F29" stroke-width="0.4"/>
<path d="M1100.34 229.15L1149.54 218.998L1149.65 218.617L1118.7 186.088L1118.33 186.152L1100.08 228.84L1100.34 229.15ZM1149.06 218.639L1100.7 228.621L1118.64 186.646L1149.06 218.639Z" fill="#1A1F29" stroke="#1A1F29" stroke-width="0.4"/>
<path d="M1149.32 218.928L1149.71 218.737L1139.55 157.976L1139.14 157.884L1118.36 186.102V186.392L1149.32 218.928ZM1139.18 158.582L1149.14 218.088L1118.83 186.244L1139.18 158.582Z" fill="#1A1F29" stroke="#1A1F29" stroke-width="0.4"/>
<path d="M1139.14 158.159L1139.54 158.081L1153.3 111.464L1152.96 111.21L1119.35 133.919L1119.31 134.251L1139.14 158.159ZM1152.67 111.937L1139.22 157.545L1119.8 134.145L1152.67 111.937Z" fill="#1A1F29" stroke="#1A1F29" stroke-width="0.4"/>
<path d="M1119.41 134.321L1119.64 134.194L1131.54 108.797L1131.22 108.508L1092.78 130.194L1092.87 130.617L1119.41 134.321ZM1130.83 109.227L1119.3 133.848L1093.59 130.236L1130.83 109.227Z" fill="#1A1F29" stroke="#1A1F29" stroke-width="0.4"/>
<path d="M1166.01 159.076L1196.99 149.115L1197.06 148.727L1153.2 111.224L1152.83 111.45L1165.72 158.921L1166.01 159.076ZM1196.46 148.804L1166.1 158.575L1153.47 112.014L1196.46 148.804Z" fill="#1A1F29" stroke="#1A1F29" stroke-width="0.4"/>
<path d="M1217.39 205.658L1264.33 204.247L1264.46 203.852L1197.08 148.72L1196.72 148.974L1217.19 205.51L1217.39 205.658ZM1263.7 203.817L1217.53 205.228L1197.42 149.623L1263.7 203.817Z" fill="#1A1F29" stroke="#1A1F29" stroke-width="0.4"/>
<path d="M1149.7 218.836L1166.17 158.921L1165.96 158.639L1139.33 157.792L1139.09 158.053L1149.26 218.815L1149.7 218.836ZM1165.66 159.076L1149.54 217.729L1139.59 158.251L1165.66 159.076Z" fill="#1A1F29" stroke="#1A1F29" stroke-width="0.4"/>
<path d="M1181.09 213.538L1217.43 205.651L1217.55 205.291L1166.14 158.73L1165.76 158.956L1180.84 213.375L1181.09 213.538ZM1216.9 205.291L1181.21 213.051L1166.38 159.555L1216.9 205.291Z" fill="#1A1F29" stroke="#1A1F29" stroke-width="0.4"/>
<path d="M1168.25 240.381L1168.62 240.332L1181.25 213.411L1181 213.094L1149.45 218.554L1149.31 218.928L1168.25 240.381ZM1180.65 213.609L1168.36 239.824L1149.92 218.928L1180.65 213.609Z" fill="#1A1F29" stroke="#1A1F29" stroke-width="0.4"/>
<path d="M1255.99 250.836L1297.83 241.75L1297.96 241.376L1264.49 203.873L1264.09 203.986L1255.72 250.547L1255.99 250.836ZM1297.34 241.39L1256.21 250.321L1264.45 204.522L1297.34 241.39Z" fill="#1A1F29" stroke="#1A1F29" stroke-width="0.4"/>
<path d="M1209.6 266.751L1256.02 250.829L1256.11 250.469L1217.55 205.291L1217.16 205.411L1209.31 266.518L1209.6 266.751ZM1255.56 250.526L1209.79 266.208L1217.55 205.996L1255.56 250.526Z" fill="#1A1F29" stroke="#1A1F29" stroke-width="0.4"/>
<path d="M1209.4 266.73L1209.72 266.427L1181.24 213.207H1180.84L1168.21 240.127L1168.3 240.409L1209.4 266.73ZM1181.06 213.82L1208.92 265.877L1168.67 240.148L1181.06 213.82Z" fill="#1A1F29" stroke="#1A1F29" stroke-width="0.4"/>
<path d="M1267.92 274.603L1268.15 274.279L1256.15 250.512L1255.87 250.406L1209.46 266.321L1209.5 266.758L1267.92 274.603ZM1255.83 250.893L1267.55 274.102L1210.5 266.441L1255.83 250.893Z" fill="#1A1F29" stroke="#1A1F29" stroke-width="0.4"/>
<path d="M1268.12 274.533L1297.95 241.679L1297.74 241.305L1255.89 250.399L1255.74 250.716L1267.74 274.483L1268.12 274.533ZM1297.14 241.898L1268 273.989L1256.28 250.773L1297.14 241.898Z" fill="#1A1F29" stroke="#1A1F29" stroke-width="0.4"/>
<path d="M1201.5 290.547L1268 274.603V274.159L1209.58 266.314L1209.33 266.462L1201.26 290.25L1201.5 290.547ZM1266.72 274.427L1201.8 289.989L1209.68 266.765L1266.72 274.427Z" fill="#1A1F29" stroke="#1A1F29" stroke-width="0.4"/>
<path d="M1139.11 287.831L1209.59 266.751L1209.65 266.349L1168.54 240.042L1168.23 240.113L1138.85 287.499L1139.11 287.831ZM1209.01 266.462L1139.57 287.231L1168.52 240.55L1209.01 266.462Z" fill="#1A1F29" stroke="#1A1F29" stroke-width="0.4"/>
<path d="M1138.98 287.831L1139.27 287.598L1137 253.601L1136.71 253.404L1084.25 270.229V270.66L1138.98 287.831ZM1136.57 253.919L1138.8 287.302L1085.07 270.441L1136.57 253.919Z" fill="#1A1F29" stroke="#1A1F29" stroke-width="0.4"/>
<path d="M1084.43 270.645L1115.64 253.813L1115.69 253.446L1105.29 243.986H1104.95L1084.14 270.279L1084.43 270.645ZM1115.17 253.566L1085.21 269.728L1105.2 244.487L1115.17 253.566Z" fill="#1A1F29" stroke="#1A1F29" stroke-width="0.4"/>
<path d="M1063.57 275.182L1084.37 270.667L1084.55 270.455L1085.52 248.324L1085.11 248.176L1063.35 274.829L1063.57 275.182ZM1084.1 270.243L1064.11 274.582L1085.03 248.959L1084.1 270.243Z" fill="#1A1F29" stroke="#1A1F29" stroke-width="0.4"/>
<path d="M1047.28 256.205L1085.33 248.529L1085.47 248.191L1070.93 224.656H1070.55L1047.06 255.866L1047.28 256.205ZM1084.92 248.148L1047.78 255.647L1070.69 225.171L1084.92 248.148Z" fill="#1A1F29" stroke="#1A1F29" stroke-width="0.4"/>
<path d="M1038.72 235.414L1070.8 224.988L1070.88 224.6L1055.98 211.986H1055.65L1038.46 235.033L1038.72 235.414ZM1070.28 224.684L1039.25 234.765L1055.86 212.487L1070.28 224.684Z" fill="#1A1F29" stroke="#1A1F29" stroke-width="0.4"/>
<path d="M1318.08 310.878L1318.36 310.596L1298 241.46L1297.56 241.503L1290.59 303.887L1290.76 304.134L1318.08 310.878ZM1297.89 242.667L1317.82 310.349L1291.07 303.746L1297.89 242.667Z" fill="#1A1F29" stroke="#1A1F29" stroke-width="0.4"/>
<path d="M1359.17 404.832L1359.5 404.557L1318.34 310.568L1317.91 310.653L1315.3 376.586L1315.4 376.79L1359.17 404.832ZM1318.32 311.647L1358.77 404.049L1315.74 376.473L1318.32 311.647Z" fill="#1A1F29" stroke="#1A1F29" stroke-width="0.4"/>
<path d="M1394.48 485.284L1394.77 484.98L1359.47 404.557H1359.05L1340.22 465.34L1340.36 465.622L1394.48 485.284ZM1359.33 405.291L1394.15 484.656L1340.74 465.263L1359.33 405.291Z" fill="#1A1F29" stroke="#1A1F29" stroke-width="0.4"/>
<path d="M1429.72 578.342L1430.05 578.074L1394.75 484.995H1394.32L1380.4 546.37L1380.5 546.61L1429.72 578.342ZM1394.62 485.855L1429.39 577.566L1380.9 546.286L1394.62 485.855Z" fill="#1A1F29" stroke="#1A1F29" stroke-width="0.4"/>
<path d="M1450.56 664.663L1450.89 664.409L1430.09 578.102L1429.67 578.046L1395.72 637.213L1395.81 637.524L1450.56 664.663ZM1429.77 578.758L1450.31 664.042L1396.19 637.228L1429.77 578.758Z" fill="#1A1F29" stroke="#1A1F29" stroke-width="0.4"/>
<path d="M1454.14 749.594L1454.49 749.397L1450.87 664.452L1450.48 664.296L1399.89 712.381V712.727L1454.14 749.594ZM1450.44 664.938L1454.02 748.938L1400.43 712.522L1450.44 664.938Z" fill="#1A1F29" stroke="#1A1F29" stroke-width="0.4"/>
<path d="M1469.14 777.644L1469.39 777.312L1454.46 749.298L1454.18 749.199L1411.74 765.63L1411.78 766.06L1469.14 777.644ZM1454.16 749.693L1468.76 777.107L1412.62 765.771L1454.16 749.693Z" fill="#1A1F29" stroke="#1A1F29" stroke-width="0.4"/>
<path d="M1419.09 824.162L1458.89 803.379L1458.92 802.998L1411.96 765.665L1411.6 765.87L1418.79 823.986L1419.09 824.162ZM1458.37 803.139L1419.17 823.598L1412.11 766.349L1458.37 803.139Z" fill="#1A1F29" stroke="#1A1F29" stroke-width="0.4"/>
<path d="M1418.96 824.184L1419.15 823.803L1372.96 777.242L1372.58 777.355L1364.5 817.115L1364.69 817.39L1418.96 824.184ZM1372.93 777.884L1418.36 823.654L1364.98 816.988L1372.93 777.884Z" fill="#1A1F29" stroke="#1A1F29" stroke-width="0.4"/>
<path d="M1267.51 827.351L1364.74 817.411L1364.84 816.995L1308.48 782.723L1308.19 782.766L1267.32 826.97L1267.51 827.351ZM1364.02 817.03L1268.05 826.843L1308.41 783.203L1364.02 817.03Z" fill="#1A1F29" stroke="#1A1F29" stroke-width="0.4"/>
<path d="M1267.47 827.351L1267.63 826.949L1214.75 783.661H1214.47L1163.33 821.051L1163.45 821.453L1267.47 827.351ZM1214.6 784.127L1266.8 826.864L1164.11 821.058L1214.6 784.127Z" fill="#1A1F29" stroke="#1A1F29" stroke-width="0.4"/>
<path d="M1214.23 334.391L1245.2 317.037V316.642L1201.57 290.13L1201.23 290.391L1213.9 334.215L1214.23 334.391ZM1244.64 316.825L1214.28 333.82L1201.86 290.786L1244.64 316.825Z" fill="#1A1F29" stroke="#1A1F29" stroke-width="0.4"/>
<path d="M1225.58 395.767L1257.72 365.037V364.692L1214.28 333.961L1213.93 334.187L1225.22 395.64L1225.58 395.767ZM1257.2 364.903L1225.57 395.147L1214.44 334.653L1257.2 364.903Z" fill="#1A1F29" stroke="#1A1F29" stroke-width="0.4"/>
<path d="M1219.19 445.968L1255.51 427.69L1255.57 427.33L1225.59 395.45L1225.2 395.577L1218.85 445.735L1219.19 445.968ZM1255.03 427.421L1219.37 445.369L1225.59 396.113L1255.03 427.421Z" fill="#1A1F29" stroke="#1A1F29" stroke-width="0.4"/>
<path d="M1214.65 506.074L1257.63 491.005L1257.73 490.646L1219.26 445.602L1218.87 445.736L1214.34 505.827L1214.65 506.074ZM1257.17 490.702L1214.81 505.517L1219.26 446.314L1257.17 490.702Z" fill="#1A1F29" stroke="#1A1F29" stroke-width="0.4"/>
<path d="M1231.03 581.453L1261.43 541.475L1261.39 541.157L1214.73 505.679L1214.37 505.905L1230.65 581.39L1231.03 581.453ZM1260.94 541.383L1230.97 580.79L1214.92 506.406L1260.94 541.383Z" fill="#1A1F29" stroke="#1A1F29" stroke-width="0.4"/>
<path d="M1257.72 621.665L1288.23 578.286L1288.03 577.933L1230.84 581.094L1230.66 581.446L1257.34 621.658L1257.72 621.665ZM1287.59 578.406L1257.54 621.136L1231.26 581.524L1287.59 578.406Z" fill="#1A1F29" stroke="#1A1F29" stroke-width="0.4"/>
<path d="M1245.15 317.051L1290.87 304.134L1290.99 303.774L1268.12 274.243H1267.74L1244.89 316.755L1245.15 317.051ZM1290.43 303.788L1245.54 316.487L1267.98 274.808L1290.43 303.788Z" fill="#1A1F29" stroke="#1A1F29" stroke-width="0.4"/>
<path d="M1257.76 364.988L1290.99 304.056L1290.73 303.732L1245 316.656L1244.84 316.931L1257.31 364.974L1257.76 364.988ZM1290.36 304.282L1257.63 364.247L1245.36 316.981L1290.36 304.282Z" fill="#1A1F29" stroke="#1A1F29" stroke-width="0.4"/>
<path d="M1315.48 376.818L1315.74 376.522L1291.02 303.859L1290.61 303.824L1257.35 364.79L1257.5 365.115L1315.48 376.818ZM1290.77 304.48L1315.18 376.296L1257.9 364.727L1290.77 304.48Z" fill="#1A1F29" stroke="#1A1F29" stroke-width="0.4"/>
<path d="M1255.48 427.704L1292.27 415.111L1292.39 414.772L1257.75 364.755L1257.33 364.875L1255.21 427.478L1255.48 427.704ZM1291.84 414.815L1255.64 427.203L1257.76 365.609L1291.84 414.815Z" fill="#1A1F29" stroke="#1A1F29" stroke-width="0.4"/>
<path d="M1340.3 465.609L1340.68 465.39L1315.74 376.557L1315.33 376.501L1292.03 414.801V415.076L1340.3 465.609ZM1315.45 377.178L1340 464.656L1292.48 414.907L1315.45 377.178Z" fill="#1A1F29" stroke="#1A1F29" stroke-width="0.4"/>
<path d="M1257.63 491.005L1300 476.007L1300.09 475.647L1255.56 427.323L1255.17 427.478L1257.29 490.801L1257.63 491.005ZM1299.54 475.697L1257.8 490.49L1255.68 428.085L1299.54 475.697Z" fill="#1A1F29" stroke="#1A1F29" stroke-width="0.4"/>
<path d="M1299.99 476.028L1340.52 465.644L1340.62 465.27L1292.36 414.744L1291.98 414.928L1299.71 475.838L1299.99 476.028ZM1340.03 465.305L1300.12 475.527L1292.51 415.562L1340.03 465.305Z" fill="#1A1F29" stroke="#1A1F29" stroke-width="0.4"/>
<path d="M1261.44 541.453L1300.13 475.922L1299.86 475.598L1257.5 490.596L1257.35 490.822L1261.04 541.354L1261.44 541.453ZM1299.42 476.233L1261.42 540.599L1257.79 490.963L1299.42 476.233Z" fill="#1A1F29" stroke="#1A1F29" stroke-width="0.4"/>
<path d="M1287.86 578.286H1288.23L1318.52 535.584L1318.32 535.231L1261.21 541.115L1261.05 541.474L1287.86 578.286ZM1317.89 535.732L1288.04 577.778L1261.66 541.531L1317.89 535.732Z" fill="#1A1F29" stroke="#1A1F29" stroke-width="0.4"/>
<path d="M1380.61 546.638L1380.85 546.314L1340.67 465.326L1340.25 465.361L1318.14 535.386L1318.32 535.675L1380.61 546.638ZM1340.51 466.032L1380.24 546.116L1318.65 535.28L1340.51 466.032Z" fill="#1A1F29" stroke="#1A1F29" stroke-width="0.4"/>
<path d="M1318.57 535.52L1340.68 465.496L1340.41 465.207L1299.88 475.591L1299.72 475.88L1318.14 535.52H1318.57ZM1340.12 465.75L1318.36 534.695L1300.22 475.972L1340.12 465.75Z" fill="#1A1F29" stroke="#1A1F29" stroke-width="0.4"/>
<path d="M1299.77 667.125H1300.12L1338.11 611.393L1337.89 611.041L1257.5 621.326L1257.37 621.7L1299.77 667.125ZM1337.45 611.541L1299.91 666.61L1258 621.7L1337.45 611.541Z" fill="#1A1F29" stroke="#1A1F29" stroke-width="0.4"/>
<path d="M1337.8 611.443L1338.14 611.196L1318.58 535.4L1318.18 535.323L1287.86 578.025L1287.92 578.342L1337.8 611.443ZM1318.26 535.958L1337.59 610.737L1288.39 578.095L1318.26 535.958Z" fill="#1A1F29" stroke="#1A1F29" stroke-width="0.4"/>
<path d="M1395.8 637.531L1396.11 637.284L1380.87 546.378L1380.46 546.293L1337.74 611.125L1337.83 611.457L1395.8 637.531ZM1380.52 547.02L1395.59 636.946L1338.26 611.154L1380.52 547.02Z" fill="#1A1F29" stroke="#1A1F29" stroke-width="0.4"/>
<path d="M1163.42 821.474L1163.65 821.115L1120.12 761.552L1119.8 761.503L1063.4 800.734L1063.48 801.143L1163.42 821.474ZM1119.87 761.997L1162.94 820.91L1064.09 800.804L1119.87 761.997Z" fill="#1A1F29" stroke="#1A1F29" stroke-width="0.4"/>
<path d="M1063.42 801.122L1063.73 800.84L1037.46 729.157L1037.14 729.03L978.849 758.243V758.646L1063.42 801.122ZM1037.12 729.545L1063.11 800.459L979.456 758.448L1037.12 729.545Z" fill="#1A1F29" stroke="#1A1F29" stroke-width="0.4"/>
<path d="M978.898 758.667L979.174 758.42L973.582 706.751L973.165 706.66L946.2 750.646L946.341 750.984L978.898 758.667ZM973.2 707.457L978.694 758.152L946.743 750.617L973.2 707.457Z" fill="#1A1F29" stroke="#1A1F29" stroke-width="0.4"/>
<path d="M907.153 771.781L946.496 750.998L946.56 750.646L904.399 703.887L904.004 704.049L906.828 771.591L907.153 771.781ZM946.03 750.737L907.259 771.196L904.484 704.635L946.03 750.737Z" fill="#1A1F29" stroke="#1A1F29" stroke-width="0.4"/>
<path d="M873.041 840.713L907.244 771.647L906.983 771.33L831.008 791.21L830.888 791.57L873.041 840.713ZM906.616 771.894L873.041 840.713L831.453 791.563L906.616 771.894Z" fill="#1A1F29" stroke="#1A1F29" stroke-width="0.4"/>
<path d="M906.877 771.704L907.266 771.541L904.441 703.993L904.194 703.781L845.956 708.515L845.815 708.896L906.877 771.704ZM904.004 704.247L906.785 770.963L846.479 708.924L904.004 704.247Z" fill="#1A1F29" stroke="#1A1F29" stroke-width="0.4"/>
<path d="M845.801 708.861H846.154L882.334 646.328L882.066 645.997L820.107 666.963L819.987 667.295L845.801 708.861ZM881.677 646.61L845.985 708.304L820.566 667.295L881.677 646.61Z" fill="#1A1F29" stroke="#1A1F29" stroke-width="0.4"/>
<path d="M820.284 667.372L882.25 646.406L882.384 646.102L857.501 589.799H857.092L820.029 667.076L820.284 667.372ZM881.868 646.06L820.651 666.772L857.29 590.476L881.868 646.06Z" fill="#1A1F29" stroke="#1A1F29" stroke-width="0.4"/>
<path d="M857.169 590.088L857.522 589.905L857.113 519.189L856.746 519.012L809.671 556.741V557.1L857.169 590.088ZM856.668 519.654L857.071 589.495L810.186 556.931L856.668 519.654Z" fill="#1A1F29" stroke="#1A1F29" stroke-width="0.4"/>
<path d="M774.084 520.092L856.887 519.386L857.042 518.998L820.368 483.725H820.071L773.943 519.704L774.084 520.092ZM856.329 518.97L774.748 519.633L820.199 484.184L856.329 518.97Z" fill="#1A1F29" stroke="#1A1F29" stroke-width="0.4"/>
<path d="M820.198 484.113L820.417 483.788L804.587 449.735L804.227 449.672L772.566 480.846L772.714 481.234L820.198 484.113ZM804.311 450.215L819.845 483.64L773.244 480.818L804.311 450.215Z" fill="#1A1F29" stroke="#1A1F29" stroke-width="0.4"/>
<path d="M820.22 484.113L899.499 482.384L899.654 481.996L858.814 441.989H858.49L820.043 483.725L820.22 484.113ZM898.955 481.94L820.735 483.647L858.659 442.469L898.955 481.94Z" fill="#1A1F29" stroke="#1A1F29" stroke-width="0.4"/>
<path d="M961.711 530.786L962.064 530.547L938.919 452.028L938.566 451.908L899.357 481.975V482.335L961.711 530.786ZM938.58 452.48L961.429 530.017L899.866 482.173L938.58 452.48Z" fill="#1A1F29" stroke="#1A1F29" stroke-width="0.4"/>
<path d="M961.952 530.815L1019.31 502.448V502.06L989.906 480.825L989.581 480.896L961.621 530.497L961.952 530.815ZM1018.77 502.208L962.411 530.081L989.885 481.34L1018.77 502.208Z" fill="#1A1F29" stroke="#1A1F29" stroke-width="0.4"/>
<path d="M914.645 554.737L914.983 554.497L899.746 482.109L899.372 481.982L856.767 519.019V519.379L914.645 554.737ZM899.379 482.582L914.44 554.081L857.296 519.161L899.379 482.582Z" fill="#1A1F29" stroke="#1A1F29" stroke-width="0.4"/>
<path d="M930.588 620.106L930.892 619.845L914.955 554.483L914.616 554.349L857.176 589.707V590.102L930.588 620.106ZM914.588 554.892L930.348 619.52L857.798 589.891L914.588 554.892Z" fill="#1A1F29" stroke="#1A1F29" stroke-width="0.4"/>
<path d="M983.579 585.157L983.883 584.861L962.058 530.54L961.747 530.42L914.637 554.356V554.766L983.579 585.157ZM961.726 530.921L983.254 584.536L915.266 554.554L961.726 530.921Z" fill="#1A1F29" stroke="#1A1F29" stroke-width="0.4"/>
<path d="M1055.53 561.876H1055.93L1086.79 502.349L1086.58 502.018H1019.2L1019.01 502.363L1055.53 561.876ZM1086.22 502.469L1055.71 561.298L1019.61 502.469H1086.22Z" fill="#1A1F29" stroke="#1A1F29" stroke-width="0.4"/>
<path d="M1133.59 587.929L1133.89 587.725L1136.56 522.116L1136.23 521.905L1055.62 561.552V561.968L1133.59 587.929ZM1136.09 522.497L1133.45 587.4L1056.31 561.714L1136.09 522.497Z" fill="#1A1F29" stroke="#1A1F29" stroke-width="0.4"/>
<path d="M1186.49 634.956L1186.86 634.772L1183.59 565.079L1183.27 564.882L1133.57 587.549L1133.51 587.922L1186.49 634.956ZM1183.13 565.397L1186.38 634.257L1134.05 587.774L1183.13 565.397Z" fill="#1A1F29" stroke="#1A1F29" stroke-width="0.4"/>
<path d="M1186.71 635.005L1257.58 621.757L1257.65 621.34L1205.64 590.61L1205.32 590.716L1186.45 634.695L1186.71 635.005ZM1256.9 621.418L1187 634.483L1205.6 591.132L1256.9 621.418Z" fill="#1A1F29" stroke="#1A1F29" stroke-width="0.4"/>
<path d="M1245.6 680L1299.97 667.196L1300.08 666.822L1257.72 621.383L1257.33 621.489L1245.33 679.732L1245.6 680ZM1299.5 666.843L1245.84 679.478L1257.67 622.011L1299.5 666.843Z" fill="#1A1F29" stroke="#1A1F29" stroke-width="0.4"/>
<path d="M1245.54 680.007L1245.68 679.598L1186.8 634.603L1186.46 634.688L1166.36 677.376L1166.56 677.7L1245.54 680.007ZM1186.75 635.132L1244.85 679.534L1166.92 677.249L1186.75 635.132Z" fill="#1A1F29" stroke="#1A1F29" stroke-width="0.4"/>
<path d="M1055.65 561.976L1055.92 561.644L1019.39 502.124L1019.1 502.039L961.748 530.406V530.822L1055.65 561.976ZM1019.15 502.54L1055.23 561.348L962.468 530.568L1019.15 502.54Z" fill="#1A1F29" stroke="#1A1F29" stroke-width="0.4"/>
<path d="M1399.94 712.741L1400.27 712.529L1396.12 637.312L1395.73 637.164L1349.34 685.136L1349.39 685.496L1399.94 712.741ZM1395.7 637.855L1399.8 712.155L1349.88 685.256L1395.7 637.855Z" fill="#1A1F29" stroke="#1A1F29" stroke-width="0.4"/>
<path d="M1349.42 685.531L1349.73 685.284L1338.15 611.21L1337.74 611.118L1299.75 666.85L1299.86 667.189L1349.42 685.531ZM1337.79 611.852L1349.22 685.009L1300.29 666.899L1337.79 611.852Z" fill="#1A1F29" stroke="#1A1F29" stroke-width="0.4"/>
<path d="M1372.86 777.637L1411.89 766.06L1412.05 765.792L1400.27 712.522H1399.84L1372.58 777.425L1372.86 777.637ZM1411.56 765.686L1373.19 777.065L1399.98 713.284L1411.56 765.686Z" fill="#1A1F29" stroke="#1A1F29" stroke-width="0.4"/>
<path d="M1308.39 783.139L1372.82 777.644L1372.96 777.263L1330.92 734.653L1330.56 734.716L1308.16 782.822L1308.39 783.139ZM1372.29 777.235L1308.75 782.66L1330.85 735.196L1372.29 777.235Z" fill="#1A1F29" stroke="#1A1F29" stroke-width="0.4"/>
<path d="M1330.83 735.027L1400.11 712.755L1400.16 712.346L1349.61 685.115L1349.3 685.235L1330.56 734.73L1330.83 735.027ZM1399.47 712.522L1331.14 734.483L1349.59 685.637L1399.47 712.522Z" fill="#1A1F29" stroke="#1A1F29" stroke-width="0.4"/>
<path d="M1330.64 734.998L1330.97 734.716L1300.17 666.878L1299.91 666.751L1245.54 679.556L1245.47 679.965L1330.64 734.998ZM1299.81 667.238L1330.24 734.201L1246.12 679.88L1299.81 667.238Z" fill="#1A1F29" stroke="#1A1F29" stroke-width="0.4"/>
<path d="M1214.61 784.063L1308.36 783.139L1308.5 782.737L1257.66 744.804H1257.38L1214.45 783.654L1214.61 784.063ZM1307.69 782.695L1215.2 783.605L1257.56 745.277L1307.69 782.695Z" fill="#1A1F29" stroke="#1A1F29" stroke-width="0.4"/>
<path d="M1214.55 784.057L1214.79 783.711L1176.11 726.723L1175.8 726.66L1119.8 761.496L1119.87 761.912L1214.55 784.057ZM1175.86 727.153L1214.09 783.485L1120.5 761.616L1175.86 727.153Z" fill="#1A1F29" stroke="#1A1F29" stroke-width="0.4"/>
<path d="M1257.57 745.206L1330.8 735.034L1330.89 734.617L1245.67 679.591L1245.32 679.817L1257.33 745.023L1257.57 745.206ZM1330.13 734.667L1257.72 744.727L1245.87 680.254L1330.13 734.667Z" fill="#1A1F29" stroke="#1A1F29" stroke-width="0.4"/>
<path d="M1257.48 745.199L1257.76 744.938L1245.76 679.739L1245.41 679.591L1175.8 726.631L1175.87 727.041L1257.48 745.199ZM1245.39 680.162L1257.25 744.684L1176.48 726.744L1245.39 680.162Z" fill="#1A1F29" stroke="#1A1F29" stroke-width="0.4"/>
<path d="M1119.84 761.905L1120.14 761.63L1099.24 696.677L1098.92 696.543L1037.14 729.037V729.446L1119.84 761.905ZM1098.89 697.072L1119.56 761.312L1037.79 729.206L1098.89 697.072Z" fill="#1A1F29" stroke="#1A1F29" stroke-width="0.4"/>
<path d="M1037.17 729.453L1037.47 729.192L1026.17 673.855L1025.82 673.707L973.249 706.589L973.292 706.991L1037.17 729.453ZM1025.78 674.265L1036.95 728.896L973.871 706.723L1025.78 674.265Z" fill="#1A1F29" stroke="#1A1F29" stroke-width="0.4"/>
<path d="M904.018 704.056H904.442L930.885 619.972L930.567 619.704L882.066 646.01L881.967 646.286L904.018 704.056ZM930.292 620.339L904.209 703.351L882.454 646.349L930.292 620.339Z" fill="#1A1F29" stroke="#1A1F29" stroke-width="0.4"/>
<path d="M973.348 706.998L973.574 706.716L962.065 661.383L961.712 661.256L904.095 703.824L904.223 704.233L973.348 706.998ZM961.712 661.848L973.066 706.568L904.879 703.831L961.712 661.848Z" fill="#1A1F29" stroke="#1A1F29" stroke-width="0.4"/>
<path d="M961.669 661.573L962.065 661.495L983.89 585.009L983.544 584.762L930.545 619.718L930.488 620.042L961.669 661.573ZM983.282 585.474L961.754 660.959L930.997 619.979L983.282 585.474Z" fill="#1A1F29" stroke="#1A1F29" stroke-width="0.4"/>
<path d="M1175.84 727.062L1176.14 726.808L1166.79 677.425L1166.5 677.249L1098.93 696.522V696.945L1175.84 727.062ZM1166.39 677.757L1175.63 726.49L1099.73 696.769L1166.39 677.757Z" fill="#1A1F29" stroke="#1A1F29" stroke-width="0.4"/>
<path d="M1098.93 696.952L1099.21 696.67L1082.27 639.048L1081.94 638.921L1025.82 673.7L1025.87 674.109L1098.93 696.952ZM1081.89 639.457L1098.66 696.395L1026.45 673.82L1081.89 639.457Z" fill="#1A1F29" stroke="#1A1F29" stroke-width="0.4"/>
<path d="M1025.89 674.116L1026.16 673.898V617.827L1025.8 617.637L961.719 661.249L961.804 661.658L1025.89 674.116ZM1025.7 618.258V673.623L962.425 661.319L1025.7 618.258Z" fill="#1A1F29" stroke="#1A1F29" stroke-width="0.4"/>
<path d="M1025.79 617.989L1026.13 617.919L1055.92 561.848L1055.65 561.531L983.629 584.719L983.558 585.115L1025.79 617.989ZM1055.26 562.13L1025.86 617.467L984.144 585.016L1055.26 562.13Z" fill="#1A1F29" stroke="#1A1F29" stroke-width="0.4"/>
<path d="M1082.21 639.274L1133.82 587.873L1133.74 587.499L1055.79 561.552L1055.51 561.841L1081.83 639.154L1082.21 639.274ZM1133.24 587.817L1082.15 638.695L1056.08 562.117L1133.24 587.817Z" fill="#1A1F29" stroke="#1A1F29" stroke-width="0.4"/>
<path d="M1026.05 674.088L1082.17 639.302L1082.13 638.899L1026.02 617.615L1025.7 617.827V673.898L1026.05 674.088ZM1081.54 639.153L1026.16 673.482V618.152L1081.54 639.153Z" fill="#1A1F29" stroke="#1A1F29" stroke-width="0.4"/>
<path d="M1082.06 639.337L1186.67 635.013L1186.81 634.618L1133.81 587.549H1133.53L1081.92 638.942L1082.06 639.337ZM1186.09 634.582L1082.62 638.864L1133.67 588.028L1186.09 634.582Z" fill="#1A1F29" stroke="#1A1F29" stroke-width="0.4"/>
<path d="M1099.09 696.952L1166.63 677.693V677.27L1082.11 638.906L1081.8 639.175L1098.74 696.804L1099.09 696.952ZM1165.92 677.425L1099.18 696.473L1082.4 639.534L1165.92 677.425Z" fill="#1A1F29" stroke="#1A1F29" stroke-width="0.4"/>
<path d="M709.824 526.984L761.777 479.154V478.822L722.632 441.997L722.251 442.131L709.435 526.787L709.824 526.984ZM761.297 479.012L709.986 526.244L722.646 442.61L761.297 479.012Z" fill="#1A1F29" stroke="#1A1F29" stroke-width="0.4"/>
<path d="M797.992 570.638L798.176 570.265L755.218 519.041L754.822 519.139L744.09 567.936L744.295 568.212L797.992 570.638ZM755.168 519.69L797.533 570.166L744.619 567.774L755.168 519.69Z" fill="#1A1F29" stroke="#1A1F29" stroke-width="0.4"/>
<path d="M774.204 634.286L837.265 595.175L837.145 594.758H774.084L773.858 594.984V634.095L774.204 634.286ZM836.34 595.21L774.303 633.686V595.21H836.34Z" fill="#1A1F29" stroke="#1A1F29" stroke-width="0.4"/>
<path d="M813.131 682.744L813.463 682.512L800.647 607.062L800.287 606.921L748.673 646.025V646.406L813.131 682.744ZM800.259 607.506L812.969 682.116L749.252 646.18L800.259 607.506Z" fill="#1A1F29" stroke="#1A1F29" stroke-width="0.4"/>
<path d="M794.73 786.145L837.342 713.481L837.123 713.136L797.985 716.254L797.773 716.466L794.313 786.032L794.73 786.145ZM836.728 713.608L794.807 785.122L798.218 716.691L836.728 713.608Z" fill="#1A1F29" stroke="#1A1F29" stroke-width="0.4"/>
<path d="M821.766 832.247L822.126 832.042L813.469 741.037H813.025L794.32 811.986L794.405 812.226L821.766 832.247ZM813.138 742.321L821.611 831.584L794.779 811.894L813.138 742.321Z" fill="#1A1F29" stroke="#1A1F29" stroke-width="0.4"/>
<path d="M801.409 696.959L801.586 696.55L757.251 666.984L756.905 667.217L761.41 686.751L761.572 686.921L801.409 696.959ZM757.47 667.675L800.259 696.198L761.833 686.519L757.47 667.675Z" fill="#1A1F29" stroke="#1A1F29" stroke-width="0.4"/>
<path d="M1149.48 218.772L1165.26 225.7L1168.42 240.233L1136.78 253.615H1115.53L1105.14 244.155L1100.3 228.924L1118.53 186.243L1139.32 158.018L1176.98 168.847L1149.48 167.704L1152.64 186.088L1136.26 179.548L1129.39 191.316L1139.05 205.432L1121.08 198.935L1106.99 228.924L1113.69 239.929L1120.84 223.675L1123.62 243.231L1136.05 232.557L1130.31 241.524L1155.02 240.233L1156.54 226.772L1149.48 218.772Z" fill="#1A1F29"/>
<path d="M1119.46 134.095L1081.13 181.933L1070.73 198.011V224.776L1085.28 248.31L1105.14 244.155L1087.82 236.198L1079.74 218.772L1078.19 205.813L1090.83 213.312L1081.13 201.467L1092.92 201.242L1084.32 183.704L1110.45 183.471L1099.83 172.861L1112.99 148.896L1127.31 155.788L1123.38 141.926L1144.86 134.095H1119.46Z" fill="#1A1F29"/>
<path d="M1153.07 111.394L1131.36 108.685L1092.92 130.371L1047.24 159.739L1040.45 180.529L1055.83 212.155L1050.25 181.933L1055.83 166.166L1069.03 160.17L1066.26 153.482L1095.21 134.702L1097.98 141.926L1105.14 126.942L1131.36 115.866L1153.07 111.394Z" fill="#1A1F29"/>
<path d="M1119.46 134.095L1090.83 153.481L1060.03 181.933L1055.83 212.155L1070.73 224.776L1063.28 210.928V188.395L1070.73 179.436L1079.27 169.171L1092.92 155.323L1119.46 134.095Z" fill="#1A1F29"/>
<path d="M1085.28 248.31L1084.32 270.448L1063.52 274.963L1047.24 255.986L1038.65 235.203L1055.83 212.155L1047.24 235.203L1054.69 253.616L1067.5 240.381L1070.58 249.235L1061.96 257.298L1065.39 266.54L1077.66 262.497L1085.28 248.31Z" fill="#1A1F29"/>
<path d="M1153.07 111.394L1196.94 148.896L1264.32 204.021C1264.32 204.021 1299.91 241.066 1297.79 241.524C1295.67 241.983 1267.95 274.385 1267.95 274.385L1201.46 290.328L1139.05 287.612L1085.52 270.815L1131.01 276.092L1174.29 281.538L1217.36 279.69L1214.1 268.402L1177.87 257.319L1168.4 240.254L1193.58 250.639L1242.76 257.976L1264.3 251.789L1258.7 216.953L1224.98 196.36L1217.36 180.551L1179.49 146.117L1156.41 123.796L1153.07 111.394Z" fill="#1A1F29"/>
<path d="M1297.79 241.524L1318.14 310.66L1359.29 404.642L1394.59 485.065L1429.89 578.152L1450.64 664.459L1454.26 749.404L1469.19 777.425L1458.78 803.182L1418.99 823.972L1364.72 817.192L1267.48 827.132L1163.47 821.256L1063.52 800.924L978.954 758.448L946.389 750.773L907.046 771.556L873.041 840.691L831.065 791.407L845.991 708.72L820.212 667.146L857.296 589.884L856.886 661.933L864.604 727.873L845.991 766.286L873.529 786.039L904.243 745.312L884.847 716.014L918.796 714.603L908.861 682.533C908.861 682.533 912.787 640.536 913.712 640.078C914.637 639.619 938.806 594.97 938.806 594.97L929.627 640.31L938.806 701.552L955.279 724.529L971.441 692.226L970.29 735.372L1005.31 747.831L1069.13 765.058L1124.31 740.035L1139.32 679.781L1144.7 746.272L1199 780.191L1292.2 791.478L1312.98 755.351L1330.77 726.857L1351.31 777.425L1410.13 795.69L1403.82 778.307L1427.12 786.152L1449.04 768.155L1402.55 749.411L1435.27 723.393L1402.55 648.282L1409.94 578.159L1356.86 505.82L1329.61 373.136L1278.77 312.24L1297.76 284.071L1297.79 241.524Z" fill="#1A1F29"/>
<path d="M1201.46 290.328L1214.12 334.159L1225.41 395.605L1219.06 445.764L1214.53 505.863L1230.85 581.305L1257.53 621.517L1205.55 590.808L1183.37 565.079L1136.35 522.124L1086.6 502.243H1019.22L989.828 481.009L938.721 452.085L858.673 442.138L804.403 449.82L739.253 429.418L772.721 481.009L774.077 519.866L809.805 556.917L857.289 589.905L832.173 557.778L797.992 522.124L789.681 481.009V458.504L849.261 472.353L870.966 519.866C870.966 519.866 939.173 484.593 938.785 484.473C938.397 484.353 985.973 526.801 985.973 526.801L973.348 639.111L1041.4 691.083L1007.22 607.132L1034.93 542.272L1130.96 550.37L1163.44 600.459L1173.47 653.728L1206.03 623.21L1257.5 657.305H1288.16L1324.72 706.794L1316.34 667.944L1289.81 628.571L1264.02 599.88L1245.55 565.079L1272.74 526.37L1237.25 470.533L1245.55 411.464L1243.24 340.282L1201.46 290.328Z" fill="#1A1F29"/>
<path d="M873.042 840.712C947.568 913.386 1044.32 959.009 1147.85 970.294C1251.37 981.578 1355.69 957.873 1444.15 902.964C1532.61 848.056 1600.1 765.112 1635.84 667.383C1671.57 569.654 1673.5 462.777 1641.31 363.825C1609.11 264.874 1544.66 179.557 1458.24 121.502C1371.82 63.447 1268.41 36.0044 1164.55 43.5575C1060.68 51.1105 962.35 93.2236 885.253 163.17C808.156 233.115 756.745 326.859 739.232 429.425L698.413 416.903C718.609 305.913 775.202 204.794 859.269 129.487C943.336 54.1803 1050.1 8.96819 1162.72 0.977772C1275.35 -7.01265 1387.43 22.6731 1481.3 85.3556C1575.18 148.038 1645.5 240.152 1681.19 347.177C1716.89 454.203 1715.91 570.052 1678.43 676.464C1640.94 782.875 1569.08 873.797 1474.17 934.896C1379.25 995.995 1266.69 1023.8 1154.21 1013.92C1041.74 1004.04 935.751 957.045 852.961 880.338L873.042 840.712Z" fill="#1A1F29"/>
<ellipse rx="7.25623" ry="7.25626" transform="matrix(-1 0 0 1 1082.83 638.549)" fill="#1A1F29"/>
<ellipse rx="7.25624" ry="7.25623" transform="matrix(-1 0 0 1 1318.66 536.961)" fill="#1A1F29"/>
<ellipse rx="5.44215" ry="5.44217" transform="matrix(-1 0 0 1 1291.45 415.42)" fill="#1A1F29"/>
<ellipse rx="5.44215" ry="5.44217" transform="matrix(-1 0 0 1 1258.8 745.578)" fill="#1A1F29"/>
<ellipse rx="5.44217" ry="5.4422" transform="matrix(-1 0 0 1 914.127 553.288)" fill="#1A1F29"/>
</g>
<defs>
<clipPath id="clip0_25_2639">
<rect width="1008.46" height="1015.87" fill="white" transform="matrix(-1 0 0 1 1706.87 0)"/>
</clipPath>
</defs>
</svg>
