<svg width="2400" height="1820" viewBox="0 0 2400 1820" fill="none" xmlns="http://www.w3.org/2000/svg">
<path d="M166.591 1480.37C166.591 1406.5 57.521 1423.79 57.521 1385.44C57.521 1371.61 67.265 1365.01 80.1523 1365.33C94.6111 1365.64 104.669 1374.13 105.612 1388.27H163.762C161.562 1346.15 129.187 1322.26 81.0952 1322.26C34.8898 1322.26 0.628645 1345.52 0.628645 1387.33C0 1465.6 110.327 1443.59 110.327 1484.45C110.327 1497.34 100.269 1505.2 84.5528 1505.2C69.4653 1505.2 58.7783 1497.03 57.2067 1480.05H0C1.57161 1524.69 38.6617 1548.26 86.1244 1548.26C137.673 1548.26 166.591 1517.46 166.591 1480.37Z" fill="white"/>
<path d="M187.724 1368.47H246.188V1546.06H299.937V1368.47H358.401V1325.41H187.724V1368.47Z" fill="white"/>
<path d="M501.99 1397.07C501.99 1414.36 492.561 1424.73 472.444 1424.73H439.126V1370.04H472.444C492.561 1370.04 501.99 1380.73 501.99 1397.07ZM385.377 1325.41V1546.06H439.126V1462.77H452.013L497.904 1546.06H558.568L507.648 1458.68C541.595 1448.62 556.682 1422.53 556.682 1394.87C556.682 1356.53 529.651 1325.41 475.587 1325.41H385.377Z" fill="white"/>
<path d="M807.62 1435.11C807.62 1368.78 757.643 1322.26 694.778 1322.26C632.228 1322.26 581.308 1368.78 581.308 1435.11C581.308 1501.43 632.228 1548.26 694.778 1548.26C757.328 1548.26 807.62 1501.43 807.62 1435.11ZM636.314 1435.11C636.314 1395.82 658.945 1370.98 694.778 1370.98C729.982 1370.98 752.928 1395.82 752.928 1435.11C752.928 1473.77 729.982 1499.23 694.778 1499.23C658.945 1499.23 636.314 1473.77 636.314 1435.11Z" fill="white"/>
<path d="M981.168 1325.41V1462.14L891.271 1325.41H837.522V1546.06H891.271V1409.96L981.168 1546.06H1034.92V1325.41H981.168Z" fill="white"/>
<path d="M1176.98 1322.89C1110.97 1322.89 1064.76 1369.41 1064.76 1435.42C1064.76 1501.43 1111.28 1547.63 1177.29 1547.63C1235.44 1547.63 1272.22 1509.6 1283.53 1471.57V1421.59H1166.6V1461.19H1234.81C1226.64 1486.03 1208.09 1500.17 1181.38 1500.17C1142.71 1500.17 1119.45 1476.28 1119.45 1435.42C1119.45 1397.07 1142.4 1372.56 1176.98 1372.56C1197.09 1372.56 1212.18 1380.41 1220.35 1395.19H1279.76C1268.13 1349.92 1229.78 1322.89 1176.98 1322.89Z" fill="white"/>
<path d="M1450.66 1546.06H1504.41V1325.41H1450.66V1411.85H1367.05V1325.41H1313.3V1546.06H1367.05V1455.22H1450.66V1546.06Z" fill="white"/>
<path d="M1693.77 1546.06H1750.67L1670.83 1325.41H1608.59L1528.75 1546.06H1585.02L1598.22 1507.09H1680.57L1693.77 1546.06ZM1666.74 1465.6H1612.36L1639.4 1384.81L1666.74 1465.6Z" fill="white"/>
<path d="M1918.61 1325.41V1462.14L1828.71 1325.41H1774.96V1546.06H1828.71V1409.96L1918.61 1546.06H1972.36V1325.41H1918.61Z" fill="white"/>
<path d="M2093.99 1325.41H2011.32V1546.06H2093.99C2164.4 1546.06 2209.66 1501.11 2209.66 1435.73C2209.66 1370.04 2164.4 1325.41 2093.99 1325.41ZM2065.07 1499.54V1371.3H2090.53C2131.08 1371.3 2154.97 1395.19 2154.97 1435.73C2154.97 1476.28 2131.08 1499.54 2090.53 1499.54H2065.07Z" fill="white"/>
<path d="M2400 1480.37C2400 1406.5 2290.93 1423.79 2290.93 1385.44C2290.93 1371.61 2300.67 1365.01 2313.56 1365.33C2328.02 1365.64 2338.08 1374.13 2339.02 1388.27H2397.17C2394.97 1346.15 2362.6 1322.26 2314.5 1322.26C2268.3 1322.26 2234.04 1345.52 2234.04 1387.33C2233.41 1465.6 2343.74 1443.59 2343.74 1484.45C2343.74 1497.34 2333.68 1505.2 2317.96 1505.2C2302.87 1505.2 2292.19 1497.03 2290.62 1480.05H2233.41C2234.98 1524.69 2272.07 1548.26 2319.53 1548.26C2371.08 1548.26 2400 1517.46 2400 1480.37Z" fill="white"/>
<path d="M380.404 1697.06V1818.52H372.448V1713.68L325.771 1818.52H319.406L272.552 1713.68V1818.52H264.596V1697.06H273.082L322.588 1808.09L372.094 1697.06H380.404Z" fill="white"/>
<path d="M568.404 1786.7H509.528L497.682 1818.52H489.018L534.634 1697.23H543.475L588.914 1818.52H580.25L568.404 1786.7ZM565.929 1779.98L539.055 1707.67L512.003 1779.98H565.929Z" fill="white"/>
<path d="M733.18 1819.76C725.164 1819.76 718.151 1818.35 712.14 1815.52C706.128 1812.69 701.413 1808.86 697.995 1804.02C694.695 1799.19 692.809 1793.83 692.337 1787.94H700.647C701.59 1794.42 704.596 1800.19 709.664 1805.26C714.851 1810.33 722.689 1812.86 733.18 1812.86C739.309 1812.86 744.613 1811.75 749.092 1809.51C753.689 1807.27 757.225 1804.2 759.701 1800.31C762.176 1796.42 763.414 1792.12 763.414 1787.4C763.414 1781.39 761.94 1776.62 758.993 1773.08C756.165 1769.55 752.569 1766.9 748.208 1765.13C743.965 1763.36 738.189 1761.47 730.881 1759.47C722.866 1757.35 716.383 1755.23 711.432 1753.1C706.6 1750.98 702.474 1747.74 699.056 1743.38C695.756 1738.9 694.105 1732.83 694.105 1725.17C694.105 1719.28 695.638 1713.91 698.702 1709.08C701.885 1704.13 706.364 1700.24 712.14 1697.41C717.915 1694.58 724.575 1693.17 732.119 1693.17C743.081 1693.17 751.921 1695.88 758.64 1701.3C765.358 1706.72 769.366 1713.38 770.663 1721.28H762.176C761.469 1718.1 759.877 1714.86 757.402 1711.55C755.045 1708.25 751.627 1705.54 747.147 1703.42C742.786 1701.18 737.541 1700.06 731.412 1700.06C723.161 1700.06 716.206 1702.36 710.548 1706.96C704.891 1711.44 702.062 1717.45 702.062 1724.99C702.062 1731 703.535 1735.84 706.482 1739.49C709.429 1743.03 713.024 1745.74 717.267 1747.62C721.628 1749.39 727.463 1751.22 734.771 1753.1C742.904 1755.34 749.328 1757.52 754.043 1759.65C758.876 1761.65 762.942 1764.89 766.243 1769.37C769.661 1773.73 771.37 1779.68 771.37 1787.23C771.37 1792.77 769.897 1798.01 766.95 1802.96C764.003 1807.91 759.642 1811.98 753.866 1815.16C748.208 1818.23 741.313 1819.76 733.18 1819.76Z" fill="white"/>
<path d="M952.192 1694.4V1701.12H916.831V1818.52H908.874V1701.12H873.513V1694.4H952.192Z" fill="white"/>
<path d="M1067.49 1701.12V1752.93H1117V1759.65H1067.49V1811.8H1122.3V1818.52H1059.53V1694.4H1122.3V1701.12H1067.49Z" fill="white"/>
<path d="M1301.8 1818.52L1269.97 1765.66H1242.74V1818.52H1234.79V1694.4H1268.91C1282.7 1694.4 1293.01 1697.65 1299.85 1704.13C1306.81 1710.61 1310.28 1719.22 1310.28 1729.94C1310.28 1739.49 1307.57 1747.39 1302.15 1753.63C1296.85 1759.76 1289.07 1763.54 1278.81 1764.95L1311.34 1818.52H1301.8ZM1242.74 1758.94H1269.26C1280.23 1758.94 1288.42 1756.29 1293.84 1750.98C1299.26 1745.68 1301.97 1738.67 1301.97 1729.94C1301.97 1710.97 1290.95 1701.48 1268.91 1701.48H1242.74V1758.94Z" fill="white"/>
<path d="M1511.05 1818.52H1503.1L1430.25 1707.49V1818.52H1422.3V1694.58H1430.25L1503.1 1805.26V1694.58H1511.05V1818.52Z" fill="white"/>
<path d="M1683.97 1819.94C1672.54 1819.94 1662.22 1817.29 1653.03 1811.98C1643.83 1806.56 1636.64 1799.02 1631.46 1789.35C1626.27 1779.68 1623.68 1768.78 1623.68 1756.64C1623.68 1744.38 1626.27 1733.48 1631.46 1723.93C1636.64 1714.27 1643.83 1706.78 1653.03 1701.48C1662.22 1696.05 1672.54 1693.34 1683.97 1693.34C1695.4 1693.34 1705.72 1696.05 1714.91 1701.48C1724.11 1706.78 1731.3 1714.27 1736.48 1723.93C1741.67 1733.48 1744.26 1744.38 1744.26 1756.64C1744.26 1768.78 1741.67 1779.68 1736.48 1789.35C1731.3 1799.02 1724.11 1806.56 1714.91 1811.98C1705.72 1817.29 1695.4 1819.94 1683.97 1819.94ZM1683.97 1812.86C1693.75 1812.86 1702.59 1810.57 1710.49 1805.97C1718.39 1801.37 1724.58 1794.83 1729.06 1786.34C1733.65 1777.86 1735.95 1767.96 1735.95 1756.64C1735.95 1745.21 1733.65 1735.25 1729.06 1726.76C1724.58 1718.27 1718.39 1711.73 1710.49 1707.13C1702.59 1702.54 1693.75 1700.24 1683.97 1700.24C1674.19 1700.24 1665.35 1702.54 1657.45 1707.13C1649.55 1711.73 1643.3 1718.27 1638.71 1726.76C1634.11 1735.25 1631.81 1745.21 1631.81 1756.64C1631.81 1767.96 1634.11 1777.86 1638.71 1786.34C1643.3 1794.83 1649.55 1801.37 1657.45 1805.97C1665.35 1810.57 1674.19 1812.86 1683.97 1812.86Z" fill="white"/>
<path d="M1891.55 1694.4C1912.53 1694.4 1928.68 1699.89 1939.99 1710.85C1951.43 1721.81 1957.14 1737.07 1957.14 1756.64C1957.14 1776.21 1951.43 1791.41 1939.99 1802.26C1928.68 1813.1 1912.53 1818.52 1891.55 1818.52H1856.72V1694.4H1891.55ZM1891.55 1811.8C1910.29 1811.8 1924.55 1806.97 1934.33 1797.31C1944.12 1787.52 1949.01 1773.97 1949.01 1756.64C1949.01 1739.2 1944.12 1725.58 1934.33 1715.8C1924.55 1706.01 1910.29 1701.12 1891.55 1701.12H1864.67V1811.8H1891.55Z" fill="white"/>
<path d="M2077.57 1701.12V1752.93H2127.07V1759.65H2077.57V1811.8H2132.38V1818.52H2069.61V1694.4H2132.38V1701.12H2077.57Z" fill="white"/>
<g clip-path="url(#clip0_25_2795)">
<path d="M874.191 841.825L908.411 772.732L947.665 751.992L980.187 759.663L1064.82 802.182H1064.87L1164.95 822.54L1269.14 828.424L1366.52 818.471L1420.83 825.253H1420.96L1460.81 804.442L1460.92 804.322L1471.33 778.531V778.341L1456.41 750.339L1452.79 665.331L1431.97 578.867L1396.62 485.622L1361.27 405.093L1320.06 310.979L1299.69 241.752L1299.65 241.667L1266.13 204.115L1198.66 148.916L1154.74 111.371L1154.62 111.315L1132.88 108.602H1132.73L1094.24 130.317L1048.5 159.731L1048.41 159.851L1041.61 180.669V180.839L1056.96 212.386L1039.82 235.352V235.571L1048.41 256.423L1048.45 256.487L1064.75 275.496L1064.97 275.567L1085.75 271.06L1140.48 288.212H1140.54L1202.87 290.924L1215.5 334.65L1226.82 396.107L1220.45 446.262L1215.92 506.447V506.511L1232.23 582.095V582.173L1258.46 621.633L1207.26 591.385L1185.1 565.622L1137.98 522.624L1137.92 522.581L1088.1 502.668H1088.01H1020.61L991.238 481.476L940.05 452.513H939.965L859.81 442.56H859.754L805.462 450.246L740.204 430.043L773.519 481.765L774.876 520.617L774.94 520.766L810.715 557.866L858.135 590.819L821.087 668.015V668.227L846.851 709.777L831.926 792.49L831.968 792.673L874.191 841.825ZM947.665 751.533H947.509L908.114 772.35L908.015 772.442L874.17 841.804L832.42 792.419L847.346 709.721V709.558L821.596 668.036L858.679 590.784L858.601 590.495L811.054 557.47L775.371 520.462L774.021 481.61L773.978 481.49L740.254 429.965L805.427 450.613H805.525L859.832 442.927L939.887 452.909L991.019 481.871L1020.43 503.12L1020.57 503.162H1087.97L1137.7 523.04L1184.77 565.968L1206.94 591.738L1207 591.787L1259.08 622.551L1259.38 622.233L1232.68 581.968L1216.4 506.489L1220.93 446.346L1227.29 396.135V396.072L1215.98 334.537L1203.29 290.627L1203.08 290.465L1140.62 287.752L1085.86 270.566H1085.74L1065.04 275.065L1048.85 256.19L1040.28 235.542L1057.42 212.57V212.337L1042.06 180.747L1048.8 160.099L1094.46 130.734L1132.9 109.061L1154.5 111.76L1198.37 149.262L1265.82 204.468L1299.27 241.956L1319.63 311.134L1360.85 405.269L1396.2 485.799L1431.51 579.001L1452.33 665.43L1455.95 750.445V750.537L1470.86 778.454L1460.51 804.068L1420.8 824.815L1366.53 818.033H1366.48L1269.12 827.986L1165 822.102L1064.98 801.758L980.329 759.24H980.279L947.665 751.533Z" fill="white"/>
<path d="M1190.28 200.201L1244.84 236.397L1236.25 203.903L1190.28 200.201Z" fill="white" fill-opacity="0.5"/>
<path d="M1425.76 697.52L1402.25 744.469L1378.69 691.997L1425.76 697.52Z" fill="white" fill-opacity="0.5"/>
<path d="M1245.92 316.064L1284.07 376.002L1261.39 390.356L1245.92 316.064Z" fill="white" fill-opacity="0.5"/>
<path d="M831.774 556.595L906.304 598.661L883.616 556.595H831.774Z" fill="white" fill-opacity="0.5"/>
<path d="M1300.89 448.261L1319.63 500.888L1290.7 505.875L1300.89 448.261Z" fill="white" fill-opacity="0.5"/>
<path d="M1367.53 555.683L1371.75 629.735L1326.5 591.392L1367.53 555.683Z" fill="white" fill-opacity="0.5"/>
<path d="M1230.1 686.021L1275.31 731.528L1187.97 740.753L1230.1 686.021Z" fill="white" fill-opacity="0.5"/>
<path d="M1099.95 578.359L1039.07 615.155L1110.1 622.834L1099.95 578.359Z" fill="white" fill-opacity="0.5"/>
<path d="M1057.02 212.535L1057.45 212.471L1061.66 182.209L1061.45 181.947L1041.85 180.535L1041.62 180.86L1057.02 212.535ZM1061.17 182.385L1057.1 211.666L1042.2 181.022L1061.17 182.385Z" fill="white" stroke="white" stroke-width="0.4"/>
<path d="M1061.59 182.343L1092.41 153.847L1092.23 153.458L1048.59 159.731L1048.42 160.063L1061.23 182.287L1061.59 182.343ZM1091.57 153.995L1061.49 181.82L1048.99 160.127L1091.57 153.995Z" fill="white" stroke="white" stroke-width="0.4"/>
<path d="M1092.39 153.868L1121.06 134.463L1120.97 134.054L1094.39 130.317L1094.13 130.522L1092.01 153.663L1092.39 153.868ZM1120.32 134.414L1092.53 153.225L1094.56 130.804L1120.32 134.414Z" fill="white" stroke="white" stroke-width="0.4"/>
<path d="M1072 225.243L1072.36 225.017L1061.65 182.124H1061.2L1057 212.386L1057.08 212.591L1072 225.243ZM1061.49 183.367L1071.75 224.445L1057.46 212.344L1061.49 183.367Z" fill="white" stroke="white" stroke-width="0.4"/>
<path d="M1061.43 182.4H1082.55L1082.76 182.251L1092.48 153.755L1092.11 153.515L1061.27 182.011L1061.43 182.4ZM1082.39 181.948H1062.01L1091.76 154.455L1082.39 181.948Z" fill="white" stroke="white" stroke-width="0.4"/>
<path d="M1071.92 225.123L1072.37 225.074V198.273V198.146L1061.65 182.054L1061.25 182.23L1071.92 225.123ZM1071.92 198.343V223.223L1061.98 183.382L1071.92 198.343Z" fill="white" stroke="white" stroke-width="0.4"/>
<path d="M1071.96 198.4H1072.33L1082.71 182.301L1082.51 181.948H1061.4L1061.2 182.301L1071.96 198.4ZM1082.13 182.4L1072.14 197.856L1061.85 182.4H1082.13Z" fill="white" stroke="white" stroke-width="0.4"/>
<path d="M1082.7 182.315L1121.09 134.414L1120.78 134.089L1092.12 153.494L1092.02 153.607L1082.32 182.103L1082.7 182.315ZM1119.82 135.297L1083.18 181.029L1092.45 153.826L1119.82 135.297Z" fill="white" stroke="white" stroke-width="0.4"/>
<path d="M1086.89 248.773L1101.92 229.368L1101.77 229.008L1072.18 224.847L1071.95 225.193L1086.52 248.759L1086.89 248.773ZM1101.32 229.403L1086.74 248.243L1072.59 225.363L1101.32 229.403Z" fill="white" stroke="white" stroke-width="0.4"/>
<path d="M1086.76 248.858L1106.64 244.704L1106.81 244.414L1101.96 229.17L1101.56 229.1L1086.53 248.504L1086.76 248.858ZM1106.31 244.308L1087.27 248.292L1101.66 229.707L1106.31 244.308Z" fill="white" stroke="white" stroke-width="0.4"/>
<path d="M1101.58 229.39L1101.95 229.142L1082.76 182.089L1082.36 182.054L1071.95 198.146V198.428L1101.58 229.39ZM1082.49 182.661L1101.09 228.21L1072.44 198.244L1082.49 182.661Z" fill="white" stroke="white" stroke-width="0.4"/>
<path d="M1101.95 229.319L1120.22 186.574L1120.04 186.264L1082.56 181.955L1082.32 182.258L1101.52 229.319H1101.95ZM1119.68 186.68L1101.75 228.641L1082.9 182.442L1119.68 186.68Z" fill="white" stroke="white" stroke-width="0.4"/>
<path d="M1119.99 186.716L1120.23 186.49L1121.16 134.28L1120.76 134.131L1082.37 182.032L1082.52 182.4L1119.99 186.716ZM1120.69 134.937L1119.78 186.235L1082.97 181.997L1120.69 134.937Z" fill="white" stroke="white" stroke-width="0.4"/>
<path d="M1138.37 254.163L1170.05 240.742L1170.13 240.381L1151.17 218.893L1150.78 218.963L1138.06 253.852L1138.37 254.163ZM1169.58 240.466L1138.67 253.541L1151.08 219.5L1169.58 240.466Z" fill="white" stroke="white" stroke-width="0.4"/>
<path d="M1116.85 254.12H1117.16L1151.16 219.238L1150.88 218.885L1106.49 244.316L1106.45 244.683L1116.85 254.12ZM1149.71 220.065L1117 253.64L1106.98 244.521L1149.71 220.065Z" fill="white" stroke="white" stroke-width="0.4"/>
<path d="M1117 254.177H1138.28L1138.49 254.029L1151.21 219.14L1150.84 218.907L1116.85 253.796L1117 254.177ZM1138.12 253.725H1117.54L1150.42 219.98L1138.12 253.725Z" fill="white" stroke="white" stroke-width="0.4"/>
<path d="M1101.79 229.453L1151.05 219.288L1151.17 218.907L1120.18 186.334L1119.8 186.398L1101.53 229.142L1101.79 229.453ZM1150.58 218.928L1102.15 228.923L1120.11 186.893L1150.58 218.928Z" fill="white" stroke="white" stroke-width="0.4"/>
<path d="M1150.83 219.217L1151.22 219.026L1141.05 158.184L1140.64 158.092L1119.83 186.348V186.638L1150.83 219.217ZM1140.68 158.792L1150.65 218.377L1120.3 186.49L1140.68 158.792Z" fill="white" stroke="white" stroke-width="0.4"/>
<path d="M1140.64 158.368L1141.04 158.29L1154.82 111.611L1154.48 111.357L1120.83 134.096L1120.78 134.428L1140.64 158.368ZM1154.19 112.085L1140.72 157.753L1121.27 134.322L1154.19 112.085Z" fill="white" stroke="white" stroke-width="0.4"/>
<path d="M1120.88 134.499L1121.12 134.371L1133.03 108.941L1132.71 108.651L1094.22 130.366L1094.31 130.79L1120.88 134.499ZM1132.32 109.372L1120.78 134.025L1095.03 130.409L1132.32 109.372Z" fill="white" stroke="white" stroke-width="0.4"/>
<path d="M1167.55 159.286L1198.56 149.312L1198.64 148.923L1154.72 111.371L1154.35 111.597L1167.26 159.131L1167.55 159.286ZM1198.04 149.001L1167.64 158.785L1154.99 112.162L1198.04 149.001Z" fill="white" stroke="white" stroke-width="0.4"/>
<path d="M1218.99 205.93L1265.99 204.517L1266.13 204.122L1198.66 148.917L1198.3 149.171L1218.8 205.782L1218.99 205.93ZM1265.37 204.086L1219.14 205.499L1199 149.821L1265.37 204.086Z" fill="white" stroke="white" stroke-width="0.4"/>
<path d="M1151.22 219.125L1167.71 159.131L1167.5 158.848L1140.83 158L1140.6 158.262L1150.77 219.104L1151.22 219.125ZM1167.19 159.286L1151.05 218.016L1141.09 158.46L1167.19 159.286Z" fill="white" stroke="white" stroke-width="0.4"/>
<path d="M1182.65 213.82L1219.03 205.923L1219.16 205.562L1167.67 158.94L1167.3 159.166L1182.39 213.658L1182.65 213.82ZM1218.5 205.562L1182.76 213.333L1167.91 159.766L1218.5 205.562Z" fill="white" stroke="white" stroke-width="0.4"/>
<path d="M1169.79 240.699L1170.16 240.65L1182.8 213.693L1182.56 213.375L1150.96 218.843L1150.83 219.217L1169.79 240.699ZM1182.21 213.891L1169.9 240.141L1151.43 219.217L1182.21 213.891Z" fill="white" stroke="white" stroke-width="0.4"/>
<path d="M1257.65 251.168L1299.54 242.069L1299.67 241.695L1266.16 204.143L1265.76 204.256L1257.37 250.878L1257.65 251.168ZM1299.05 241.709L1257.87 250.652L1266.11 204.792L1299.05 241.709Z" fill="white" stroke="white" stroke-width="0.4"/>
<path d="M1211.19 267.104L1257.67 251.161L1257.77 250.8L1219.16 205.562L1218.76 205.683L1210.9 266.871L1211.19 267.104ZM1257.21 250.857L1211.38 266.56L1219.16 206.269L1257.21 250.857Z" fill="white" stroke="white" stroke-width="0.4"/>
<path d="M1210.99 267.083L1211.32 266.779L1182.8 213.488H1182.39L1169.75 240.445L1169.84 240.727L1210.99 267.083ZM1182.61 214.103L1210.51 266.228L1170.21 240.466L1182.61 214.103Z" fill="white" stroke="white" stroke-width="0.4"/>
<path d="M1269.59 274.966L1269.82 274.641L1257.8 250.843L1257.53 250.737L1211.05 266.673L1211.09 267.111L1269.59 274.966ZM1257.49 251.224L1269.22 274.465L1212.1 266.793L1257.49 251.224Z" fill="white" stroke="white" stroke-width="0.4"/>
<path d="M1269.79 274.896L1299.66 241.999L1299.45 241.625L1257.55 250.73L1257.39 251.048L1269.41 274.847L1269.79 274.896ZM1298.85 242.218L1269.68 274.352L1257.93 251.104L1298.85 242.218Z" fill="white" stroke="white" stroke-width="0.4"/>
<path d="M1203.09 290.931L1269.68 274.967V274.522L1211.17 266.667L1210.92 266.815L1202.85 290.635L1203.09 290.931ZM1268.39 274.79L1203.39 290.373L1211.28 267.119L1268.39 274.79Z" fill="white" stroke="white" stroke-width="0.4"/>
<path d="M1140.61 288.211L1211.18 267.104L1211.24 266.702L1170.08 240.36L1169.77 240.43L1140.36 287.879L1140.61 288.211ZM1210.6 266.815L1141.08 287.611L1170.06 240.868L1210.6 266.815Z" fill="white" stroke="white" stroke-width="0.4"/>
<path d="M1140.48 288.212L1140.77 287.978L1138.5 253.937L1138.21 253.739L1085.68 270.587V271.018L1140.48 288.212ZM1138.07 254.255L1140.3 287.682L1086.5 270.799L1138.07 254.255Z" fill="white" stroke="white" stroke-width="0.4"/>
<path d="M1085.86 271.003L1117.11 254.149L1117.16 253.781L1106.74 244.309H1106.41L1085.57 270.636L1085.86 271.003ZM1116.64 253.902L1086.64 270.085L1106.65 244.81L1116.64 253.902Z" fill="white" stroke="white" stroke-width="0.4"/>
<path d="M1064.97 275.546L1085.8 271.025L1085.98 270.813L1086.95 248.653L1086.54 248.505L1064.75 275.193L1064.97 275.546ZM1085.53 270.601L1065.51 274.946L1086.46 249.289L1085.53 270.601Z" fill="white" stroke="white" stroke-width="0.4"/>
<path d="M1048.66 256.543L1086.76 248.858L1086.9 248.519L1072.34 224.953H1071.96L1048.44 256.204L1048.66 256.543ZM1086.35 248.476L1049.16 255.985L1072.1 225.469L1086.35 248.476Z" fill="white" stroke="white" stroke-width="0.4"/>
<path d="M1040.09 235.726L1072.21 225.285L1072.29 224.897L1057.37 212.266H1057.04L1039.83 235.344L1040.09 235.726ZM1071.69 224.981L1040.62 235.076L1057.25 212.768L1071.69 224.981Z" fill="white" stroke="white" stroke-width="0.4"/>
<path d="M1319.82 311.29L1320.09 311.007L1299.71 241.78L1299.27 241.822L1292.29 304.289L1292.46 304.536L1319.82 311.29ZM1299.6 242.988L1319.56 310.76L1292.77 304.148L1299.6 242.988Z" fill="white" stroke="white" stroke-width="0.4"/>
<path d="M1360.96 405.368L1361.29 405.093L1320.08 310.979L1319.65 311.064L1317.03 377.084L1317.14 377.289L1360.96 405.368ZM1320.06 312.06L1360.56 404.584L1317.48 376.971L1320.06 312.06Z" fill="white" stroke="white" stroke-width="0.4"/>
<path d="M1396.32 485.926L1396.61 485.623L1361.26 405.093H1360.84L1341.99 465.956L1342.12 466.239L1396.32 485.926ZM1361.12 405.827L1395.99 485.298L1342.51 465.879L1361.12 405.827Z" fill="white" stroke="white" stroke-width="0.4"/>
<path d="M1431.6 579.107L1431.94 578.839L1396.59 485.636H1396.15L1382.22 547.093L1382.32 547.333L1431.6 579.107ZM1396.46 486.498L1431.27 578.33L1382.72 547.008L1396.46 486.498Z" fill="white" stroke="white" stroke-width="0.4"/>
<path d="M1452.48 665.542L1452.8 665.288L1431.97 578.867L1431.55 578.811L1397.56 638.056L1397.65 638.367L1452.48 665.542ZM1431.66 579.524L1452.22 664.921L1398.04 638.071L1431.66 579.524Z" fill="white" stroke="white" stroke-width="0.4"/>
<path d="M1456.05 750.586L1456.41 750.388L1452.78 665.331L1452.4 665.175L1401.73 713.324V713.67L1456.05 750.586ZM1452.36 665.818L1455.93 749.929L1402.28 713.465L1452.36 665.818Z" fill="white" stroke="white" stroke-width="0.4"/>
<path d="M1471.08 778.673L1471.33 778.341L1456.38 750.289L1456.1 750.19L1413.6 766.643L1413.64 767.073L1471.08 778.673ZM1456.07 750.685L1470.7 778.136L1414.49 766.784L1456.07 750.685Z" fill="white" stroke="white" stroke-width="0.4"/>
<path d="M1420.96 825.253L1460.81 804.442L1460.85 804.061L1413.82 766.678L1413.46 766.883L1420.66 825.076L1420.96 825.253ZM1460.3 804.202L1421.04 824.688L1413.97 767.363L1460.3 804.202Z" fill="white" stroke="white" stroke-width="0.4"/>
<path d="M1420.83 825.274L1421.02 824.893L1374.77 778.27L1374.39 778.383L1366.3 818.196L1366.49 818.471L1420.83 825.274ZM1374.74 778.913L1420.24 824.744L1366.79 818.069L1374.74 778.913Z" fill="white" stroke="white" stroke-width="0.4"/>
<path d="M1269.18 828.445L1366.54 818.492L1366.64 818.076L1310.21 783.759L1309.92 783.801L1268.99 828.064L1269.18 828.445ZM1365.82 818.111L1269.73 827.937L1310.13 784.239L1365.82 818.111Z" fill="white" stroke="white" stroke-width="0.4"/>
<path d="M1269.14 828.446L1269.3 828.043L1216.35 784.698H1216.07L1164.87 822.138L1164.99 822.54L1269.14 828.446ZM1216.2 785.164L1268.47 827.958L1165.64 822.145L1216.2 785.164Z" fill="white" stroke="white" stroke-width="0.4"/>
<path d="M1215.83 334.834L1246.84 317.457V317.061L1203.15 290.515L1202.81 290.776L1215.5 334.658L1215.83 334.834ZM1246.28 317.245L1215.88 334.262L1203.44 291.172L1246.28 317.245Z" fill="white" stroke="white" stroke-width="0.4"/>
<path d="M1227.2 396.291L1259.38 365.52V365.174L1215.88 334.403L1215.53 334.629L1226.84 396.164L1227.2 396.291ZM1258.86 365.386L1227.18 395.669L1216.04 335.096L1258.86 365.386Z" fill="white" stroke="white" stroke-width="0.4"/>
<path d="M1220.8 446.558L1257.16 428.256L1257.23 427.895L1227.21 395.973L1226.82 396.1L1220.45 446.325L1220.8 446.558ZM1256.69 427.987L1220.98 445.958L1227.21 396.637L1256.69 427.987Z" fill="white" stroke="white" stroke-width="0.4"/>
<path d="M1216.25 506.744L1259.29 491.655L1259.39 491.295L1220.87 446.191L1220.47 446.325L1215.94 506.496L1216.25 506.744ZM1258.83 491.351L1216.41 506.186L1220.87 446.904L1258.83 491.351Z" fill="white" stroke="white" stroke-width="0.4"/>
<path d="M1232.66 582.223L1263.09 542.191L1263.05 541.873L1216.33 506.348L1215.97 506.574L1232.27 582.159L1232.66 582.223ZM1262.6 542.099L1232.59 581.559L1216.52 507.076L1262.6 542.099Z" fill="white" stroke="white" stroke-width="0.4"/>
<path d="M1259.37 622.488L1289.92 579.051L1289.73 578.698L1232.46 581.862L1232.28 582.216L1258.99 622.481L1259.37 622.488ZM1289.29 579.171L1259.2 621.958L1232.88 582.293L1289.29 579.171Z" fill="white" stroke="white" stroke-width="0.4"/>
<path d="M1246.79 317.471L1292.58 304.537L1292.69 304.176L1269.8 274.606H1269.41L1246.53 317.174L1246.79 317.471ZM1292.13 304.19L1247.18 316.906L1269.65 275.172L1292.13 304.19Z" fill="white" stroke="white" stroke-width="0.4"/>
<path d="M1259.42 365.471L1292.69 304.459L1292.43 304.134L1246.64 317.075L1246.48 317.351L1258.97 365.456L1259.42 365.471ZM1292.06 304.685L1259.29 364.729L1247 317.4L1292.06 304.685Z" fill="white" stroke="white" stroke-width="0.4"/>
<path d="M1317.22 377.317L1317.47 377.02L1292.73 304.261L1292.31 304.226L1259.01 365.273L1259.16 365.598L1317.22 377.317ZM1292.47 304.883L1316.92 376.794L1259.56 365.209L1292.47 304.883Z" fill="white" stroke="white" stroke-width="0.4"/>
<path d="M1257.13 428.269L1293.98 415.66L1294.09 415.321L1259.4 365.237L1258.99 365.357L1256.87 428.043L1257.13 428.269ZM1293.55 415.363L1257.3 427.768L1259.42 366.092L1293.55 415.363Z" fill="white" stroke="white" stroke-width="0.4"/>
<path d="M1342.07 466.224L1342.45 466.006L1317.48 377.056L1317.07 376.999L1293.74 415.35V415.625L1342.07 466.224ZM1317.18 377.677L1341.77 465.271L1294.19 415.455L1317.18 377.677Z" fill="white" stroke="white" stroke-width="0.4"/>
<path d="M1259.29 491.655L1301.71 476.637L1301.8 476.277L1257.21 427.888L1256.82 428.044L1258.94 491.45L1259.29 491.655ZM1301.25 476.326L1259.46 491.139L1257.34 428.651L1301.25 476.326Z" fill="white" stroke="white" stroke-width="0.4"/>
<path d="M1301.7 476.658L1342.29 466.26L1342.39 465.885L1294.07 415.293L1293.68 415.477L1301.42 476.467L1301.7 476.658ZM1341.8 465.921L1301.84 476.157L1294.22 416.112L1341.8 465.921Z" fill="white" stroke="white" stroke-width="0.4"/>
<path d="M1263.11 542.17L1301.85 476.552L1301.58 476.227L1259.16 491.245L1259.01 491.471L1262.71 542.071L1263.11 542.17ZM1301.14 476.863L1263.09 541.315L1259.45 491.612L1301.14 476.863Z" fill="white" stroke="white" stroke-width="0.4"/>
<path d="M1289.56 579.051H1289.92L1320.26 536.292L1320.06 535.939L1262.87 541.83L1262.71 542.191L1289.56 579.051ZM1319.63 536.441L1289.73 578.542L1263.33 542.247L1319.63 536.441Z" fill="white" stroke="white" stroke-width="0.4"/>
<path d="M1382.43 547.362L1382.67 547.037L1342.44 465.942L1342.02 465.977L1319.88 536.095L1320.06 536.384L1382.43 547.362ZM1342.28 466.648L1382.06 546.839L1320.39 535.989L1342.28 466.648Z" fill="white" stroke="white" stroke-width="0.4"/>
<path d="M1320.31 536.229L1342.45 466.111L1342.17 465.822L1301.59 476.22L1301.44 476.51L1319.88 536.229H1320.31ZM1341.89 466.366L1320.1 535.402L1301.94 476.601L1341.89 466.366Z" fill="white" stroke="white" stroke-width="0.4"/>
<path d="M1301.48 668.008H1301.84L1339.88 612.202L1339.66 611.849L1259.16 622.148L1259.03 622.523L1301.48 668.008ZM1339.22 612.351L1301.62 667.492L1259.66 622.523L1339.22 612.351Z" fill="white" stroke="white" stroke-width="0.4"/>
<path d="M1339.56 612.252L1339.9 612.005L1320.32 536.109L1319.92 536.031L1289.56 578.79L1289.61 579.108L1339.56 612.252ZM1320 536.667L1339.35 611.545L1290.09 578.86L1320 536.667Z" fill="white" stroke="white" stroke-width="0.4"/>
<path d="M1397.64 638.375L1397.95 638.127L1382.69 547.1L1382.28 547.016L1339.5 611.934L1339.59 612.266L1397.64 638.375ZM1382.34 547.743L1397.43 637.788L1340.02 611.962L1382.34 547.743Z" fill="white" stroke="white" stroke-width="0.4"/>
<path d="M1164.95 822.561L1165.19 822.201L1121.59 762.559L1121.27 762.51L1064.8 801.793L1064.88 802.203L1164.95 822.561ZM1121.34 763.004L1164.47 821.996L1065.49 801.864L1121.34 763.004Z" fill="white" stroke="white" stroke-width="0.4"/>
<path d="M1064.82 802.182L1065.14 801.899L1038.83 730.122L1038.51 729.994L980.138 759.246V759.649L1064.82 802.182ZM1038.49 730.51L1064.51 801.517L980.746 759.451L1038.49 730.51Z" fill="white" stroke="white" stroke-width="0.4"/>
<path d="M980.187 759.671L980.463 759.423L974.863 707.686L974.446 707.594L947.445 751.639L947.586 751.978L980.187 759.671ZM974.481 708.393L979.982 759.155L947.989 751.61L974.481 708.393Z" fill="white" stroke="white" stroke-width="0.4"/>
<path d="M908.347 772.802L947.742 751.992L947.806 751.639L905.59 704.818L905.194 704.981L908.022 772.612L908.347 772.802ZM947.275 751.73L908.453 772.216L905.674 705.567L947.275 751.73Z" fill="white" stroke="white" stroke-width="0.4"/>
<path d="M874.191 841.825L908.439 772.668L908.178 772.35L832.103 792.256L831.982 792.617L874.191 841.825ZM907.81 772.915L874.191 841.825L832.548 792.61L907.81 772.915Z" fill="white" stroke="white" stroke-width="0.4"/>
<path d="M908.071 772.725L908.46 772.562L905.632 704.924L905.384 704.712L847.069 709.452L846.928 709.834L908.071 772.725ZM905.194 705.179L907.979 771.983L847.593 709.862L905.194 705.179Z" fill="white" stroke="white" stroke-width="0.4"/>
<path d="M846.914 709.799H847.267L883.495 647.183L883.226 646.851L821.186 667.845L821.065 668.177L846.914 709.799ZM882.838 647.466L847.098 709.24L821.645 668.177L882.838 647.466Z" fill="white" stroke="white" stroke-width="0.4"/>
<path d="M821.363 668.255L883.411 647.261L883.545 646.957L858.63 590.579H858.22L821.108 667.958L821.363 668.255ZM883.029 646.915L821.73 667.655L858.418 591.257L883.029 646.915Z" fill="white" stroke="white" stroke-width="0.4"/>
<path d="M858.297 590.869L858.65 590.685L858.24 519.875L857.873 519.699L810.736 557.477V557.837L858.297 590.869ZM857.795 520.342L858.198 590.275L811.252 557.668L857.795 520.342Z" fill="white" stroke="white" stroke-width="0.4"/>
<path d="M775.102 520.78L858.014 520.073L858.17 519.685L821.447 484.365H821.15L774.961 520.391L775.102 520.78ZM857.456 519.657L775.767 520.321L821.278 484.824L857.456 519.657Z" fill="white" stroke="white" stroke-width="0.4"/>
<path d="M821.278 484.754L821.497 484.429L805.646 450.331L805.285 450.267L773.582 481.483L773.731 481.871L821.278 484.754ZM805.37 450.811L820.924 484.28L774.261 481.455L805.37 450.811Z" fill="white" stroke="white" stroke-width="0.4"/>
<path d="M821.299 484.753L900.683 483.023L900.839 482.634L859.945 442.574H859.62L821.123 484.365L821.299 484.753ZM900.139 482.578L821.815 484.287L859.789 443.055L900.139 482.578Z" fill="white" stroke="white" stroke-width="0.4"/>
<path d="M962.979 531.489L963.332 531.249L940.156 452.626L939.802 452.506L900.542 482.613V482.973L962.979 531.489ZM939.817 453.079L962.696 530.719L901.051 482.811L939.817 453.079Z" fill="white" stroke="white" stroke-width="0.4"/>
<path d="M963.219 531.517L1020.65 503.113V502.724L991.21 481.461L990.885 481.532L962.887 531.199L963.219 531.517ZM1020.11 502.872L963.679 530.782L991.189 481.977L1020.11 502.872Z" fill="white" stroke="white" stroke-width="0.4"/>
<path d="M915.848 555.471L916.188 555.231L900.93 482.747L900.555 482.62L857.894 519.706V520.066L915.848 555.471ZM900.562 483.221L915.643 554.814L858.424 519.847L900.562 483.221Z" fill="white" stroke="white" stroke-width="0.4"/>
<path d="M931.813 620.926L932.117 620.665L916.16 555.217L915.82 555.083L858.305 590.487V590.883L931.813 620.926ZM915.792 555.626L931.573 620.34L858.927 590.671L915.792 555.626Z" fill="white" stroke="white" stroke-width="0.4"/>
<path d="M984.875 585.931L985.179 585.635L963.325 531.242L963.014 531.122L915.841 555.09V555.5L984.875 585.931ZM962.992 531.623L984.549 585.31L916.471 555.288L962.992 531.623Z" fill="white" stroke="white" stroke-width="0.4"/>
<path d="M1056.92 562.62H1057.32L1088.22 503.014L1088.01 502.682H1020.54L1020.35 503.028L1056.92 562.62ZM1087.65 503.134L1057.1 562.04L1020.95 503.134H1087.65Z" fill="white" stroke="white" stroke-width="0.4"/>
<path d="M1135.09 588.707L1135.39 588.502L1138.06 522.807L1137.73 522.595L1057.01 562.295V562.712L1135.09 588.707ZM1137.59 523.189L1134.94 588.177L1057.7 562.457L1137.59 523.189Z" fill="white" stroke="white" stroke-width="0.4"/>
<path d="M1188.05 635.796L1188.43 635.612L1185.15 565.827L1184.83 565.629L1135.06 588.326L1135 588.7L1188.05 635.796ZM1184.69 566.145L1187.95 635.097L1135.54 588.552L1184.69 566.145Z" fill="white" stroke="white" stroke-width="0.4"/>
<path d="M1188.27 635.845L1259.23 622.579L1259.31 622.162L1207.23 591.392L1206.91 591.498L1188.02 635.535L1188.27 635.845ZM1258.56 622.24L1188.57 635.323L1207.19 591.914L1258.56 622.24Z" fill="white" stroke="white" stroke-width="0.4"/>
<path d="M1247.24 680.9L1301.68 668.078L1301.8 667.704L1259.37 622.205L1258.99 622.311L1246.97 680.631L1247.24 680.9ZM1301.22 667.725L1247.48 680.377L1259.33 622.834L1301.22 667.725Z" fill="white" stroke="white" stroke-width="0.4"/>
<path d="M1247.19 680.907L1247.33 680.497L1188.36 635.443L1188.02 635.527L1167.9 678.272L1168.1 678.597L1247.19 680.907ZM1188.31 635.972L1246.49 680.433L1168.46 678.145L1188.31 635.972Z" fill="white" stroke="white" stroke-width="0.4"/>
<path d="M1057.04 562.719L1057.31 562.387L1020.73 502.788L1020.44 502.703L963.014 531.107V531.524L1057.04 562.719ZM1020.49 503.205L1056.62 562.09L963.735 531.27L1020.49 503.205Z" fill="white" stroke="white" stroke-width="0.4"/>
<path d="M1401.78 713.684L1402.11 713.472L1397.96 638.155L1397.57 638.007L1351.12 686.042L1351.17 686.403L1401.78 713.684ZM1397.54 638.699L1401.65 713.097L1351.66 686.162L1397.54 638.699Z" fill="white" stroke="white" stroke-width="0.4"/>
<path d="M1351.2 686.438L1351.51 686.191L1339.91 612.019L1339.5 611.927L1301.46 667.732L1301.57 668.071L1351.2 686.438ZM1339.55 612.661L1351 685.915L1302 667.782L1339.55 612.661Z" fill="white" stroke="white" stroke-width="0.4"/>
<path d="M1374.67 778.666L1413.75 767.074L1413.91 766.805L1402.12 713.465H1401.68L1374.39 778.454L1374.67 778.666ZM1413.42 766.699L1375 778.093L1401.83 714.228L1413.42 766.699Z" fill="white" stroke="white" stroke-width="0.4"/>
<path d="M1310.11 784.175L1374.63 778.673L1374.77 778.291L1332.68 735.625L1332.32 735.688L1309.88 783.858L1310.11 784.175ZM1374.1 778.263L1310.47 783.695L1332.6 736.168L1374.1 778.263Z" fill="white" stroke="white" stroke-width="0.4"/>
<path d="M1332.59 735.999L1401.96 713.698L1402 713.288L1351.39 686.021L1351.08 686.141L1332.31 735.702L1332.59 735.999ZM1401.32 713.465L1332.9 735.455L1351.37 686.544L1401.32 713.465Z" fill="white" stroke="white" stroke-width="0.4"/>
<path d="M1332.4 735.97L1332.73 735.688L1301.88 667.76L1301.63 667.633L1247.19 680.454L1247.11 680.864L1332.4 735.97ZM1301.52 668.121L1331.99 735.172L1247.76 680.779L1301.52 668.121Z" fill="white" stroke="white" stroke-width="0.4"/>
<path d="M1216.21 785.101L1310.09 784.175L1310.22 783.773L1259.32 745.79H1259.04L1216.05 784.691L1216.21 785.101ZM1309.42 783.73L1216.8 784.642L1259.22 746.263L1309.42 783.73Z" fill="white" stroke="white" stroke-width="0.4"/>
<path d="M1216.15 785.094L1216.39 784.748L1177.66 727.685L1177.35 727.621L1121.28 762.503L1121.34 762.92L1216.15 785.094ZM1177.41 728.116L1215.69 784.522L1121.98 762.623L1177.41 728.116Z" fill="white" stroke="white" stroke-width="0.4"/>
<path d="M1259.23 746.192L1332.55 736.006L1332.64 735.589L1247.31 680.49L1246.97 680.716L1258.99 746.009L1259.23 746.192ZM1331.89 735.639L1259.37 745.712L1247.51 681.154L1331.89 735.639Z" fill="white" stroke="white" stroke-width="0.4"/>
<path d="M1259.14 746.185L1259.42 745.924L1247.4 680.638L1247.05 680.49L1177.35 727.593L1177.42 728.002L1259.14 746.185ZM1247.03 681.062L1258.91 745.67L1178.03 727.706L1247.03 681.062Z" fill="white" stroke="white" stroke-width="0.4"/>
<path d="M1121.32 762.913L1121.61 762.637L1100.68 697.599L1100.37 697.465L1038.51 730.002V730.411L1121.32 762.913ZM1100.34 697.995L1121.04 762.319L1039.16 730.171L1100.34 697.995Z" fill="white" stroke="white" stroke-width="0.4"/>
<path d="M1038.54 730.418L1038.83 730.157L1027.52 674.747L1027.18 674.599L974.532 707.524L974.574 707.927L1038.54 730.418ZM1027.13 675.157L1038.31 729.86L975.154 707.658L1027.13 675.157Z" fill="white" stroke="white" stroke-width="0.4"/>
<path d="M905.208 704.988H905.633L932.11 620.792L931.792 620.523L883.227 646.865L883.128 647.141L905.208 704.988ZM931.516 621.159L905.399 704.281L883.616 647.204L931.516 621.159Z" fill="white" stroke="white" stroke-width="0.4"/>
<path d="M974.63 707.934L974.856 707.651L963.332 662.258L962.979 662.131L905.286 704.755L905.413 705.165L974.63 707.934ZM962.979 662.724L974.347 707.503L906.071 704.762L962.979 662.724Z" fill="white" stroke="white" stroke-width="0.4"/>
<path d="M962.936 662.449L963.332 662.371L985.186 585.783L984.839 585.536L931.77 620.538L931.714 620.863L962.936 662.449ZM984.578 586.249L963.02 661.834L932.223 620.799L984.578 586.249Z" fill="white" stroke="white" stroke-width="0.4"/>
<path d="M1177.39 728.024L1177.69 727.769L1168.33 678.321L1168.04 678.145L1100.38 697.444V697.867L1177.39 728.024ZM1167.93 678.653L1177.18 727.452L1101.18 697.691L1167.93 678.653Z" fill="white" stroke="white" stroke-width="0.4"/>
<path d="M1100.38 697.874L1100.66 697.592L1083.69 639.893L1083.36 639.766L1027.17 674.591L1027.23 675.001L1100.38 697.874ZM1083.32 640.303L1100.11 697.316L1027.8 674.712L1083.32 640.303Z" fill="white" stroke="white" stroke-width="0.4"/>
<path d="M1027.24 675.008L1027.51 674.789V618.645L1027.15 618.454L962.985 662.124L963.07 662.533L1027.24 675.008ZM1027.06 619.075V674.514L963.692 662.194L1027.06 619.075Z" fill="white" stroke="white" stroke-width="0.4"/>
<path d="M1027.14 618.807L1027.48 618.736L1057.32 562.592L1057.04 562.274L984.925 585.493L984.854 585.889L1027.14 618.807ZM1056.65 562.874L1027.21 618.284L985.441 585.79L1056.65 562.874Z" fill="white" stroke="white" stroke-width="0.4"/>
<path d="M1083.63 640.119L1135.31 588.651L1135.23 588.276L1057.18 562.295L1056.9 562.585L1083.26 639.999L1083.63 640.119ZM1134.73 588.594L1083.57 639.54L1057.47 562.86L1134.73 588.594Z" fill="white" stroke="white" stroke-width="0.4"/>
<path d="M1027.4 674.98L1083.6 640.147L1083.55 639.745L1027.37 618.433L1027.06 618.645V674.789L1027.4 674.98ZM1082.97 639.999L1027.51 674.373V618.97L1082.97 639.999Z" fill="white" stroke="white" stroke-width="0.4"/>
<path d="M1083.48 640.183L1188.23 635.852L1188.38 635.457L1135.31 588.326H1135.02L1083.34 639.787L1083.48 640.183ZM1187.65 635.421L1084.05 639.709L1135.17 588.806L1187.65 635.421Z" fill="white" stroke="white" stroke-width="0.4"/>
<path d="M1100.54 697.874L1168.17 678.59V678.166L1083.53 639.752L1083.22 640.02L1100.19 697.726L1100.54 697.874ZM1167.45 678.321L1100.63 697.394L1083.83 640.38L1167.45 678.321Z" fill="white" stroke="white" stroke-width="0.4"/>
<path d="M710.757 527.681L762.779 479.787V479.455L723.582 442.581L723.2 442.715L710.368 527.483L710.757 527.681ZM762.299 479.646L710.92 526.939L723.596 443.196L762.299 479.646Z" fill="white" stroke="white" stroke-width="0.4"/>
<path d="M799.042 571.393L799.226 571.019L756.211 519.727L755.815 519.826L745.068 568.688L745.273 568.963L799.042 571.393ZM756.161 520.377L798.582 570.92L745.598 568.525L756.161 520.377Z" fill="white" stroke="white" stroke-width="0.4"/>
<path d="M775.222 635.125L838.366 595.962L838.246 595.545H775.102L774.876 595.771V634.934L775.222 635.125ZM837.44 595.997L775.321 634.524V595.997H837.44Z" fill="white" stroke="white" stroke-width="0.4"/>
<path d="M814.201 683.648L814.533 683.414L801.701 607.865L801.34 607.724L749.657 646.879V647.261L814.201 683.648ZM801.312 608.31L814.038 683.019L750.237 647.035L801.312 608.31Z" fill="white" stroke="white" stroke-width="0.4"/>
<path d="M795.776 787.185L838.444 714.425L838.225 714.079L799.035 717.201L798.823 717.413L795.359 787.072L795.776 787.185ZM837.829 714.552L795.854 786.16L799.269 717.639L837.829 714.552Z" fill="white" stroke="white" stroke-width="0.4"/>
<path d="M822.847 833.348L823.208 833.143L814.54 742.017H814.095L795.366 813.06L795.45 813.3L822.847 833.348ZM814.208 743.303L822.692 832.684L795.825 812.968L814.208 743.303Z" fill="white" stroke="white" stroke-width="0.4"/>
<path d="M802.464 697.881L802.641 697.472L758.247 667.866L757.901 668.1L762.411 687.66L762.574 687.829L802.464 697.881ZM758.466 668.559L801.312 697.119L762.836 687.427L758.466 668.559Z" fill="white" stroke="white" stroke-width="0.4"/>
<path d="M1151 219.062L1166.8 225.999L1169.96 240.55L1138.28 253.951H1117L1106.59 244.478L1101.74 229.227L1120.01 186.49L1140.82 158.227L1178.53 169.07L1151 167.925L1154.16 186.334L1137.76 179.786L1130.88 191.569L1140.55 205.704L1122.55 199.198L1108.45 229.227L1115.16 240.247L1122.32 223.971L1125.1 243.553L1137.55 232.865L1131.8 241.843L1156.55 240.55L1158.07 227.072L1151 219.062Z" fill="white"/>
<path d="M1120.93 134.272L1082.55 182.174L1072.14 198.272V225.073L1086.71 248.639L1106.6 244.478L1089.25 236.51L1081.16 219.062L1079.62 206.085L1092.26 213.594L1082.55 201.734L1094.36 201.508L1085.75 183.947L1111.91 183.713L1101.28 173.089L1114.46 149.093L1128.8 155.994L1124.86 142.114L1146.37 134.272H1120.93Z" fill="white"/>
<path d="M1154.59 111.541L1132.85 108.828L1094.36 130.543L1048.62 159.95L1041.83 180.768L1057.22 212.436L1051.63 182.174L1057.22 166.386L1070.44 160.381L1067.67 153.685L1096.65 134.88L1099.43 142.114L1106.6 127.11L1132.85 116.019L1154.59 111.541Z" fill="white"/>
<path d="M1120.93 134.272L1092.26 153.684L1061.43 182.174L1057.22 212.436L1072.14 225.073L1064.68 211.207V188.644L1072.14 179.673L1080.7 169.395L1094.36 155.528L1120.93 134.272Z" fill="white"/>
<path d="M1086.71 248.639L1085.75 270.806L1064.92 275.327L1048.62 256.325L1040.02 235.514L1057.22 212.436L1048.62 235.514L1056.08 253.951L1068.9 240.699L1071.99 249.564L1063.36 257.639L1066.79 266.892L1079.08 262.845L1086.71 248.639Z" fill="white"/>
<path d="M1154.59 111.541L1198.51 149.093L1265.99 204.291C1265.99 204.291 1301.62 241.384 1299.5 241.843C1297.38 242.302 1269.62 274.747 1269.62 274.747L1203.04 290.712L1140.55 287.992L1086.95 271.173L1132.5 276.457L1175.84 281.91L1218.97 280.06L1215.7 268.757L1179.42 257.66L1169.94 240.572L1195.15 250.97L1244.4 258.317L1265.97 252.121L1260.36 217.239L1226.6 196.619L1218.97 180.789L1181.04 146.31L1157.94 123.959L1154.59 111.541Z" fill="white"/>
<path d="M1299.5 241.843L1319.87 311.071L1361.08 405.177L1396.43 485.707L1431.78 578.917L1452.55 665.338L1456.18 750.395L1471.13 778.453L1460.71 804.244L1420.86 825.062L1366.52 818.273L1269.15 828.227L1165 822.342L1064.92 801.984L980.244 759.451L947.636 751.766L908.241 772.576L874.191 841.804L832.159 792.454L847.105 709.657L821.292 668.029L858.425 590.664L858.015 662.809L865.742 728.836L847.105 767.299L874.679 787.079L905.434 746.298L886.013 716.961L920.006 715.549L910.058 683.436C910.058 683.436 913.989 641.384 914.915 640.924C915.842 640.465 940.043 595.757 940.043 595.757L930.852 641.157L940.043 702.48L956.538 725.488L972.721 693.142L971.569 736.345L1006.64 748.82L1070.54 766.07L1125.79 741.014L1140.82 680.681L1146.21 747.259L1200.58 781.223L1293.91 792.525L1314.71 756.35L1332.52 727.819L1353.1 778.453L1411.99 796.742L1405.67 779.336L1429 787.192L1450.96 769.171L1404.4 750.402L1437.16 724.35L1404.4 649.14L1411.8 578.924L1358.65 506.489L1331.36 373.629L1280.46 312.653L1299.47 284.446L1299.5 241.843Z" fill="white"/>
<path d="M1203.04 290.712L1215.72 334.601L1227.03 396.129L1220.67 446.354L1216.13 506.532L1232.47 582.074L1259.19 622.339L1207.14 591.59L1184.93 565.827L1137.85 522.814L1088.04 502.908H1020.56L991.132 481.645L939.958 452.683L859.803 442.723L805.462 450.415L740.225 429.986L773.738 481.645L775.095 520.554L810.87 557.654L858.417 590.685L833.269 558.516L799.042 522.814L790.72 481.645V459.111L850.378 472.978L872.112 520.554C872.112 520.554 940.41 485.234 940.021 485.114C939.633 484.994 987.271 527.498 987.271 527.498L974.63 639.957L1042.77 691.997L1008.55 607.936L1036.3 542.989L1132.45 551.099L1164.97 601.253L1175.02 654.594L1207.62 624.035L1259.16 658.175H1289.86L1326.47 707.729L1318.07 668.827L1291.51 629.403L1265.69 600.674L1247.19 565.827L1274.42 527.067L1238.88 471.155L1247.19 412.008L1244.88 340.733L1203.04 290.712Z" fill="white"/>
<path d="M874.191 841.825C948.816 914.595 1045.7 960.278 1149.36 971.577C1253.02 982.877 1357.48 959.14 1446.06 904.159C1534.63 849.178 1602.21 766.124 1637.99 668.266C1673.78 570.407 1675.71 463.389 1643.47 364.307C1611.24 265.224 1546.7 179.794 1460.16 121.663C1373.62 63.5309 1270.09 36.0519 1166.08 43.615C1062.08 51.1781 963.618 93.3468 886.419 163.385C809.22 233.424 757.74 327.291 740.204 429.993L699.331 417.454C719.554 306.317 776.221 205.065 860.4 129.658C944.578 54.2519 1051.48 8.97996 1164.25 0.978972C1277.03 -7.02202 1389.26 22.703 1483.26 85.4684C1577.26 148.234 1647.67 240.47 1683.41 347.637C1719.15 454.803 1718.18 570.806 1680.64 677.359C1643.11 783.911 1571.15 874.953 1476.11 936.133C1381.07 997.313 1268.36 1025.15 1155.73 1015.26C1043.11 1005.37 936.983 958.311 854.083 881.503L874.191 841.825Z" fill="white"/>
<circle r="7.26584" transform="matrix(-1 0 0 1 1084.26 639.394)" fill="white"/>
<ellipse rx="7.26587" ry="7.26581" transform="matrix(-1 0 0 1 1320.4 537.672)" fill="white"/>
<ellipse rx="5.44936" ry="5.44939" transform="matrix(-1 0 0 1 1293.15 415.969)" fill="white"/>
<circle r="5.44937" transform="matrix(-1 0 0 1 1260.46 746.565)" fill="white"/>
<circle r="5.44937" transform="matrix(-1 0 0 1 915.33 554.02)" fill="white"/>
</g>
<defs>
<clipPath id="clip0_25_2795">
<rect width="1009.79" height="1017.22" fill="white" transform="matrix(-1 0 0 1 1709.12 0)"/>
</clipPath>
</defs>
</svg>
