<svg width="2400" height="1826" viewBox="0 0 2400 1826" fill="none" xmlns="http://www.w3.org/2000/svg">
<path d="M166.591 1478.74C166.591 1404.87 57.521 1422.16 57.521 1383.81C57.521 1369.98 67.265 1363.38 80.1523 1363.7C94.6111 1364.01 104.669 1372.5 105.612 1386.64H163.762C161.562 1344.52 129.187 1320.63 81.0952 1320.63C34.8898 1320.63 0.628645 1343.89 0.628645 1385.7C0 1463.97 110.327 1441.96 110.327 1482.83C110.327 1495.71 100.269 1503.57 84.5528 1503.57C69.4653 1503.57 58.7783 1495.4 57.2067 1478.42H0C1.57161 1523.06 38.6617 1546.63 86.1244 1546.63C137.673 1546.63 166.591 1515.83 166.591 1478.74Z" fill="white"/>
<path d="M187.724 1366.84H246.188V1544.43H299.937V1366.84H358.401V1323.78H187.724V1366.84Z" fill="white"/>
<path d="M501.99 1395.44C501.99 1412.73 492.561 1423.1 472.444 1423.1H439.126V1368.41H472.444C492.561 1368.41 501.99 1379.1 501.99 1395.44ZM385.377 1323.78V1544.43H439.126V1461.14H452.013L497.904 1544.43H558.568L507.648 1457.05C541.595 1446.99 556.682 1420.9 556.682 1393.24C556.682 1354.9 529.651 1323.78 475.587 1323.78H385.377Z" fill="white"/>
<path d="M807.62 1433.48C807.62 1367.15 757.643 1320.63 694.778 1320.63C632.228 1320.63 581.308 1367.15 581.308 1433.48C581.308 1499.8 632.228 1546.63 694.778 1546.63C757.328 1546.63 807.62 1499.8 807.62 1433.48ZM636.314 1433.48C636.314 1394.19 658.945 1369.35 694.778 1369.35C729.982 1369.35 752.928 1394.19 752.928 1433.48C752.928 1472.14 729.982 1497.6 694.778 1497.6C658.945 1497.6 636.314 1472.14 636.314 1433.48Z" fill="white"/>
<path d="M981.168 1323.78V1460.51L891.271 1323.78H837.522V1544.43H891.271V1408.33L981.168 1544.43H1034.92V1323.78H981.168Z" fill="white"/>
<path d="M1176.98 1321.26C1110.97 1321.26 1064.76 1367.78 1064.76 1433.79C1064.76 1499.8 1111.28 1546 1177.29 1546C1235.44 1546 1272.22 1507.97 1283.53 1469.94V1419.96H1166.6V1459.57H1234.81C1226.64 1484.4 1208.09 1498.54 1181.38 1498.54C1142.71 1498.54 1119.45 1474.65 1119.45 1433.79C1119.45 1395.44 1142.4 1370.93 1176.98 1370.93C1197.09 1370.93 1212.18 1378.78 1220.35 1393.56H1279.76C1268.13 1348.3 1229.78 1321.26 1176.98 1321.26Z" fill="white"/>
<path d="M1450.66 1544.43H1504.41V1323.78H1450.66V1410.22H1367.05V1323.78H1313.3V1544.43H1367.05V1453.59H1450.66V1544.43Z" fill="white"/>
<path d="M1693.77 1544.43H1750.67L1670.83 1323.78H1608.59L1528.75 1544.43H1585.02L1598.22 1505.46H1680.57L1693.77 1544.43ZM1666.74 1463.97H1612.36L1639.4 1383.18L1666.74 1463.97Z" fill="white"/>
<path d="M1918.61 1323.78V1460.51L1828.71 1323.78H1774.96V1544.43H1828.71V1408.33L1918.61 1544.43H1972.36V1323.78H1918.61Z" fill="white"/>
<path d="M2093.99 1323.78H2011.32V1544.43H2093.99C2164.4 1544.43 2209.66 1499.48 2209.66 1434.11C2209.66 1368.41 2164.4 1323.78 2093.99 1323.78ZM2065.07 1497.91V1369.67H2090.53C2131.08 1369.67 2154.97 1393.56 2154.97 1434.11C2154.97 1474.65 2131.08 1497.91 2090.53 1497.91H2065.07Z" fill="white"/>
<path d="M2400 1478.74C2400 1404.87 2290.93 1422.16 2290.93 1383.81C2290.93 1369.98 2300.67 1363.38 2313.56 1363.7C2328.02 1364.01 2338.08 1372.5 2339.02 1386.64H2397.17C2394.97 1344.52 2362.6 1320.63 2314.5 1320.63C2268.3 1320.63 2234.04 1343.89 2234.04 1385.7C2233.41 1463.97 2343.74 1441.96 2343.74 1482.83C2343.74 1495.71 2333.68 1503.57 2317.96 1503.57C2302.87 1503.57 2292.19 1495.4 2290.62 1478.42H2233.41C2234.98 1523.06 2272.07 1546.63 2319.53 1546.63C2371.08 1546.63 2400 1515.83 2400 1478.74Z" fill="white"/>
<path d="M380.401 1702.9V1824.37H372.445V1719.52L325.768 1824.37H319.403L272.549 1719.52V1824.37H264.593V1702.9H273.079L322.585 1813.94L372.091 1702.9H380.401Z" fill="white"/>
<path d="M568.401 1792.54H509.525L497.679 1824.37H489.015L534.631 1703.08H543.472L588.911 1824.37H580.248L568.401 1792.54ZM565.926 1785.83L539.052 1713.51L512 1785.83H565.926Z" fill="white"/>
<path d="M733.177 1825.61C725.162 1825.61 718.148 1824.19 712.137 1821.36C706.125 1818.54 701.411 1814.7 697.992 1809.87C694.692 1805.04 692.806 1799.68 692.335 1793.78H700.644C701.587 1800.27 704.593 1806.04 709.662 1811.11C714.848 1816.18 722.686 1818.71 733.177 1818.71C739.306 1818.71 744.61 1817.59 749.089 1815.35C753.686 1813.11 757.222 1810.05 759.698 1806.16C762.173 1802.27 763.411 1797.97 763.411 1793.25C763.411 1787.24 761.937 1782.47 758.991 1778.93C756.162 1775.39 752.567 1772.74 748.205 1770.97C743.962 1769.21 738.186 1767.32 730.878 1765.32C722.863 1763.19 716.38 1761.07 711.43 1758.95C706.597 1756.83 702.471 1753.59 699.053 1749.23C695.753 1744.75 694.103 1738.68 694.103 1731.02C694.103 1725.12 695.635 1719.76 698.7 1714.93C701.882 1709.98 706.361 1706.09 712.137 1703.26C717.913 1700.43 724.572 1699.01 732.116 1699.01C743.078 1699.01 751.918 1701.72 758.637 1707.15C765.356 1712.57 769.363 1719.23 770.66 1727.13H762.173C761.466 1723.94 759.875 1720.7 757.399 1717.4C755.042 1714.1 751.624 1711.39 747.145 1709.27C742.783 1707.03 737.538 1705.91 731.409 1705.91C723.158 1705.91 716.203 1708.21 710.546 1712.8C704.888 1717.28 702.059 1723.3 702.059 1730.84C702.059 1736.85 703.532 1741.68 706.479 1745.34C709.426 1748.87 713.021 1751.58 717.264 1753.47C721.625 1755.24 727.46 1757.07 734.768 1758.95C742.901 1761.19 749.325 1763.37 754.04 1765.49C758.873 1767.5 762.939 1770.74 766.24 1775.22C769.658 1779.58 771.367 1785.53 771.367 1793.07C771.367 1798.61 769.894 1803.86 766.947 1808.81C764 1813.76 759.639 1817.83 753.863 1821.01C748.205 1824.08 741.31 1825.61 733.177 1825.61Z" fill="white"/>
<path d="M952.189 1700.25V1706.97H916.828V1824.37H908.871V1706.97H873.51V1700.25H952.189Z" fill="white"/>
<path d="M1067.49 1706.97V1758.77H1116.99V1765.49H1067.49V1817.65H1122.3V1824.37H1059.53V1700.25H1122.3V1706.97H1067.49Z" fill="white"/>
<path d="M1301.79 1824.37L1269.97 1771.5H1242.74V1824.37H1234.78V1700.25H1268.91C1282.7 1700.25 1293.01 1703.49 1299.85 1709.98C1306.8 1716.46 1310.28 1725.06 1310.28 1735.79C1310.28 1745.34 1307.57 1753.23 1302.15 1759.48C1296.84 1765.61 1289.06 1769.38 1278.81 1770.8L1311.34 1824.37H1301.79ZM1242.74 1764.79H1269.26C1280.22 1764.79 1288.41 1762.13 1293.84 1756.83C1299.26 1751.53 1301.97 1744.51 1301.97 1735.79C1301.97 1716.81 1290.95 1707.32 1268.91 1707.32H1242.74V1764.79Z" fill="white"/>
<path d="M1511.05 1824.37H1503.1L1430.25 1713.34V1824.37H1422.3V1700.43H1430.25L1503.1 1811.11V1700.43H1511.05V1824.37Z" fill="white"/>
<path d="M1683.97 1825.78C1672.53 1825.78 1662.22 1823.13 1653.03 1817.83C1643.83 1812.41 1636.64 1804.86 1631.46 1795.2C1626.27 1785.53 1623.68 1774.63 1623.68 1762.49C1623.68 1750.23 1626.27 1739.33 1631.46 1729.78C1636.64 1720.11 1643.83 1712.63 1653.03 1707.32C1662.22 1701.9 1672.53 1699.19 1683.97 1699.19C1695.4 1699.19 1705.71 1701.9 1714.91 1707.32C1724.1 1712.63 1731.29 1720.11 1736.48 1729.78C1741.67 1739.33 1744.26 1750.23 1744.26 1762.49C1744.26 1774.63 1741.67 1785.53 1736.48 1795.2C1731.29 1804.86 1724.1 1812.41 1714.91 1817.83C1705.71 1823.13 1695.4 1825.78 1683.97 1825.78ZM1683.97 1818.71C1693.75 1818.71 1702.59 1816.41 1710.49 1811.82C1718.39 1807.22 1724.57 1800.68 1729.05 1792.19C1733.65 1783.7 1735.95 1773.8 1735.95 1762.49C1735.95 1751.05 1733.65 1741.09 1729.05 1732.61C1724.57 1724.12 1718.39 1717.58 1710.49 1712.98C1702.59 1708.38 1693.75 1706.09 1683.97 1706.09C1674.18 1706.09 1665.34 1708.38 1657.45 1712.98C1649.55 1717.58 1643.3 1724.12 1638.7 1732.61C1634.11 1741.09 1631.81 1751.05 1631.81 1762.49C1631.81 1773.8 1634.11 1783.7 1638.7 1792.19C1643.3 1800.68 1649.55 1807.22 1657.45 1811.82C1665.34 1816.41 1674.18 1818.71 1683.97 1818.71Z" fill="white"/>
<path d="M1891.55 1700.25C1912.53 1700.25 1928.67 1705.73 1939.99 1716.69C1951.42 1727.66 1957.14 1742.92 1957.14 1762.49C1957.14 1782.05 1951.42 1797.26 1939.99 1808.1C1928.67 1818.95 1912.53 1824.37 1891.55 1824.37H1856.71V1700.25H1891.55ZM1891.55 1817.65C1910.29 1817.65 1924.55 1812.82 1934.33 1803.15C1944.12 1793.37 1949.01 1779.81 1949.01 1762.49C1949.01 1745.04 1944.12 1731.43 1934.33 1721.65C1924.55 1711.86 1910.29 1706.97 1891.55 1706.97H1864.67V1817.65H1891.55Z" fill="white"/>
<path d="M2077.56 1706.97V1758.77H2127.07V1765.49H2077.56V1817.65H2132.37V1824.37H2069.61V1700.25H2132.37V1706.97H2077.56Z" fill="white"/>
<g clip-path="url(#clip0_25_2484)">
<path d="M880.457 840.712L914.631 771.711L953.833 750.998L986.313 758.66L1070.83 801.122H1070.89L1170.83 821.453L1274.88 827.33L1372.13 817.39L1426.37 824.162H1426.51L1466.3 803.379L1466.41 803.259L1476.81 777.503V777.312L1461.91 749.347L1458.29 664.451L1437.5 578.102L1402.2 484.981L1366.89 404.557L1325.73 310.568L1305.39 241.432L1305.35 241.347L1271.88 203.845L1204.49 148.72L1160.63 111.224L1160.51 111.167L1138.8 108.458H1138.66L1100.22 130.145L1054.53 159.52L1054.44 159.64L1047.66 180.43V180.6L1062.98 212.106L1045.87 235.041V235.259L1054.44 256.085L1054.49 256.148L1070.76 275.132L1070.99 275.203L1091.73 270.702L1146.4 287.831H1146.45L1208.7 290.54L1221.32 334.208L1232.62 395.584L1226.26 445.672L1221.74 505.778V505.841L1238.02 581.326V581.404L1264.21 620.811L1213.09 590.603L1190.95 564.875L1143.9 521.933L1143.83 521.891L1094.08 502.003H1094H1026.69L997.349 480.839L946.229 451.915H946.144L866.095 441.975H866.038L811.818 449.651L746.647 429.474L779.917 481.129L781.273 519.929L781.337 520.078L817.064 557.129L864.422 590.039L827.423 667.132V667.344L853.152 708.839L838.247 791.443L838.289 791.626L880.457 840.712ZM953.833 750.54H953.678L914.335 771.33L914.236 771.421L880.436 840.691L838.741 791.372L853.647 708.783V708.621L827.931 667.153L864.965 590.003L864.888 589.714L817.403 556.734L781.767 519.774L780.419 480.973L780.376 480.854L746.696 429.397L811.783 450.018H811.882L866.116 442.342L946.066 452.31L997.13 481.234L1026.5 502.455L1026.64 502.497H1093.96L1143.62 522.349L1190.63 565.22L1212.77 590.956L1212.82 591.005L1264.83 621.728L1265.14 621.411L1238.48 581.199L1222.22 505.82L1226.73 445.757L1233.09 395.612V395.548L1221.79 334.095L1209.12 290.243L1208.91 290.081L1146.54 287.372L1091.84 270.208H1091.72L1071.06 274.702L1054.89 255.852L1046.33 235.231L1063.44 212.289V212.056L1048.1 180.508L1054.83 159.887L1100.44 130.561L1138.83 108.917L1160.39 111.612L1204.2 149.065L1271.57 204.197L1304.98 241.637L1325.31 310.723L1366.48 404.734L1401.78 485.157L1437.04 578.236L1457.84 664.55L1461.45 749.453V749.545L1476.34 777.425L1466.01 803.005L1426.34 823.725L1372.15 816.952H1372.1L1274.86 826.892L1170.88 821.016L1070.99 800.698L986.454 758.236H986.405L953.833 750.54Z" fill="#FE5448"/>
<path d="M1196.13 199.937L1250.61 236.085L1242.04 203.633L1196.13 199.937Z" fill="#2E3645"/>
<path d="M1431.29 696.599L1407.82 743.485L1384.29 691.083L1431.29 696.599Z" fill="#2E3645"/>
<path d="M1251.7 315.646L1289.8 375.505L1267.15 389.84L1251.7 315.646Z" fill="#2E3645"/>
<path d="M838.096 555.859L912.527 597.87L889.869 555.859H838.096Z" fill="#2E3645"/>
<path d="M1306.59 447.668L1325.3 500.226L1296.42 505.206L1306.59 447.668Z" fill="#2E3645"/>
<path d="M1373.15 554.949L1377.36 628.903L1332.17 590.61L1373.15 554.949Z" fill="#2E3645"/>
<path d="M1235.9 685.115L1281.05 730.561L1193.82 739.774L1235.9 685.115Z" fill="#2E3645"/>
<path d="M1105.92 577.594L1045.12 614.342L1116.06 622.01L1105.92 577.594Z" fill="#2E3645"/>
<path d="M1063.04 212.254L1063.47 212.191L1067.68 181.968L1067.46 181.707L1047.89 180.296L1047.66 180.621L1063.04 212.254ZM1067.19 182.145L1063.13 211.386L1048.24 180.783L1067.19 182.145Z" fill="#FE5448" stroke="#FE5448" stroke-width="0.4"/>
<path d="M1067.6 182.102L1098.39 153.644L1098.21 153.256L1054.63 159.52L1054.46 159.852L1067.25 182.046L1067.6 182.102ZM1097.55 153.792L1067.51 181.58L1055.03 159.915L1097.55 153.792Z" fill="#FE5448" stroke="#FE5448" stroke-width="0.4"/>
<path d="M1098.37 153.665L1127 134.286L1126.91 133.876L1100.37 130.145L1100.11 130.349L1097.99 153.46L1098.37 153.665ZM1126.26 134.236L1098.51 153.023L1100.54 130.631L1126.26 134.236Z" fill="#FE5448" stroke="#FE5448" stroke-width="0.4"/>
<path d="M1078.01 224.946L1078.37 224.72L1067.67 181.884H1067.22L1063.02 212.106L1063.1 212.311L1078.01 224.946ZM1067.51 183.125L1077.76 224.148L1063.49 212.064L1067.51 183.125Z" fill="#FE5448" stroke="#FE5448" stroke-width="0.4"/>
<path d="M1067.45 182.159H1088.54L1088.75 182.01L1098.45 153.552L1098.09 153.312L1067.29 181.771L1067.45 182.159ZM1088.38 181.707H1068.03L1097.74 154.25L1088.38 181.707Z" fill="#FE5448" stroke="#FE5448" stroke-width="0.4"/>
<path d="M1077.93 224.825L1078.37 224.776V198.011V197.884L1067.67 181.813L1067.27 181.989L1077.93 224.825ZM1077.93 198.081V222.928L1067.99 183.139L1077.93 198.081Z" fill="#FE5448" stroke="#FE5448" stroke-width="0.4"/>
<path d="M1077.96 198.138H1078.34L1088.7 182.06L1088.5 181.708H1067.41L1067.22 182.06L1077.96 198.138ZM1088.12 182.159L1078.15 197.595L1067.87 182.159H1088.12Z" fill="#FE5448" stroke="#FE5448" stroke-width="0.4"/>
<path d="M1088.7 182.074L1127.03 134.236L1126.73 133.912L1098.09 153.291L1098 153.404L1088.31 181.862L1088.7 182.074ZM1125.76 135.118L1089.17 180.79L1098.43 153.622L1125.76 135.118Z" fill="#FE5448" stroke="#FE5448" stroke-width="0.4"/>
<path d="M1092.88 248.444L1107.89 229.065L1107.74 228.705L1078.18 224.55L1077.96 224.896L1092.5 248.43L1092.88 248.444ZM1107.29 229.101L1092.72 247.915L1078.6 225.065L1107.29 229.101Z" fill="#FE5448" stroke="#FE5448" stroke-width="0.4"/>
<path d="M1092.74 248.529L1112.6 244.381L1112.77 244.092L1107.92 228.868L1107.53 228.797L1092.51 248.177L1092.74 248.529ZM1112.26 243.986L1093.25 247.965L1107.63 229.404L1112.26 243.986Z" fill="#FE5448" stroke="#FE5448" stroke-width="0.4"/>
<path d="M1107.54 229.086L1107.92 228.839L1088.75 181.848L1088.35 181.813L1077.96 197.884V198.166L1107.54 229.086ZM1088.48 182.42L1107.05 227.908L1078.44 197.982L1088.48 182.42Z" fill="#FE5448" stroke="#FE5448" stroke-width="0.4"/>
<path d="M1107.91 229.016L1126.16 186.328L1125.98 186.018L1088.55 181.714L1088.31 182.018L1107.48 229.016H1107.91ZM1125.62 186.434L1107.71 228.339L1088.89 182.201L1125.62 186.434Z" fill="#FE5448" stroke="#FE5448" stroke-width="0.4"/>
<path d="M1125.93 186.469L1126.17 186.243L1127.1 134.102L1126.7 133.954L1088.36 181.792L1088.51 182.159L1125.93 186.469ZM1126.63 134.758L1125.72 185.989L1088.96 181.757L1126.63 134.758Z" fill="#FE5448" stroke="#FE5448" stroke-width="0.4"/>
<path d="M1144.29 253.827L1175.92 240.423L1176 240.063L1157.07 218.603L1156.68 218.674L1143.97 253.517L1144.29 253.827ZM1175.46 240.148L1144.59 253.206L1156.98 219.21L1175.46 240.148Z" fill="#FE5448" stroke="#FE5448" stroke-width="0.4"/>
<path d="M1122.8 253.785H1123.11L1157.06 218.949L1156.78 218.596L1112.45 243.993L1112.41 244.36L1122.8 253.785ZM1155.61 219.774L1122.94 253.305L1112.94 244.198L1155.61 219.774Z" fill="#FE5448" stroke="#FE5448" stroke-width="0.4"/>
<path d="M1122.95 253.841H1144.19L1144.41 253.693L1157.11 218.85L1156.74 218.617L1122.79 253.46L1122.95 253.841ZM1144.04 253.39H1123.48L1156.32 219.69L1144.04 253.39Z" fill="#FE5448" stroke="#FE5448" stroke-width="0.4"/>
<path d="M1107.76 229.15L1156.95 218.998L1157.07 218.617L1126.12 186.088L1125.74 186.152L1107.5 228.84L1107.76 229.15ZM1156.48 218.639L1108.11 228.621L1126.05 186.646L1156.48 218.639Z" fill="#FE5448" stroke="#FE5448" stroke-width="0.4"/>
<path d="M1156.73 218.928L1157.12 218.737L1146.96 157.976L1146.55 157.884L1125.77 186.103V186.392L1156.73 218.928ZM1146.59 158.582L1156.55 218.088L1126.24 186.244L1146.59 158.582Z" fill="#FE5448" stroke="#FE5448" stroke-width="0.4"/>
<path d="M1146.56 158.159L1146.95 158.081L1160.72 111.464L1160.38 111.21L1126.77 133.919L1126.72 134.251L1146.56 158.159ZM1160.09 111.937L1146.64 157.545L1127.21 134.145L1160.09 111.937Z" fill="#FE5448" stroke="#FE5448" stroke-width="0.4"/>
<path d="M1126.82 134.321L1127.06 134.194L1138.95 108.797L1138.64 108.508L1100.2 130.194L1100.28 130.617L1126.82 134.321ZM1138.25 109.227L1126.72 133.848L1101 130.236L1138.25 109.227Z" fill="#FE5448" stroke="#FE5448" stroke-width="0.4"/>
<path d="M1173.43 159.076L1204.4 149.115L1204.48 148.727L1160.62 111.224L1160.25 111.45L1173.14 158.921L1173.43 159.076ZM1203.88 148.804L1173.52 158.575L1160.89 112.014L1203.88 148.804Z" fill="#FE5448" stroke="#FE5448" stroke-width="0.4"/>
<path d="M1224.8 205.658L1271.74 204.247L1271.88 203.852L1204.49 148.72L1204.13 148.974L1224.61 205.51L1224.8 205.658ZM1271.12 203.817L1224.95 205.228L1204.84 149.623L1271.12 203.817Z" fill="#FE5448" stroke="#FE5448" stroke-width="0.4"/>
<path d="M1157.11 218.836L1173.59 158.921L1173.38 158.639L1146.74 157.792L1146.51 158.053L1156.67 218.815L1157.11 218.836ZM1173.07 159.076L1156.95 217.729L1147 158.251L1173.07 159.076Z" fill="#FE5448" stroke="#FE5448" stroke-width="0.4"/>
<path d="M1188.51 213.538L1224.84 205.651L1224.97 205.291L1173.55 158.73L1173.18 158.956L1188.25 213.376L1188.51 213.538ZM1224.31 205.291L1188.62 213.051L1173.79 159.555L1224.31 205.291Z" fill="#FE5448" stroke="#FE5448" stroke-width="0.4"/>
<path d="M1175.66 240.381L1176.04 240.332L1188.66 213.411L1188.42 213.094L1156.86 218.554L1156.73 218.928L1175.66 240.381ZM1188.07 213.609L1175.78 239.824L1157.33 218.928L1188.07 213.609Z" fill="#FE5448" stroke="#FE5448" stroke-width="0.4"/>
<path d="M1263.41 250.836L1305.24 241.75L1305.37 241.376L1271.9 203.873L1271.51 203.986L1263.13 250.547L1263.41 250.836ZM1304.76 241.39L1263.63 250.321L1271.86 204.522L1304.76 241.39Z" fill="#FE5448" stroke="#FE5448" stroke-width="0.4"/>
<path d="M1217.01 266.751L1263.43 250.829L1263.53 250.469L1224.97 205.291L1224.57 205.411L1216.72 266.518L1217.01 266.751ZM1262.97 250.526L1217.2 266.208L1224.97 205.996L1262.97 250.526Z" fill="#FE5448" stroke="#FE5448" stroke-width="0.4"/>
<path d="M1216.81 266.73L1217.14 266.427L1188.66 213.207H1188.25L1175.63 240.127L1175.71 240.409L1216.81 266.73ZM1188.47 213.82L1216.33 265.877L1176.09 240.148L1188.47 213.82Z" fill="#FE5448" stroke="#FE5448" stroke-width="0.4"/>
<path d="M1275.33 274.603L1275.57 274.279L1263.56 250.512L1263.29 250.406L1216.87 266.321L1216.91 266.758L1275.33 274.603ZM1263.25 250.893L1274.97 274.102L1217.92 266.441L1263.25 250.893Z" fill="#FE5448" stroke="#FE5448" stroke-width="0.4"/>
<path d="M1275.53 274.533L1305.36 241.679L1305.15 241.305L1263.31 250.399L1263.15 250.716L1275.16 274.483L1275.53 274.533ZM1304.56 241.898L1275.42 273.989L1263.69 250.773L1304.56 241.898Z" fill="#FE5448" stroke="#FE5448" stroke-width="0.4"/>
<path d="M1208.92 290.547L1275.42 274.603V274.159L1216.99 266.314L1216.74 266.462L1208.68 290.25L1208.92 290.547ZM1274.13 274.427L1209.22 289.989L1217.1 266.765L1274.13 274.427Z" fill="#FE5448" stroke="#FE5448" stroke-width="0.4"/>
<path d="M1146.52 287.831L1217.01 266.751L1217.06 266.349L1175.95 240.042L1175.64 240.113L1146.27 287.499L1146.52 287.831ZM1216.43 266.462L1146.99 287.231L1175.94 240.55L1216.43 266.462Z" fill="#FE5448" stroke="#FE5448" stroke-width="0.4"/>
<path d="M1146.4 287.831L1146.69 287.598L1144.42 253.601L1144.12 253.404L1091.67 270.229V270.66L1146.4 287.831ZM1143.99 253.919L1146.21 287.302L1092.49 270.441L1143.99 253.919Z" fill="#FE5448" stroke="#FE5448" stroke-width="0.4"/>
<path d="M1091.84 270.645L1123.05 253.813L1123.1 253.446L1112.7 243.986H1112.37L1091.55 270.279L1091.84 270.645ZM1122.59 253.566L1092.63 269.728L1112.61 244.487L1122.59 253.566Z" fill="#FE5448" stroke="#FE5448" stroke-width="0.4"/>
<path d="M1070.99 275.182L1091.79 270.667L1091.96 270.455L1092.93 248.324L1092.53 248.176L1070.77 274.829L1070.99 275.182ZM1091.52 270.243L1071.52 274.582L1092.44 248.959L1091.52 270.243Z" fill="#FE5448" stroke="#FE5448" stroke-width="0.4"/>
<path d="M1054.7 256.205L1092.74 248.529L1092.89 248.191L1078.34 224.656H1077.97L1054.47 255.866L1054.7 256.205ZM1092.33 248.148L1055.19 255.647L1078.1 225.171L1092.33 248.148Z" fill="#FE5448" stroke="#FE5448" stroke-width="0.4"/>
<path d="M1046.13 235.414L1078.22 224.988L1078.29 224.6L1063.4 211.986H1063.06L1045.88 235.033L1046.13 235.414ZM1077.69 224.684L1046.67 234.765L1063.28 212.487L1077.69 224.684Z" fill="#FE5448" stroke="#FE5448" stroke-width="0.4"/>
<path d="M1325.49 310.878L1325.77 310.596L1305.41 241.46L1304.98 241.503L1298 303.887L1298.18 304.134L1325.49 310.878ZM1305.3 242.667L1325.23 310.349L1298.49 303.746L1305.3 242.667Z" fill="#FE5448" stroke="#FE5448" stroke-width="0.4"/>
<path d="M1366.58 404.832L1366.91 404.557L1325.76 310.568L1325.33 310.653L1322.71 376.586L1322.82 376.79L1366.58 404.832ZM1325.73 311.647L1366.19 404.049L1323.16 376.473L1325.73 311.647Z" fill="#FE5448" stroke="#FE5448" stroke-width="0.4"/>
<path d="M1401.9 485.284L1402.19 484.98L1366.89 404.557H1366.46L1347.64 465.34L1347.77 465.622L1401.9 485.284ZM1366.74 405.291L1401.56 484.656L1348.16 465.263L1366.74 405.291Z" fill="#FE5448" stroke="#FE5448" stroke-width="0.4"/>
<path d="M1437.13 578.342L1437.47 578.074L1402.16 484.995H1401.73L1387.81 546.37L1387.91 546.61L1437.13 578.342ZM1402.03 485.855L1436.8 577.566L1388.32 546.286L1402.03 485.855Z" fill="#FE5448" stroke="#FE5448" stroke-width="0.4"/>
<path d="M1457.98 664.663L1458.3 664.409L1437.5 578.102L1437.08 578.046L1403.14 637.213L1403.23 637.524L1457.98 664.663ZM1437.19 578.758L1457.72 664.042L1403.61 637.228L1437.19 578.758Z" fill="#FE5448" stroke="#FE5448" stroke-width="0.4"/>
<path d="M1461.55 749.594L1461.9 749.397L1458.28 664.452L1457.9 664.296L1407.3 712.381V712.727L1461.55 749.594ZM1457.86 664.938L1461.43 748.938L1407.85 712.522L1457.86 664.938Z" fill="#FE5448" stroke="#FE5448" stroke-width="0.4"/>
<path d="M1476.55 777.644L1476.8 777.312L1461.88 749.298L1461.59 749.199L1419.16 765.63L1419.19 766.06L1476.55 777.644ZM1461.57 749.693L1476.17 777.107L1420.04 765.771L1461.57 749.693Z" fill="#FE5448" stroke="#FE5448" stroke-width="0.4"/>
<path d="M1426.51 824.162L1466.3 803.379L1466.34 802.998L1419.38 765.665L1419.02 765.87L1426.2 823.986L1426.51 824.162ZM1465.79 803.139L1426.58 823.598L1419.52 766.349L1465.79 803.139Z" fill="#FE5448" stroke="#FE5448" stroke-width="0.4"/>
<path d="M1426.37 824.184L1426.56 823.803L1380.37 777.242L1379.99 777.355L1371.91 817.115L1372.1 817.39L1426.37 824.184ZM1380.34 777.884L1425.78 823.654L1372.4 816.988L1380.34 777.884Z" fill="#FE5448" stroke="#FE5448" stroke-width="0.4"/>
<path d="M1274.92 827.351L1372.15 817.411L1372.25 816.995L1315.9 782.723L1315.61 782.766L1274.73 826.97L1274.92 827.351ZM1371.44 817.03L1275.47 826.843L1315.82 783.203L1371.44 817.03Z" fill="#FE5448" stroke="#FE5448" stroke-width="0.4"/>
<path d="M1274.88 827.351L1275.04 826.949L1222.17 783.661H1221.88L1170.75 821.051L1170.87 821.453L1274.88 827.351ZM1222.01 784.127L1274.22 826.864L1171.53 821.058L1222.01 784.127Z" fill="#FE5448" stroke="#FE5448" stroke-width="0.4"/>
<path d="M1221.64 334.391L1252.61 317.037V316.642L1208.98 290.13L1208.64 290.391L1221.31 334.215L1221.64 334.391ZM1252.06 316.825L1221.69 333.82L1209.27 290.786L1252.06 316.825Z" fill="#FE5448" stroke="#FE5448" stroke-width="0.4"/>
<path d="M1233 395.767L1265.13 365.037V364.692L1221.69 333.961L1221.34 334.187L1232.64 395.64L1233 395.767ZM1264.62 364.903L1232.98 395.147L1221.86 334.653L1264.62 364.903Z" fill="#FE5448" stroke="#FE5448" stroke-width="0.4"/>
<path d="M1226.61 445.968L1262.92 427.69L1262.99 427.33L1233 395.45L1232.62 395.577L1226.26 445.735L1226.61 445.968ZM1262.45 427.422L1226.78 445.369L1233 396.113L1262.45 427.422Z" fill="#FE5448" stroke="#FE5448" stroke-width="0.4"/>
<path d="M1222.06 506.074L1265.05 491.005L1265.15 490.646L1226.68 445.602L1226.28 445.736L1221.76 505.827L1222.06 506.074ZM1264.59 490.702L1222.22 505.517L1226.68 446.314L1264.59 490.702Z" fill="#FE5448" stroke="#FE5448" stroke-width="0.4"/>
<path d="M1238.45 581.453L1268.85 541.475L1268.8 541.157L1222.15 505.679L1221.79 505.905L1238.07 581.39L1238.45 581.453ZM1268.35 541.383L1238.39 580.79L1222.34 506.406L1268.35 541.383Z" fill="#FE5448" stroke="#FE5448" stroke-width="0.4"/>
<path d="M1265.13 621.665L1295.64 578.286L1295.44 577.933L1238.25 581.094L1238.07 581.446L1264.75 621.658L1265.13 621.665ZM1295.01 578.406L1264.96 621.136L1238.67 581.524L1295.01 578.406Z" fill="#FE5448" stroke="#FE5448" stroke-width="0.4"/>
<path d="M1252.56 317.051L1298.29 304.134L1298.4 303.774L1275.54 274.243H1275.16L1252.3 316.755L1252.56 317.051ZM1297.84 303.788L1252.95 316.487L1275.4 274.808L1297.84 303.788Z" fill="#FE5448" stroke="#FE5448" stroke-width="0.4"/>
<path d="M1265.17 364.988L1298.4 304.056L1298.14 303.732L1252.42 316.656L1252.25 316.931L1264.73 364.974L1265.17 364.988ZM1297.77 304.282L1265.05 364.247L1252.78 316.981L1297.77 304.282Z" fill="#FE5448" stroke="#FE5448" stroke-width="0.4"/>
<path d="M1322.9 376.818L1323.15 376.522L1298.44 303.859L1298.02 303.824L1264.76 364.79L1264.92 365.115L1322.9 376.818ZM1298.18 304.48L1322.6 376.296L1265.32 364.727L1298.18 304.48Z" fill="#FE5448" stroke="#FE5448" stroke-width="0.4"/>
<path d="M1262.89 427.704L1299.69 415.111L1299.8 414.772L1265.16 364.755L1264.74 364.875L1262.62 427.478L1262.89 427.704ZM1299.26 414.815L1263.06 427.203L1265.17 365.609L1299.26 414.815Z" fill="#FE5448" stroke="#FE5448" stroke-width="0.4"/>
<path d="M1347.72 465.609L1348.1 465.39L1323.16 376.557L1322.75 376.501L1299.45 414.801V415.076L1347.72 465.609ZM1322.86 377.178L1347.42 464.656L1299.9 414.907L1322.86 377.178Z" fill="#FE5448" stroke="#FE5448" stroke-width="0.4"/>
<path d="M1265.05 491.005L1307.41 476.007L1307.5 475.647L1262.97 427.323L1262.58 427.478L1264.7 490.801L1265.05 491.005ZM1306.95 475.697L1265.22 490.49L1263.1 428.085L1306.95 475.697Z" fill="#FE5448" stroke="#FE5448" stroke-width="0.4"/>
<path d="M1307.4 476.028L1347.93 465.644L1348.04 465.27L1299.78 414.744L1299.39 414.928L1307.12 475.838L1307.4 476.028ZM1347.45 465.305L1307.54 475.527L1299.93 415.562L1347.45 465.305Z" fill="#FE5448" stroke="#FE5448" stroke-width="0.4"/>
<path d="M1268.86 541.453L1307.55 475.922L1307.28 475.598L1264.91 490.596L1264.76 490.822L1268.46 541.354L1268.86 541.453ZM1306.84 476.233L1268.84 540.599L1265.21 490.963L1306.84 476.233Z" fill="#FE5448" stroke="#FE5448" stroke-width="0.4"/>
<path d="M1295.27 578.286H1295.64L1325.94 535.584L1325.73 535.231L1268.63 541.115L1268.46 541.474L1295.27 578.286ZM1325.3 535.732L1295.45 577.778L1269.08 541.531L1325.3 535.732Z" fill="#FE5448" stroke="#FE5448" stroke-width="0.4"/>
<path d="M1388.03 546.638L1388.27 546.314L1348.08 465.326L1347.67 465.361L1325.56 535.386L1325.73 535.675L1388.03 546.638ZM1347.93 466.032L1387.66 546.116L1326.07 535.28L1347.93 466.032Z" fill="#FE5448" stroke="#FE5448" stroke-width="0.4"/>
<path d="M1325.99 535.52L1348.1 465.496L1347.82 465.207L1307.29 475.591L1307.14 475.88L1325.56 535.52H1325.99ZM1347.54 465.75L1325.78 534.695L1307.64 475.972L1347.54 465.75Z" fill="#FE5448" stroke="#FE5448" stroke-width="0.4"/>
<path d="M1307.19 667.125H1307.54L1345.53 611.393L1345.31 611.041L1264.92 621.326L1264.79 621.7L1307.19 667.125ZM1344.87 611.541L1307.32 666.61L1265.41 621.7L1344.87 611.541Z" fill="#FE5448" stroke="#FE5448" stroke-width="0.4"/>
<path d="M1345.22 611.443L1345.55 611.196L1326 535.4L1325.59 535.323L1295.27 578.025L1295.33 578.342L1345.22 611.443ZM1325.68 535.958L1345 610.737L1295.8 578.095L1325.68 535.958Z" fill="#FE5448" stroke="#FE5448" stroke-width="0.4"/>
<path d="M1403.21 637.531L1403.52 637.284L1388.29 546.378L1387.87 546.293L1345.15 611.125L1345.24 611.457L1403.21 637.531ZM1387.93 547.02L1403.01 636.946L1345.67 611.154L1387.93 547.02Z" fill="#FE5448" stroke="#FE5448" stroke-width="0.4"/>
<path d="M1170.83 821.474L1171.07 821.115L1127.53 761.552L1127.21 761.503L1070.82 800.734L1070.9 801.143L1170.83 821.474ZM1127.28 761.997L1170.35 820.91L1071.5 800.804L1127.28 761.997Z" fill="#FE5448" stroke="#FE5448" stroke-width="0.4"/>
<path d="M1070.83 801.122L1071.15 800.84L1044.88 729.157L1044.56 729.03L986.264 758.243V758.646L1070.83 801.122ZM1044.54 729.545L1070.53 800.459L986.871 758.448L1044.54 729.545Z" fill="#FE5448" stroke="#FE5448" stroke-width="0.4"/>
<path d="M986.313 758.667L986.588 758.42L980.996 706.751L980.58 706.66L953.614 750.646L953.755 750.984L986.313 758.667ZM980.615 707.457L986.108 758.152L954.158 750.617L980.615 707.457Z" fill="#FE5448" stroke="#FE5448" stroke-width="0.4"/>
<path d="M914.568 771.781L953.911 750.998L953.975 750.646L911.814 703.887L911.419 704.049L914.243 771.591L914.568 771.781ZM953.445 750.737L914.674 771.196L911.899 704.635L953.445 750.737Z" fill="#FE5448" stroke="#FE5448" stroke-width="0.4"/>
<path d="M880.457 840.713L914.66 771.647L914.398 771.33L838.424 791.21L838.304 791.57L880.457 840.713ZM914.031 771.894L880.457 840.713L838.868 791.563L914.031 771.894Z" fill="#FE5448" stroke="#FE5448" stroke-width="0.4"/>
<path d="M914.292 771.704L914.681 771.541L911.856 703.993L911.609 703.781L853.371 708.515L853.23 708.896L914.292 771.704ZM911.419 704.247L914.201 770.963L853.894 708.924L911.419 704.247Z" fill="#FE5448" stroke="#FE5448" stroke-width="0.4"/>
<path d="M853.216 708.861H853.569L889.749 646.328L889.481 645.997L827.522 666.963L827.402 667.295L853.216 708.861ZM889.092 646.61L853.4 708.303L827.981 667.295L889.092 646.61Z" fill="#FE5448" stroke="#FE5448" stroke-width="0.4"/>
<path d="M827.698 667.372L889.664 646.406L889.798 646.102L864.916 589.799H864.506L827.444 667.076L827.698 667.372ZM889.283 646.06L828.065 666.772L864.704 590.476L889.283 646.06Z" fill="#FE5448" stroke="#FE5448" stroke-width="0.4"/>
<path d="M864.584 590.088L864.937 589.905L864.527 519.189L864.16 519.012L817.086 556.741V557.1L864.584 590.088ZM864.083 519.654L864.485 589.495L817.601 556.931L864.083 519.654Z" fill="#FE5448" stroke="#FE5448" stroke-width="0.4"/>
<path d="M781.499 520.092L864.302 519.386L864.457 518.998L827.783 483.725H827.487L781.358 519.704L781.499 520.092ZM863.744 518.97L782.163 519.633L827.614 484.184L863.744 518.97Z" fill="#FE5448" stroke="#FE5448" stroke-width="0.4"/>
<path d="M827.614 484.113L827.833 483.788L812.002 449.735L811.642 449.672L779.981 480.846L780.13 481.234L827.614 484.113ZM811.727 450.215L827.261 483.64L780.659 480.818L811.727 450.215Z" fill="#FE5448" stroke="#FE5448" stroke-width="0.4"/>
<path d="M827.635 484.113L906.914 482.384L907.069 481.996L866.229 441.989H865.905L827.458 483.725L827.635 484.113ZM906.37 481.94L828.15 483.647L866.074 442.469L906.37 481.94Z" fill="#FE5448" stroke="#FE5448" stroke-width="0.4"/>
<path d="M969.127 530.786L969.48 530.547L946.335 452.028L945.982 451.908L906.773 481.975V482.335L969.127 530.786ZM945.996 452.48L968.845 530.017L907.281 482.173L945.996 452.48Z" fill="#FE5448" stroke="#FE5448" stroke-width="0.4"/>
<path d="M969.367 530.815L1026.72 502.448V502.06L997.321 480.825L996.996 480.896L969.035 530.497L969.367 530.815ZM1026.19 502.208L969.826 530.081L997.3 481.34L1026.19 502.208Z" fill="#FE5448" stroke="#FE5448" stroke-width="0.4"/>
<path d="M922.06 554.737L922.398 554.497L907.161 482.109L906.787 481.982L864.182 519.019V519.379L922.06 554.737ZM906.794 482.582L921.855 554.081L864.711 519.161L906.794 482.582Z" fill="#FE5448" stroke="#FE5448" stroke-width="0.4"/>
<path d="M938.003 620.106L938.307 619.845L922.37 554.483L922.031 554.349L864.591 589.707V590.102L938.003 620.106ZM922.003 554.892L937.763 619.52L865.213 589.891L922.003 554.892Z" fill="#FE5448" stroke="#FE5448" stroke-width="0.4"/>
<path d="M990.994 585.157L991.298 584.861L969.473 530.54L969.162 530.42L922.052 554.356V554.766L990.994 585.157ZM969.141 530.921L990.669 584.536L922.681 554.554L969.141 530.921Z" fill="#FE5448" stroke="#FE5448" stroke-width="0.4"/>
<path d="M1062.94 561.876H1063.34L1094.2 502.349L1094 502.018H1026.62L1026.43 502.363L1062.94 561.876ZM1093.64 502.469L1063.13 561.298L1027.03 502.469H1093.64Z" fill="#FE5448" stroke="#FE5448" stroke-width="0.4"/>
<path d="M1141.01 587.93L1141.31 587.725L1143.97 522.116L1143.65 521.905L1063.04 561.552V561.968L1141.01 587.93ZM1143.51 522.497L1140.86 587.4L1063.73 561.714L1143.51 522.497Z" fill="#FE5448" stroke="#FE5448" stroke-width="0.4"/>
<path d="M1193.9 634.956L1194.28 634.772L1191.01 565.079L1190.69 564.882L1140.98 587.549L1140.92 587.922L1193.9 634.956ZM1190.54 565.397L1193.8 634.257L1141.46 587.774L1190.54 565.397Z" fill="#FE5448" stroke="#FE5448" stroke-width="0.4"/>
<path d="M1194.12 635.005L1264.99 621.757L1265.07 621.34L1213.06 590.61L1212.73 590.716L1193.87 634.695L1194.12 635.005ZM1264.32 621.418L1194.42 634.483L1213.02 591.132L1264.32 621.418Z" fill="#FE5448" stroke="#FE5448" stroke-width="0.4"/>
<path d="M1253.02 680L1307.38 667.196L1307.5 666.822L1265.13 621.383L1264.74 621.489L1252.74 679.732L1253.02 680ZM1306.92 666.843L1253.26 679.478L1265.08 622.011L1306.92 666.843Z" fill="#FE5448" stroke="#FE5448" stroke-width="0.4"/>
<path d="M1252.96 680.007L1253.1 679.598L1194.21 634.603L1193.87 634.688L1173.78 677.376L1173.98 677.7L1252.96 680.007ZM1194.16 635.132L1252.27 679.534L1174.34 677.249L1194.16 635.132Z" fill="#FE5448" stroke="#FE5448" stroke-width="0.4"/>
<path d="M1063.06 561.976L1063.33 561.644L1026.81 502.124L1026.52 502.039L969.162 530.406V530.822L1063.06 561.976ZM1026.56 502.54L1062.65 561.348L969.882 530.568L1026.56 502.54Z" fill="#FE5448" stroke="#FE5448" stroke-width="0.4"/>
<path d="M1407.35 712.741L1407.68 712.529L1403.53 637.312L1403.14 637.164L1356.75 685.136L1356.81 685.496L1407.35 712.741ZM1403.11 637.855L1407.22 712.155L1357.3 685.256L1403.11 637.855Z" fill="#FE5448" stroke="#FE5448" stroke-width="0.4"/>
<path d="M1356.84 685.531L1357.14 685.284L1345.56 611.21L1345.15 611.118L1307.16 666.85L1307.27 667.189L1356.84 685.531ZM1345.2 611.852L1356.63 685.009L1307.7 666.899L1345.2 611.852Z" fill="#FE5448" stroke="#FE5448" stroke-width="0.4"/>
<path d="M1380.27 777.637L1419.31 766.06L1419.46 765.792L1407.68 712.522H1407.25L1380 777.425L1380.27 777.637ZM1418.97 765.686L1380.6 777.065L1407.39 713.284L1418.97 765.686Z" fill="#FE5448" stroke="#FE5448" stroke-width="0.4"/>
<path d="M1315.8 783.139L1380.23 777.644L1380.37 777.263L1338.34 734.653L1337.98 734.716L1315.57 782.822L1315.8 783.139ZM1379.71 777.235L1316.16 782.66L1338.26 735.196L1379.71 777.235Z" fill="#FE5448" stroke="#FE5448" stroke-width="0.4"/>
<path d="M1338.25 735.027L1407.53 712.755L1407.57 712.346L1357.03 685.115L1356.71 685.235L1337.97 734.73L1338.25 735.027ZM1406.88 712.522L1338.56 734.483L1357.01 685.637L1406.88 712.522Z" fill="#FE5448" stroke="#FE5448" stroke-width="0.4"/>
<path d="M1338.06 734.998L1338.39 734.716L1307.58 666.878L1307.33 666.751L1252.96 679.556L1252.89 679.965L1338.06 734.998ZM1307.22 667.238L1337.65 734.201L1253.53 679.88L1307.22 667.238Z" fill="#FE5448" stroke="#FE5448" stroke-width="0.4"/>
<path d="M1222.03 784.064L1315.78 783.139L1315.91 782.737L1265.08 744.804H1264.79L1221.86 783.654L1222.03 784.064ZM1315.11 782.695L1222.61 783.605L1264.98 745.277L1315.11 782.695Z" fill="#FE5448" stroke="#FE5448" stroke-width="0.4"/>
<path d="M1221.97 784.057L1222.21 783.711L1183.52 726.723L1183.22 726.66L1127.22 761.496L1127.28 761.912L1221.97 784.057ZM1183.28 727.153L1221.51 783.485L1127.92 761.616L1183.28 727.153Z" fill="#FE5448" stroke="#FE5448" stroke-width="0.4"/>
<path d="M1264.98 745.206L1338.21 735.034L1338.3 734.617L1253.09 679.591L1252.74 679.817L1264.74 745.023L1264.98 745.206ZM1337.55 734.667L1265.13 744.727L1253.28 680.254L1337.55 734.667Z" fill="#FE5448" stroke="#FE5448" stroke-width="0.4"/>
<path d="M1264.9 745.199L1265.17 744.938L1253.17 679.739L1252.82 679.591L1183.21 726.631L1183.29 727.041L1264.9 745.199ZM1252.8 680.162L1264.67 744.684L1183.9 726.744L1252.8 680.162Z" fill="#FE5448" stroke="#FE5448" stroke-width="0.4"/>
<path d="M1127.25 761.905L1127.55 761.63L1106.65 696.677L1106.33 696.543L1044.56 729.037V729.446L1127.25 761.905ZM1106.31 697.072L1126.98 761.312L1045.21 729.206L1106.31 697.072Z" fill="#FE5448" stroke="#FE5448" stroke-width="0.4"/>
<path d="M1044.59 729.453L1044.88 729.192L1033.59 673.855L1033.24 673.707L980.664 706.589L980.707 706.991L1044.59 729.453ZM1033.19 674.265L1044.36 728.896L981.286 706.723L1033.19 674.265Z" fill="#FE5448" stroke="#FE5448" stroke-width="0.4"/>
<path d="M911.433 704.056H911.856L938.299 619.972L937.982 619.704L889.481 646.01L889.382 646.286L911.433 704.056ZM937.706 620.339L911.623 703.351L889.869 646.349L937.706 620.339Z" fill="#FE5448" stroke="#FE5448" stroke-width="0.4"/>
<path d="M980.763 706.998L980.989 706.716L969.48 661.383L969.127 661.256L911.51 703.824L911.638 704.233L980.763 706.998ZM969.127 661.848L980.481 706.568L912.294 703.831L969.127 661.848Z" fill="#FE5448" stroke="#FE5448" stroke-width="0.4"/>
<path d="M969.085 661.573L969.48 661.495L991.305 585.009L990.959 584.762L937.961 619.718L937.904 620.042L969.085 661.573ZM990.698 585.474L969.169 660.959L938.412 619.979L990.698 585.474Z" fill="#FE5448" stroke="#FE5448" stroke-width="0.4"/>
<path d="M1183.25 727.062L1183.56 726.808L1174.21 677.425L1173.92 677.249L1106.35 696.522V696.945L1183.25 727.062ZM1173.81 677.757L1183.04 726.49L1107.15 696.769L1173.81 677.757Z" fill="#FE5448" stroke="#FE5448" stroke-width="0.4"/>
<path d="M1106.35 696.952L1106.63 696.67L1089.68 639.048L1089.35 638.921L1033.23 673.7L1033.29 674.109L1106.35 696.952ZM1089.31 639.457L1106.08 696.395L1033.87 673.82L1089.31 639.457Z" fill="#FE5448" stroke="#FE5448" stroke-width="0.4"/>
<path d="M1033.3 674.116L1033.57 673.898V617.827L1033.22 617.637L969.134 661.249L969.219 661.658L1033.3 674.116ZM1033.12 618.258V673.623L969.84 661.319L1033.12 618.258Z" fill="#FE5448" stroke="#FE5448" stroke-width="0.4"/>
<path d="M1033.2 617.989L1033.54 617.919L1063.34 561.848L1063.06 561.531L991.044 584.719L990.973 585.115L1033.2 617.989ZM1062.68 562.13L1033.27 617.467L991.559 585.016L1062.68 562.13Z" fill="#FE5448" stroke="#FE5448" stroke-width="0.4"/>
<path d="M1089.62 639.274L1141.23 587.873L1141.15 587.499L1063.21 561.552L1062.92 561.841L1089.25 639.154L1089.62 639.274ZM1140.66 587.817L1089.56 638.695L1063.5 562.117L1140.66 587.817Z" fill="#FE5448" stroke="#FE5448" stroke-width="0.4"/>
<path d="M1033.47 674.088L1089.58 639.302L1089.54 638.9L1033.43 617.615L1033.12 617.827V673.898L1033.47 674.088ZM1088.96 639.153L1033.57 673.482V618.152L1088.96 639.153Z" fill="#FE5448" stroke="#FE5448" stroke-width="0.4"/>
<path d="M1089.47 639.337L1194.09 635.013L1194.23 634.618L1141.23 587.549H1140.95L1089.33 638.942L1089.47 639.337ZM1193.51 634.582L1090.04 638.864L1141.09 588.028L1193.51 634.582Z" fill="#FE5448" stroke="#FE5448" stroke-width="0.4"/>
<path d="M1106.5 696.952L1174.05 677.693V677.27L1089.52 638.906L1089.21 639.175L1106.16 696.804L1106.5 696.952ZM1173.33 677.425L1106.59 696.473L1089.82 639.534L1173.33 677.425Z" fill="#FE5448" stroke="#FE5448" stroke-width="0.4"/>
<path d="M717.239 526.984L769.192 479.154V478.822L730.047 441.997L729.666 442.131L716.85 526.787L717.239 526.984ZM768.712 479.012L717.401 526.244L730.061 442.61L768.712 479.012Z" fill="#FE5448" stroke="#FE5448" stroke-width="0.4"/>
<path d="M805.407 570.638L805.591 570.265L762.633 519.041L762.237 519.139L751.505 567.936L751.71 568.212L805.407 570.638ZM762.583 519.69L804.948 570.166L752.034 567.774L762.583 519.69Z" fill="#FE5448" stroke="#FE5448" stroke-width="0.4"/>
<path d="M781.619 634.286L844.68 595.175L844.56 594.758H781.499L781.273 594.984V634.095L781.619 634.286ZM843.755 595.21L781.718 633.686V595.21H843.755Z" fill="#FE5448" stroke="#FE5448" stroke-width="0.4"/>
<path d="M820.546 682.744L820.877 682.512L808.062 607.062L807.702 606.921L756.087 646.025V646.406L820.546 682.744ZM807.674 607.506L820.383 682.116L756.666 646.18L807.674 607.506Z" fill="#FE5448" stroke="#FE5448" stroke-width="0.4"/>
<path d="M802.145 786.145L844.757 713.481L844.538 713.136L805.4 716.254L805.188 716.466L801.729 786.032L802.145 786.145ZM844.143 713.608L802.223 785.122L805.633 716.691L844.143 713.608Z" fill="#FE5448" stroke="#FE5448" stroke-width="0.4"/>
<path d="M829.181 832.247L829.541 832.042L820.884 741.037H820.44L801.735 811.986L801.82 812.226L829.181 832.247ZM820.553 742.321L829.026 831.584L802.194 811.894L820.553 742.321Z" fill="#FE5448" stroke="#FE5448" stroke-width="0.4"/>
<path d="M808.824 696.959L809.001 696.55L764.666 666.984L764.32 667.217L768.825 686.751L768.987 686.921L808.824 696.959ZM764.885 667.675L807.674 696.198L769.249 686.519L764.885 667.675Z" fill="#FE5448" stroke="#FE5448" stroke-width="0.4"/>
<path d="M1156.9 218.772L1172.68 225.7L1175.83 240.233L1144.19 253.615H1122.95L1112.55 244.155L1107.71 228.924L1125.95 186.243L1146.74 158.018L1184.4 168.846L1156.9 167.704L1160.05 186.088L1143.68 179.548L1136.81 191.316L1146.46 205.432L1128.49 198.935L1114.4 228.924L1121.1 239.929L1128.26 223.675L1131.03 243.231L1143.47 232.557L1137.73 241.524L1162.44 240.233L1163.96 226.772L1156.9 218.772Z" fill="#FE5448"/>
<path d="M1126.87 134.095L1088.54 181.933L1078.15 198.011V224.776L1092.7 248.31L1112.55 244.155L1095.23 236.198L1087.16 218.772L1085.61 205.813L1098.24 213.312L1088.54 201.467L1100.33 201.242L1091.74 183.704L1117.86 183.471L1107.24 172.861L1120.41 148.896L1134.73 155.788L1130.8 141.926L1152.28 134.095H1126.87Z" fill="#FE5448"/>
<path d="M1160.48 111.394L1138.77 108.685L1100.33 130.371L1054.66 159.739L1047.87 180.529L1063.25 212.155L1057.66 181.933L1063.25 166.166L1076.44 160.17L1073.68 153.482L1102.63 134.702L1105.39 141.926L1112.55 126.942L1138.77 115.866L1160.48 111.394Z" fill="#FE5448"/>
<path d="M1126.87 134.095L1098.24 153.481L1067.45 181.933L1063.25 212.155L1078.15 224.776L1070.7 210.928V188.395L1078.15 179.436L1086.69 169.171L1100.33 155.323L1126.87 134.095Z" fill="#FE5448"/>
<path d="M1092.7 248.31L1091.74 270.448L1070.94 274.963L1054.65 255.986L1046.06 235.203L1063.25 212.155L1054.65 235.203L1062.1 253.616L1074.91 240.381L1077.99 249.235L1069.38 257.298L1072.8 266.54L1085.07 262.497L1092.7 248.31Z" fill="#FE5448"/>
<path d="M1160.48 111.394L1204.35 148.896L1271.73 204.021C1271.73 204.021 1307.32 241.066 1305.2 241.524C1303.08 241.983 1275.36 274.385 1275.36 274.385L1208.87 290.328L1146.46 287.612L1092.93 270.815L1138.42 276.092L1181.71 281.538L1224.78 279.69L1221.52 268.402L1185.29 257.319L1175.82 240.254L1200.99 250.639L1250.18 257.976L1271.72 251.789L1266.11 216.953L1232.4 196.36L1224.78 180.551L1186.9 146.117L1163.83 123.796L1160.48 111.394Z" fill="#FE5448"/>
<path d="M1305.2 241.524L1325.55 310.66L1366.7 404.642L1402.01 485.065L1437.31 578.152L1458.06 664.459L1461.68 749.404L1476.6 777.425L1466.2 803.182L1426.4 823.972L1372.13 817.192L1274.9 827.132L1170.88 821.256L1070.94 800.924L986.37 758.448L953.805 750.773L914.462 771.556L880.457 840.691L838.48 791.407L853.407 708.72L827.628 667.146L864.711 589.884L864.302 661.933L872.019 727.873L853.407 766.286L880.944 786.039L911.659 745.312L892.263 716.014L926.211 714.603L916.277 682.533C916.277 682.533 920.202 640.536 921.127 640.078C922.052 639.619 946.222 594.97 946.222 594.97L937.043 640.31L946.222 701.552L962.695 724.529L978.857 692.226L977.706 735.372L1012.73 747.831L1076.54 765.058L1131.72 740.035L1146.74 679.781L1152.12 746.272L1206.41 780.191L1299.62 791.478L1320.4 755.351L1338.18 726.857L1358.73 777.425L1417.55 795.69L1411.23 778.307L1434.54 786.152L1456.46 768.155L1409.96 749.411L1442.68 723.393L1409.96 648.282L1417.36 578.159L1364.27 505.82L1337.03 373.136L1286.19 312.24L1305.17 284.071L1305.2 241.524Z" fill="#FE5448"/>
<path d="M1208.87 290.328L1221.53 334.159L1232.83 395.605L1226.47 445.764L1221.95 505.863L1238.27 581.305L1264.95 621.517L1212.97 590.808L1190.78 565.079L1143.77 522.124L1094.02 502.243H1026.64L997.243 481.009L946.137 452.085L866.088 442.138L811.819 449.82L746.668 429.418L780.137 481.009L781.492 519.866L817.22 556.917L864.704 589.905L839.589 557.778L805.407 522.124L797.097 481.009V458.504L856.676 472.353L878.381 519.866C878.381 519.866 946.589 484.593 946.201 484.473C945.812 484.353 993.388 526.801 993.388 526.801L980.763 639.111L1048.82 691.083L1014.63 607.132L1042.35 542.272L1138.38 550.37L1170.86 600.459L1180.89 653.728L1213.45 623.21L1264.92 657.305H1295.58L1332.14 706.794L1323.75 667.944L1297.22 628.571L1271.44 599.88L1252.97 565.079L1280.16 526.37L1244.66 470.533L1252.97 411.464L1250.66 340.282L1208.87 290.328Z" fill="#FE5448"/>
<path d="M880.457 840.712C954.983 913.386 1051.74 959.009 1155.26 970.294C1258.79 981.578 1363.11 957.873 1451.57 902.964C1540.02 848.056 1607.51 765.112 1643.25 667.383C1678.99 569.654 1680.92 462.777 1648.72 363.825C1616.53 264.874 1552.07 179.557 1465.65 121.502C1379.23 63.447 1275.83 36.0044 1171.96 43.5575C1068.1 51.1105 969.765 93.2236 892.668 163.17C815.571 233.115 764.16 326.859 746.647 429.425L705.828 416.903C726.024 305.913 782.617 204.794 866.684 129.487C950.751 54.1803 1057.51 8.96819 1170.14 0.977772C1282.76 -7.01265 1394.84 22.6731 1488.72 85.3556C1582.59 148.038 1652.92 240.152 1688.61 347.177C1724.3 454.203 1723.33 570.052 1685.84 676.464C1648.36 782.875 1576.5 873.797 1481.58 934.896C1386.67 995.995 1274.1 1023.8 1161.63 1013.92C1049.15 1004.04 943.166 957.045 860.376 880.338L880.457 840.712Z" fill="#FE5448"/>
<ellipse rx="7.25623" ry="7.25626" transform="matrix(-1 0 0 1 1090.25 638.549)" fill="#FE5448"/>
<ellipse rx="7.25624" ry="7.25623" transform="matrix(-1 0 0 1 1326.08 536.961)" fill="#FE5448"/>
<ellipse rx="5.44214" ry="5.44217" transform="matrix(-1 0 0 1 1298.87 415.42)" fill="#FE5448"/>
<ellipse rx="5.44215" ry="5.44217" transform="matrix(-1 0 0 1 1266.21 745.578)" fill="#FE5448"/>
<ellipse rx="5.44217" ry="5.4422" transform="matrix(-1 0 0 1 921.542 553.288)" fill="#FE5448"/>
</g>
<defs>
<clipPath id="clip0_25_2484">
<rect width="1008.46" height="1015.87" fill="white" transform="matrix(-1 0 0 1 1714.29 0)"/>
</clipPath>
</defs>
</svg>
