<svg width="512" height="512" viewBox="0 0 512 512" fill="none" xmlns="http://www.w3.org/2000/svg">
<circle cx="256" cy="256" r="256" fill="#1A1F29"/>
<path d="M371.071 371.325L359.147 347.423L345.469 340.248L334.136 342.902L304.647 357.611H304.627L269.755 364.654L233.452 366.689L199.52 363.246L180.595 365.592H180.548L166.663 358.393L166.626 358.351L162.998 349.429V349.363L168.196 339.677L169.46 310.269L176.712 280.357L189.03 248.1L201.348 220.242L215.709 187.684L222.806 163.735L222.821 163.706L234.499 150.715L258.011 131.62L273.315 118.631L273.357 118.612L280.932 117.673H280.982L294.394 125.185L310.333 135.361L310.365 135.403L312.733 142.604V142.663L307.387 153.577L313.356 161.521V161.597L310.365 168.811L310.35 168.833L304.672 175.409L304.593 175.433L297.355 173.874L278.282 179.808H278.262L256.543 180.746L252.14 195.873L248.199 217.133L250.416 234.484L251.995 255.304V255.326L246.314 281.474V281.501L237.174 295.152L255.013 284.688L262.736 275.775L279.154 260.9L279.176 260.886L296.534 253.997H296.564H320.049L330.286 246.666L348.122 236.646H348.152L376.082 233.203H376.101L395.019 235.862L417.758 228.873L406.15 246.766L405.677 260.206L405.655 260.258L393.189 273.092L376.665 284.492L389.575 311.197V311.271L380.597 325.645L385.798 354.258L385.783 354.322L371.071 371.325ZM345.469 340.089H345.523L359.25 347.291L359.285 347.323L371.078 371.318L385.626 354.234L380.425 325.625V325.569L389.397 311.205L376.476 284.48L376.503 284.38L393.071 272.955L405.504 260.153L405.975 246.712L405.99 246.671L417.741 228.846L395.032 235.989H394.997L376.074 233.33L348.179 236.783L330.362 246.803L320.114 254.153L320.067 254.168H296.579L279.25 261.045L262.85 275.895L255.124 284.81L255.104 284.827L236.957 295.469L236.851 295.359L246.154 281.43L251.828 255.319L250.251 234.513L248.034 217.143V217.121L251.975 195.834L256.395 180.643L256.469 180.587L278.232 179.649L297.315 173.703H297.357L304.568 175.26L310.21 168.73L313.196 161.587L307.226 153.64V153.56L312.577 142.631L310.23 135.488L294.317 125.33L280.923 117.832L273.399 118.766L258.112 131.74L234.607 150.837L222.952 163.806L215.857 187.738L201.494 220.303L189.176 248.161L176.873 280.404L169.617 310.303L168.356 339.713V339.745L163.163 349.403L166.767 358.263L180.605 365.441L199.515 363.095H199.533L233.459 366.538L269.738 364.502L304.59 357.464L334.087 342.756H334.104L345.469 340.089Z" fill="#FFE74C"/>
<path d="M260.928 149.361L241.918 161.883L244.912 150.642L260.928 149.361Z" fill="#2E3645"/>
<path d="M178.878 321.404L187.069 337.646L195.278 319.494L178.878 321.404Z" fill="#2E3645"/>
<path d="M241.542 189.443L228.248 210.178L236.151 215.144L241.542 189.443Z" fill="#2E3645"/>
<path d="M385.85 272.652L359.88 287.205L367.786 272.652H385.85Z" fill="#2E3645"/>
<path d="M222.387 235.175L215.858 253.381L225.937 255.106L222.387 235.175Z" fill="#2E3645"/>
<path d="M199.165 272.337L197.697 297.955L213.464 284.69L199.165 272.337Z" fill="#2E3645"/>
<path d="M247.053 317.426L231.301 333.169L261.734 336.36L247.053 317.426Z" fill="#2E3645"/>
<path d="M292.405 280.181L313.619 292.911L288.867 295.567L292.405 280.181Z" fill="#2E3645"/>
<path d="M307.364 153.628L307.214 153.606L305.748 143.137L305.822 143.047L312.652 142.558L312.731 142.67L307.364 153.628ZM305.918 143.198L307.335 153.328L312.529 142.727L305.918 143.198Z" fill="#FFE74C" stroke="#FFE74C" stroke-width="0.4"/>
<path d="M305.773 143.183L295.031 133.325L295.095 133.191L310.301 135.361L310.36 135.476L305.896 143.164L305.773 143.183ZM295.324 133.377L305.805 143.003L310.16 135.498L295.324 133.377Z" fill="#FFE74C" stroke="#FFE74C" stroke-width="0.4"/>
<path d="M295.039 133.333L285.049 126.62L285.081 126.478L294.342 125.185L294.433 125.256L295.172 133.262L295.039 133.333ZM285.307 126.603L294.989 133.11L294.282 125.354L285.307 126.603Z" fill="#FFE74C" stroke="#FFE74C" stroke-width="0.4"/>
<path d="M302.144 158.024L302.018 157.946L305.751 143.108H305.906L307.372 153.577L307.345 153.648L302.144 158.024ZM305.805 143.538L302.23 157.748L307.209 153.562L305.805 143.538Z" fill="#FFE74C" stroke="#FFE74C" stroke-width="0.4"/>
<path d="M305.827 143.203H298.468L298.394 143.152L295.009 133.294L295.137 133.211L305.881 143.069L305.827 143.203ZM298.525 143.047H305.625L295.258 133.536L298.525 143.047Z" fill="#FFE74C" stroke="#FFE74C" stroke-width="0.4"/>
<path d="M302.171 157.983L302.016 157.966V148.694V148.65L305.751 143.083L305.891 143.144L302.171 157.983ZM302.171 148.719V157.325L305.637 143.543L302.171 148.719Z" fill="#FFE74C" stroke="#FFE74C" stroke-width="0.4"/>
<path d="M302.159 148.738H302.028L298.414 143.169L298.48 143.047H305.84L305.906 143.169L302.159 148.738ZM298.613 143.203L302.095 148.55L305.679 143.203H298.613Z" fill="#FFE74C" stroke="#FFE74C" stroke-width="0.4"/>
<path d="M298.414 143.174L285.039 126.603L285.145 126.49L295.135 133.203L295.167 133.243L298.549 143.101L298.414 143.174ZM285.48 126.908L298.249 142.729L295.019 133.318L285.48 126.908Z" fill="#FFE74C" stroke="#FFE74C" stroke-width="0.4"/>
<path d="M296.955 166.164L291.718 159.451L291.769 159.327L302.082 157.887L302.161 158.007L297.086 166.159L296.955 166.164ZM291.927 159.464L297.01 165.981L301.937 158.066L291.927 159.464Z" fill="#FFE74C" stroke="#FFE74C" stroke-width="0.4"/>
<path d="M297.003 166.194L290.072 164.757L290.013 164.657L291.706 159.383L291.844 159.359L297.082 166.071L297.003 166.194ZM290.191 164.62L296.826 165.998L291.809 159.569L290.191 164.62Z" fill="#FFE74C" stroke="#FFE74C" stroke-width="0.4"/>
<path d="M291.839 159.459L291.708 159.373L298.394 143.096L298.535 143.083L302.161 148.65V148.748L291.839 159.459ZM298.49 143.294L292.009 159.051L301.991 148.684L298.49 143.294Z" fill="#FFE74C" stroke="#FFE74C" stroke-width="0.4"/>
<path d="M291.708 159.434L285.342 144.647L285.406 144.54L298.463 143.049L298.547 143.154L291.859 159.434H291.708ZM285.53 144.684L291.78 159.2L298.345 143.218L285.53 144.684Z" fill="#FFE74C" stroke="#FFE74C" stroke-width="0.4"/>
<path d="M285.423 144.696L285.337 144.618L285.014 126.556L285.155 126.505L298.529 143.076L298.478 143.203L285.423 144.696ZM285.177 126.784L285.495 144.53L298.32 143.064L285.177 126.784Z" fill="#FFE74C" stroke="#FFE74C" stroke-width="0.4"/>
<path d="M279.018 168.029L267.978 163.386L267.951 163.261L274.559 155.827L274.692 155.852L279.126 167.921L279.018 168.029ZM268.141 163.291L278.912 167.814L274.588 156.038L268.141 163.291Z" fill="#FFE74C" stroke="#FFE74C" stroke-width="0.4"/>
<path d="M286.515 168.014H286.406L274.562 155.947L274.658 155.825L290.126 164.622L290.141 164.749L286.515 168.014ZM275.067 156.233L286.466 167.848L289.957 164.693L275.067 156.233Z" fill="#FFE74C" stroke="#FFE74C" stroke-width="0.4"/>
<path d="M286.463 168.034H279.05L278.976 167.982L274.542 155.913L274.672 155.832L286.517 167.902L286.463 168.034ZM279.104 167.877H286.276L274.817 156.204L279.104 167.877Z" fill="#FFE74C" stroke="#FFE74C" stroke-width="0.4"/>
<path d="M291.762 159.481L274.598 155.964L274.559 155.832L285.357 144.564L285.487 144.586L291.853 159.373L291.762 159.481ZM274.763 155.84L291.639 159.297L285.379 144.757L274.763 155.84Z" fill="#FFE74C" stroke="#FFE74C" stroke-width="0.4"/>
<path d="M274.675 155.94L274.539 155.874L278.084 134.826L278.227 134.794L285.477 144.569V144.669L274.675 155.94ZM278.212 135.036L274.739 155.649L285.312 144.618L278.212 135.036Z" fill="#FFE74C" stroke="#FFE74C" stroke-width="0.4"/>
<path d="M278.224 134.889L278.086 134.863L273.285 118.714L273.403 118.626L285.13 126.493L285.144 126.608L278.224 134.889ZM273.504 118.878L278.197 134.677L284.974 126.571L273.504 118.878Z" fill="#FFE74C" stroke="#FFE74C" stroke-width="0.4"/>
<path d="M285.11 126.632L285.029 126.588L280.878 117.791L280.989 117.691L294.401 125.203L294.371 125.349L285.11 126.632ZM281.124 117.94L285.147 126.468L294.12 125.217L281.124 117.94Z" fill="#FFE74C" stroke="#FFE74C" stroke-width="0.4"/>
<path d="M268.851 135.207L258.043 131.757L258.016 131.622L273.319 118.631L273.448 118.71L268.952 135.153L268.851 135.207ZM258.225 131.649L268.818 135.034L273.226 118.905L258.225 131.649Z" fill="#FFE74C" stroke="#FFE74C" stroke-width="0.4"/>
<path d="M250.926 151.343L234.548 150.854L234.501 150.718L258.011 131.62L258.137 131.708L250.992 151.292L250.926 151.343ZM234.765 150.705L250.874 151.194L257.89 131.933L234.765 150.705Z" fill="#FFE74C" stroke="#FFE74C" stroke-width="0.4"/>
<path d="M274.542 155.908L268.794 135.153L268.868 135.056L278.161 134.762L278.243 134.853L274.697 155.901L274.542 155.908ZM268.974 135.207L274.599 155.524L278.07 134.921L268.974 135.207Z" fill="#FFE74C" stroke="#FFE74C" stroke-width="0.4"/>
<path d="M263.589 154.073L250.911 151.341L250.867 151.216L268.807 135.087L268.937 135.166L263.677 154.017L263.589 154.073ZM251.096 151.216L263.549 153.904L268.723 135.373L251.096 151.216Z" fill="#FFE74C" stroke="#FFE74C" stroke-width="0.4"/>
<path d="M268.07 163.371L267.939 163.354L263.534 154.029L263.62 153.919L274.63 155.81L274.677 155.94L268.07 163.371ZM263.741 154.097L268.03 163.178L274.465 155.94L263.741 154.097Z" fill="#FFE74C" stroke="#FFE74C" stroke-width="0.4"/>
<path d="M237.455 166.993L222.858 163.845L222.813 163.716L234.491 150.725L234.629 150.764L237.551 166.893L237.455 166.993ZM223.028 163.721L237.378 166.814L234.506 150.95L223.028 163.721Z" fill="#FFE74C" stroke="#FFE74C" stroke-width="0.4"/>
<path d="M253.643 172.506L237.447 166.99L237.413 166.866L250.866 151.216L251.004 151.258L253.744 172.425L253.643 172.506ZM237.607 166.885L253.576 172.318L250.866 151.46L237.607 166.885Z" fill="#FFE74C" stroke="#FFE74C" stroke-width="0.4"/>
<path d="M253.712 172.499L253.599 172.394L263.537 153.958H263.677L268.082 163.283L268.053 163.381L253.712 172.499ZM263.601 154.171L253.879 172.203L267.922 163.291L263.601 154.171Z" fill="#FFE74C" stroke="#FFE74C" stroke-width="0.4"/>
<path d="M233.294 175.226L233.212 175.113L237.401 166.88L237.497 166.844L253.692 172.357L253.678 172.508L233.294 175.226ZM237.511 167.012L233.422 175.052L253.328 172.398L237.511 167.012Z" fill="#FFE74C" stroke="#FFE74C" stroke-width="0.4"/>
<path d="M233.225 175.201L222.816 163.821L222.89 163.691L237.489 166.841L237.543 166.951L233.355 175.184L233.225 175.201ZM223.097 163.897L233.264 175.013L237.356 166.971L223.097 163.897Z" fill="#FFE74C" stroke="#FFE74C" stroke-width="0.4"/>
<path d="M256.466 180.748L233.264 175.226V175.072L253.65 172.354L253.737 172.406L256.55 180.646L256.466 180.748ZM233.713 175.165L256.363 180.555L253.613 172.511L233.713 175.165Z" fill="#FFE74C" stroke="#FFE74C" stroke-width="0.4"/>
<path d="M278.237 179.808L253.646 172.506L253.626 172.367L267.969 163.254L268.077 163.278L278.326 179.693L278.237 179.808ZM253.848 172.406L278.075 179.6L267.974 163.43L253.848 172.406Z" fill="#FFE74C" stroke="#FFE74C" stroke-width="0.4"/>
<path d="M278.281 179.808L278.18 179.727L278.971 167.951L279.074 167.882L297.377 173.711V173.86L278.281 179.808ZM279.121 168.061L278.345 179.624L297.091 173.784L279.121 168.061Z" fill="#FFE74C" stroke="#FFE74C" stroke-width="0.4"/>
<path d="M297.316 173.855L286.426 168.024L286.409 167.897L290.038 164.62H290.154L297.417 173.728L297.316 173.855ZM286.589 167.938L297.042 173.537L290.07 164.793L286.589 167.938Z" fill="#FFE74C" stroke="#FFE74C" stroke-width="0.4"/>
<path d="M304.593 175.426L297.335 173.862L297.273 173.789L296.936 166.123L297.076 166.072L304.67 175.304L304.593 175.426ZM297.428 173.716L304.406 175.218L297.106 166.343L297.428 173.716Z" fill="#FFE74C" stroke="#FFE74C" stroke-width="0.4"/>
<path d="M310.276 168.852L297.002 166.194L296.95 166.076L302.025 157.924H302.156L310.355 168.735L310.276 168.852ZM297.145 166.062L310.103 168.659L302.109 158.102L297.145 166.062Z" fill="#FFE74C" stroke="#FFE74C" stroke-width="0.4"/>
<path d="M313.264 161.651L302.07 158.039L302.042 157.905L307.241 153.535H307.356L313.353 161.519L313.264 161.651ZM302.252 157.934L313.077 161.426L307.283 153.709L302.252 157.934Z" fill="#FFE74C" stroke="#FFE74C" stroke-width="0.4"/>
<path d="M215.792 187.791L215.696 187.694L222.799 163.745L222.952 163.76L225.386 185.37L225.325 185.455L215.792 187.791ZM222.839 164.163L215.883 187.608L225.216 185.321L222.839 164.163Z" fill="#FFE74C" stroke="#FFE74C" stroke-width="0.4"/>
<path d="M201.456 220.337L201.34 220.242L215.701 187.684L215.851 187.713L216.762 210.552L216.726 210.623L201.456 220.337ZM215.708 188.058L201.594 220.066L216.607 210.513L215.708 188.058Z" fill="#FFE74C" stroke="#FFE74C" stroke-width="0.4"/>
<path d="M189.133 248.205L189.032 248.1L201.35 220.242H201.498L208.066 241.297L208.019 241.395L189.133 248.205ZM201.399 220.496L189.251 247.988L207.884 241.27L201.399 220.496Z" fill="#FFE74C" stroke="#FFE74C" stroke-width="0.4"/>
<path d="M176.84 280.44L176.725 280.348L189.043 248.105H189.193L194.049 269.365L194.014 269.449L176.84 280.44ZM189.087 248.403L176.956 280.172L193.874 269.336L189.087 248.403Z" fill="#FFE74C" stroke="#FFE74C" stroke-width="0.4"/>
<path d="M169.568 310.342L169.455 310.254L176.712 280.357L176.858 280.338L188.703 300.833L188.671 300.941L169.568 310.342ZM176.821 280.585L169.657 310.127L188.538 300.838L176.821 280.585Z" fill="#FFE74C" stroke="#FFE74C" stroke-width="0.4"/>
<path d="M168.321 339.762L168.198 339.694L169.462 310.269L169.595 310.215L187.249 326.871V326.991L168.321 339.762ZM169.609 310.437L168.363 339.535L187.059 326.92L169.609 310.437Z" fill="#FFE74C" stroke="#FFE74C" stroke-width="0.4"/>
<path d="M163.086 349.478L163 349.363L168.208 339.659L168.307 339.625L183.113 345.317L183.101 345.466L163.086 349.478ZM168.314 339.796L163.219 349.293L182.805 345.365L168.314 339.796Z" fill="#FFE74C" stroke="#FFE74C" stroke-width="0.4"/>
<path d="M180.548 365.592L166.663 358.393L166.651 358.261L183.036 345.329L183.162 345.4L180.654 365.531L180.548 365.592ZM166.843 358.31L180.521 365.397L182.985 345.566L166.843 358.31Z" fill="#FFE74C" stroke="#FFE74C" stroke-width="0.4"/>
<path d="M180.595 365.6L180.528 365.468L196.645 349.339L196.778 349.378L199.597 363.151L199.53 363.246L180.595 365.6ZM196.655 349.561L180.802 365.416L199.427 363.107L196.655 349.561Z" fill="#FFE74C" stroke="#FFE74C" stroke-width="0.4"/>
<path d="M233.436 366.697L199.513 363.254L199.478 363.109L219.14 351.238L219.241 351.252L233.503 366.565L233.436 366.697ZM199.761 363.122L233.247 366.521L219.167 351.404L199.761 363.122Z" fill="#FFE74C" stroke="#FFE74C" stroke-width="0.4"/>
<path d="M233.451 366.697L233.395 366.557L251.844 351.563H251.943L269.784 364.515L269.742 364.654L233.451 366.697ZM251.899 351.724L233.683 366.528L269.513 364.517L251.899 351.724Z" fill="#FFE74C" stroke="#FFE74C" stroke-width="0.4"/>
<path d="M252.027 195.936L241.222 189.925V189.788L256.444 180.604L256.562 180.695L252.143 195.875L252.027 195.936ZM241.416 189.851L252.01 195.738L256.343 180.832L241.416 189.851Z" fill="#FFE74C" stroke="#FFE74C" stroke-width="0.4"/>
<path d="M248.065 217.197L236.854 206.552V206.432L252.01 195.787L252.133 195.865L248.191 217.153L248.065 217.197ZM237.033 206.505L248.07 216.982L251.953 196.027L237.033 206.505Z" fill="#FFE74C" stroke="#FFE74C" stroke-width="0.4"/>
<path d="M250.295 234.586L237.625 228.255L237.603 228.13L248.063 217.087L248.198 217.131L250.416 234.506L250.295 234.586ZM237.79 228.162L250.233 234.379L248.063 217.316L237.79 228.162Z" fill="#FFE74C" stroke="#FFE74C" stroke-width="0.4"/>
<path d="M251.882 255.407L236.883 250.187L236.849 250.062L250.27 234.459L250.408 234.506L251.987 255.321L251.882 255.407ZM237.043 250.082L251.825 255.214L250.27 234.706L237.043 250.082Z" fill="#FFE74C" stroke="#FFE74C" stroke-width="0.4"/>
<path d="M246.163 281.518L235.558 267.669L235.572 267.56L251.852 255.27L251.978 255.348L246.296 281.496L246.163 281.518ZM235.73 267.638L246.186 281.288L251.785 255.522L235.73 267.638Z" fill="#FFE74C" stroke="#FFE74C" stroke-width="0.4"/>
<path d="M236.853 295.447L226.208 280.421L226.277 280.299L246.232 281.394L246.294 281.516L236.986 295.445L236.853 295.447ZM226.43 280.462L236.915 295.264L246.084 281.543L226.43 280.462Z" fill="#FFE74C" stroke="#FFE74C" stroke-width="0.4"/>
<path d="M241.239 189.93L225.285 185.455L225.245 185.331L233.222 175.101H233.355L241.33 189.827L241.239 189.93ZM225.44 185.335L241.103 189.734L233.272 175.297L225.44 185.335Z" fill="#FFE74C" stroke="#FFE74C" stroke-width="0.4"/>
<path d="M236.839 206.535L225.245 185.428L225.336 185.316L241.291 189.793L241.347 189.888L236.994 206.53L236.839 206.535ZM225.464 185.507L236.883 206.278L241.165 189.905L225.464 185.507Z" fill="#FFE74C" stroke="#FFE74C" stroke-width="0.4"/>
<path d="M216.699 210.633L216.61 210.53L225.232 185.36L225.378 185.348L236.981 206.466L236.927 206.579L216.699 210.633ZM225.321 185.575L216.802 210.452L236.789 206.444L225.321 185.575Z" fill="#FFE74C" stroke="#FFE74C" stroke-width="0.4"/>
<path d="M237.635 228.259L224.797 223.897L224.757 223.78L236.844 206.454L236.989 206.496L237.728 228.181L237.635 228.259ZM224.947 223.795L237.578 228.086L236.839 206.75L224.947 223.795Z" fill="#FFE74C" stroke="#FFE74C" stroke-width="0.4"/>
<path d="M208.039 241.39L207.906 241.314L216.607 210.542L216.75 210.523L224.88 223.79V223.885L208.039 241.39ZM216.711 210.758L208.142 241.06L224.722 223.827L216.711 210.758Z" fill="#FFE74C" stroke="#FFE74C" stroke-width="0.4"/>
<path d="M236.883 250.187L222.101 244.992L222.069 244.867L237.607 228.128L237.743 228.181L237.004 250.116L236.883 250.187ZM222.261 244.884L236.824 250.009L237.563 228.391L222.261 244.884Z" fill="#FFE74C" stroke="#FFE74C" stroke-width="0.4"/>
<path d="M222.104 244.999L207.963 241.402L207.926 241.272L224.764 223.77L224.9 223.834L222.202 244.933L222.104 244.999ZM208.133 241.285L222.057 244.826L224.713 224.054L208.133 241.285Z" fill="#FFE74C" stroke="#FFE74C" stroke-width="0.4"/>
<path d="M235.553 267.662L222.055 244.962L222.148 244.85L236.93 250.045L236.982 250.124L235.693 267.628L235.553 267.662ZM222.301 245.07L235.56 267.367L236.826 250.172L222.301 245.07Z" fill="#FFE74C" stroke="#FFE74C" stroke-width="0.4"/>
<path d="M226.336 280.421H226.208L215.637 265.629L215.708 265.507L235.634 267.545L235.69 267.67L226.336 280.421ZM215.858 265.68L226.275 280.245L235.476 267.689L215.858 265.68Z" fill="#FFE74C" stroke="#FFE74C" stroke-width="0.4"/>
<path d="M193.974 269.458L193.891 269.346L207.911 241.292L208.056 241.304L215.77 265.561L215.708 265.661L193.974 269.458ZM207.965 241.536L194.102 269.277L215.592 265.524L207.965 241.536Z" fill="#FFE74C" stroke="#FFE74C" stroke-width="0.4"/>
<path d="M215.619 265.607L207.906 241.351L208.002 241.25L222.143 244.848L222.197 244.948L215.77 265.607H215.619ZM208.1 241.439L215.693 265.321L222.022 244.979L208.1 241.439Z" fill="#FFE74C" stroke="#FFE74C" stroke-width="0.4"/>
<path d="M222.181 311.195H222.057L208.803 291.889L208.88 291.767L236.928 295.33L236.974 295.46L222.181 311.195ZM209.032 291.941L222.134 311.016L236.755 295.46L209.032 291.941Z" fill="#FFE74C" stroke="#FFE74C" stroke-width="0.4"/>
<path d="M208.911 291.907L208.793 291.821L215.617 265.566L215.758 265.539L226.336 280.331L226.317 280.441L208.911 291.907ZM215.728 265.759L208.985 291.662L226.151 280.355L215.728 265.759Z" fill="#FFE74C" stroke="#FFE74C" stroke-width="0.4"/>
<path d="M188.675 300.943L188.567 300.858L193.883 269.368L194.029 269.339L208.933 291.796L208.901 291.911L188.675 300.943ZM194.007 269.59L188.747 300.741L208.751 291.806L194.007 269.59Z" fill="#FFE74C" stroke="#FFE74C" stroke-width="0.4"/>
<path d="M269.755 364.661L269.673 364.537L284.864 343.904L284.975 343.887L304.652 357.477L304.624 357.618L269.755 364.661ZM284.95 344.058L269.922 364.466L304.413 357.501L284.95 344.058Z" fill="#FFE74C" stroke="#FFE74C" stroke-width="0.4"/>
<path d="M304.647 357.611L304.536 357.513L313.703 332.683L313.814 332.639L334.153 342.758V342.897L304.647 357.611ZM313.821 332.817L304.752 357.381L333.941 342.829L313.821 332.817Z" fill="#FFE74C" stroke="#FFE74C" stroke-width="0.4"/>
<path d="M334.136 342.905L334.04 342.819L335.991 324.921L336.137 324.89L345.545 340.126L345.496 340.244L334.136 342.905ZM336.124 325.166L334.208 342.726L345.355 340.116L336.124 325.166Z" fill="#FFE74C" stroke="#FFE74C" stroke-width="0.4"/>
<path d="M359.168 347.448L345.441 340.248L345.419 340.126L360.129 323.929L360.267 323.985L359.282 347.382L359.168 347.448ZM345.604 340.158L359.131 347.245L360.1 324.188L345.604 340.158Z" fill="#FFE74C" stroke="#FFE74C" stroke-width="0.4"/>
<path d="M371.07 371.325L359.136 347.401L359.227 347.291L385.736 354.178L385.778 354.302L371.07 371.325ZM359.355 347.487L371.07 371.325L385.58 354.3L359.355 347.487Z" fill="#FFE74C" stroke="#FFE74C" stroke-width="0.4"/>
<path d="M359.264 347.421L359.129 347.364L360.114 323.966L360.201 323.892L380.52 325.532L380.57 325.664L359.264 347.421ZM360.267 324.054L359.296 347.164L380.338 325.674L360.267 324.054Z" fill="#FFE74C" stroke="#FFE74C" stroke-width="0.4"/>
<path d="M380.575 325.652H380.452L367.828 303.991L367.922 303.876L389.54 311.139L389.582 311.253L380.575 325.652ZM368.057 304.088L380.511 325.459L389.38 311.253L368.057 304.088Z" fill="#FFE74C" stroke="#FFE74C" stroke-width="0.4"/>
<path d="M389.479 311.28L367.858 304.018L367.812 303.912L376.493 284.409H376.636L389.568 311.178L389.479 311.28ZM367.991 303.898L389.351 311.073L376.567 284.644L367.991 303.898Z" fill="#FFE74C" stroke="#FFE74C" stroke-width="0.4"/>
<path d="M376.609 284.509L376.485 284.446L376.628 259.95L376.756 259.889L393.181 272.958V273.082L376.609 284.509ZM376.783 260.111L376.643 284.304L393.001 273.024L376.783 260.111Z" fill="#FFE74C" stroke="#FFE74C" stroke-width="0.4"/>
<path d="M405.598 260.263L376.707 260.018L376.653 259.884L389.449 247.665H389.552L405.647 260.128L405.598 260.263ZM376.902 259.874L405.366 260.104L389.508 247.824L376.902 259.874Z" fill="#FFE74C" stroke="#FFE74C" stroke-width="0.4"/>
<path d="M389.508 247.8L389.431 247.687L394.955 235.891L395.08 235.869L406.127 246.668L406.075 246.802L389.508 247.8ZM395.051 236.057L389.631 247.636L405.89 246.658L395.051 236.057Z" fill="#FFE74C" stroke="#FFE74C" stroke-width="0.4"/>
<path d="M389.501 247.8L361.839 247.201L361.785 247.067L376.035 233.208H376.148L389.562 247.665L389.501 247.8ZM362.029 247.047L389.321 247.638L376.089 233.374L362.029 247.047Z" fill="#FFE74C" stroke="#FFE74C" stroke-width="0.4"/>
<path d="M340.132 263.967L340.009 263.884L348.085 236.685L348.208 236.644L361.888 247.059V247.184L340.132 263.967ZM348.203 236.842L340.231 263.701L361.711 247.128L348.203 236.842Z" fill="#FFE74C" stroke="#FFE74C" stroke-width="0.4"/>
<path d="M340.049 263.977L320.037 254.151V254.016L330.296 246.661L330.409 246.685L340.165 263.867L340.049 263.977ZM320.224 254.068L339.889 263.723L330.303 246.839L320.224 254.068Z" fill="#FFE74C" stroke="#FFE74C" stroke-width="0.4"/>
<path d="M356.555 272.264L356.437 272.181L361.753 247.106L361.884 247.062L376.749 259.891V260.016L356.555 272.264ZM361.881 247.269L356.626 272.036L376.564 259.94L361.881 247.269Z" fill="#FFE74C" stroke="#FFE74C" stroke-width="0.4"/>
<path d="M350.992 294.907L350.886 294.817L356.447 272.176L356.565 272.129L376.606 284.377V284.514L350.992 294.907ZM356.575 272.318L351.076 294.705L376.389 284.441L356.575 272.318Z" fill="#FFE74C" stroke="#FFE74C" stroke-width="0.4"/>
<path d="M332.503 282.801L332.397 282.698L340.012 263.882L340.12 263.84L356.557 272.132V272.274L332.503 282.801ZM340.128 264.014L332.616 282.586L356.338 272.2L340.128 264.014Z" fill="#FFE74C" stroke="#FFE74C" stroke-width="0.4"/>
<path d="M307.399 274.737H307.261L296.492 254.117L296.564 254.002H320.074L320.14 254.121L307.399 274.737ZM296.689 254.158L307.334 274.536L319.931 254.158H296.689Z" fill="#FFE74C" stroke="#FFE74C" stroke-width="0.4"/>
<path d="M280.161 283.761L280.058 283.691L279.126 260.964L279.24 260.891L307.367 274.624V274.769L280.161 283.761ZM279.289 261.096L280.213 283.578L307.125 274.681L279.289 261.096Z" fill="#FFE74C" stroke="#FFE74C" stroke-width="0.4"/>
<path d="M261.706 300.051L261.576 299.988L262.716 275.846L262.827 275.778L280.171 283.63L280.191 283.759L261.706 300.051ZM262.879 275.956L261.743 299.809L280.003 283.708L262.879 275.956Z" fill="#FFE74C" stroke="#FFE74C" stroke-width="0.4"/>
<path d="M261.63 300.069L236.903 295.479L236.875 295.335L255.022 284.69L255.136 284.727L261.718 299.961L261.63 300.069ZM237.137 295.362L261.526 299.888L255.037 284.871L237.137 295.362Z" fill="#FFE74C" stroke="#FFE74C" stroke-width="0.4"/>
<path d="M241.081 315.655L222.111 311.219L222.072 311.09L236.853 295.35L236.989 295.386L241.177 315.562L241.081 315.655ZM222.274 311.097L240.997 315.474L236.871 295.567L222.274 311.097Z" fill="#FFE74C" stroke="#FFE74C" stroke-width="0.4"/>
<path d="M241.101 315.657L241.051 315.515L261.598 299.929L261.716 299.959L268.727 314.746L268.658 314.858L241.101 315.657ZM261.615 300.112L241.342 315.493L268.533 314.702L261.615 300.112Z" fill="#FFE74C" stroke="#FFE74C" stroke-width="0.4"/>
<path d="M307.357 274.771L307.263 274.656L320.007 254.038L320.108 254.009L340.12 263.835V263.98L307.357 274.771ZM320.094 254.183L307.502 274.554L339.869 263.892L320.094 254.183Z" fill="#FFE74C" stroke="#FFE74C" stroke-width="0.4"/>
<path d="M187.231 326.996L187.115 326.923L188.564 300.868L188.699 300.816L204.885 317.434L204.865 317.558L187.231 326.996ZM188.709 301.056L187.278 326.793L204.695 317.475L188.709 301.056Z" fill="#FFE74C" stroke="#FFE74C" stroke-width="0.4"/>
<path d="M204.856 317.571L204.75 317.485L208.791 291.826L208.934 291.794L222.188 311.1L222.151 311.217L204.856 317.571ZM208.916 292.048L204.928 317.39L222.001 311.117L208.916 292.048Z" fill="#FFE74C" stroke="#FFE74C" stroke-width="0.4"/>
<path d="M196.679 349.476L183.061 345.466L183.006 345.373L187.116 326.92H187.266L196.775 349.402L196.679 349.476ZM183.176 345.336L196.564 349.278L187.217 327.184L183.176 345.336Z" fill="#FFE74C" stroke="#FFE74C" stroke-width="0.4"/>
<path d="M219.174 351.382L196.694 349.478L196.645 349.346L211.31 334.586L211.436 334.608L219.253 351.272L219.174 351.382ZM196.876 349.337L219.048 351.216L211.337 334.774L196.876 349.337Z" fill="#FFE74C" stroke="#FFE74C" stroke-width="0.4"/>
<path d="M211.343 334.716L187.17 327.001L187.155 326.859L204.79 317.426L204.901 317.468L211.439 334.613L211.343 334.716ZM187.394 326.92L211.234 334.527L204.797 317.607L187.394 326.92Z" fill="#FFE74C" stroke="#FFE74C" stroke-width="0.4"/>
<path d="M211.409 334.706L211.293 334.608L222.042 311.109L222.131 311.065L241.101 315.501L241.125 315.642L211.409 334.706ZM222.168 311.234L211.55 334.43L240.901 315.613L222.168 311.234Z" fill="#FFE74C" stroke="#FFE74C" stroke-width="0.4"/>
<path d="M251.894 351.702L219.182 351.382L219.135 351.243L236.873 338.103H236.972L251.95 351.56L251.894 351.702ZM219.416 351.228L251.689 351.543L236.908 338.267L219.416 351.228Z" fill="#FFE74C" stroke="#FFE74C" stroke-width="0.4"/>
<path d="M251.913 351.7L251.83 351.58L265.328 331.84L265.434 331.818L284.972 343.885L284.95 344.029L251.913 351.7ZM265.414 331.989L252.073 351.502L284.728 343.926L265.414 331.989Z" fill="#FFE74C" stroke="#FFE74C" stroke-width="0.4"/>
<path d="M236.905 338.242L211.355 334.718L211.323 334.574L241.056 315.513L241.177 315.591L236.989 338.179L236.905 338.242ZM211.586 334.591L236.853 338.076L240.987 315.743L211.586 334.591Z" fill="#FFE74C" stroke="#FFE74C" stroke-width="0.4"/>
<path d="M236.935 338.24L236.839 338.149L241.027 315.564L241.148 315.513L265.436 331.808L265.409 331.949L236.935 338.24ZM241.155 315.711L237.016 338.061L265.197 331.847L241.155 315.711Z" fill="#FFE74C" stroke="#FFE74C" stroke-width="0.4"/>
<path d="M284.96 344.026L284.856 343.931L292.149 321.432L292.26 321.385L313.814 332.641V332.783L284.96 344.026ZM292.269 321.568L285.056 343.821L313.587 332.7L292.269 321.568Z" fill="#FFE74C" stroke="#FFE74C" stroke-width="0.4"/>
<path d="M313.804 332.785L313.701 332.695L317.642 313.526L317.763 313.475L336.107 324.865L336.092 325.004L313.804 332.785ZM317.78 313.668L313.883 332.592L335.89 324.912L317.78 313.668Z" fill="#FFE74C" stroke="#FFE74C" stroke-width="0.4"/>
<path d="M360.262 323.988H360.114L350.888 294.861L350.999 294.768L367.922 303.881L367.956 303.976L360.262 323.988ZM351.095 294.988L360.196 323.743L367.786 303.998L351.095 294.988Z" fill="#FFE74C" stroke="#FFE74C" stroke-width="0.4"/>
<path d="M336.073 325.007L335.994 324.909L340.009 309.206L340.133 309.162L360.235 323.907L360.191 324.049L336.073 325.007ZM340.133 309.367L336.171 324.858L359.962 323.91L340.133 309.367Z" fill="#FFE74C" stroke="#FFE74C" stroke-width="0.4"/>
<path d="M340.147 309.272L340.01 309.245L332.395 282.75L332.515 282.664L351.007 294.773L351.027 294.885L340.147 309.272ZM332.606 282.911L340.118 309.059L350.849 294.863L332.606 282.911Z" fill="#FFE74C" stroke="#FFE74C" stroke-width="0.4"/>
<path d="M265.421 331.957L265.315 331.869L268.577 314.763L268.678 314.702L292.255 321.378V321.525L265.421 331.957ZM268.718 314.878L265.495 331.759L291.976 321.463L268.718 314.878Z" fill="#FFE74C" stroke="#FFE74C" stroke-width="0.4"/>
<path d="M292.255 321.527L292.156 321.429L298.069 301.469L298.185 301.425L317.765 313.472L317.746 313.614L292.255 321.527ZM298.199 301.611L292.348 321.334L317.544 313.514L298.199 301.611Z" fill="#FFE74C" stroke="#FFE74C" stroke-width="0.4"/>
<path d="M317.741 313.617L317.647 313.541V294.118L317.77 294.052L340.13 309.159L340.1 309.301L317.741 313.617ZM317.805 294.267V313.446L339.883 309.184L317.805 294.267Z" fill="#FFE74C" stroke="#FFE74C" stroke-width="0.4"/>
<path d="M317.775 294.174L317.657 294.15L307.26 274.727L307.356 274.617L332.485 282.65L332.51 282.786L317.775 294.174ZM307.492 274.825L317.75 293.993L332.305 282.752L307.492 274.825Z" fill="#FFE74C" stroke="#FFE74C" stroke-width="0.4"/>
<path d="M298.091 301.547L280.082 283.742L280.112 283.612L307.307 274.624L307.406 274.725L298.222 301.505L298.091 301.547ZM280.284 283.722L298.111 301.347L307.206 274.82L280.284 283.722Z" fill="#FFE74C" stroke="#FFE74C" stroke-width="0.4"/>
<path d="M317.684 313.607L298.104 301.557L298.118 301.417L317.697 294.045L317.805 294.118V313.541L317.684 313.607ZM298.323 301.505L317.647 313.397V294.23L298.323 301.505Z" fill="#FFE74C" stroke="#FFE74C" stroke-width="0.4"/>
<path d="M298.143 301.569L261.642 300.071L261.593 299.934L280.085 283.63H280.183L298.192 301.432L298.143 301.569ZM261.844 299.922L297.946 301.405L280.134 283.796L261.844 299.922Z" fill="#FFE74C" stroke="#FFE74C" stroke-width="0.4"/>
<path d="M292.201 321.527L268.634 314.856V314.709L298.126 301.42L298.234 301.513L292.321 321.476L292.201 321.527ZM268.883 314.763L292.169 321.361L298.022 301.637L268.883 314.763Z" fill="#FFE74C" stroke="#FFE74C" stroke-width="0.4"/>
<path d="M428.019 262.65L409.892 246.082V245.967L423.55 233.211L423.683 233.257L428.155 262.582L428.019 262.65ZM410.06 246.033L427.963 262.394L423.545 233.423L410.06 246.033Z" fill="#FFE74C" stroke="#FFE74C" stroke-width="0.4"/>
<path d="M397.256 277.772L397.192 277.642L412.18 259.898L412.318 259.933L416.063 276.836L415.992 276.931L397.256 277.772ZM412.198 260.123L397.416 277.608L415.878 276.78L412.198 260.123Z" fill="#FFE74C" stroke="#FFE74C" stroke-width="0.4"/>
<path d="M405.556 299.819L383.553 286.271L383.595 286.127H405.598L405.676 286.205V299.753L405.556 299.819ZM383.876 286.283L405.521 299.611V286.283H383.876Z" fill="#FFE74C" stroke="#FFE74C" stroke-width="0.4"/>
<path d="M391.974 316.605L391.858 316.525L396.329 290.389L396.455 290.34L414.464 303.886V304.018L391.974 316.605ZM396.465 290.543L392.03 316.388L414.262 303.939L396.465 290.543Z" fill="#FFE74C" stroke="#FFE74C" stroke-width="0.4"/>
<path d="M398.394 352.423L383.526 327.253L383.602 327.133L397.258 328.213L397.332 328.286L398.539 352.384L398.394 352.423ZM383.74 327.297L398.367 352.069L397.177 328.364L383.74 327.297Z" fill="#FFE74C" stroke="#FFE74C" stroke-width="0.4"/>
<path d="M388.961 368.393L388.835 368.322L391.856 336.798H392.011L398.538 361.374L398.509 361.457L388.961 368.393ZM391.972 337.242L389.015 368.163L398.378 361.343L391.972 337.242Z" fill="#FFE74C" stroke="#FFE74C" stroke-width="0.4"/>
<path d="M396.064 321.529L396.002 321.388L411.471 311.146L411.592 311.227L410.02 317.993L409.963 318.052L396.064 321.529ZM411.395 311.385L396.465 321.265L409.872 317.913L411.395 311.385Z" fill="#FFE74C" stroke="#FFE74C" stroke-width="0.4"/>
<path d="M274.618 155.886L269.112 158.286L268.01 163.32L279.05 167.956H286.463L290.089 164.679L291.779 159.403L285.416 144.618L278.163 134.841L265.022 138.592L274.618 138.196L273.516 144.564L279.23 142.299L281.627 146.375L278.259 151.265L284.529 149.014L289.444 159.403L287.106 163.215L284.61 157.584L283.642 164.358L279.303 160.661L281.306 163.767L272.684 163.32L272.154 158.657L274.618 155.886Z" fill="#FFE74C"/>
<path d="M285.094 126.554L298.468 143.125L302.095 148.694V157.966L297.017 166.118L290.09 164.679L296.133 161.922L298.951 155.886L299.491 151.397L295.083 153.995L298.468 149.892L294.354 149.813L297.352 143.738L288.237 143.658L291.942 139.982L287.35 131.681L282.354 134.068L283.724 129.266L276.229 126.554H285.094Z" fill="#FFE74C"/>
<path d="M273.366 118.69L280.942 117.752L294.354 125.264L310.291 135.437L312.658 142.639L307.292 153.594L309.241 143.125L307.292 137.663L302.688 135.586L303.654 133.269L293.553 126.764L292.587 129.266L290.089 124.076L280.942 120.239L273.366 118.69Z" fill="#FFE74C"/>
<path d="M285.093 126.554L295.083 133.269L305.827 143.125L307.293 153.594L302.095 157.966L304.694 153.169V145.363L302.095 142.26L299.114 138.704L294.354 133.907L285.093 126.554Z" fill="#FFE74C"/>
<path d="M297.017 166.118L297.352 173.786L304.609 175.35L310.29 168.777L313.289 161.578L307.292 153.594L310.29 161.578L307.691 167.956L303.222 163.371L302.148 166.438L305.154 169.231L303.959 172.433L299.677 171.032L297.017 166.118Z" fill="#FFE74C"/>
<path d="M273.366 118.69L258.06 131.681L234.55 150.776C234.55 150.776 222.133 163.608 222.873 163.767C223.612 163.926 233.284 175.15 233.284 175.15L256.483 180.673L278.259 179.732L296.936 173.913L281.063 175.741L265.961 177.628L250.933 176.988L252.071 173.078L264.712 169.239L268.016 163.327L259.233 166.924L242.071 169.466L234.555 167.323L236.511 155.256L248.275 148.122L250.933 142.646L264.148 130.718L272.199 122.986L273.366 118.69Z" fill="#FFE74C"/>
<path d="M222.873 163.767L215.773 187.716L201.415 220.271L189.097 248.13L176.779 280.375L169.541 310.271L168.277 339.696L163.069 349.403L166.7 358.325L180.585 365.526L199.52 363.178L233.446 366.621L269.738 364.585L304.61 357.543L334.116 342.829L345.479 340.17L359.206 347.369L371.07 371.318L385.717 354.246L380.508 325.603L389.503 311.202L376.564 284.438L376.707 309.396L374.014 332.238L380.508 345.544L370.9 352.386L360.184 338.279L366.951 328.13L355.106 327.641L358.573 316.532C358.573 316.532 357.203 301.984 356.88 301.826C356.557 301.667 348.124 286.2 348.124 286.2L351.327 301.906L348.124 323.12L342.377 331.079L336.738 319.89L337.139 334.835L324.92 339.151L302.654 345.119L283.401 336.451L278.163 315.579L276.286 338.611L257.341 350.36L224.821 354.27L217.571 341.756L211.365 331.886L204.196 349.403L183.674 355.729L185.877 349.708L177.747 352.425L170.097 346.191L186.32 339.698L174.904 330.686L186.32 304.668L183.741 280.377L202.262 255.319L211.769 209.357L229.507 188.263L222.883 178.505L222.873 163.767Z" fill="#FFE74C"/>
<path d="M256.484 180.673L252.066 195.856L248.125 217.141L250.342 234.515L251.921 255.334L246.228 281.467L236.918 295.396L255.055 284.759L262.795 275.846L279.198 260.966L296.557 254.08H320.067L330.323 246.724L348.154 236.705L376.084 233.259L395.019 235.921L417.751 228.853L406.073 246.724L405.6 260.184L393.134 273.019L376.567 284.446L385.33 273.317L397.256 260.966L400.156 246.724V238.929L379.368 243.726L371.795 260.184C371.795 260.184 347.996 247.966 348.132 247.924C348.267 247.883 331.668 262.587 331.668 262.587L336.073 301.491L312.328 319.494L324.255 290.413L314.585 267.946L281.08 270.751L269.748 288.102L266.247 306.554L254.887 295.983L236.928 307.793H226.231L213.474 324.936L216.401 311.478L225.657 297.84L234.654 287.901L241.098 275.846L231.611 262.437L243.996 243.095L241.098 222.634L241.904 197.977L256.484 180.673Z" fill="#FFE74C"/>
<path d="M371.07 371.325C345.067 396.499 311.309 412.303 275.188 416.212C239.067 420.121 202.668 411.909 171.804 392.889C140.94 373.869 117.393 345.137 104.924 311.284C92.4545 277.431 91.7824 240.409 103.015 206.132C114.248 171.856 136.737 142.302 166.89 122.192C197.043 102.081 233.121 92.5754 269.36 95.1918C305.6 97.8081 339.91 112.396 366.81 136.625C393.709 160.854 411.647 193.327 417.758 228.856L432 224.518C424.953 186.071 405.208 151.044 375.876 124.958C346.544 98.8715 309.294 83.2101 269.998 80.4422C230.702 77.6743 191.595 87.9575 158.842 109.671C126.088 131.384 101.551 163.292 89.098 200.365C76.645 237.439 76.9846 277.569 90.0632 314.43C103.142 351.29 128.216 382.786 161.332 403.95C194.448 425.115 233.724 434.746 272.967 431.324C312.211 427.902 349.191 411.623 378.077 385.052L371.07 371.325Z" fill="#FFE74C"/>
</svg>
