<svg width="512" height="512" viewBox="0 0 512 512" fill="none" xmlns="http://www.w3.org/2000/svg">
<g clip-path="url(#clip0_25_511)">
<path d="M423.34 423.719L405.99 388.942L386.087 378.503L369.596 382.364L326.686 403.765H326.657L275.914 414.012L223.088 416.974L173.714 411.964L146.175 415.378H146.107L125.903 404.903L125.849 404.843L120.569 391.861V391.765L128.133 377.671L129.972 334.884L140.526 291.364L158.45 244.43L176.374 203.897L197.27 156.526L207.598 121.682L207.619 121.639L224.611 102.738L258.825 74.9546L281.094 56.0569L281.155 56.0284L292.178 54.6631H292.25L311.766 65.5929L334.96 80.3982L335.006 80.4586L338.451 90.9369V91.0222L330.672 106.901L339.358 118.46V118.571L335.006 129.067L334.985 129.099L326.722 138.667L326.607 138.702L316.075 136.434L288.321 145.067H288.292L256.688 146.432L250.282 168.441L244.547 199.374L247.773 224.619L250.071 254.912V254.944L241.804 292.988V293.028L228.505 312.889L254.462 297.664L265.701 284.697L289.59 263.054L289.622 263.033L314.881 253.01H314.924H349.098L363.993 242.343L389.947 227.765H389.99L430.632 222.756H430.66L458.188 226.624L491.276 216.455L474.385 242.489L473.696 262.044L473.664 262.119L455.525 280.793L431.481 297.38L450.266 336.235V336.341L437.203 357.255L444.77 398.887L444.749 398.979L423.34 423.719ZM386.087 378.272H386.165L406.14 388.75L406.19 388.796L423.351 423.708L444.519 398.852L436.952 357.227V357.145L450.008 336.245L431.205 297.362L431.245 297.216L455.353 280.594L473.445 261.966L474.13 242.411L474.152 242.35L491.251 216.416L458.206 226.809H458.156L430.621 222.94L390.03 227.964L364.104 242.542L349.191 253.237L349.123 253.259H314.946L289.73 263.264L265.866 284.871L254.624 297.842L254.595 297.867L228.189 313.351L228.035 313.191L241.571 292.924L249.827 254.933L247.533 224.661L244.306 199.388V199.356L250.042 168.384L256.473 146.283L256.581 146.201L288.249 144.836L316.017 136.185H316.078L326.571 138.45L334.78 128.949L339.125 118.556L330.439 106.994V106.876L338.225 90.976L334.809 80.5831L311.655 65.8026L292.164 54.8942L281.216 56.2524L258.972 75.1289L224.769 102.916L207.809 121.785L197.485 156.604L176.585 203.986L158.661 244.519L140.759 291.431L130.201 334.933L128.366 377.724V377.771L120.809 391.822L126.054 404.715L146.19 415.157L173.707 411.744H173.732L223.099 416.754L275.889 413.792L326.603 403.552L369.525 382.151H369.55L386.087 378.272Z" fill="white"/>
<path d="M263.07 100.768L235.409 118.987L239.765 102.631L263.07 100.768Z" fill="white" fill-opacity="0.5"/>
<path d="M143.678 351.086L155.597 374.716L167.541 348.306L143.678 351.086Z" fill="white" fill-opacity="0.5"/>
<path d="M234.86 159.086L215.517 189.255L227.017 196.48L234.86 159.086Z" fill="white" fill-opacity="0.5"/>
<path d="M444.847 280.153L407.058 301.326L418.562 280.153H444.847Z" fill="white" fill-opacity="0.5"/>
<path d="M206.989 225.625L197.489 252.114L212.154 254.624L206.989 225.625Z" fill="white" fill-opacity="0.5"/>
<path d="M173.198 279.694L171.062 316.967L194.004 297.668L173.198 279.694Z" fill="white" fill-opacity="0.5"/>
<path d="M242.88 345.298L219.958 368.203L264.242 372.846L242.88 345.298Z" fill="white" fill-opacity="0.5"/>
<path d="M308.873 291.108L339.742 309.629L303.726 313.493L308.873 291.108Z" fill="white" fill-opacity="0.5"/>
<path d="M330.64 106.976L330.421 106.944L328.288 91.7121L328.396 91.5805L338.333 90.8694L338.447 91.0329L330.64 106.976ZM328.535 91.8009L330.597 106.539L338.154 91.1147L328.535 91.8009Z" fill="white" stroke="white" stroke-width="0.4"/>
<path d="M328.324 91.7795L312.694 77.4364L312.788 77.2408L334.913 80.3982L334.999 80.5653L328.503 91.7511L328.324 91.7795ZM313.121 77.5111L328.371 91.5164L334.709 80.5973L313.121 77.5111Z" fill="white" stroke="white" stroke-width="0.4"/>
<path d="M312.705 77.4471L298.168 67.68L298.215 67.4738L311.69 65.5929L311.823 65.696L312.899 77.344L312.705 77.4471ZM298.545 67.6551L312.633 77.1236L311.604 65.8382L298.545 67.6551Z" fill="white" stroke="white" stroke-width="0.4"/>
<path d="M323.044 113.372L322.861 113.259L328.292 91.6693H328.518L330.651 106.901L330.611 107.004L323.044 113.372ZM328.371 92.2951L323.169 112.971L330.414 106.88L328.371 92.2951Z" fill="white" stroke="white" stroke-width="0.4"/>
<path d="M328.403 91.8079H317.695L317.588 91.7333L312.662 77.3902L312.849 77.2693L328.482 91.6124L328.403 91.8079ZM317.778 91.5804H328.109L313.024 77.7422L317.778 91.5804Z" fill="white" stroke="white" stroke-width="0.4"/>
<path d="M323.083 113.312L322.857 113.287V99.7973V99.7333L328.292 91.6338L328.496 91.7227L323.083 113.312ZM323.083 99.8329V112.356L328.127 92.3022L323.083 99.8329Z" fill="white" stroke="white" stroke-width="0.4"/>
<path d="M323.065 99.8613H322.875L317.616 91.7582L317.713 91.5804H328.421L328.518 91.7582L323.065 99.8613ZM317.907 91.808L322.972 99.5876L328.188 91.808H317.907Z" fill="white" stroke="white" stroke-width="0.4"/>
<path d="M317.616 91.7654L298.154 67.6551L298.308 67.4916L312.845 77.2587L312.892 77.3156L317.814 91.6587L317.616 91.7654ZM298.796 68.0996L317.376 91.1182L312.676 77.4258L298.796 68.0996Z" fill="white" stroke="white" stroke-width="0.4"/>
<path d="M315.494 125.216L307.873 115.449L307.948 115.268L322.954 113.173L323.069 113.348L315.684 125.209L315.494 125.216ZM308.177 115.467L315.573 124.949L322.742 113.433L308.177 115.467Z" fill="white" stroke="white" stroke-width="0.4"/>
<path d="M315.562 125.259L305.478 123.168L305.392 123.022L307.855 115.349L308.056 115.314L315.677 125.081L315.562 125.259ZM305.65 122.969L315.304 124.974L308.005 115.62L305.65 122.969Z" fill="white" stroke="white" stroke-width="0.4"/>
<path d="M308.048 115.46L307.858 115.335L317.588 91.6516L317.792 91.6338L323.069 99.7333V99.8756L308.048 115.46ZM317.727 91.9396L308.296 114.866L322.821 99.7831L317.727 91.9396Z" fill="white" stroke="white" stroke-width="0.4"/>
<path d="M307.858 115.424L298.595 93.9093L298.688 93.7529L317.688 91.584L317.81 91.7369L308.077 115.424H307.858ZM298.868 93.9627L307.962 115.083L317.516 91.8293L298.868 93.9627Z" fill="white" stroke="white" stroke-width="0.4"/>
<path d="M298.713 93.9805L298.588 93.8667L298.118 67.5876L298.322 67.5129L317.785 91.6232L317.709 91.808L298.713 93.9805ZM298.355 67.9183L298.817 93.7387L317.48 91.6054L298.355 67.9183Z" fill="white" stroke="white" stroke-width="0.4"/>
<path d="M289.393 127.929L273.329 121.173L273.29 120.992L282.905 110.176L283.098 110.212L289.551 127.772L289.393 127.929ZM273.566 121.035L289.239 127.616L282.948 110.482L273.566 121.035Z" fill="white" stroke="white" stroke-width="0.4"/>
<path d="M300.301 127.908H300.144L282.908 110.35L283.048 110.172L305.557 122.972L305.578 123.157L300.301 127.908ZM283.643 110.766L300.23 127.666L305.309 123.076L283.643 110.766Z" fill="white" stroke="white" stroke-width="0.4"/>
<path d="M300.226 127.936H289.44L289.332 127.861L282.879 110.3L283.069 110.183L300.305 127.744L300.226 127.936ZM289.518 127.708H299.954L283.281 110.724L289.518 127.708Z" fill="white" stroke="white" stroke-width="0.4"/>
<path d="M307.937 115.492L282.962 110.375L282.904 110.183L298.617 93.7885L298.807 93.8204L308.07 115.335L307.937 115.492ZM283.202 110.194L307.758 115.225L298.649 94.0693L283.202 110.194Z" fill="white" stroke="white" stroke-width="0.4"/>
<path d="M283.073 110.34L282.875 110.244L288.034 79.6196L288.242 79.5734L298.792 93.7956V93.9414L283.073 110.34ZM288.22 79.9254L283.166 109.916L298.552 93.8667L288.22 79.9254Z" fill="white" stroke="white" stroke-width="0.4"/>
<path d="M288.238 79.712L288.038 79.6729L281.051 56.1778L281.223 56.0498L298.287 67.4951L298.308 67.6623L288.238 79.712ZM281.37 56.416L288.199 79.4027L298.061 67.6089L281.37 56.416Z" fill="white" stroke="white" stroke-width="0.4"/>
<path d="M298.258 67.6978L298.14 67.6338L292.1 54.8338L292.261 54.688L311.777 65.6178L311.734 65.8311L298.258 67.6978ZM292.458 55.0507L298.312 67.4595L311.368 65.6391L292.458 55.0507Z" fill="white" stroke="white" stroke-width="0.4"/>
<path d="M274.598 80.1742L258.871 75.1538L258.832 74.9582L281.101 56.0569L281.287 56.1707L274.745 80.096L274.598 80.1742ZM259.137 74.9973L274.551 79.9218L280.965 56.4551L259.137 74.9973Z" fill="white" stroke="white" stroke-width="0.4"/>
<path d="M248.515 103.651L224.683 102.94L224.615 102.741L258.825 74.9546L259.008 75.0826L248.612 103.577L248.515 103.651ZM224.998 102.723L248.44 103.435L258.649 75.4097L224.998 102.723Z" fill="white" stroke="white" stroke-width="0.4"/>
<path d="M282.879 110.293L274.516 80.096L274.623 79.9538L288.145 79.5271L288.263 79.6587L283.105 110.283L282.879 110.293ZM274.777 80.1742L282.961 109.735L288.012 79.7582L274.777 80.1742Z" fill="white" stroke="white" stroke-width="0.4"/>
<path d="M266.941 107.623L248.494 103.648L248.429 103.467L274.534 80L274.724 80.1138L267.07 107.541L266.941 107.623ZM248.763 103.467L266.884 107.378L274.412 80.416L248.763 103.467Z" fill="white" stroke="white" stroke-width="0.4"/>
<path d="M273.462 121.152L273.272 121.127L266.862 107.559L266.988 107.399L283.008 110.151L283.077 110.339L273.462 121.152ZM267.163 107.659L273.405 120.871L282.768 110.339L267.163 107.659Z" fill="white" stroke="white" stroke-width="0.4"/>
<path d="M228.913 126.421L207.673 121.842L207.608 121.653L224.601 102.752L224.801 102.809L229.053 126.275L228.913 126.421ZM207.92 121.66L228.802 126.162L224.622 103.079L207.92 121.66Z" fill="white" stroke="white" stroke-width="0.4"/>
<path d="M252.469 134.443L228.902 126.418L228.852 126.236L248.429 103.467L248.63 103.527L252.616 134.325L252.469 134.443ZM229.135 126.265L252.372 134.169L248.429 103.822L229.135 126.265Z" fill="white" stroke="white" stroke-width="0.4"/>
<path d="M252.57 134.432L252.405 134.279L266.866 107.456H267.07L273.48 121.024L273.437 121.166L252.57 134.432ZM266.959 107.765L252.813 134.002L273.247 121.035L266.959 107.765Z" fill="white" stroke="white" stroke-width="0.4"/>
<path d="M222.859 138.4L222.74 138.236L228.834 126.258L228.974 126.204L252.541 134.226L252.519 134.446L222.859 138.4ZM228.996 126.45L223.045 138.148L252.01 134.286L228.996 126.45Z" fill="white" stroke="white" stroke-width="0.4"/>
<path d="M222.758 138.364L207.612 121.806L207.72 121.618L228.964 126.201L229.042 126.361L222.948 138.34L222.758 138.364ZM208.021 121.916L222.816 138.091L228.77 126.389L208.021 121.916Z" fill="white" stroke="white" stroke-width="0.4"/>
<path d="M256.577 146.436L222.815 138.4V138.176L252.48 134.222L252.605 134.297L256.699 146.286L256.577 146.436ZM223.468 138.311L256.427 146.155L252.426 134.45L223.468 138.311Z" fill="white" stroke="white" stroke-width="0.4"/>
<path d="M288.256 145.067L252.473 134.443L252.444 134.24L273.315 120.981L273.472 121.017L288.385 144.9L288.256 145.067ZM252.766 134.297L288.02 144.764L273.322 121.237L252.766 134.297Z" fill="white" stroke="white" stroke-width="0.4"/>
<path d="M288.321 145.067L288.174 144.949L289.325 127.815L289.475 127.716L316.107 136.196V136.412L288.321 145.067ZM289.543 127.975L288.414 144.8L315.691 136.302L289.543 127.975Z" fill="white" stroke="white" stroke-width="0.4"/>
<path d="M316.018 136.405L300.173 127.922L300.147 127.737L305.428 122.969H305.596L316.165 136.22L316.018 136.405ZM300.409 127.797L315.62 135.943L305.475 123.221L300.409 127.797Z" fill="white" stroke="white" stroke-width="0.4"/>
<path d="M326.607 138.692L316.046 136.416L315.956 136.309L315.465 125.156L315.67 125.081L326.718 138.514L326.607 138.692ZM316.182 136.203L326.335 138.389L315.713 125.476L316.182 136.203Z" fill="white" stroke="white" stroke-width="0.4"/>
<path d="M334.877 129.127L315.562 125.259L315.487 125.088L322.872 113.227H323.062L334.992 128.956L334.877 129.127ZM315.77 125.067L334.626 128.846L322.993 113.486L315.77 125.067Z" fill="white" stroke="white" stroke-width="0.4"/>
<path d="M339.225 118.649L322.936 113.394L322.896 113.198L330.461 106.841H330.629L339.355 118.457L339.225 118.649ZM323.201 113.241L338.953 118.322L330.521 107.093L323.201 113.241Z" fill="white" stroke="white" stroke-width="0.4"/>
<path d="M197.392 156.683L197.252 156.54L207.587 121.696L207.809 121.717L211.351 153.159L211.261 153.284L197.392 156.683ZM207.644 122.304L197.524 156.416L211.104 153.088L207.644 122.304Z" fill="white" stroke="white" stroke-width="0.4"/>
<path d="M176.532 204.036L176.363 203.897L197.259 156.526L197.478 156.569L198.804 189.799L198.751 189.902L176.532 204.036ZM197.27 157.07L176.733 203.641L198.578 189.742L197.27 157.07Z" fill="white" stroke="white" stroke-width="0.4"/>
<path d="M158.6 244.583L158.453 244.43L176.377 203.897H176.592L186.15 234.532L186.081 234.674L158.6 244.583ZM176.449 204.267L158.772 244.267L185.884 234.492L176.449 204.267Z" fill="white" stroke="white" stroke-width="0.4"/>
<path d="M140.712 291.484L140.543 291.349L158.468 244.437H158.686L165.752 275.371L165.702 275.492L140.712 291.484ZM158.532 244.871L140.88 291.093L165.497 275.328L158.532 244.871Z" fill="white" stroke="white" stroke-width="0.4"/>
<path d="M130.13 334.99L129.965 334.862L140.526 291.364L140.737 291.335L157.973 321.156L157.927 321.312L130.13 334.99ZM140.683 291.694L130.259 334.677L157.733 321.163L140.683 291.694Z" fill="white" stroke="white" stroke-width="0.4"/>
<path d="M128.315 377.796L128.136 377.696L129.975 334.884L130.169 334.805L155.858 359.04V359.214L128.315 377.796ZM130.19 335.129L128.376 377.465L155.582 359.111L130.19 335.129Z" fill="white" stroke="white" stroke-width="0.4"/>
<path d="M120.698 391.932L120.572 391.765L128.151 377.646L128.294 377.596L149.839 385.877L149.821 386.094L120.698 391.932ZM128.305 377.845L120.891 391.662L149.391 385.948L128.305 377.845Z" fill="white" stroke="white" stroke-width="0.4"/>
<path d="M146.107 415.378L125.903 404.903L125.885 404.711L149.728 385.895L149.911 385.998L146.261 415.289L146.107 415.378ZM126.165 404.782L146.068 415.093L149.653 386.24L126.165 404.782Z" fill="white" stroke="white" stroke-width="0.4"/>
<path d="M146.175 415.388L146.079 415.196L169.531 391.73L169.724 391.787L173.825 411.826L173.728 411.964L146.175 415.388ZM169.545 392.053L146.477 415.122L173.578 411.762L169.545 392.053Z" fill="white" stroke="white" stroke-width="0.4"/>
<path d="M223.066 416.985L173.703 411.975L173.653 411.765L202.263 394.492L202.41 394.514L223.163 416.793L223.066 416.985ZM174.065 411.783L222.79 416.729L202.303 394.734L174.065 411.783Z" fill="white" stroke="white" stroke-width="0.4"/>
<path d="M223.088 416.985L223.005 416.782L249.852 394.965H249.996L275.957 413.81L275.896 414.012L223.088 416.985ZM249.931 395.2L223.425 416.74L275.563 413.813L249.931 395.2Z" fill="white" stroke="white" stroke-width="0.4"/>
<path d="M250.118 168.533L234.395 159.787V159.588L256.545 146.226L256.717 146.357L250.286 168.444L250.118 168.533ZM234.678 159.68L250.093 168.245L256.398 146.557L234.678 159.68Z" fill="white" stroke="white" stroke-width="0.4"/>
<path d="M244.353 199.467L228.039 183.979V183.804L250.092 168.316L250.272 168.43L244.536 199.403L244.353 199.467ZM228.3 183.911L244.36 199.154L250.01 168.665L228.3 183.911Z" fill="white" stroke="white" stroke-width="0.4"/>
<path d="M247.597 224.768L229.161 215.556L229.128 215.374L244.35 199.307L244.547 199.371L247.773 224.651L247.597 224.768ZM229.401 215.42L247.508 224.466L244.35 199.641L229.401 215.42Z" fill="white" stroke="white" stroke-width="0.4"/>
<path d="M249.906 255.061L228.081 247.467L228.031 247.285L247.561 224.583L247.762 224.651L250.06 254.937L249.906 255.061ZM228.314 247.314L249.823 254.78L247.561 224.942L228.314 247.314Z" fill="white" stroke="white" stroke-width="0.4"/>
<path d="M241.586 293.053L226.153 272.903L226.174 272.743L249.863 254.862L250.046 254.976L241.779 293.021L241.586 293.053ZM226.404 272.857L241.618 292.718L249.766 255.229L226.404 272.857Z" fill="white" stroke="white" stroke-width="0.4"/>
<path d="M228.038 313.319L212.548 291.456L212.649 291.278L241.686 292.871L241.775 293.049L228.232 313.316L228.038 313.319ZM212.871 291.516L228.128 313.052L241.471 293.088L212.871 291.516Z" fill="white" stroke="white" stroke-width="0.4"/>
<path d="M234.42 159.794L211.204 153.284L211.147 153.102L222.755 138.219H222.948L234.552 159.644L234.42 159.794ZM211.43 153.109L234.223 159.509L222.826 138.503L211.43 153.109Z" fill="white" stroke="white" stroke-width="0.4"/>
<path d="M228.017 183.954L211.147 153.244L211.28 153.081L234.495 159.595L234.577 159.733L228.243 183.947L228.017 183.954ZM211.466 153.358L228.082 183.58L234.312 159.758L211.466 153.358Z" fill="white" stroke="white" stroke-width="0.4"/>
<path d="M198.711 189.917L198.582 189.767L211.129 153.145L211.34 153.127L228.225 183.854L228.146 184.018L198.711 189.917ZM211.258 153.458L198.862 189.653L227.945 183.822L211.258 153.458Z" fill="white" stroke="white" stroke-width="0.4"/>
<path d="M229.175 215.563L210.494 209.216L210.437 209.045L228.024 183.836L228.236 183.897L229.311 215.449L229.175 215.563ZM210.713 209.067L229.092 215.31L228.017 184.267L210.713 209.067Z" fill="white" stroke="white" stroke-width="0.4"/>
<path d="M186.11 234.667L185.917 234.556L198.578 189.785L198.786 189.756L210.616 209.06V209.198L186.11 234.667ZM198.729 190.098L186.261 234.187L210.387 209.113L198.729 190.098Z" fill="white" stroke="white" stroke-width="0.4"/>
<path d="M228.081 247.467L206.572 239.907L206.526 239.726L229.135 215.371L229.333 215.449L228.257 247.363L228.081 247.467ZM206.805 239.751L227.995 247.207L229.071 215.755L206.805 239.751Z" fill="white" stroke="white" stroke-width="0.4"/>
<path d="M206.576 239.918L185.999 234.684L185.945 234.496L210.448 209.031L210.645 209.124L206.719 239.822L206.576 239.918ZM186.246 234.514L206.508 239.666L210.372 209.444L186.246 234.514Z" fill="white" stroke="white" stroke-width="0.4"/>
<path d="M226.146 272.892L206.504 239.865L206.641 239.701L228.15 247.26L228.225 247.374L226.35 272.843L226.146 272.892ZM206.863 240.021L226.156 272.462L227.999 247.445L206.863 240.021Z" fill="white" stroke="white" stroke-width="0.4"/>
<path d="M212.735 291.456H212.549L197.166 269.934L197.27 269.756L226.264 272.722L226.347 272.903L212.735 291.456ZM197.489 270.009L212.645 291.2L226.035 272.932L197.489 270.009Z" fill="white" stroke="white" stroke-width="0.4"/>
<path d="M165.644 275.506L165.522 275.342L185.924 234.524L186.135 234.542L197.359 269.835L197.27 269.98L165.644 275.506ZM186.003 234.88L165.831 275.243L197.101 269.781L186.003 234.88Z" fill="white" stroke="white" stroke-width="0.4"/>
<path d="M197.141 269.902L185.917 234.61L186.056 234.464L206.633 239.698L206.712 239.844L197.359 269.902H197.141ZM186.2 234.738L197.248 269.486L206.458 239.89L186.2 234.738Z" fill="white" stroke="white" stroke-width="0.4"/>
<path d="M206.687 336.231H206.508L187.222 308.142L187.333 307.964L228.146 313.148L228.214 313.337L206.687 336.231ZM187.555 308.217L206.619 335.972L227.895 313.337L187.555 308.217Z" fill="white" stroke="white" stroke-width="0.4"/>
<path d="M187.38 308.167L187.208 308.043L197.137 269.842L197.342 269.803L212.735 291.324L212.706 291.485L187.38 308.167ZM197.299 270.123L187.487 307.812L212.466 291.36L197.299 270.123Z" fill="white" stroke="white" stroke-width="0.4"/>
<path d="M157.934 321.316L157.776 321.191L165.512 275.374L165.723 275.332L187.412 308.007L187.365 308.174L157.934 321.316ZM165.691 275.698L158.038 321.02L187.146 308.021L165.691 275.698Z" fill="white" stroke="white" stroke-width="0.4"/>
<path d="M275.914 414.023L275.795 413.842L297.899 383.822L298.061 383.797L326.693 403.57L326.653 403.776L275.914 414.023ZM298.025 384.046L276.157 413.739L326.345 403.605L298.025 384.046Z" fill="white" stroke="white" stroke-width="0.4"/>
<path d="M326.686 403.765L326.524 403.623L339.864 367.495L340.025 367.431L369.621 382.155V382.357L326.686 403.765ZM340.036 367.691L326.84 403.431L369.313 382.258L340.036 367.691Z" fill="white" stroke="white" stroke-width="0.4"/>
<path d="M369.596 382.368L369.457 382.244L372.296 356.203L372.507 356.156L386.198 378.325L386.126 378.496L369.596 382.368ZM372.489 356.558L369.7 382.108L385.922 378.311L372.489 356.558Z" fill="white" stroke="white" stroke-width="0.4"/>
<path d="M406.022 388.978L386.047 378.503L386.015 378.325L407.42 354.759L407.62 354.841L406.186 388.882L406.022 388.978ZM386.283 378.372L405.968 388.683L407.377 355.136L386.283 378.372Z" fill="white" stroke="white" stroke-width="0.4"/>
<path d="M423.34 423.719L405.975 388.91L406.108 388.75L444.681 398.77L444.741 398.951L423.34 423.719ZM406.294 389.035L423.34 423.719L444.455 398.948L406.294 389.035Z" fill="white" stroke="white" stroke-width="0.4"/>
<path d="M406.162 388.939L405.964 388.857L407.398 354.812L407.524 354.706L437.091 357.092L437.163 357.284L406.162 388.939ZM407.621 354.94L406.208 388.565L436.826 357.298L407.621 354.94Z" fill="white" stroke="white" stroke-width="0.4"/>
<path d="M437.17 357.266H436.991L418.623 325.749L418.759 325.582L450.216 336.149L450.277 336.316L437.17 357.266ZM418.956 325.891L437.077 356.985L449.983 336.316L418.956 325.891Z" fill="white" stroke="white" stroke-width="0.4"/>
<path d="M450.126 336.356L418.666 325.788L418.598 325.636L431.231 297.259H431.439L450.255 336.206L450.126 336.356ZM418.859 325.614L449.94 336.053L431.338 297.6L418.859 325.614Z" fill="white" stroke="white" stroke-width="0.4"/>
<path d="M431.399 297.404L431.22 297.312L431.428 261.671L431.614 261.582L455.514 280.597V280.779L431.399 297.404ZM431.654 261.906L431.449 297.106L455.253 280.693L431.654 261.906Z" fill="white" stroke="white" stroke-width="0.4"/>
<path d="M473.582 262.126L431.542 261.771L431.463 261.575L450.083 243.797H450.234L473.653 261.931L473.582 262.126ZM431.825 261.561L473.245 261.895L450.169 244.028L431.825 261.561Z" fill="white" stroke="white" stroke-width="0.4"/>
<path d="M450.169 243.993L450.058 243.829L458.095 226.667L458.278 226.635L474.352 242.347L474.277 242.542L450.169 243.993ZM458.235 226.908L450.348 243.755L474.008 242.332L458.235 226.908Z" fill="white" stroke="white" stroke-width="0.4"/>
<path d="M450.158 243.993L409.908 243.122L409.829 242.926L430.564 222.763H430.729L450.248 243.797L450.158 243.993ZM410.184 242.898L449.897 243.758L430.643 223.004L410.184 242.898Z" fill="white" stroke="white" stroke-width="0.4"/>
<path d="M378.322 267.516L378.143 267.396L389.894 227.822L390.073 227.762L409.979 242.916V243.097L378.322 267.516ZM390.066 228.05L378.465 267.129L409.721 243.015L390.066 228.05Z" fill="white" stroke="white" stroke-width="0.4"/>
<path d="M378.2 267.531L349.08 253.234V253.038L364.007 242.336L364.172 242.372L378.368 267.371L378.2 267.531ZM349.353 253.113L377.967 267.161L364.018 242.596L349.353 253.113Z" fill="white" stroke="white" stroke-width="0.4"/>
<path d="M402.218 279.588L402.046 279.467L409.782 242.983L409.972 242.919L431.603 261.586V261.767L402.218 279.588ZM409.969 243.221L402.322 279.257L431.334 261.657L409.969 243.221Z" fill="white" stroke="white" stroke-width="0.4"/>
<path d="M394.124 312.533L393.97 312.402L402.061 279.46L402.233 279.392L431.395 297.212V297.412L394.124 312.533ZM402.247 279.666L394.246 312.238L431.08 297.305L402.247 279.666Z" fill="white" stroke="white" stroke-width="0.4"/>
<path d="M367.22 294.919L367.065 294.77L378.146 267.392L378.304 267.332L402.222 279.396V279.602L367.22 294.919ZM378.315 267.584L367.384 294.606L401.903 279.495L378.315 267.584Z" fill="white" stroke="white" stroke-width="0.4"/>
<path d="M330.69 283.186H330.49L314.82 253.184L314.924 253.017H349.134L349.231 253.191L330.69 283.186ZM315.107 253.244L330.597 282.894L348.926 253.244H315.107Z" fill="white" stroke="white" stroke-width="0.4"/>
<path d="M291.056 296.316L290.906 296.213L289.551 263.147L289.716 263.04L330.644 283.022V283.232L291.056 296.316ZM289.787 263.339L291.132 296.05L330.292 283.104L289.787 263.339Z" fill="white" stroke="white" stroke-width="0.4"/>
<path d="M264.202 320.018L264.012 319.925L265.672 284.8L265.833 284.7L291.071 296.124L291.099 296.313L264.202 320.018ZM265.909 284.96L264.256 319.666L290.827 296.238L265.909 284.96Z" fill="white" stroke="white" stroke-width="0.4"/>
<path d="M264.091 320.043L228.11 313.365L228.071 313.155L254.477 297.667L254.642 297.721L264.22 319.886L264.091 320.043ZM228.451 313.195L263.941 319.78L254.498 297.931L228.451 313.195Z" fill="white" stroke="white" stroke-width="0.4"/>
<path d="M234.19 342.72L206.587 336.267L206.529 336.078L228.038 313.177L228.235 313.23L234.33 342.585L234.19 342.72ZM206.823 336.089L234.068 342.457L228.063 313.493L206.823 336.089Z" fill="white" stroke="white" stroke-width="0.4"/>
<path d="M234.219 342.724L234.147 342.517L264.044 319.84L264.217 319.883L274.419 341.397L274.319 341.561L234.219 342.724ZM264.07 320.107L234.57 342.485L274.136 341.333L264.07 320.107Z" fill="white" stroke="white" stroke-width="0.4"/>
<path d="M330.629 283.236L330.493 283.068L349.037 253.07L349.184 253.028L378.304 267.324V267.534L330.629 283.236ZM349.163 253.28L330.841 282.919L377.938 267.406L349.163 253.28Z" fill="white" stroke="white" stroke-width="0.4"/>
<path d="M155.833 359.221L155.665 359.115L157.772 321.205L157.97 321.131L181.522 345.308L181.493 345.49L155.833 359.221ZM157.984 321.479L155.901 358.926L181.246 345.369L157.984 321.479Z" fill="white" stroke="white" stroke-width="0.4"/>
<path d="M181.479 345.508L181.325 345.383L187.204 308.05L187.412 308.004L206.698 336.092L206.644 336.263L181.479 345.508ZM187.387 308.373L181.583 345.244L206.426 336.117L187.387 308.373Z" fill="white" stroke="white" stroke-width="0.4"/>
<path d="M169.581 391.929L149.764 386.094L149.685 385.959L155.665 359.111H155.883L169.721 391.822L169.581 391.929ZM149.932 385.906L169.412 391.641L155.812 359.495L149.932 385.906Z" fill="white" stroke="white" stroke-width="0.4"/>
<path d="M202.314 394.702L169.602 391.932L169.53 391.74L190.871 370.265L191.054 370.297L202.428 394.542L202.314 394.702ZM169.867 391.726L202.131 394.46L190.91 370.539L169.867 391.726Z" fill="white" stroke="white" stroke-width="0.4"/>
<path d="M190.918 370.453L155.743 359.228L155.722 359.022L181.382 345.298L181.543 345.358L191.057 370.304L190.918 370.453ZM156.069 359.111L190.76 370.18L181.393 345.561L156.069 359.111Z" fill="white" stroke="white" stroke-width="0.4"/>
<path d="M191.014 370.439L190.846 370.297L206.486 336.107L206.615 336.043L234.219 342.496L234.254 342.702L191.014 370.439ZM206.669 336.288L191.219 370.037L233.928 342.659L206.669 336.288Z" fill="white" stroke="white" stroke-width="0.4"/>
<path d="M249.924 395.168L202.324 394.702L202.256 394.5L228.067 375.381H228.211L250.006 394.962L249.924 395.168ZM202.665 394.478L249.626 394.937L228.117 375.62L202.665 394.478Z" fill="white" stroke="white" stroke-width="0.4"/>
<path d="M249.952 395.164L249.831 394.99L269.472 366.268L269.626 366.236L298.057 383.794L298.025 384.004L249.952 395.164ZM269.597 366.485L250.185 394.876L297.702 383.854L269.597 366.485Z" fill="white" stroke="white" stroke-width="0.4"/>
<path d="M228.114 375.584L190.935 370.457L190.889 370.247L234.154 342.514L234.33 342.628L228.235 375.492L228.114 375.584ZM191.272 370.272L228.038 375.342L234.054 342.848L191.272 370.272Z" fill="white" stroke="white" stroke-width="0.4"/>
<path d="M228.157 375.58L228.017 375.449L234.111 342.588L234.287 342.514L269.63 366.222L269.59 366.428L228.157 375.58ZM234.298 342.802L228.275 375.321L269.282 366.279L234.298 342.802Z" fill="white" stroke="white" stroke-width="0.4"/>
<path d="M298.039 384L297.889 383.861L308.5 351.125L308.661 351.058L340.025 367.435V367.641L298.039 384ZM308.675 351.324L298.179 383.701L339.695 367.52L308.675 351.324Z" fill="white" stroke="white" stroke-width="0.4"/>
<path d="M340.011 367.644L339.86 367.513L345.596 339.623L345.772 339.548L372.464 356.121L372.443 356.324L340.011 367.644ZM345.797 339.829L340.126 367.364L372.149 356.188L345.797 339.829Z" fill="white" stroke="white" stroke-width="0.4"/>
<path d="M407.613 354.844H407.398L393.973 312.466L394.134 312.331L418.759 325.589L418.809 325.728L407.613 354.844ZM394.274 312.651L407.517 354.489L418.562 325.76L394.274 312.651Z" fill="white" stroke="white" stroke-width="0.4"/>
<path d="M372.414 356.327L372.299 356.185L378.143 333.337L378.322 333.273L407.574 354.727L407.51 354.933L372.414 356.327ZM378.322 333.572L372.557 356.11L407.176 354.731L378.322 333.572Z" fill="white" stroke="white" stroke-width="0.4"/>
<path d="M378.343 333.433L378.143 333.394L367.062 294.844L367.238 294.72L394.145 312.338L394.174 312.501L378.343 333.433ZM367.37 295.079L378.3 333.124L393.916 312.469L367.37 295.079Z" fill="white" stroke="white" stroke-width="0.4"/>
<path d="M269.608 366.439L269.454 366.311L274.2 341.422L274.347 341.333L308.654 351.047V351.26L269.608 366.439ZM274.405 341.589L269.716 366.151L308.249 351.172L274.405 341.589Z" fill="white" stroke="white" stroke-width="0.4"/>
<path d="M308.654 351.264L308.511 351.122L317.114 322.08L317.283 322.016L345.775 339.545L345.746 339.751L308.654 351.264ZM317.304 322.286L308.79 350.983L345.452 339.605L317.304 322.286Z" fill="white" stroke="white" stroke-width="0.4"/>
<path d="M345.739 339.755L345.603 339.644V311.385L345.782 311.289L378.318 333.269L378.275 333.475L345.739 339.755ZM345.832 311.602V339.506L377.96 333.305L345.832 311.602Z" fill="white" stroke="white" stroke-width="0.4"/>
<path d="M345.789 311.467L345.617 311.431L330.489 283.172L330.629 283.012L367.194 294.699L367.23 294.898L345.789 311.467ZM330.826 283.314L345.753 311.204L366.933 294.848L330.826 283.314Z" fill="white" stroke="white" stroke-width="0.4"/>
<path d="M317.147 322.194L290.941 296.288L290.984 296.1L330.557 283.022L330.701 283.168L317.337 322.133L317.147 322.194ZM291.235 296.26L317.175 321.902L330.41 283.307L291.235 296.26Z" fill="white" stroke="white" stroke-width="0.4"/>
<path d="M345.657 339.74L317.165 322.208L317.186 322.005L345.675 311.278L345.832 311.385V339.644L345.657 339.74ZM317.484 322.133L345.603 339.435V311.548L317.484 322.133Z" fill="white" stroke="white" stroke-width="0.4"/>
<path d="M317.222 322.226L264.109 320.046L264.037 319.847L290.945 296.124H291.088L317.293 322.027L317.222 322.226ZM264.403 319.829L316.935 321.987L291.017 296.366L264.403 319.829Z" fill="white" stroke="white" stroke-width="0.4"/>
<path d="M308.575 351.264L274.283 341.557V341.344L317.197 322.009L317.354 322.144L308.751 351.189L308.575 351.264ZM274.645 341.422L308.529 351.022L317.046 322.325L274.645 341.422Z" fill="white" stroke="white" stroke-width="0.4"/>
<path d="M506.207 265.6L479.83 241.493V241.326L499.704 222.766L499.898 222.834L506.404 265.5L506.207 265.6ZM480.074 241.422L506.125 265.227L499.697 223.076L480.074 241.422Z" fill="white" stroke="white" stroke-width="0.4"/>
<path d="M461.443 287.602L461.35 287.413L483.16 261.596L483.361 261.646L488.81 286.24L488.706 286.379L461.443 287.602ZM483.185 261.924L461.676 287.364L488.541 286.158L483.185 261.924Z" fill="white" stroke="white" stroke-width="0.4"/>
<path d="M473.521 319.68L441.504 299.968L441.565 299.758H473.581L473.696 299.872V319.584L473.521 319.68ZM441.974 299.986L473.47 319.378V299.986H441.974Z" fill="white" stroke="white" stroke-width="0.4"/>
<path d="M453.757 344.103L453.589 343.986L460.095 305.959L460.278 305.888L486.483 325.596V325.788L453.757 344.103ZM460.292 306.183L453.84 343.787L486.189 325.675L460.292 306.183Z" fill="white" stroke="white" stroke-width="0.4"/>
<path d="M463.099 396.217L441.465 359.595L441.576 359.42L461.447 360.992L461.554 361.099L463.311 396.16L463.099 396.217ZM441.777 359.659L463.06 395.701L461.328 361.212L441.777 359.659Z" fill="white" stroke="white" stroke-width="0.4"/>
<path d="M449.373 419.452L449.19 419.349L453.585 373.483H453.811L463.307 409.241L463.265 409.362L449.373 419.452ZM453.754 374.13L449.452 419.118L463.074 409.195L453.754 374.13Z" fill="white" stroke="white" stroke-width="0.4"/>
<path d="M459.708 351.267L459.619 351.061L482.128 336.16L482.303 336.277L480.016 346.123L479.934 346.208L459.708 351.267ZM482.017 336.508L460.293 350.883L479.801 346.005L482.017 336.508Z" fill="white" stroke="white" stroke-width="0.4"/>
<path d="M282.99 110.261L274.978 113.753L273.376 121.077L289.439 127.822H300.226L305.503 123.054L307.962 115.378L298.703 93.8666L288.149 79.6409L269.027 85.0986L282.99 84.5226L281.388 93.7884L289.701 90.4924L293.189 96.4231L288.289 103.538L297.412 100.263L304.564 115.378L301.162 120.924L297.53 112.732L296.122 122.588L289.809 117.209L292.723 121.728L280.176 121.077L279.405 114.293L282.99 110.261Z" fill="white"/>
<path d="M298.233 67.584L317.695 91.6942L322.972 99.7973V113.287L315.584 125.148L305.503 123.054L314.297 119.044L318.398 110.261L319.183 103.73L312.77 107.509L317.695 101.54L311.709 101.426L316.071 92.5867L302.807 92.4693L308.199 87.1218L301.517 75.0435L294.247 78.5173L296.24 71.5307L285.335 67.584H298.233Z" fill="white"/>
<path d="M281.169 56.1422L292.193 54.7769L311.709 65.7066L334.899 80.5084L338.344 90.9866L330.536 106.926L333.372 91.6942L330.536 83.7475L323.836 80.7253L325.241 77.3546L310.544 67.8897L309.138 71.5306L305.503 63.9786L292.193 58.3964L281.169 56.1422Z" fill="white"/>
<path d="M298.233 67.584L312.769 77.3547L328.403 91.6942L330.536 106.926L322.972 113.287L326.754 106.308V94.9511L322.972 90.4355L318.634 85.2622L311.708 78.2827L298.233 67.584Z" fill="white"/>
<path d="M315.583 125.148L316.071 136.306L326.632 138.581L334.899 129.017L339.261 118.542L330.536 106.926L334.899 118.542L331.117 127.822L324.614 121.152L323.051 125.614L327.424 129.678L325.686 134.336L319.455 132.299L315.583 125.148Z" fill="white"/>
<path d="M281.169 56.1422L258.897 75.0435L224.687 102.827C224.687 102.827 206.619 121.497 207.695 121.728C208.77 121.959 222.844 138.29 222.844 138.29L256.602 146.325L288.289 144.956L315.465 136.491L292.368 139.15L270.393 141.895L248.526 140.964L250.182 135.275L268.576 129.689L273.383 121.088L260.603 126.322L235.631 130.02L224.694 126.901L227.54 109.344L244.658 98.9653L248.526 90.9973L267.755 73.6427L279.47 62.3929L281.169 56.1422Z" fill="white"/>
<path d="M207.695 121.728L197.363 156.572L176.471 203.94L158.547 244.473L140.622 291.388L130.09 334.887L128.251 377.7L120.673 391.822L125.957 404.804L146.161 415.282L173.714 411.865L223.081 416.875L275.889 413.913L326.632 403.666L369.568 382.258L386.101 378.389L406.076 388.864L423.34 423.708L444.652 398.869L437.074 357.195L450.162 336.242L431.334 297.301L431.542 333.614L427.624 366.848L437.074 386.208L423.093 396.164L407.499 375.637L417.346 360.871L400.11 360.16L405.154 343.996C405.154 343.996 403.161 322.83 402.692 322.599C402.222 322.368 389.951 299.865 389.951 299.865L394.611 322.716L389.951 353.582L381.588 365.163L373.382 348.882L373.966 370.628L356.186 376.907L323.786 385.589L295.77 372.978L288.149 342.61L285.417 376.121L257.85 393.216L210.53 398.905L199.98 380.697L190.95 366.336L180.518 391.822L150.656 401.028L153.861 392.267L142.031 396.22L130.9 387.15L154.506 377.703L137.894 364.59L154.506 326.734L150.753 291.392L177.704 254.933L191.538 188.06L217.349 157.369L207.709 143.172L207.695 121.728Z" fill="white"/>
<path d="M256.603 146.325L250.175 168.416L244.439 199.385L247.666 224.665L249.963 254.955L241.679 292.978L228.132 313.244L254.523 297.767L265.787 284.8L289.655 263.15L314.913 253.131H349.123L364.047 242.428L389.994 227.851L430.635 222.837L458.188 226.709L491.266 216.427L474.274 242.428L473.585 262.012L455.446 280.686L431.338 297.312L444.089 281.12L461.443 263.15L465.663 242.428V231.086L435.414 238.066L424.394 262.012C424.394 262.012 389.765 244.235 389.962 244.174C390.159 244.114 366.004 265.508 366.004 265.508L372.414 322.112L337.864 348.306L355.218 305.995L341.147 273.305L292.394 277.387L275.903 302.631L270.809 329.479L254.28 314.098L228.146 331.282H212.581L194.019 356.224L198.277 336.644L211.746 316.8L224.837 302.34L234.215 284.8L220.41 265.291L238.431 237.148L234.215 207.378L235.388 171.502L256.603 146.325Z" fill="white"/>
<path d="M423.34 423.719C385.503 460.347 336.38 483.341 283.82 489.028C231.26 494.715 178.294 482.768 133.384 455.094C88.4736 427.42 54.2095 385.617 36.0651 336.361C17.9206 287.105 16.9426 233.24 33.2874 183.368C49.6321 133.496 82.3565 90.4965 126.233 61.2369C170.11 31.9773 222.608 18.1462 275.34 21.9529C328.073 25.7597 377.998 46.9847 417.14 82.2374C456.283 117.49 482.385 164.737 491.276 216.43L512 210.119C501.746 154.18 473.014 103.216 430.333 65.2615C387.652 27.3069 333.449 4.51994 276.268 0.492772C219.088 -3.5344 162.183 11.4272 114.522 43.0192C66.8617 74.6112 31.1571 121.037 13.0365 174.977C-5.08405 228.918 -4.58993 287.306 14.441 340.938C33.4719 394.569 69.9572 440.394 118.146 471.188C166.334 501.982 223.485 515.994 280.589 511.015C337.693 506.037 391.502 482.351 433.535 443.691L423.34 423.719Z" fill="white"/>
<ellipse cx="316.827" cy="321.829" rx="3.68404" ry="3.65715" fill="white"/>
<ellipse cx="197.096" cy="270.629" rx="3.68404" ry="3.65714" fill="white"/>
<ellipse cx="210.911" cy="209.371" rx="2.76302" ry="2.74286" fill="white"/>
<ellipse cx="227.489" cy="375.771" rx="2.76302" ry="2.74286" fill="white"/>
<ellipse cx="402.481" cy="278.857" rx="2.76302" ry="2.74286" fill="white"/>
</g>
<defs>
<clipPath id="clip0_25_511">
<rect width="512" height="512" fill="white"/>
</clipPath>
</defs>
</svg>
