<svg width="378" height="288" viewBox="0 0 378 288" fill="none" xmlns="http://www.w3.org/2000/svg">
<path d="M26.2381 233.185C26.2381 221.419 9.05956 224.172 9.05956 218.064C9.05956 215.861 10.5942 214.809 12.624 214.86C14.9012 214.91 16.4854 216.261 16.6339 218.515H25.7925C25.446 211.805 20.3469 208 12.7725 208C5.49514 208 0.0990116 211.705 0.0990116 218.364C0 230.832 17.3765 227.327 17.3765 233.836C17.3765 235.889 15.7924 237.14 13.3171 237.14C10.9408 237.14 9.25758 235.839 9.01006 233.135H0C0.247529 240.245 6.08921 244 13.5646 244C21.6835 244 26.2381 239.093 26.2381 233.185Z" fill="#1A1F29"/>
<path d="M29.5666 215.36H38.7746V243.65H47.2401V215.36H56.4482V208.501H29.5666V215.36Z" fill="#1A1F29"/>
<path d="M79.0635 219.917C79.0635 222.67 77.5783 224.323 74.4099 224.323H69.1623V215.611H74.4099C77.5783 215.611 79.0635 217.313 79.0635 219.917ZM60.6968 208.501V243.65H69.1623V230.381H71.192L78.4199 243.65H87.9745L79.9546 229.73C85.3012 228.128 87.6775 223.972 87.6775 219.566C87.6775 213.458 83.42 208.501 74.905 208.501H60.6968Z" fill="#1A1F29"/>
<path d="M127.2 225.975C127.2 215.41 119.329 208 109.428 208C99.5759 208 91.5559 215.41 91.5559 225.975C91.5559 236.54 99.5759 244 109.428 244C119.279 244 127.2 236.54 127.2 225.975ZM100.219 225.975C100.219 219.716 103.784 215.761 109.428 215.761C114.972 215.761 118.586 219.716 118.586 225.975C118.586 232.134 114.972 236.189 109.428 236.189C103.784 236.189 100.219 232.134 100.219 225.975Z" fill="#1A1F29"/>
<path d="M154.534 208.501V230.281L140.375 208.501H131.91V243.65H140.375V221.969L154.534 243.65H162.999V208.501H154.534Z" fill="#1A1F29"/>
<path d="M185.374 208.1C174.977 208.1 167.7 215.51 167.7 226.025C167.7 236.54 175.027 243.9 185.423 243.9C194.582 243.9 200.374 237.841 202.156 231.783V223.822H183.74V230.131H194.483C193.196 234.086 190.275 236.339 186.067 236.339C179.978 236.339 176.314 232.534 176.314 226.025C176.314 219.917 179.928 216.011 185.374 216.011C188.542 216.011 190.918 217.263 192.205 219.616H201.562C199.73 212.406 193.691 208.1 185.374 208.1Z" fill="#1A1F29"/>
<path d="M228.479 243.65H236.945V208.501H228.479V222.27H215.311V208.501H206.845V243.65H215.311V229.179H228.479V243.65Z" fill="#1A1F29"/>
<path d="M266.769 243.65H275.73L263.155 208.501H253.353L240.779 243.65H249.64L251.72 237.441H264.69L266.769 243.65ZM262.512 230.832H253.947L258.205 217.964L262.512 230.832Z" fill="#1A1F29"/>
<path d="M302.181 208.501V230.281L288.022 208.501H279.557V243.65H288.022V221.969L302.181 243.65H310.647V208.501H302.181Z" fill="#1A1F29"/>
<path d="M329.803 208.501H316.783V243.65H329.803C340.892 243.65 348.021 236.49 348.021 226.075C348.021 215.611 340.892 208.501 329.803 208.501ZM325.248 236.239V215.811H329.258C335.645 215.811 339.407 219.616 339.407 226.075C339.407 232.534 335.645 236.239 329.258 236.239H325.248Z" fill="#1A1F29"/>
<path d="M378 233.185C378 221.419 360.821 224.172 360.821 218.064C360.821 215.861 362.356 214.809 364.386 214.86C366.663 214.91 368.247 216.261 368.396 218.515H377.554C377.208 211.805 372.109 208 364.534 208C357.257 208 351.861 211.705 351.861 218.364C351.762 230.832 369.138 227.327 369.138 233.836C369.138 235.889 367.554 237.14 365.079 237.14C362.703 237.14 361.02 235.839 360.772 233.135H351.762C352.009 240.245 357.851 244 365.327 244C373.445 244 378 239.093 378 233.185Z" fill="#1A1F29"/>
<path d="M105.096 268.196V269.257H96.255V277.441H103.98V278.503H96.255V287.804H95V268.196H105.096Z" fill="#1A1F29"/>
<path d="M123.626 268.196V287.804H122.371V268.196H123.626Z" fill="#1A1F29"/>
<path d="M156.172 287.804H154.917L143.427 270.263V287.804H142.172V268.223H143.427L154.917 285.709V268.223H156.172V287.804Z" fill="#1A1F29"/>
<path d="M185.818 282.777H176.531L174.662 287.804H173.295L180.491 268.642H181.885L189.053 287.804H187.686L185.818 282.777ZM185.427 281.715L181.188 270.291L176.921 281.715H185.427Z" fill="#1A1F29"/>
<path d="M220.148 287.804H218.893L207.402 270.263V287.804H206.147V268.223H207.402L218.893 285.709V268.223H220.148V287.804Z" fill="#1A1F29"/>
<path d="M237.913 278.028C237.913 276.091 238.312 274.369 239.112 272.86C239.93 271.333 241.045 270.142 242.459 269.285C243.89 268.428 245.489 268 247.255 268C249.487 268 251.364 268.521 252.889 269.564C254.414 270.607 255.529 272.069 256.236 273.95H254.785C254.228 272.46 253.298 271.287 251.997 270.43C250.714 269.555 249.133 269.117 247.255 269.117C245.749 269.117 244.383 269.48 243.156 270.207C241.929 270.914 240.962 271.948 240.255 273.307C239.549 274.648 239.196 276.222 239.196 278.028C239.196 279.816 239.549 281.38 240.255 282.721C240.962 284.043 241.929 285.067 243.156 285.793C244.383 286.52 245.749 286.883 247.255 286.883C249.133 286.883 250.714 286.454 251.997 285.598C253.298 284.723 254.228 283.54 254.785 282.05H256.236C255.529 283.931 254.414 285.393 252.889 286.436C251.364 287.479 249.487 288 247.255 288C245.489 288 243.89 287.581 242.459 286.743C241.045 285.886 239.93 284.704 239.112 283.196C238.312 281.669 237.913 279.946 237.913 278.028Z" fill="#1A1F29"/>
<path d="M275.354 269.257V277.441H283.163V278.503H275.354V286.743H284V287.804H274.099V268.196H284V269.257H275.354Z" fill="#1A1F29"/>
<path d="M266.847 61.5556H266.827C266.347 59.5267 265.798 57.5233 265.16 55.5556H201.827L215.481 14.6122L215.511 14.6244C218.256 15.7428 220.928 17.0328 223.511 18.4867L223.529 18.4967C224.387 18.9811 225.234 19.4822 226.07 20H226.083C230.813 22.9452 235.18 26.4366 239.093 30.4022H251.727C248.76 26.6496 245.466 23.1685 241.882 20C241.821 19.9456 241.757 19.8956 241.694 19.8411C240.954 19.19 240.198 18.5526 239.428 17.9289C239.27 17.8 239.112 17.6722 238.954 17.5456C237.218 16.153 235.424 14.8326 233.573 13.5844L233.351 13.4356C232.491 12.8607 231.62 12.303 230.737 11.7622C230.614 11.6878 230.492 11.6111 230.369 11.54C228.447 10.3748 226.473 9.28963 224.449 8.28444L224.062 8.09667C223.157 7.65222 222.242 7.22593 221.317 6.81778L220.934 6.64667C218.886 5.75111 216.794 4.94296 214.659 4.22222C214.451 4.15259 214.243 4.0837 214.034 4.01556C213.112 3.71111 212.183 3.42296 211.246 3.15111C211.098 3.10778 210.951 3.06222 210.801 3.02C209.721 2.71407 208.632 2.43074 207.533 2.17C207.373 2.13111 207.21 2.09889 207.05 2.05889C206.131 1.8463 205.206 1.65037 204.272 1.47111C203.991 1.4163 203.709 1.36333 203.427 1.31222C202.469 1.13519 201.503 0.975556 200.53 0.833333C200.392 0.813333 200.256 0.788889 200.118 0.77C199.018 0.616667 197.91 0.49 196.796 0.382222C196.513 0.354444 196.23 0.333333 195.947 0.308889C195.087 0.234815 194.223 0.174444 193.354 0.127778C193.034 0.111111 192.716 0.0922222 192.393 0.0788889C191.268 0.0322222 190.138 0 189 0C187.671 0 186.35 0.0333333 185.038 0.1C184.599 0.121111 184.167 0.163333 183.73 0.192222C182.859 0.248889 181.989 0.303333 181.127 0.39C180.606 0.441111 180.09 0.511111 179.571 0.572222C178.802 0.666667 178.033 0.752222 177.272 0.864444C176.717 0.945556 176.173 1.04222 175.624 1.13444C174.907 1.25556 174.189 1.37778 173.477 1.51778C172.911 1.62889 172.351 1.75333 171.79 1.87667C171.107 2.02667 170.426 2.18 169.749 2.34778C169.177 2.48889 168.609 2.63889 168.042 2.79222C167.389 2.97 166.738 3.15333 166.091 3.34778C165.517 3.51889 164.946 3.6963 164.378 3.88C163.752 4.08222 163.131 4.29222 162.514 4.51C161.938 4.71222 161.363 4.91667 160.792 5.13222C160.199 5.35444 159.611 5.59111 159.024 5.82889C158.438 6.06667 157.864 6.29778 157.291 6.54556C156.736 6.78556 156.189 7.03889 155.64 7.29111C155.05 7.56333 154.458 7.83111 153.876 8.11556C153.376 8.36111 152.886 8.62111 152.392 8.87556C151.777 9.19333 151.157 9.50556 150.55 9.83889C150.164 10.0511 149.789 10.2833 149.408 10.4956C146.698 12.0378 144.081 13.737 141.57 15.5844L141.459 15.6611C140.681 16.2367 139.921 16.8356 139.164 17.4389C138.971 17.5933 138.773 17.7411 138.582 17.8967C137.866 18.4789 137.166 19.0822 136.471 19.6889C136.256 19.8767 136.036 20.06 135.822 20.2444C135.139 20.8533 134.471 21.4789 133.809 22.11C133.6 22.31 133.389 22.5067 133.182 22.7089C132.516 23.3533 131.872 24.0133 131.232 24.6811C131.044 24.8767 130.857 25.0722 130.677 25.27C130.028 25.9611 129.392 26.6648 128.77 27.3811C128.613 27.5611 128.457 27.7411 128.302 27.9211C127.661 28.6678 127.031 29.4259 126.413 30.1956C126.302 30.34 126.186 30.4867 126.071 30.6311C125.429 31.4459 124.802 32.2752 124.19 33.1189L124.014 33.3656C116.289 44.1001 111.363 56.5918 109.681 69.71C109.389 71.9867 109.182 74.2844 109.086 76.6122C109.036 77.7356 109 78.8633 109 80C109.001 84.5217 109.387 89.035 110.154 93.4911C110.181 93.6489 110.214 93.8033 110.242 93.96C110.368 94.6667 110.498 95.3711 110.642 96.0711C110.748 96.5867 110.864 97.0978 110.976 97.61C111.053 97.9489 111.126 98.29 111.207 98.6278C111.349 99.2211 111.502 99.81 111.658 100.398C111.709 100.591 111.753 100.786 111.806 100.979H111.811C112.128 102.143 112.461 103.302 112.829 104.446H176.162L162.519 145.388L162.497 145.379C159.747 144.258 157.071 142.966 154.484 141.509C153.621 141.021 152.771 140.519 151.933 140H151.92C143.769 134.931 136.728 128.264 131.222 120.402H119.978C124.287 127.748 129.734 134.363 136.118 140C136.182 140.057 136.25 140.111 136.314 140.166C137.055 140.814 137.807 141.449 138.571 142.07C138.728 142.199 138.886 142.327 139.044 142.453C140.78 143.846 142.573 145.166 144.423 146.413C144.501 146.466 144.58 146.516 144.659 146.568C145.516 147.141 146.385 147.697 147.266 148.234C147.388 148.31 147.51 148.386 147.633 148.457C149.554 149.622 151.527 150.707 153.552 151.711C153.681 151.776 153.812 151.838 153.942 151.901C154.849 152.346 155.764 152.772 156.689 153.181L157.067 153.35C159.116 154.244 161.208 155.053 163.344 155.776C163.552 155.847 163.76 155.914 163.969 155.983C164.893 156.288 165.825 156.576 166.763 156.849C166.909 156.891 167.052 156.937 167.198 156.978C168.279 157.283 169.368 157.567 170.466 157.829C170.629 157.868 170.799 157.901 170.958 157.94C171.874 158.151 172.796 158.346 173.723 158.526C174.006 158.58 174.289 158.637 174.572 158.687C175.535 158.861 176.503 159.02 177.474 159.162C177.612 159.182 177.749 159.207 177.887 159.226C178.987 159.379 180.094 159.506 181.208 159.613C181.491 159.641 181.776 159.662 182.059 159.687C182.918 159.761 183.781 159.821 184.649 159.868C184.969 159.884 185.289 159.903 185.61 159.917C186.737 159.963 187.867 159.996 189.004 159.996C190.381 159.996 191.75 159.961 193.11 159.892C193.577 159.868 194.037 159.818 194.501 159.787C195.39 159.727 196.279 159.676 197.159 159.584C197.75 159.524 198.332 159.434 198.92 159.362C199.664 159.27 200.412 159.191 201.15 159.079C201.799 158.98 202.438 158.85 203.081 158.736C203.748 158.618 204.414 158.513 205.074 158.38C205.767 158.239 206.448 158.067 207.133 157.908C207.732 157.769 208.337 157.644 208.93 157.492C209.65 157.308 210.356 157.093 211.067 156.89C211.614 156.732 212.169 156.59 212.712 156.422C213.457 156.191 214.188 155.93 214.923 155.679C215.419 155.509 215.923 155.353 216.413 155.174C217.184 154.893 217.941 154.582 218.701 154.278C219.146 154.101 219.59 153.938 220.034 153.753C220.833 153.42 221.616 153.052 222.4 152.691C222.786 152.513 223.178 152.35 223.56 152.167C224.386 151.771 225.193 151.347 226.004 150.923C226.338 150.752 226.671 150.59 226.994 150.417C227.84 149.959 228.669 149.474 229.496 148.988C229.771 148.826 230.051 148.676 230.327 148.51C231.188 147.989 232.031 147.442 232.871 146.89C233.093 146.741 233.33 146.602 233.556 146.446C234.43 145.858 235.287 145.244 236.137 144.623C236.314 144.493 236.498 144.371 236.674 144.241C237.557 143.584 238.419 142.908 239.273 142.213C239.408 142.102 239.547 142.002 239.681 141.893C240.57 141.168 241.429 140.419 242.282 139.658C242.377 139.573 242.474 139.493 242.569 139.409C243.447 138.617 244.304 137.801 245.147 136.971C245.209 136.91 245.273 136.853 245.334 136.792C246.201 135.934 247.047 135.054 247.872 134.154C247.906 134.118 247.94 134.084 247.973 134.043C248.824 133.115 249.653 132.167 250.46 131.2L250.479 131.178C262.302 117.02 268.846 99.1981 268.992 80.7533C268.992 80.4967 269.01 80.2444 269.01 79.9878C269.008 73.7805 268.282 67.5946 266.847 61.5556ZM120.204 95.5556C120.188 95.4833 120.174 95.4111 120.158 95.3389C119.921 94.2844 119.713 93.22 119.521 92.15C119.482 91.9278 119.442 91.7056 119.41 91.4889C119.214 90.3222 119.043 89.1467 118.907 87.9611C118.897 87.8745 118.891 87.7878 118.881 87.7011C118.761 86.6256 118.672 85.5411 118.603 84.4522C118.584 84.1556 118.566 83.8578 118.551 83.5633C118.486 82.38 118.444 81.1956 118.444 80C118.444 78.9389 118.478 77.8889 118.524 76.8344C118.542 76.4467 118.566 76.0567 118.59 75.6756C118.629 75.0278 118.68 74.3833 118.738 73.74C118.779 73.2756 118.816 72.81 118.867 72.3489C118.881 72.2089 118.903 72.0711 118.92 71.9311C119.004 71.19 119.094 70.45 119.202 69.7156C119.33 68.8478 119.483 67.9889 119.647 67.1311C119.691 66.8922 119.729 66.6522 119.776 66.4144C119.929 65.63 120.109 64.8589 120.283 64.0811C120.354 63.7789 120.42 63.4744 120.494 63.1722C120.676 62.4322 120.874 61.6989 121.08 60.9678C121.171 60.6422 121.262 60.3144 121.358 59.99C121.569 59.2778 121.793 58.5722 122.024 57.8689C122.136 57.5356 122.247 57.2022 122.358 56.8767C122.599 56.1833 122.85 55.4948 123.111 54.8111C123.236 54.4859 123.364 54.1619 123.496 53.8389C123.768 53.1578 124.051 52.48 124.341 51.8089C124.476 51.5011 124.618 51.1978 124.757 50.8922C125.066 50.2133 125.378 49.5367 125.707 48.8689C125.839 48.6011 125.98 48.3378 126.116 48.0722C126.47 47.3767 126.828 46.6811 127.204 45.9989C127.296 45.8333 127.393 45.6733 127.487 45.51C128.861 43.0656 130.38 40.7054 132.036 38.4422C132.117 38.3311 132.193 38.22 132.276 38.1089C132.708 37.5244 133.164 36.9556 133.609 36.3844C133.831 36.1067 134.042 35.8289 134.266 35.5489C134.683 35.0356 135.117 34.5344 135.548 34.0322C135.822 33.7144 136.092 33.3944 136.372 33.0822C136.791 32.6122 137.221 32.1533 137.652 31.6944C137.962 31.3611 138.271 31.0367 138.587 30.7144C139.013 30.2778 139.448 29.85 139.884 29.4256C140.224 29.0967 140.566 28.7707 140.91 28.4478C141.344 28.0426 141.784 27.6422 142.229 27.2467C142.596 26.9215 142.966 26.6004 143.34 26.2833C143.784 25.9067 144.229 25.5333 144.673 25.1722C145.068 24.8533 145.47 24.5422 145.871 24.2311C146.316 23.8833 146.76 23.5356 147.222 23.2C147.648 22.8856 148.082 22.5833 148.516 22.2789C148.949 21.9744 149.404 21.6444 149.864 21.34C150.339 21.0222 150.824 20.72 151.309 20.4144C151.739 20.1411 152.162 19.8589 152.598 19.5978C153.31 19.1667 154.042 18.7556 154.766 18.35C155.259 18.0744 155.758 17.8078 156.259 17.5444C156.92 17.1967 157.582 16.8478 158.259 16.52C158.664 16.3233 159.08 16.1422 159.49 15.9522C160.076 15.6811 160.659 15.4089 161.252 15.1544C161.69 14.9667 162.141 14.7922 162.578 14.6122C163.156 14.3789 163.733 14.1444 164.318 13.9256C164.774 13.7544 165.237 13.5922 165.699 13.4322C166.282 13.2278 166.867 13.0256 167.457 12.8356C167.924 12.6856 168.397 12.5433 168.87 12.4022C169.466 12.2244 170.064 12.0522 170.667 11.89C171.141 11.7619 171.618 11.6389 172.097 11.5211C172.71 11.373 173.327 11.2304 173.947 11.0933C174.422 10.9889 174.899 10.8867 175.378 10.7922C176.017 10.6667 176.66 10.5556 177.304 10.4478C177.773 10.3689 178.242 10.2867 178.714 10.2178C179.39 10.1189 180.071 10.0378 180.752 9.95778C181.197 9.90556 181.648 9.84667 182.099 9.80222C182.856 9.72778 183.618 9.67778 184.381 9.62778C184.764 9.60333 185.144 9.56667 185.529 9.54778C186.68 9.47667 187.837 9.44444 189 9.44444C190.026 9.44444 191.043 9.47445 192.059 9.51778C192.291 9.52741 192.524 9.53852 192.756 9.55111C194.824 9.66148 196.869 9.85926 198.889 10.1444L199.321 10.2056C201.451 10.5211 203.55 10.9285 205.616 11.4278L205.651 11.4367C208.822 12.2096 211.936 13.2031 214.969 14.41L144.937 84.4445H211.603L182.503 113.544L188.5 95.5556H120.204ZM259.538 80.7656C259.377 97.011 253.59 112.699 243.162 125.157L243.138 125.187C242.427 126.036 241.699 126.867 240.951 127.682L240.86 127.778C240.131 128.567 239.386 129.341 238.624 130.1C238.569 130.154 238.513 130.211 238.454 130.261C237.714 130.991 236.958 131.705 236.187 132.403C236.097 132.484 236.003 132.56 235.913 132.641C235.168 133.308 234.412 133.96 233.64 134.593C233.514 134.696 233.384 134.791 233.259 134.892C232.513 135.496 231.76 136.089 230.99 136.662C230.827 136.783 230.657 136.896 230.493 137.014C229.751 137.557 229.003 138.093 228.239 138.607C228.037 138.742 227.827 138.868 227.622 139.002C226.887 139.486 226.148 139.964 225.4 140.421C225.15 140.572 224.892 140.71 224.641 140.858C223.921 141.281 223.197 141.703 222.463 142.102C222.167 142.262 221.861 142.408 221.562 142.564C220.859 142.932 220.156 143.301 219.439 143.646C219.097 143.81 218.746 143.957 218.401 144.116C217.714 144.431 217.029 144.751 216.331 145.046C215.944 145.209 215.553 145.353 215.157 145.51C214.49 145.778 213.823 146.051 213.144 146.299C212.713 146.457 212.272 146.593 211.838 146.743C211.188 146.966 210.542 147.198 209.883 147.401C209.402 147.551 208.91 147.678 208.423 147.817C207.801 147.996 207.183 148.184 206.554 148.346C206.014 148.484 205.464 148.598 204.919 148.724C204.332 148.86 203.75 149.008 203.159 149.129C202.568 149.25 201.952 149.346 201.349 149.452C200.793 149.55 200.254 149.661 199.701 149.746C199.049 149.846 198.388 149.916 197.73 149.997C197.216 150.061 196.704 150.14 196.186 150.192C195.448 150.268 194.7 150.311 193.954 150.363C193.51 150.393 193.066 150.441 192.621 150.464C191.425 150.524 190.221 150.555 189.009 150.556C187.983 150.556 186.964 150.526 185.949 150.482C185.718 150.472 185.486 150.461 185.254 150.449C183.185 150.339 181.14 150.141 179.12 149.856L178.688 149.794C176.557 149.479 174.459 149.071 172.393 148.572L172.358 148.563C169.186 147.791 166.073 146.797 163.04 145.59L233.063 75.5556H166.397L195.497 46.4556L189.5 64.4445H257.799C258.291 66.6 258.664 68.7989 258.953 71.0245H258.942C259.191 72.9215 259.365 74.84 259.463 76.78C259.513 77.8489 259.556 78.9189 259.556 80.0022C259.556 80.2589 259.536 80.5111 259.533 80.7678L259.538 80.7656Z" fill="#1A1F29"/>
</svg>
