<svg width="264" height="201" viewBox="0 0 264 201" fill="none" xmlns="http://www.w3.org/2000/svg">
<path d="M18.312 162.744C18.312 154.532 6.32282 156.454 6.32282 152.19C6.32282 150.653 7.3939 149.919 8.81049 149.954C10.3998 149.989 11.5055 150.932 11.6091 152.505H18.001C17.7592 147.822 14.2004 145.167 8.91414 145.167C3.83515 145.167 0.0691019 147.753 0.0691019 152.4C0 161.101 12.1274 158.655 12.1274 163.198C12.1274 164.631 11.0217 165.504 9.2942 165.504C7.63575 165.504 6.46102 164.596 6.28827 162.709H0C0.172755 167.671 4.24976 170.292 9.46695 170.292C15.1333 170.292 18.312 166.867 18.312 162.744Z" fill="white"/>
<path d="M20.635 150.303H27.0615V170.047H32.9697V150.303H39.3961V145.516H20.635V150.303Z" fill="white"/>
<path d="M55.1797 153.483C55.1797 155.405 54.1432 156.559 51.9319 156.559H48.2695V150.478H51.9319C54.1432 150.478 55.1797 151.666 55.1797 153.483ZM42.3613 145.516V170.047H48.2695V160.787H49.6861L54.7305 170.047H61.3989L55.8016 160.333C59.5331 159.214 61.1916 156.314 61.1916 153.239C61.1916 148.976 58.2202 145.516 52.2774 145.516H42.3613Z" fill="white"/>
<path d="M88.7751 157.712C88.7751 150.338 83.2815 145.167 76.3713 145.167C69.4957 145.167 63.8984 150.338 63.8984 157.712C63.8984 165.085 69.4957 170.292 76.3713 170.292C83.2469 170.292 88.7751 165.085 88.7751 157.712ZM69.9448 157.712C69.9448 153.344 72.4325 150.583 76.3713 150.583C80.241 150.583 82.7632 153.344 82.7632 157.712C82.7632 162.01 80.241 164.84 76.3713 164.84C72.4325 164.84 69.9448 162.01 69.9448 157.712Z" fill="white"/>
<path d="M107.852 145.516V160.717L97.9702 145.516H92.062V170.047H97.9702V154.916L107.852 170.047H113.76V145.516H107.852Z" fill="white"/>
<path d="M129.375 145.237C122.12 145.237 117.041 150.408 117.041 157.747C117.041 165.085 122.154 170.222 129.41 170.222C135.802 170.222 139.844 165.994 141.088 161.765V156.209H128.235V160.612H135.733C134.834 163.373 132.796 164.945 129.859 164.945C125.609 164.945 123.053 162.289 123.053 157.747C123.053 153.483 125.575 150.758 129.375 150.758C131.587 150.758 133.245 151.631 134.143 153.274H140.674C139.395 148.242 135.18 145.237 129.375 145.237Z" fill="white"/>
<path d="M159.46 170.047H165.368V145.516H159.46V155.126H150.269V145.516H144.361V170.047H150.269V159.948H159.46V170.047Z" fill="white"/>
<path d="M186.183 170.047H192.436L183.661 145.516H176.819L168.044 170.047H174.228L175.679 165.714H184.732L186.183 170.047ZM183.211 161.101H177.234L180.205 152.121L183.211 161.101Z" fill="white"/>
<path d="M210.897 145.516V160.717L201.016 145.516H195.107V170.047H201.016V154.916L210.897 170.047H216.805V145.516H210.897Z" fill="white"/>
<path d="M230.175 145.516H221.088V170.047H230.175C237.914 170.047 242.89 165.05 242.89 157.782C242.89 150.478 237.914 145.516 230.175 145.516ZM226.996 164.875V150.618H229.795C234.252 150.618 236.878 153.274 236.878 157.782C236.878 162.289 234.252 164.875 229.795 164.875H226.996Z" fill="white"/>
<path d="M263.812 162.744C263.812 154.532 251.823 156.454 251.823 152.19C251.823 150.653 252.894 149.919 254.311 149.954C255.9 149.989 257.006 150.932 257.11 152.505H263.502C263.26 147.822 259.701 145.167 254.415 145.167C249.336 145.167 245.57 147.753 245.57 152.4C245.5 161.101 257.628 158.655 257.628 163.198C257.628 164.631 256.522 165.504 254.795 165.504C253.136 165.504 251.962 164.596 251.789 162.709H245.501C245.673 167.671 249.75 170.292 254.967 170.292C260.634 170.292 263.812 166.867 263.812 162.744Z" fill="white"/>
<path d="M73.3478 187.178V187.919H67.1776V193.631H72.5692V194.372H67.1776V200.864H66.3018V187.178H73.3478Z" fill="white"/>
<path d="M86.2807 187.178V200.864H85.4048V187.178H86.2807Z" fill="white"/>
<path d="M108.995 200.864H108.119L100.099 188.621V200.864H99.2236V187.198H100.099L108.119 199.401V187.198H108.995V200.864Z" fill="white"/>
<path d="M129.685 197.354H123.203L121.899 200.864H120.945L125.967 187.49H126.94L131.943 200.864H130.989L129.685 197.354ZM129.412 196.614L126.454 188.64L123.476 196.614H129.412Z" fill="white"/>
<path d="M153.644 200.864H152.768L144.749 188.621V200.864H143.873V187.198H144.749L152.768 199.401V187.198H153.644V200.864Z" fill="white"/>
<path d="M166.043 194.04C166.043 192.689 166.322 191.487 166.88 190.434C167.451 189.368 168.229 188.536 169.216 187.938C170.215 187.341 171.331 187.042 172.563 187.042C174.12 187.042 175.431 187.406 176.495 188.133C177.559 188.861 178.338 189.881 178.831 191.194H177.819C177.429 190.154 176.781 189.336 175.872 188.738C174.977 188.127 173.874 187.821 172.563 187.821C171.512 187.821 170.559 188.075 169.702 188.582C168.846 189.076 168.171 189.797 167.678 190.746C167.185 191.681 166.938 192.78 166.938 194.04C166.938 195.288 167.185 196.38 167.678 197.315C168.171 198.238 168.846 198.953 169.702 199.46C170.559 199.967 171.512 200.22 172.563 200.22C173.874 200.22 174.977 199.921 175.872 199.323C176.781 198.713 177.429 197.887 177.819 196.848H178.831C178.338 198.16 177.559 199.18 176.495 199.908C175.431 200.636 174.12 201 172.563 201C171.331 201 170.215 200.708 169.216 200.123C168.229 199.525 167.451 198.7 166.88 197.647C166.322 196.581 166.043 195.379 166.043 194.04Z" fill="white"/>
<path d="M192.174 187.919V193.631H197.624V194.372H192.174V200.123H198.208V200.864H191.298V187.178H198.208V187.919H192.174Z" fill="white"/>
<path d="M186.236 42.9607H186.222C185.887 41.5447 185.504 40.1465 185.059 38.7731H140.858L150.387 10.1981L150.408 10.2066C152.324 10.9872 154.189 11.8874 155.991 12.9022L156.004 12.9091C156.603 13.2472 157.194 13.597 157.777 13.9583H157.787C161.088 16.0138 164.135 18.4506 166.867 21.2182H175.684C173.613 18.5992 171.314 16.1697 168.813 13.9583C168.77 13.9203 168.725 13.8854 168.682 13.8474C168.165 13.393 167.638 12.9482 167.1 12.5129C166.99 12.4229 166.88 12.3337 166.77 12.2453C165.558 11.2734 164.306 10.3519 163.014 9.48081L162.859 9.3769C162.259 8.97573 161.651 8.58644 161.034 8.20905C160.949 8.1571 160.864 8.10359 160.778 8.05396C159.436 7.24076 158.059 6.48339 156.646 5.78185L156.376 5.6508C155.744 5.34061 155.106 5.04309 154.46 4.75824L154.193 4.63882C152.764 4.0138 151.304 3.44978 149.813 2.94676C149.668 2.89816 149.523 2.85009 149.378 2.80252C148.734 2.59005 148.085 2.38894 147.431 2.19921C147.328 2.16897 147.226 2.13718 147.121 2.10771C146.367 1.8942 145.607 1.69645 144.84 1.51448C144.729 1.48734 144.615 1.46485 144.503 1.43693C143.862 1.28856 143.216 1.15182 142.564 1.02671C142.368 0.988457 142.171 0.951493 141.974 0.915822C141.306 0.792265 140.632 0.680857 139.953 0.581597C139.856 0.567639 139.761 0.550579 139.665 0.537396C138.897 0.430382 138.124 0.341979 137.346 0.266759C137.149 0.247373 136.952 0.232639 136.754 0.215579C136.154 0.163881 135.551 0.121748 134.945 0.0891782C134.721 0.0775463 134.499 0.0643634 134.274 0.0550579C133.488 0.0224884 132.7 0 131.906 0C130.978 0 130.056 0.0232639 129.14 0.0697917C128.834 0.0845255 128.532 0.113993 128.228 0.134155C127.62 0.173704 127.012 0.211701 126.411 0.272188C126.047 0.307859 125.687 0.356713 125.325 0.399363C124.788 0.465278 124.252 0.524988 123.721 0.60331C123.333 0.659919 122.954 0.727384 122.571 0.791748C122.07 0.876273 121.569 0.961574 121.072 1.05928C120.677 1.13683 120.286 1.22368 119.894 1.30976C119.418 1.41444 118.942 1.52146 118.47 1.63855C118.071 1.73704 117.674 1.84172 117.279 1.94874C116.823 2.07281 116.368 2.20076 115.917 2.33647C115.516 2.45589 115.118 2.57971 114.721 2.70792C114.284 2.84905 113.851 2.99561 113.421 3.1476C113.018 3.28874 112.618 3.43142 112.219 3.58186C111.805 3.73696 111.395 3.90213 110.985 4.06808C110.576 4.23403 110.176 4.39532 109.775 4.56825C109.388 4.73575 109.006 4.91256 108.623 5.08859C108.211 5.27858 107.798 5.46546 107.392 5.66398C107.043 5.83536 106.701 6.01682 106.356 6.1944C105.927 6.41618 105.494 6.63409 105.071 6.86672C104.802 7.01484 104.54 7.17691 104.274 7.32502C102.383 8.40142 100.556 9.58731 98.8034 10.8766L98.7259 10.9302C98.183 11.3318 97.6526 11.7498 97.1245 12.1709C96.9896 12.2787 96.8516 12.3818 96.7182 12.4904C96.218 12.8967 95.7295 13.3178 95.2448 13.7412C95.0944 13.8723 94.9408 14.0002 94.7919 14.1289C94.315 14.5539 93.849 14.9905 93.3868 15.4309C93.241 15.5705 93.0937 15.7078 92.9494 15.8489C92.4842 16.2987 92.0352 16.7593 91.5885 17.2254C91.4575 17.3618 91.3264 17.4983 91.2008 17.6364C90.7479 18.1187 90.3043 18.6098 89.8701 19.1097C89.7607 19.2354 89.6514 19.361 89.5436 19.4866C89.0959 20.0077 88.6565 20.5368 88.2253 21.074C88.1478 21.1748 88.0664 21.2772 87.9865 21.378C87.5383 21.9466 87.1006 22.5254 86.6736 23.1142L86.5511 23.2864C81.1593 30.7782 77.7211 39.4964 76.5476 48.6518C76.3437 50.2407 76.1994 51.8443 76.132 53.4689C76.0971 54.2529 76.0723 55.04 76.0723 55.8333C76.0729 58.9891 76.3425 62.139 76.878 65.249C76.8966 65.3591 76.9198 65.4669 76.9392 65.5763C77.0269 66.0695 77.1176 66.5611 77.2184 67.0496C77.2921 67.4094 77.3735 67.7662 77.451 68.1236C77.5053 68.3602 77.5557 68.5982 77.6123 68.834C77.7116 69.2481 77.8186 69.6591 77.9272 70.0693C77.9628 70.2042 77.9939 70.3399 78.0303 70.4748H78.0342C78.2552 71.2875 78.4878 72.0963 78.7445 72.8943H122.946L113.424 101.469L113.408 101.462C111.49 100.68 109.622 99.7783 107.817 98.7614C107.214 98.4212 106.621 98.0702 106.036 97.7083H106.027C100.338 94.1705 95.4244 89.5179 91.5815 84.0307H83.7338C86.741 89.1574 90.5431 93.7741 94.9982 97.7083C95.0432 97.7479 95.0905 97.7859 95.1355 97.8239C95.6524 98.2767 96.1774 98.7198 96.7104 99.153C96.82 99.243 96.9302 99.3322 97.0408 99.4206C98.2521 100.392 99.5034 101.314 100.795 102.184C100.849 102.221 100.904 102.256 100.959 102.292C101.557 102.692 102.164 103.08 102.778 103.455C102.864 103.508 102.949 103.561 103.035 103.61C104.376 104.424 105.753 105.181 107.166 105.882C107.256 105.927 107.347 105.97 107.438 106.014C108.071 106.325 108.71 106.622 109.355 106.908L109.619 107.026C111.049 107.65 112.509 108.214 114 108.718C114.145 108.768 114.29 108.815 114.436 108.863C115.081 109.076 115.731 109.277 116.386 109.467C116.488 109.497 116.588 109.529 116.689 109.557C117.444 109.77 118.204 109.968 118.97 110.151C119.084 110.179 119.203 110.202 119.314 110.229C119.953 110.376 120.597 110.513 121.244 110.638C121.441 110.676 121.638 110.715 121.836 110.75C122.508 110.872 123.183 110.983 123.862 111.082C123.958 111.096 124.053 111.113 124.149 111.126C124.917 111.233 125.69 111.322 126.467 111.397C126.665 111.416 126.864 111.431 127.061 111.448C127.661 111.5 128.264 111.542 128.869 111.574C129.092 111.586 129.316 111.599 129.54 111.609C130.326 111.641 131.115 111.664 131.909 111.664C132.87 111.664 133.825 111.64 134.774 111.591C135.1 111.574 135.421 111.539 135.745 111.518C136.365 111.476 136.986 111.44 137.6 111.377C138.012 111.335 138.419 111.272 138.829 111.222C139.348 111.157 139.87 111.102 140.385 111.024C140.838 110.955 141.284 110.864 141.733 110.784C142.198 110.702 142.664 110.629 143.124 110.536C143.607 110.438 144.083 110.317 144.561 110.206C144.979 110.11 145.401 110.023 145.815 109.916C146.318 109.788 146.81 109.638 147.306 109.496C147.689 109.386 148.076 109.287 148.455 109.17C148.974 109.008 149.485 108.826 149.998 108.651C150.344 108.532 150.696 108.424 151.038 108.299C151.576 108.103 152.104 107.886 152.634 107.673C152.945 107.55 153.255 107.436 153.565 107.307C154.123 107.074 154.669 106.818 155.216 106.566C155.485 106.442 155.759 106.328 156.026 106.2C156.602 105.924 157.166 105.627 157.732 105.332C157.964 105.212 158.197 105.099 158.423 104.978C159.013 104.659 159.591 104.321 160.168 103.981C160.36 103.868 160.556 103.763 160.748 103.648C161.349 103.284 161.938 102.902 162.524 102.517C162.679 102.413 162.844 102.316 163.002 102.207C163.612 101.797 164.21 101.369 164.803 100.935C164.927 100.844 165.055 100.759 165.178 100.668C165.794 100.21 166.396 99.7377 166.992 99.2531C167.086 99.1755 167.183 99.1057 167.277 99.0297C167.897 98.5233 168.497 98.0007 169.092 97.4695C169.158 97.4106 169.226 97.3547 169.292 97.2958C169.905 96.7429 170.503 96.1737 171.091 95.5944C171.135 95.5518 171.18 95.5122 171.222 95.4696C171.827 94.8704 172.418 94.2568 172.993 93.6286C173.017 93.603 173.041 93.5798 173.064 93.5511C173.658 92.9033 174.237 92.2418 174.8 91.5667L174.813 91.5512C183.065 81.6704 187.631 69.232 187.733 56.3591C187.733 56.18 187.746 56.0039 187.746 55.8248C187.744 51.4926 187.238 47.1754 186.236 42.9607ZM83.892 66.6898C83.8804 66.6394 83.8711 66.589 83.8595 66.5386C83.6943 65.8027 83.5493 65.0598 83.4151 64.313C83.388 64.1579 83.3601 64.0028 83.3376 63.8516C83.2011 63.0374 83.0817 62.2169 82.9863 61.3895C82.9793 61.329 82.9754 61.2686 82.9685 61.2081C82.8847 60.4574 82.8227 59.7006 82.7746 58.9406C82.7614 58.7336 82.7482 58.5257 82.7381 58.3202C82.6924 57.4944 82.6637 56.6677 82.6637 55.8333C82.6637 55.0928 82.687 54.36 82.7195 53.624C82.7319 53.3534 82.7482 53.0812 82.7653 52.8152C82.7924 52.3631 82.8281 51.9134 82.8684 51.4644C82.8971 51.1402 82.9227 50.8153 82.9584 50.4935C82.9685 50.3958 82.984 50.2996 82.9956 50.2019C83.0545 49.6847 83.1173 49.1682 83.1926 48.6556C83.2817 48.05 83.3888 47.4506 83.5028 46.8519C83.5338 46.6852 83.5601 46.5177 83.5927 46.3517C83.6997 45.8043 83.8253 45.2661 83.9471 44.7233C83.9967 44.5124 84.0425 44.2999 84.0944 44.0889C84.2208 43.5725 84.3596 43.0607 84.5031 42.5504C84.5667 42.3232 84.6303 42.0945 84.697 41.868C84.8443 41.371 85.0009 40.8785 85.1622 40.3877C85.2398 40.155 85.3173 39.9224 85.3949 39.6952C85.5634 39.2113 85.7387 38.7308 85.9206 38.2536C86.008 38.0266 86.0975 37.8005 86.189 37.5751C86.3789 37.0997 86.5767 36.6267 86.7791 36.1583C86.8729 35.9435 86.9722 35.7318 87.0691 35.5185C87.2847 35.0447 87.5026 34.5725 87.7321 34.1064C87.8244 33.9195 87.9229 33.7357 88.0175 33.5504C88.2649 33.065 88.5146 32.5795 88.7775 32.1034C88.841 31.9878 88.9093 31.8762 88.9744 31.7622C89.9335 30.0562 90.9936 28.409 92.1492 26.8295C92.2058 26.7519 92.2593 26.6744 92.3167 26.5968C92.6183 26.1889 92.937 25.7919 93.2472 25.3933C93.4023 25.1994 93.5497 25.0056 93.7055 24.8102C93.9971 24.4519 94.2995 24.1022 94.6004 23.7517C94.7919 23.5299 94.9804 23.3065 95.1758 23.0886C95.4681 22.7606 95.7682 22.4403 96.0691 22.1201C96.2855 21.8874 96.5011 21.661 96.7213 21.4361C97.0191 21.1314 97.3223 20.8328 97.627 20.5366C97.8638 20.307 98.1024 20.0796 98.3428 19.8542C98.6457 19.5714 98.9526 19.292 99.2633 19.0159C99.5192 18.7889 99.7777 18.5648 100.039 18.3436C100.349 18.0807 100.659 17.8201 100.969 17.5681C101.245 17.3456 101.525 17.1284 101.805 16.9113C102.115 16.6686 102.426 16.4259 102.748 16.1917C103.045 15.9722 103.348 15.7613 103.651 15.5488C103.953 15.3363 104.271 15.106 104.592 14.8935C104.923 14.6718 105.262 14.4608 105.6 14.2476C105.9 14.0568 106.196 13.8598 106.5 13.6776C106.997 13.3767 107.508 13.0898 108.013 12.8068C108.357 12.6145 108.705 12.4283 109.055 12.2446C109.516 12.0018 109.979 11.7583 110.451 11.5296C110.734 11.3923 111.024 11.2659 111.31 11.1333C111.719 10.9441 112.126 10.7541 112.54 10.5765C112.845 10.4455 113.16 10.3237 113.465 10.1981C113.868 10.0353 114.272 9.87164 114.679 9.71888C114.998 9.59946 115.321 9.48624 115.643 9.37457C116.05 9.23189 116.458 9.09075 116.87 8.95815C117.197 8.85346 117.526 8.7542 117.857 8.65572C118.272 8.53164 118.69 8.41145 119.11 8.29823C119.442 8.20879 119.775 8.12298 120.108 8.04078C120.537 7.93738 120.967 7.83786 121.4 7.74222C121.732 7.66933 122.064 7.59799 122.398 7.53207C122.844 7.44444 123.293 7.3669 123.743 7.29168C124.07 7.23662 124.398 7.17924 124.727 7.13116C125.199 7.06214 125.674 7.00553 126.149 6.9497C126.46 6.91325 126.774 6.87215 127.089 6.84113C127.617 6.78918 128.149 6.75428 128.682 6.71939C128.95 6.70233 129.215 6.67674 129.483 6.66355C130.286 6.61392 131.094 6.59144 131.906 6.59144C132.621 6.59144 133.332 6.61237 134.04 6.64262C134.203 6.64934 134.365 6.65709 134.527 6.66588C135.971 6.74291 137.397 6.88094 138.807 7.07998L139.109 7.12263C140.596 7.34286 142.06 7.6272 143.502 7.97564L143.527 7.98184C145.74 8.52129 147.913 9.21469 150.03 10.057L101.153 58.9352H147.681L127.371 79.2446L131.557 66.6898H83.892ZM181.135 56.3676C181.023 67.7056 176.984 78.6542 169.706 87.3489L169.689 87.3699C169.193 87.9623 168.685 88.5429 168.163 89.1116L168.1 89.1782C167.591 89.7293 167.071 90.2696 166.539 90.799C166.501 90.837 166.462 90.8765 166.421 90.9114C165.904 91.4206 165.376 91.919 164.838 92.4065C164.775 92.4631 164.71 92.5158 164.647 92.5724C164.127 93.0377 163.6 93.4929 163.061 93.9349C162.973 94.0063 162.882 94.073 162.795 94.1435C162.274 94.5646 161.749 94.9787 161.211 95.3788C161.097 95.4634 160.978 95.5417 160.864 95.6247C160.346 96.0031 159.825 96.3776 159.291 96.7359C159.15 96.8305 159.003 96.9181 158.861 97.012C158.347 97.3493 157.832 97.6835 157.31 98.0022C157.135 98.1077 156.955 98.2039 156.78 98.307C156.278 98.6024 155.772 98.8971 155.26 99.1755C155.053 99.2872 154.84 99.3888 154.631 99.4981C154.14 99.7548 153.65 100.012 153.149 100.253C152.911 100.367 152.666 100.47 152.425 100.581C151.946 100.801 151.467 101.024 150.98 101.23C150.711 101.344 150.438 101.445 150.161 101.554C149.695 101.741 149.23 101.932 148.756 102.104C148.456 102.215 148.148 102.31 147.844 102.415C147.391 102.57 146.94 102.732 146.48 102.874C146.145 102.978 145.801 103.067 145.461 103.164C145.027 103.289 144.596 103.42 144.157 103.533C143.78 103.63 143.396 103.709 143.016 103.797C142.606 103.892 142.2 103.995 141.787 104.08C141.375 104.164 140.945 104.231 140.524 104.305C140.136 104.373 139.76 104.451 139.374 104.51C138.919 104.58 138.457 104.629 137.998 104.685C137.639 104.73 137.283 104.785 136.921 104.822C136.406 104.874 135.884 104.905 135.363 104.941C135.053 104.962 134.743 104.995 134.433 105.012C133.598 105.054 132.758 105.075 131.912 105.075C131.196 105.075 130.485 105.054 129.776 105.024C129.615 105.017 129.453 105.009 129.292 105.001C127.847 104.924 126.42 104.786 125.01 104.587L124.709 104.544C123.222 104.324 121.757 104.039 120.316 103.691L120.291 103.685C118.077 103.145 115.904 102.452 113.788 101.61L162.658 52.7315H116.13L136.44 32.4221L132.255 44.9769H179.921C180.265 46.4813 180.526 48.0159 180.727 49.5691H180.719C180.893 50.8931 181.014 52.2321 181.083 53.586C181.118 54.332 181.147 55.0788 181.147 55.8349C181.147 56.014 181.134 56.19 181.132 56.3692L181.135 56.3676Z" fill="white"/>
</svg>
