<svg width="378" height="288" viewBox="0 0 378 288" fill="none" xmlns="http://www.w3.org/2000/svg">
<path d="M266.837 61.5556H266.817C266.337 59.5267 265.788 57.5233 265.15 55.5556H201.821L215.474 14.6122L215.504 14.6244C218.249 15.7428 220.921 17.0328 223.504 18.4867L223.522 18.4967C224.379 18.9811 225.226 19.4822 226.063 20H226.076C230.805 22.9452 235.172 26.4366 239.085 30.4022H251.718C248.752 26.6496 245.457 23.1685 241.874 20C241.813 19.9456 241.748 19.8956 241.686 19.8411C240.945 19.19 240.19 18.5526 239.42 17.9289C239.262 17.8 239.104 17.6722 238.946 17.5456C237.21 16.153 235.417 14.8326 233.566 13.5844L233.343 13.4356C232.483 12.8607 231.612 12.303 230.729 11.7622C230.607 11.6878 230.485 11.6111 230.361 11.54C228.439 10.3748 226.466 9.28963 224.442 8.28444L224.055 8.09667C223.15 7.65222 222.235 7.22593 221.31 6.81778L220.927 6.64667C218.879 5.75111 216.788 4.94296 214.652 4.22222C214.444 4.15259 214.236 4.0837 214.028 4.01556C213.106 3.71111 212.176 3.42296 211.239 3.15111C211.091 3.10778 210.945 3.06222 210.795 3.02C209.715 2.71407 208.626 2.43074 207.527 2.17C207.367 2.13111 207.204 2.09889 207.044 2.05889C206.125 1.8463 205.2 1.65037 204.266 1.47111C203.985 1.4163 203.703 1.36333 203.421 1.31222C202.463 1.13519 201.498 0.975556 200.524 0.833333C200.387 0.813333 200.25 0.788889 200.112 0.77C199.012 0.616667 197.904 0.49 196.79 0.382222C196.508 0.354444 196.225 0.333333 195.941 0.308889C195.081 0.234815 194.217 0.174444 193.349 0.127778C193.029 0.111111 192.71 0.0922222 192.388 0.0788889C191.263 0.0322222 190.133 0 188.995 0C187.666 0 186.346 0.0333333 185.033 0.1C184.594 0.121111 184.162 0.163333 183.725 0.192222C182.854 0.248889 181.984 0.303333 181.122 0.39C180.601 0.441111 180.086 0.511111 179.567 0.572222C178.798 0.666667 178.029 0.752222 177.268 0.864444C176.712 0.945556 176.169 1.04222 175.62 1.13444C174.903 1.25556 174.185 1.37778 173.473 1.51778C172.907 1.62889 172.347 1.75333 171.786 1.87667C171.103 2.02667 170.422 2.18 169.745 2.34778C169.173 2.48889 168.605 2.63889 168.039 2.79222C167.385 2.97 166.734 3.15333 166.088 3.34778C165.514 3.51889 164.942 3.6963 164.374 3.88C163.748 4.08222 163.127 4.29222 162.511 4.51C161.934 4.71222 161.36 4.91667 160.789 5.13222C160.196 5.35444 159.608 5.59111 159.021 5.82889C158.435 6.06667 157.861 6.29778 157.288 6.54556C156.733 6.78556 156.186 7.03889 155.637 7.29111C155.047 7.56333 154.455 7.83111 153.873 8.11556C153.373 8.36111 152.883 8.62111 152.39 8.87556C151.774 9.19333 151.154 9.50556 150.547 9.83889C150.162 10.0511 149.786 10.2833 149.405 10.4956C146.696 12.0378 144.079 13.737 141.568 15.5844L141.457 15.6611C140.679 16.2367 139.919 16.8356 139.163 17.4389C138.969 17.5933 138.771 17.7411 138.58 17.8967C137.864 18.4789 137.164 19.0822 136.469 19.6889C136.254 19.8767 136.034 20.06 135.821 20.2444C135.137 20.8533 134.47 21.4789 133.807 22.11C133.598 22.31 133.387 22.5067 133.181 22.7089C132.514 23.3533 131.871 24.0133 131.231 24.6811C131.043 24.8767 130.855 25.0722 130.675 25.27C130.026 25.9611 129.391 26.6648 128.769 27.3811C128.612 27.5611 128.455 27.7411 128.301 27.9211C127.66 28.6678 127.03 29.4259 126.412 30.1956C126.301 30.34 126.184 30.4867 126.07 30.6311C125.428 31.4459 124.801 32.2752 124.189 33.1189L124.014 33.3656C116.288 44.1001 111.362 56.5918 109.681 69.71C109.389 71.9867 109.182 74.2844 109.086 76.6122C109.036 77.7356 109 78.8633 109 80C109.001 84.5217 109.387 89.035 110.154 93.4911C110.181 93.6489 110.214 93.8033 110.242 93.96C110.368 94.6667 110.498 95.3711 110.642 96.0711C110.748 96.5867 110.864 97.0978 110.975 97.61C111.053 97.9489 111.125 98.29 111.207 98.6278C111.349 99.2211 111.502 99.81 111.658 100.398C111.709 100.591 111.753 100.786 111.805 100.979H111.811C112.128 102.143 112.461 103.302 112.829 104.446H176.158L162.516 145.388L162.493 145.379C159.744 144.258 157.068 142.966 154.482 141.509C153.619 141.021 152.768 140.519 151.931 140H151.917C143.767 134.931 136.727 128.264 131.221 120.402H119.977C124.286 127.748 129.733 134.363 136.116 140C136.181 140.057 136.248 140.111 136.313 140.166C137.053 140.814 137.806 141.449 138.569 142.07C138.726 142.199 138.884 142.327 139.043 142.453C140.778 143.846 142.571 145.166 144.421 146.413C144.499 146.466 144.578 146.516 144.657 146.568C145.514 147.141 146.382 147.697 147.263 148.234C147.385 148.31 147.508 148.386 147.631 148.457C149.552 149.622 151.524 150.707 153.549 151.711C153.678 151.776 153.809 151.838 153.939 151.901C154.846 152.346 155.762 152.772 156.686 153.181L157.064 153.35C159.112 154.244 161.205 155.053 163.341 155.776C163.549 155.847 163.757 155.914 163.965 155.983C164.89 156.288 165.821 156.576 166.76 156.849C166.905 156.891 167.049 156.937 167.194 156.978C168.275 157.283 169.364 157.567 170.462 157.829C170.625 157.868 170.795 157.901 170.954 157.94C171.87 158.151 172.792 158.346 173.719 158.526C174.001 158.58 174.285 158.637 174.568 158.687C175.531 158.861 176.498 159.02 177.47 159.162C177.608 159.182 177.745 159.207 177.882 159.226C178.982 159.379 180.09 159.506 181.203 159.613C181.487 159.641 181.771 159.662 182.054 159.687C182.914 159.761 183.777 159.821 184.644 159.868C184.964 159.884 185.284 159.903 185.605 159.917C186.732 159.963 187.862 159.996 188.999 159.996C190.376 159.996 191.745 159.961 193.105 159.892C193.571 159.868 194.031 159.818 194.496 159.787C195.385 159.727 196.273 159.676 197.153 159.584C197.744 159.524 198.327 159.434 198.914 159.362C199.659 159.27 200.407 159.191 201.144 159.079C201.793 158.98 202.432 158.85 203.075 158.736C203.742 158.618 204.408 158.513 205.068 158.38C205.761 158.239 206.442 158.067 207.127 157.908C207.726 157.769 208.33 157.644 208.924 157.492C209.644 157.308 210.349 157.093 211.06 156.89C211.608 156.732 212.162 156.59 212.706 156.422C213.45 156.191 214.181 155.93 214.917 155.679C215.412 155.509 215.917 155.353 216.407 155.174C217.178 154.893 217.934 154.582 218.694 154.278C219.139 154.101 219.583 153.938 220.028 153.753C220.826 153.42 221.609 153.052 222.393 152.691C222.778 152.513 223.171 152.35 223.553 152.167C224.378 151.771 225.186 151.347 225.997 150.923C226.33 150.752 226.664 150.59 226.987 150.417C227.833 149.959 228.661 149.474 229.488 148.988C229.764 148.826 230.044 148.676 230.319 148.51C231.18 147.989 232.023 147.442 232.863 146.89C233.086 146.741 233.322 146.602 233.548 146.446C234.422 145.858 235.279 145.244 236.129 144.623C236.306 144.493 236.49 144.371 236.666 144.241C237.549 143.584 238.411 142.908 239.265 142.213C239.4 142.102 239.539 142.002 239.673 141.893C240.562 141.168 241.421 140.419 242.274 139.658C242.368 139.573 242.466 139.493 242.561 139.409C243.438 138.617 244.296 137.801 245.138 136.971C245.2 136.91 245.265 136.853 245.326 136.792C246.193 135.934 247.038 135.054 247.864 134.154C247.897 134.118 247.931 134.084 247.965 134.043C248.816 133.115 249.645 132.167 250.451 131.2L250.47 131.178C262.293 117.02 268.836 99.1981 268.982 80.7533C268.982 80.4967 269 80.2444 269 79.9878C268.998 73.7805 268.272 67.5946 266.837 61.5556ZM120.204 95.5556C120.187 95.4833 120.174 95.4111 120.157 95.3389C119.92 94.2844 119.713 93.22 119.52 92.15C119.482 91.9278 119.442 91.7056 119.409 91.4889C119.214 90.3222 119.043 89.1467 118.906 87.9611C118.896 87.8745 118.89 87.7878 118.88 87.7011C118.761 86.6256 118.672 85.5411 118.603 84.4522C118.584 84.1556 118.565 83.8578 118.551 83.5633C118.485 82.38 118.444 81.1956 118.444 80C118.444 78.9389 118.477 77.8889 118.524 76.8344C118.542 76.4467 118.565 76.0567 118.589 75.6756C118.628 75.0278 118.679 74.3833 118.737 73.74C118.778 73.2756 118.815 72.81 118.866 72.3489C118.88 72.2089 118.903 72.0711 118.919 71.9311C119.004 71.19 119.094 70.45 119.202 69.7156C119.329 68.8478 119.483 67.9889 119.646 67.1311C119.69 66.8922 119.728 66.6522 119.775 66.4144C119.928 65.63 120.108 64.8589 120.283 64.0811C120.354 63.7789 120.419 63.4744 120.494 63.1722C120.675 62.4322 120.874 61.6989 121.079 60.9678C121.17 60.6422 121.261 60.3144 121.357 59.99C121.568 59.2778 121.793 58.5722 122.024 57.8689C122.135 57.5356 122.246 57.2022 122.357 56.8767C122.598 56.1833 122.85 55.4948 123.11 54.8111C123.235 54.4859 123.364 54.1619 123.495 53.8389C123.767 53.1578 124.05 52.48 124.34 51.8089C124.475 51.5011 124.617 51.1978 124.756 50.8922C125.065 50.2133 125.377 49.5367 125.706 48.8689C125.838 48.6011 125.979 48.3378 126.114 48.0722C126.469 47.3767 126.827 46.6811 127.203 45.9989C127.294 45.8333 127.392 45.6733 127.486 45.51C128.86 43.0656 130.379 40.7054 132.034 38.4422C132.115 38.3311 132.192 38.22 132.274 38.1089C132.706 37.5244 133.163 36.9556 133.607 36.3844C133.83 36.1067 134.041 35.8289 134.264 35.5489C134.682 35.0356 135.115 34.5344 135.546 34.0322C135.821 33.7144 136.091 33.3944 136.371 33.0822C136.789 32.6122 137.219 32.1533 137.65 31.6944C137.96 31.3611 138.269 31.0367 138.585 30.7144C139.011 30.2778 139.446 29.85 139.883 29.4256C140.222 29.0967 140.564 28.7707 140.908 28.4478C141.342 28.0426 141.782 27.6422 142.227 27.2467C142.593 26.9215 142.964 26.6004 143.338 26.2833C143.782 25.9067 144.227 25.5333 144.671 25.1722C145.066 24.8533 145.468 24.5422 145.869 24.2311C146.313 23.8833 146.758 23.5356 147.22 23.2C147.645 22.8856 148.08 22.5833 148.513 22.2789C148.946 21.9744 149.402 21.6444 149.862 21.34C150.336 21.0222 150.822 20.72 151.306 20.4144C151.736 20.1411 152.16 19.8589 152.595 19.5978C153.307 19.1667 154.039 18.7556 154.763 18.35C155.256 18.0744 155.755 17.8078 156.256 17.5444C156.917 17.1967 157.579 16.8478 158.256 16.52C158.661 16.3233 159.077 16.1422 159.487 15.9522C160.072 15.6811 160.656 15.4089 161.249 15.1544C161.687 14.9667 162.138 14.7922 162.574 14.6122C163.152 14.3789 163.73 14.1444 164.314 13.9256C164.771 13.7544 165.233 13.5922 165.695 13.4322C166.279 13.2278 166.863 13.0256 167.453 12.8356C167.921 12.6856 168.393 12.5433 168.866 12.4022C169.462 12.2244 170.061 12.0522 170.663 11.89C171.138 11.7619 171.614 11.6389 172.093 11.5211C172.706 11.373 173.323 11.2304 173.943 11.0933C174.418 10.9889 174.895 10.8867 175.374 10.7922C176.012 10.6667 176.656 10.5556 177.3 10.4478C177.769 10.3689 178.238 10.2867 178.71 10.2178C179.386 10.1189 180.067 10.0378 180.748 9.95778C181.192 9.90556 181.643 9.84667 182.094 9.80222C182.851 9.72778 183.613 9.67778 184.376 9.62778C184.76 9.60333 185.14 9.56667 185.524 9.54778C186.675 9.47667 187.832 9.44444 188.995 9.44444C190.02 9.44444 191.038 9.47445 192.054 9.51778C192.286 9.52741 192.518 9.53852 192.75 9.55111C194.819 9.66148 196.863 9.85926 198.883 10.1444L199.315 10.2056C201.446 10.5211 203.544 10.9285 205.61 11.4278L205.645 11.4367C208.816 12.2096 211.93 13.2031 214.962 14.41L144.934 84.4445H211.597L182.499 113.544L188.495 95.5556H120.204ZM259.528 80.7656C259.367 97.011 253.581 112.699 243.154 125.157L243.129 125.187C242.419 126.036 241.69 126.867 240.943 127.682L240.852 127.778C240.123 128.567 239.378 129.341 238.616 130.1C238.561 130.154 238.505 130.211 238.446 130.261C237.706 130.991 236.95 131.705 236.179 132.403C236.089 132.484 235.995 132.56 235.905 132.641C235.16 133.308 234.404 133.96 233.632 134.593C233.507 134.696 233.377 134.791 233.251 134.892C232.506 135.496 231.752 136.089 230.982 136.662C230.819 136.783 230.649 136.896 230.486 137.014C229.744 137.557 228.996 138.093 228.231 138.607C228.029 138.742 227.819 138.868 227.615 139.002C226.879 139.486 226.14 139.964 225.393 140.421C225.143 140.572 224.885 140.71 224.634 140.858C223.914 141.281 223.19 141.703 222.456 142.102C222.16 142.262 221.854 142.408 221.555 142.564C220.852 142.932 220.149 143.301 219.432 143.646C219.09 143.81 218.739 143.957 218.394 144.116C217.708 144.431 217.022 144.751 216.324 145.046C215.938 145.209 215.547 145.353 215.15 145.51C214.483 145.778 213.817 146.051 213.138 146.299C212.707 146.457 212.266 146.593 211.831 146.743C211.181 146.966 210.536 147.198 209.877 147.401C209.396 147.551 208.904 147.678 208.417 147.817C207.795 147.996 207.177 148.184 206.548 148.346C206.008 148.484 205.458 148.598 204.913 148.724C204.326 148.86 203.744 149.008 203.153 149.129C202.562 149.25 201.946 149.346 201.343 149.452C200.788 149.55 200.249 149.661 199.695 149.746C199.043 149.846 198.382 149.916 197.724 149.997C197.21 150.061 196.699 150.14 196.18 150.192C195.442 150.268 194.695 150.311 193.949 150.363C193.505 150.393 193.06 150.441 192.616 150.464C191.42 150.524 190.216 150.555 189.004 150.556C187.978 150.556 186.96 150.526 185.944 150.482C185.713 150.472 185.481 150.461 185.25 150.449C183.18 150.339 181.135 150.141 179.116 149.856L178.683 149.794C176.553 149.479 174.455 149.071 172.389 148.572L172.354 148.563C169.183 147.791 166.069 146.797 163.037 145.59L233.056 75.5556H166.393L195.491 46.4556L189.495 64.4445H257.79C258.282 66.6 258.655 68.7989 258.944 71.0245H258.933C259.182 72.9215 259.355 74.84 259.454 76.78C259.504 77.8489 259.546 78.9189 259.546 80.0022C259.546 80.2589 259.526 80.5111 259.524 80.7678L259.528 80.7656Z" fill="#4DED54"/>
<path d="M26.2381 233.185C26.2381 221.419 9.05956 224.172 9.05956 218.064C9.05956 215.861 10.5942 214.809 12.624 214.86C14.9012 214.91 16.4854 216.261 16.6339 218.515H25.7925C25.446 211.805 20.3469 208 12.7725 208C5.49514 208 0.0990116 211.705 0.0990116 218.364C0 230.832 17.3765 227.327 17.3765 233.836C17.3765 235.889 15.7924 237.14 13.3171 237.14C10.9408 237.14 9.25758 235.839 9.01006 233.135H0C0.247529 240.245 6.08921 244 13.5646 244C21.6835 244 26.2381 239.093 26.2381 233.185Z" fill="white"/>
<path d="M29.5666 215.36H38.7746V243.65H47.2401V215.36H56.4482V208.501H29.5666V215.36Z" fill="white"/>
<path d="M79.0635 219.917C79.0635 222.67 77.5783 224.323 74.4099 224.323H69.1623V215.611H74.4099C77.5783 215.611 79.0635 217.313 79.0635 219.917ZM60.6968 208.501V243.65H69.1623V230.381H71.192L78.4199 243.65H87.9745L79.9546 229.73C85.3012 228.128 87.6775 223.972 87.6775 219.566C87.6775 213.458 83.42 208.501 74.905 208.501H60.6968Z" fill="white"/>
<path d="M127.2 225.975C127.2 215.41 119.329 208 109.428 208C99.5759 208 91.5559 215.41 91.5559 225.975C91.5559 236.54 99.5759 244 109.428 244C119.279 244 127.2 236.54 127.2 225.975ZM100.219 225.975C100.219 219.716 103.784 215.761 109.428 215.761C114.972 215.761 118.586 219.716 118.586 225.975C118.586 232.134 114.972 236.189 109.428 236.189C103.784 236.189 100.219 232.134 100.219 225.975Z" fill="white"/>
<path d="M154.534 208.501V230.281L140.375 208.501H131.91V243.65H140.375V221.969L154.534 243.65H162.999V208.501H154.534Z" fill="white"/>
<path d="M185.374 208.1C174.977 208.1 167.7 215.51 167.7 226.025C167.7 236.54 175.027 243.9 185.423 243.9C194.582 243.9 200.374 237.841 202.156 231.783V223.822H183.74V230.131H194.483C193.196 234.086 190.275 236.339 186.067 236.339C179.978 236.339 176.314 232.534 176.314 226.025C176.314 219.917 179.928 216.011 185.374 216.011C188.542 216.011 190.918 217.263 192.205 219.616H201.562C199.73 212.406 193.691 208.1 185.374 208.1Z" fill="white"/>
<path d="M228.479 243.65H236.945V208.501H228.479V222.27H215.311V208.501H206.845V243.65H215.311V229.179H228.479V243.65Z" fill="white"/>
<path d="M266.769 243.65H275.73L263.155 208.501H253.353L240.779 243.65H249.64L251.72 237.441H264.69L266.769 243.65ZM262.512 230.832H253.947L258.205 217.964L262.512 230.832Z" fill="white"/>
<path d="M302.181 208.501V230.281L288.022 208.501H279.557V243.65H288.022V221.969L302.181 243.65H310.647V208.501H302.181Z" fill="white"/>
<path d="M329.803 208.501H316.783V243.65H329.803C340.892 243.65 348.021 236.49 348.021 226.075C348.021 215.611 340.892 208.501 329.803 208.501ZM325.248 236.239V215.811H329.258C335.645 215.811 339.407 219.616 339.407 226.075C339.407 232.534 335.645 236.239 329.258 236.239H325.248Z" fill="white"/>
<path d="M378 233.185C378 221.419 360.821 224.172 360.821 218.064C360.821 215.861 362.356 214.809 364.386 214.86C366.663 214.91 368.247 216.261 368.396 218.515H377.554C377.208 211.805 372.109 208 364.534 208C357.257 208 351.861 211.705 351.861 218.364C351.762 230.832 369.138 227.327 369.138 233.836C369.138 235.889 367.554 237.14 365.079 237.14C362.703 237.14 361.02 235.839 360.772 233.135H351.762C352.009 240.245 357.851 244 365.327 244C373.445 244 378 239.093 378 233.185Z" fill="white"/>
<path d="M105.096 268.196V269.257H96.255V277.441H103.98V278.503H96.255V287.804H95V268.196H105.096Z" fill="white"/>
<path d="M123.626 268.196V287.804H122.371V268.196H123.626Z" fill="white"/>
<path d="M156.172 287.804H154.917L143.427 270.263V287.804H142.172V268.223H143.427L154.917 285.709V268.223H156.172V287.804Z" fill="white"/>
<path d="M185.818 282.777H176.531L174.662 287.804H173.295L180.491 268.642H181.885L189.053 287.804H187.686L185.818 282.777ZM185.427 281.715L181.188 270.291L176.921 281.715H185.427Z" fill="white"/>
<path d="M220.148 287.804H218.893L207.402 270.263V287.804H206.147V268.223H207.402L218.893 285.709V268.223H220.148V287.804Z" fill="white"/>
<path d="M237.913 278.028C237.913 276.091 238.312 274.369 239.112 272.86C239.93 271.333 241.045 270.142 242.459 269.285C243.89 268.428 245.489 268 247.255 268C249.487 268 251.364 268.521 252.889 269.564C254.414 270.607 255.529 272.069 256.236 273.95H254.785C254.228 272.46 253.298 271.287 251.997 270.43C250.714 269.555 249.133 269.117 247.255 269.117C245.749 269.117 244.383 269.48 243.156 270.207C241.929 270.914 240.962 271.948 240.255 273.307C239.549 274.648 239.196 276.222 239.196 278.028C239.196 279.816 239.549 281.38 240.255 282.721C240.962 284.043 241.929 285.067 243.156 285.793C244.383 286.52 245.749 286.883 247.255 286.883C249.133 286.883 250.714 286.454 251.997 285.598C253.298 284.723 254.228 283.54 254.785 282.05H256.236C255.529 283.931 254.414 285.393 252.889 286.436C251.364 287.479 249.487 288 247.255 288C245.489 288 243.89 287.581 242.459 286.743C241.045 285.886 239.93 284.704 239.112 283.196C238.312 281.669 237.913 279.946 237.913 278.028Z" fill="white"/>
<path d="M275.354 269.257V277.441H283.163V278.503H275.354V286.743H284V287.804H274.099V268.196H284V269.257H275.354Z" fill="white"/>
</svg>
