<svg width="512" height="512" viewBox="0 0 512 512" fill="none" xmlns="http://www.w3.org/2000/svg">
<g clip-path="url(#clip0_25_1884)">
<path d="M88.6599 423.719L106.01 388.942L125.913 378.503L142.404 382.364L185.314 403.765H185.343L236.086 414.012L288.912 416.974L338.286 411.964L365.825 415.378H365.893L386.097 404.903L386.151 404.843L391.431 391.861V391.765L383.867 377.671L382.028 334.884L371.474 291.364L353.55 244.43L335.626 203.897L314.73 156.526L304.402 121.682L304.381 121.639L287.389 102.738L253.175 74.9546L230.906 56.0569L230.845 56.0284L219.822 54.6631H219.75L200.234 65.5929L177.04 80.3982L176.994 80.4586L173.549 90.9369V91.0222L181.328 106.901L172.642 118.46V118.571L176.994 129.067L177.015 129.099L185.278 138.667L185.393 138.702L195.925 136.434L223.679 145.067H223.708L255.312 146.432L261.718 168.441L267.453 199.374L264.227 224.619L261.929 254.912V254.944L270.196 292.988V293.028L283.495 312.889L257.538 297.664L246.299 284.697L222.41 263.054L222.378 263.033L197.119 253.01H197.076H162.902L148.007 242.343L122.053 227.765H122.01L81.3683 222.756H81.3396L53.8117 226.624L20.7237 216.455L37.6154 242.489L38.3037 262.044L38.3359 262.119L56.4753 280.793L80.5187 297.38L61.7342 336.235V336.341L74.7973 357.255L67.2297 398.887L67.2513 398.979L88.6599 423.719ZM125.913 378.272H125.835L105.86 388.75L105.81 388.796L88.6491 423.708L67.4807 398.852L75.0482 357.227V357.145L61.9923 336.245L80.7947 297.362L80.7553 297.216L56.6473 280.594L38.5546 261.966L37.87 242.411L37.8484 242.35L20.7488 216.416L53.7938 226.809H53.8439L81.379 222.94L121.97 227.964L147.896 242.542L162.809 253.237L162.877 253.259H197.054L222.27 263.264L246.134 284.871L257.376 297.842L257.405 297.867L283.811 313.351L283.965 313.191L270.429 292.924L262.173 254.933L264.467 224.661L267.694 199.388V199.356L261.958 168.384L255.527 146.283L255.419 146.201L223.751 144.836L195.983 136.185H195.922L185.429 138.45L177.22 128.949L172.875 118.556L181.561 106.994V106.876L173.775 90.976L177.191 80.5831L200.345 65.8026L219.836 54.8942L230.784 56.2524L253.028 75.1289L287.231 102.916L304.191 121.785L314.515 156.604L335.415 203.986L353.339 244.519L371.241 291.431L381.799 334.933L383.634 377.724V377.771L391.191 391.822L385.946 404.715L365.81 415.157L338.293 411.744H338.268L288.901 416.754L236.111 413.792L185.397 403.552L142.475 382.151H142.45L125.913 378.272Z" fill="#1A1F29"/>
<g opacity="0.5">
<path d="M248.93 100.768L276.591 118.987L272.235 102.631L248.93 100.768Z" fill="#7B8291"/>
<path d="M368.322 351.086L356.403 374.717L344.459 348.306L368.322 351.086Z" fill="#7B8291"/>
<path d="M277.14 159.086L296.483 189.255L284.983 196.48L277.14 159.086Z" fill="#7B8291"/>
<path d="M67.1527 280.153L104.942 301.326L93.4382 280.153H67.1527Z" fill="#7B8291"/>
<path d="M305.011 225.625L314.511 252.114L299.845 254.624L305.011 225.625Z" fill="#7B8291"/>
<path d="M338.802 279.694L340.938 316.967L317.996 297.668L338.802 279.694Z" fill="#7B8291"/>
<path d="M269.12 345.298L292.042 368.203L247.758 372.846L269.12 345.298Z" fill="#7B8291"/>
<path d="M203.127 291.108L172.258 309.629L208.274 313.493L203.127 291.108Z" fill="#7B8291"/>
</g>
<path d="M181.36 106.976L181.579 106.944L183.712 91.7121L183.604 91.5805L173.667 90.8694L173.552 91.0329L181.36 106.976ZM183.465 91.8009L181.403 106.539L173.846 91.1147L183.465 91.8009Z" fill="#1A1F29" stroke="#1A1F29" stroke-width="0.4"/>
<path d="M183.676 91.7795L199.306 77.4364L199.212 77.2408L177.087 80.3982L177.001 80.5653L183.497 91.7511L183.676 91.7795ZM198.879 77.5111L183.629 91.5164L177.291 80.5973L198.879 77.5111Z" fill="#1A1F29" stroke="#1A1F29" stroke-width="0.4"/>
<path d="M199.295 77.4471L213.832 67.68L213.785 67.4738L200.31 65.5929L200.177 65.696L199.101 77.344L199.295 77.4471ZM213.455 67.6551L199.367 77.1236L200.396 65.8382L213.455 67.6551Z" fill="#1A1F29" stroke="#1A1F29" stroke-width="0.4"/>
<path d="M188.956 113.372L189.139 113.259L183.708 91.6693H183.482L181.349 106.901L181.389 107.004L188.956 113.372ZM183.629 92.2951L188.831 112.971L181.586 106.88L183.629 92.2951Z" fill="#1A1F29" stroke="#1A1F29" stroke-width="0.4"/>
<path d="M183.597 91.8079H194.305L194.412 91.7333L199.338 77.3902L199.151 77.2693L183.518 91.6124L183.597 91.8079ZM194.222 91.5804H183.891L198.976 77.7422L194.222 91.5804Z" fill="#1A1F29" stroke="#1A1F29" stroke-width="0.4"/>
<path d="M188.917 113.312L189.143 113.287V99.7974V99.7333L183.708 91.6338L183.504 91.7227L188.917 113.312ZM188.917 99.8329V112.356L183.873 92.3022L188.917 99.8329Z" fill="#1A1F29" stroke="#1A1F29" stroke-width="0.4"/>
<path d="M188.935 99.8613H189.125L194.384 91.7582L194.287 91.5804H183.579L183.482 91.7582L188.935 99.8613ZM194.093 91.808L189.028 99.5876L183.812 91.808H194.093Z" fill="#1A1F29" stroke="#1A1F29" stroke-width="0.4"/>
<path d="M194.384 91.7654L213.846 67.6551L213.692 67.4916L199.155 77.2587L199.108 77.3156L194.186 91.6587L194.384 91.7654ZM213.204 68.0996L194.624 91.1182L199.324 77.4258L213.204 68.0996Z" fill="#1A1F29" stroke="#1A1F29" stroke-width="0.4"/>
<path d="M196.506 125.216L204.127 115.449L204.052 115.268L189.046 113.173L188.931 113.348L196.316 125.209L196.506 125.216ZM203.823 115.467L196.427 124.949L189.258 113.433L203.823 115.467Z" fill="#1A1F29" stroke="#1A1F29" stroke-width="0.4"/>
<path d="M196.438 125.259L206.522 123.168L206.608 123.022L204.145 115.349L203.944 115.314L196.323 125.081L196.438 125.259ZM206.35 122.969L196.696 124.974L203.995 115.62L206.35 122.969Z" fill="#1A1F29" stroke="#1A1F29" stroke-width="0.4"/>
<path d="M203.952 115.46L204.142 115.335L194.412 91.6516L194.208 91.6338L188.931 99.7333V99.8756L203.952 115.46ZM194.273 91.9396L203.704 114.866L189.179 99.7831L194.273 91.9396Z" fill="#1A1F29" stroke="#1A1F29" stroke-width="0.4"/>
<path d="M204.142 115.424L213.405 93.9093L213.312 93.7529L194.312 91.584L194.19 91.7369L203.923 115.424H204.142ZM213.132 93.9627L204.038 115.083L194.484 91.8293L213.132 93.9627Z" fill="#1A1F29" stroke="#1A1F29" stroke-width="0.4"/>
<path d="M213.287 93.9805L213.412 93.8667L213.882 67.5876L213.678 67.5129L194.215 91.6232L194.291 91.808L213.287 93.9805ZM213.645 67.9183L213.183 93.7387L194.52 91.6054L213.645 67.9183Z" fill="#1A1F29" stroke="#1A1F29" stroke-width="0.4"/>
<path d="M222.607 127.929L238.671 121.173L238.71 120.992L229.095 110.176L228.902 110.212L222.449 127.772L222.607 127.929ZM238.434 121.035L222.761 127.616L229.052 110.482L238.434 121.035Z" fill="#1A1F29" stroke="#1A1F29" stroke-width="0.4"/>
<path d="M211.699 127.908H211.856L229.092 110.35L228.952 110.172L206.443 122.972L206.422 123.157L211.699 127.908ZM228.357 110.766L211.77 127.666L206.691 123.076L228.357 110.766Z" fill="#1A1F29" stroke="#1A1F29" stroke-width="0.4"/>
<path d="M211.774 127.936H222.56L222.668 127.861L229.121 110.3L228.931 110.183L211.695 127.744L211.774 127.936ZM222.482 127.708H212.046L228.719 110.724L222.482 127.708Z" fill="#1A1F29" stroke="#1A1F29" stroke-width="0.4"/>
<path d="M204.063 115.492L229.038 110.375L229.096 110.183L213.383 93.7885L213.193 93.8204L203.93 115.335L204.063 115.492ZM228.798 110.194L204.242 115.225L213.351 94.0693L228.798 110.194Z" fill="#1A1F29" stroke="#1A1F29" stroke-width="0.4"/>
<path d="M228.927 110.34L229.125 110.244L223.966 79.6196L223.758 79.5734L213.208 93.7956V93.9414L228.927 110.34ZM223.78 79.9254L228.834 109.916L213.448 93.8667L223.78 79.9254Z" fill="#1A1F29" stroke="#1A1F29" stroke-width="0.4"/>
<path d="M223.762 79.712L223.962 79.6729L230.949 56.1778L230.777 56.0498L213.713 67.4951L213.692 67.6623L223.762 79.712ZM230.63 56.416L223.801 79.4027L213.939 67.6089L230.63 56.416Z" fill="#1A1F29" stroke="#1A1F29" stroke-width="0.4"/>
<path d="M213.742 67.6978L213.86 67.6338L219.9 54.8338L219.739 54.688L200.223 65.6178L200.266 65.8311L213.742 67.6978ZM219.542 55.0507L213.688 67.4595L200.632 65.6391L219.542 55.0507Z" fill="#1A1F29" stroke="#1A1F29" stroke-width="0.4"/>
<path d="M237.402 80.1742L253.129 75.1538L253.168 74.9582L230.899 56.0569L230.713 56.1707L237.255 80.096L237.402 80.1742ZM252.863 74.9973L237.449 79.9218L231.035 56.4551L252.863 74.9973Z" fill="#1A1F29" stroke="#1A1F29" stroke-width="0.4"/>
<path d="M263.485 103.651L287.317 102.94L287.385 102.741L253.175 74.9546L252.992 75.0826L263.388 103.577L263.485 103.651ZM287.002 102.723L263.56 103.435L253.351 75.4097L287.002 102.723Z" fill="#1A1F29" stroke="#1A1F29" stroke-width="0.4"/>
<path d="M229.121 110.293L237.484 80.096L237.377 79.9538L223.855 79.5271L223.737 79.6587L228.895 110.283L229.121 110.293ZM237.223 80.1742L229.039 109.735L223.988 79.7582L237.223 80.1742Z" fill="#1A1F29" stroke="#1A1F29" stroke-width="0.4"/>
<path d="M245.059 107.623L263.506 103.648L263.571 103.467L237.466 80L237.276 80.1138L244.93 107.541L245.059 107.623ZM263.237 103.467L245.116 107.378L237.588 80.416L263.237 103.467Z" fill="#1A1F29" stroke="#1A1F29" stroke-width="0.4"/>
<path d="M238.538 121.152L238.728 121.127L245.138 107.559L245.012 107.399L228.992 110.151L228.923 110.34L238.538 121.152ZM244.837 107.659L238.595 120.871L229.232 110.34L244.837 107.659Z" fill="#1A1F29" stroke="#1A1F29" stroke-width="0.4"/>
<path d="M283.087 126.421L304.327 121.842L304.392 121.653L287.399 102.752L287.199 102.809L282.947 126.276L283.087 126.421ZM304.08 121.66L283.198 126.162L287.378 103.079L304.08 121.66Z" fill="#1A1F29" stroke="#1A1F29" stroke-width="0.4"/>
<path d="M259.531 134.443L283.098 126.418L283.148 126.236L263.571 103.467L263.37 103.527L259.384 134.325L259.531 134.443ZM282.865 126.265L259.628 134.169L263.571 103.822L282.865 126.265Z" fill="#1A1F29" stroke="#1A1F29" stroke-width="0.4"/>
<path d="M259.43 134.432L259.595 134.279L245.134 107.456H244.93L238.52 121.024L238.563 121.166L259.43 134.432ZM245.041 107.765L259.187 134.002L238.753 121.035L245.041 107.765Z" fill="#1A1F29" stroke="#1A1F29" stroke-width="0.4"/>
<path d="M289.141 138.4L289.26 138.236L283.166 126.258L283.026 126.204L259.459 134.226L259.481 134.446L289.141 138.4ZM283.004 126.45L288.955 138.148L259.99 134.286L283.004 126.45Z" fill="#1A1F29" stroke="#1A1F29" stroke-width="0.4"/>
<path d="M289.242 138.364L304.388 121.806L304.28 121.618L283.036 126.201L282.958 126.361L289.052 138.34L289.242 138.364ZM303.979 121.916L289.184 138.091L283.23 126.389L303.979 121.916Z" fill="#1A1F29" stroke="#1A1F29" stroke-width="0.4"/>
<path d="M255.423 146.436L289.185 138.4V138.176L259.52 134.222L259.395 134.297L255.301 146.286L255.423 146.436ZM288.532 138.311L255.573 146.155L259.574 134.45L288.532 138.311Z" fill="#1A1F29" stroke="#1A1F29" stroke-width="0.4"/>
<path d="M223.744 145.067L259.527 134.443L259.556 134.24L238.685 120.981L238.528 121.017L223.615 144.9L223.744 145.067ZM259.234 134.297L223.98 144.764L238.678 121.237L259.234 134.297Z" fill="#1A1F29" stroke="#1A1F29" stroke-width="0.4"/>
<path d="M223.679 145.067L223.826 144.949L222.675 127.815L222.525 127.716L195.893 136.196V136.412L223.679 145.067ZM222.457 127.975L223.586 144.8L196.309 136.302L222.457 127.975Z" fill="#1A1F29" stroke="#1A1F29" stroke-width="0.4"/>
<path d="M195.982 136.405L211.827 127.922L211.853 127.737L206.572 122.969H206.404L195.836 136.22L195.982 136.405ZM211.591 127.797L196.38 135.943L206.525 123.221L211.591 127.797Z" fill="#1A1F29" stroke="#1A1F29" stroke-width="0.4"/>
<path d="M185.393 138.692L195.954 136.416L196.044 136.309L196.535 125.156L196.33 125.081L185.282 138.514L185.393 138.692ZM195.818 136.203L185.665 138.389L196.287 125.476L195.818 136.203Z" fill="#1A1F29" stroke="#1A1F29" stroke-width="0.4"/>
<path d="M177.123 129.127L196.438 125.259L196.513 125.088L189.128 113.227H188.938L177.008 128.956L177.123 129.127ZM196.23 125.067L177.374 128.846L189.007 113.486L196.23 125.067Z" fill="#1A1F29" stroke="#1A1F29" stroke-width="0.4"/>
<path d="M172.775 118.649L189.064 113.394L189.104 113.198L181.54 106.841H181.371L172.646 118.457L172.775 118.649ZM188.799 113.241L173.047 118.322L181.479 107.093L188.799 113.241Z" fill="#1A1F29" stroke="#1A1F29" stroke-width="0.4"/>
<path d="M314.608 156.683L314.748 156.54L304.413 121.696L304.191 121.717L300.649 153.159L300.739 153.284L314.608 156.683ZM304.356 122.304L314.476 156.416L300.896 153.088L304.356 122.304Z" fill="#1A1F29" stroke="#1A1F29" stroke-width="0.4"/>
<path d="M335.468 204.036L335.637 203.897L314.741 156.526L314.522 156.569L313.196 189.799L313.249 189.902L335.468 204.036ZM314.73 157.07L335.267 203.641L313.422 189.742L314.73 157.07Z" fill="#1A1F29" stroke="#1A1F29" stroke-width="0.4"/>
<path d="M353.4 244.583L353.547 244.43L335.623 203.897H335.408L325.85 234.532L325.919 234.674L353.4 244.583ZM335.551 204.267L353.228 244.267L326.116 234.492L335.551 204.267Z" fill="#1A1F29" stroke="#1A1F29" stroke-width="0.4"/>
<path d="M371.288 291.484L371.457 291.349L353.532 244.437H353.314L346.248 275.371L346.298 275.492L371.288 291.484ZM353.468 244.871L371.12 291.093L346.503 275.328L353.468 244.871Z" fill="#1A1F29" stroke="#1A1F29" stroke-width="0.4"/>
<path d="M381.87 334.99L382.035 334.862L371.474 291.364L371.263 291.335L354.027 321.156L354.073 321.312L381.87 334.99ZM371.317 291.694L381.741 334.677L354.267 321.163L371.317 291.694Z" fill="#1A1F29" stroke="#1A1F29" stroke-width="0.4"/>
<path d="M383.685 377.796L383.864 377.696L382.025 334.884L381.831 334.805L356.142 359.04V359.214L383.685 377.796ZM381.81 335.129L383.624 377.465L356.418 359.111L381.81 335.129Z" fill="#1A1F29" stroke="#1A1F29" stroke-width="0.4"/>
<path d="M391.302 391.932L391.428 391.765L383.849 377.646L383.706 377.596L362.161 385.877L362.179 386.094L391.302 391.932ZM383.695 377.845L391.109 391.662L362.609 385.948L383.695 377.845Z" fill="#1A1F29" stroke="#1A1F29" stroke-width="0.4"/>
<path d="M365.893 415.378L386.097 404.903L386.115 404.711L362.272 385.895L362.089 385.998L365.739 415.289L365.893 415.378ZM385.835 404.782L365.932 415.093L362.347 386.24L385.835 404.782Z" fill="#1A1F29" stroke="#1A1F29" stroke-width="0.4"/>
<path d="M365.825 415.388L365.921 415.196L342.469 391.73L342.276 391.787L338.175 411.826L338.272 411.964L365.825 415.388ZM342.455 392.053L365.523 415.122L338.422 411.762L342.455 392.053Z" fill="#1A1F29" stroke="#1A1F29" stroke-width="0.4"/>
<path d="M288.934 416.985L338.297 411.975L338.347 411.765L309.737 394.492L309.59 394.514L288.837 416.793L288.934 416.985ZM337.935 411.783L289.21 416.729L309.697 394.734L337.935 411.783Z" fill="#1A1F29" stroke="#1A1F29" stroke-width="0.4"/>
<path d="M288.912 416.985L288.995 416.782L262.148 394.965H262.004L236.043 413.81L236.104 414.012L288.912 416.985ZM262.069 395.2L288.575 416.74L236.437 413.813L262.069 395.2Z" fill="#1A1F29" stroke="#1A1F29" stroke-width="0.4"/>
<path d="M261.882 168.533L277.605 159.787V159.588L255.455 146.226L255.283 146.357L261.714 168.444L261.882 168.533ZM277.322 159.68L261.907 168.245L255.602 146.557L277.322 159.68Z" fill="#1A1F29" stroke="#1A1F29" stroke-width="0.4"/>
<path d="M267.647 199.467L283.961 183.979V183.804L261.908 168.316L261.728 168.43L267.464 199.403L267.647 199.467ZM283.7 183.911L267.64 199.154L261.99 168.665L283.7 183.911Z" fill="#1A1F29" stroke="#1A1F29" stroke-width="0.4"/>
<path d="M264.403 224.768L282.839 215.556L282.872 215.374L267.65 199.307L267.453 199.371L264.227 224.651L264.403 224.768ZM282.599 215.42L264.492 224.466L267.65 199.641L282.599 215.42Z" fill="#1A1F29" stroke="#1A1F29" stroke-width="0.4"/>
<path d="M262.094 255.061L283.919 247.467L283.969 247.285L264.439 224.583L264.238 224.651L261.94 254.937L262.094 255.061ZM283.686 247.314L262.177 254.78L264.439 224.942L283.686 247.314Z" fill="#1A1F29" stroke="#1A1F29" stroke-width="0.4"/>
<path d="M270.414 293.052L285.847 272.903L285.826 272.743L262.137 254.862L261.954 254.976L270.221 293.02L270.414 293.052ZM285.596 272.857L270.382 292.718L262.234 255.228L285.596 272.857Z" fill="#1A1F29" stroke="#1A1F29" stroke-width="0.4"/>
<path d="M283.962 313.319L299.452 291.456L299.351 291.278L270.314 292.871L270.225 293.049L283.768 313.316L283.962 313.319ZM299.129 291.516L283.872 313.052L270.529 293.088L299.129 291.516Z" fill="#1A1F29" stroke="#1A1F29" stroke-width="0.4"/>
<path d="M277.58 159.794L300.796 153.284L300.853 153.102L289.245 138.219H289.052L277.448 159.644L277.58 159.794ZM300.57 153.109L277.777 159.509L289.174 138.503L300.57 153.109Z" fill="#1A1F29" stroke="#1A1F29" stroke-width="0.4"/>
<path d="M283.983 183.954L300.853 153.244L300.72 153.081L277.505 159.595L277.423 159.733L283.757 183.947L283.983 183.954ZM300.534 153.358L283.918 183.58L277.688 159.758L300.534 153.358Z" fill="#1A1F29" stroke="#1A1F29" stroke-width="0.4"/>
<path d="M313.289 189.916L313.418 189.767L300.871 153.145L300.66 153.127L283.775 183.854L283.854 184.018L313.289 189.916ZM300.742 153.458L313.138 189.653L284.055 183.822L300.742 153.458Z" fill="#1A1F29" stroke="#1A1F29" stroke-width="0.4"/>
<path d="M282.825 215.563L301.506 209.216L301.563 209.045L283.976 183.836L283.764 183.897L282.689 215.449L282.825 215.563ZM301.287 209.067L282.908 215.31L283.983 184.267L301.287 209.067Z" fill="#1A1F29" stroke="#1A1F29" stroke-width="0.4"/>
<path d="M325.89 234.667L326.083 234.556L313.422 189.785L313.214 189.756L301.384 209.06V209.198L325.89 234.667ZM313.271 190.098L325.739 234.187L301.613 209.113L313.271 190.098Z" fill="#1A1F29" stroke="#1A1F29" stroke-width="0.4"/>
<path d="M283.919 247.467L305.428 239.907L305.474 239.726L282.865 215.371L282.667 215.449L283.743 247.363L283.919 247.467ZM305.195 239.751L284.005 247.207L282.929 215.755L305.195 239.751Z" fill="#1A1F29" stroke="#1A1F29" stroke-width="0.4"/>
<path d="M305.424 239.918L326.001 234.684L326.055 234.496L301.552 209.031L301.355 209.124L305.281 239.822L305.424 239.918ZM325.754 234.514L305.492 239.666L301.628 209.444L325.754 234.514Z" fill="#1A1F29" stroke="#1A1F29" stroke-width="0.4"/>
<path d="M285.854 272.892L305.496 239.865L305.359 239.701L283.85 247.26L283.775 247.374L285.65 272.843L285.854 272.892ZM305.137 240.021L285.844 272.462L284.001 247.445L305.137 240.021Z" fill="#1A1F29" stroke="#1A1F29" stroke-width="0.4"/>
<path d="M299.265 291.456H299.451L314.834 269.934L314.73 269.756L285.736 272.722L285.653 272.903L299.265 291.456ZM314.511 270.009L299.355 291.2L285.965 272.932L314.511 270.009Z" fill="#1A1F29" stroke="#1A1F29" stroke-width="0.4"/>
<path d="M346.356 275.506L346.478 275.342L326.076 234.524L325.865 234.542L314.641 269.835L314.73 269.98L346.356 275.506ZM325.997 234.88L346.169 275.243L314.899 269.781L325.997 234.88Z" fill="#1A1F29" stroke="#1A1F29" stroke-width="0.4"/>
<path d="M314.859 269.902L326.083 234.61L325.944 234.464L305.367 239.698L305.288 239.844L314.641 269.902H314.859ZM325.8 234.738L314.752 269.486L305.542 239.89L325.8 234.738Z" fill="#1A1F29" stroke="#1A1F29" stroke-width="0.4"/>
<path d="M305.313 336.231H305.492L324.778 308.142L324.667 307.964L283.854 313.148L283.786 313.337L305.313 336.231ZM324.445 308.217L305.381 335.972L284.105 313.337L324.445 308.217Z" fill="#1A1F29" stroke="#1A1F29" stroke-width="0.4"/>
<path d="M324.621 308.167L324.793 308.043L314.863 269.842L314.659 269.803L299.265 291.324L299.294 291.485L324.621 308.167ZM314.702 270.123L324.513 307.812L299.534 291.36L314.702 270.123Z" fill="#1A1F29" stroke="#1A1F29" stroke-width="0.4"/>
<path d="M354.066 321.316L354.224 321.191L346.488 275.374L346.277 275.332L324.588 308.007L324.635 308.174L354.066 321.316ZM346.309 275.698L353.962 321.02L324.854 308.021L346.309 275.698Z" fill="#1A1F29" stroke="#1A1F29" stroke-width="0.4"/>
<path d="M236.086 414.023L236.205 413.842L214.101 383.822L213.939 383.797L185.307 403.57L185.347 403.776L236.086 414.023ZM213.975 384.046L235.843 413.739L185.655 403.605L213.975 384.046Z" fill="#1A1F29" stroke="#1A1F29" stroke-width="0.4"/>
<path d="M185.314 403.765L185.476 403.623L172.136 367.495L171.975 367.431L142.379 382.155V382.357L185.314 403.765ZM171.964 367.691L185.16 403.431L142.687 382.258L171.964 367.691Z" fill="#1A1F29" stroke="#1A1F29" stroke-width="0.4"/>
<path d="M142.404 382.368L142.543 382.243L139.704 356.203L139.493 356.156L125.802 378.325L125.874 378.496L142.404 382.368ZM139.511 356.558L142.3 382.108L126.078 378.311L139.511 356.558Z" fill="#1A1F29" stroke="#1A1F29" stroke-width="0.4"/>
<path d="M105.978 388.978L125.953 378.503L125.985 378.325L104.58 354.759L104.38 354.841L105.813 388.882L105.978 388.978ZM125.716 378.372L106.032 388.683L104.623 355.136L125.716 378.372Z" fill="#1A1F29" stroke="#1A1F29" stroke-width="0.4"/>
<path d="M88.66 423.719L106.025 388.91L105.892 388.75L67.3195 398.77L67.2585 398.951L88.66 423.719ZM105.706 389.035L88.66 423.719L67.5453 398.948L105.706 389.035Z" fill="#1A1F29" stroke="#1A1F29" stroke-width="0.4"/>
<path d="M105.838 388.939L106.036 388.857L104.602 354.812L104.476 354.706L74.9085 357.092L74.8369 357.284L105.838 388.939ZM104.379 354.94L105.792 388.565L75.1738 357.298L104.379 354.94Z" fill="#1A1F29" stroke="#1A1F29" stroke-width="0.4"/>
<path d="M74.8295 357.266H75.0087L93.3774 325.749L93.2412 325.582L61.7843 336.149L61.7233 336.316L74.8295 357.266ZM93.044 325.891L74.9227 356.985L62.0173 336.316L93.044 325.891Z" fill="#1A1F29" stroke="#1A1F29" stroke-width="0.4"/>
<path d="M61.8742 336.355L93.3347 325.788L93.4028 325.635L80.7699 297.259H80.562L61.7452 336.206L61.8742 336.355ZM93.1411 325.614L62.0606 336.053L80.6623 297.6L93.1411 325.614Z" fill="#1A1F29" stroke="#1A1F29" stroke-width="0.4"/>
<path d="M80.601 297.404L80.7803 297.312L80.5724 261.671L80.3859 261.582L56.4858 280.597V280.779L80.601 297.404ZM80.3465 261.906L80.5509 297.106L56.7475 280.693L80.3465 261.906Z" fill="#1A1F29" stroke="#1A1F29" stroke-width="0.4"/>
<path d="M38.4185 262.126L80.4578 261.771L80.5366 261.575L61.917 243.797H61.7665L38.3468 261.931L38.4185 262.126ZM80.1746 261.561L38.7555 261.895L61.831 244.028L80.1746 261.561Z" fill="#1A1F29" stroke="#1A1F29" stroke-width="0.4"/>
<path d="M61.8308 243.993L61.9419 243.829L53.9047 226.667L53.7219 226.635L37.6475 242.347L37.7228 242.542L61.8308 243.993ZM53.7649 226.908L61.6515 243.755L37.9917 242.332L53.7649 226.908Z" fill="#1A1F29" stroke="#1A1F29" stroke-width="0.4"/>
<path d="M61.8416 243.993L102.092 243.122L102.171 242.926L81.4362 222.763H81.2713L61.752 243.797L61.8416 243.993ZM101.816 242.898L62.1033 243.758L81.3574 223.004L101.816 242.898Z" fill="#1A1F29" stroke="#1A1F29" stroke-width="0.4"/>
<path d="M133.678 267.516L133.857 267.395L122.106 227.822L121.927 227.762L102.021 242.915V243.097L133.678 267.516ZM121.934 228.05L133.535 267.129L102.279 243.015L121.934 228.05Z" fill="#1A1F29" stroke="#1A1F29" stroke-width="0.4"/>
<path d="M133.8 267.531L162.92 253.234V253.038L147.993 242.336L147.828 242.372L133.632 267.371L133.8 267.531ZM162.647 253.113L134.033 267.161L147.982 242.596L162.647 253.113Z" fill="#1A1F29" stroke="#1A1F29" stroke-width="0.4"/>
<path d="M109.782 279.588L109.954 279.467L102.218 242.983L102.028 242.919L80.3967 261.586V261.767L109.782 279.588ZM102.031 243.221L109.678 279.257L80.6655 261.657L102.031 243.221Z" fill="#1A1F29" stroke="#1A1F29" stroke-width="0.4"/>
<path d="M117.876 312.533L118.03 312.402L109.939 279.46L109.767 279.392L80.6047 297.212V297.412L117.876 312.533ZM109.753 279.666L117.754 312.238L80.9201 297.305L109.753 279.666Z" fill="#1A1F29" stroke="#1A1F29" stroke-width="0.4"/>
<path d="M144.78 294.919L144.935 294.77L133.854 267.392L133.696 267.332L109.778 279.396V279.602L144.78 294.919ZM133.685 267.584L144.616 294.606L110.097 279.495L133.685 267.584Z" fill="#1A1F29" stroke="#1A1F29" stroke-width="0.4"/>
<path d="M181.31 283.186H181.51L197.18 253.184L197.076 253.017H162.866L162.769 253.191L181.31 283.186ZM196.893 253.244L181.403 282.894L163.074 253.244H196.893Z" fill="#1A1F29" stroke="#1A1F29" stroke-width="0.4"/>
<path d="M220.944 296.316L221.094 296.213L222.449 263.147L222.284 263.04L181.356 283.022V283.232L220.944 296.316ZM222.213 263.339L220.868 296.05L181.708 283.104L222.213 263.339Z" fill="#1A1F29" stroke="#1A1F29" stroke-width="0.4"/>
<path d="M247.798 320.018L247.988 319.925L246.328 284.8L246.167 284.7L220.929 296.124L220.901 296.313L247.798 320.018ZM246.091 284.96L247.744 319.666L221.173 296.238L246.091 284.96Z" fill="#1A1F29" stroke="#1A1F29" stroke-width="0.4"/>
<path d="M247.909 320.043L283.89 313.365L283.929 313.156L257.523 297.668L257.358 297.721L247.78 319.886L247.909 320.043ZM283.549 313.195L248.059 319.78L257.502 297.931L283.549 313.195Z" fill="#1A1F29" stroke="#1A1F29" stroke-width="0.4"/>
<path d="M277.81 342.72L305.413 336.267L305.471 336.078L283.962 313.177L283.765 313.23L277.67 342.585L277.81 342.72ZM305.177 336.089L277.932 342.457L283.937 313.493L305.177 336.089Z" fill="#1A1F29" stroke="#1A1F29" stroke-width="0.4"/>
<path d="M277.781 342.724L277.853 342.517L247.956 319.84L247.783 319.883L237.581 341.397L237.681 341.561L277.781 342.724ZM247.93 320.107L277.43 342.485L237.864 341.333L247.93 320.107Z" fill="#1A1F29" stroke="#1A1F29" stroke-width="0.4"/>
<path d="M181.371 283.236L181.507 283.068L162.963 253.07L162.816 253.028L133.696 267.324V267.534L181.371 283.236ZM162.837 253.28L181.159 282.919L134.062 267.406L162.837 253.28Z" fill="#1A1F29" stroke="#1A1F29" stroke-width="0.4"/>
<path d="M356.167 359.221L356.335 359.115L354.228 321.205L354.03 321.131L330.478 345.308L330.507 345.49L356.167 359.221ZM354.016 321.479L356.099 358.926L330.754 345.369L354.016 321.479Z" fill="#1A1F29" stroke="#1A1F29" stroke-width="0.4"/>
<path d="M330.521 345.508L330.675 345.383L324.796 308.05L324.588 308.004L305.302 336.092L305.356 336.263L330.521 345.508ZM324.613 308.373L330.417 345.244L305.574 336.117L324.613 308.373Z" fill="#1A1F29" stroke="#1A1F29" stroke-width="0.4"/>
<path d="M342.419 391.929L362.236 386.094L362.315 385.959L356.335 359.111H356.117L342.279 391.822L342.419 391.929ZM362.068 385.906L342.588 391.641L356.188 359.495L362.068 385.906Z" fill="#1A1F29" stroke="#1A1F29" stroke-width="0.4"/>
<path d="M309.686 394.702L342.398 391.932L342.47 391.74L321.129 370.265L320.946 370.297L309.572 394.542L309.686 394.702ZM342.133 391.726L309.869 394.46L321.09 370.539L342.133 391.726Z" fill="#1A1F29" stroke="#1A1F29" stroke-width="0.4"/>
<path d="M321.082 370.453L356.257 359.228L356.278 359.022L330.618 345.298L330.457 345.358L320.943 370.304L321.082 370.453ZM355.931 359.111L321.24 370.18L330.607 345.561L355.931 359.111Z" fill="#1A1F29" stroke="#1A1F29" stroke-width="0.4"/>
<path d="M320.986 370.439L321.154 370.297L305.514 336.107L305.385 336.043L277.781 342.496L277.746 342.702L320.986 370.439ZM305.331 336.288L320.781 370.037L278.072 342.66L305.331 336.288Z" fill="#1A1F29" stroke="#1A1F29" stroke-width="0.4"/>
<path d="M262.076 395.168L309.676 394.702L309.744 394.5L283.933 375.381H283.789L261.994 394.962L262.076 395.168ZM309.335 394.478L262.374 394.937L283.883 375.62L309.335 394.478Z" fill="#1A1F29" stroke="#1A1F29" stroke-width="0.4"/>
<path d="M262.048 395.164L262.169 394.99L242.528 366.268L242.374 366.236L213.943 383.794L213.975 384.004L262.048 395.164ZM242.403 366.485L261.815 394.876L214.298 383.854L242.403 366.485Z" fill="#1A1F29" stroke="#1A1F29" stroke-width="0.4"/>
<path d="M283.886 375.584L321.065 370.457L321.111 370.247L277.846 342.514L277.67 342.628L283.765 375.492L283.886 375.584ZM320.728 370.272L283.962 375.342L277.946 342.848L320.728 370.272Z" fill="#1A1F29" stroke="#1A1F29" stroke-width="0.4"/>
<path d="M283.843 375.58L283.983 375.449L277.889 342.588L277.713 342.514L242.37 366.222L242.41 366.428L283.843 375.58ZM277.702 342.802L283.725 375.321L242.718 366.279L277.702 342.802Z" fill="#1A1F29" stroke="#1A1F29" stroke-width="0.4"/>
<path d="M213.961 384L214.111 383.861L203.5 351.125L203.339 351.058L171.975 367.435V367.641L213.961 384ZM203.325 351.324L213.821 383.701L172.305 367.52L203.325 351.324Z" fill="#1A1F29" stroke="#1A1F29" stroke-width="0.4"/>
<path d="M171.989 367.644L172.14 367.513L166.404 339.623L166.228 339.548L139.536 356.121L139.557 356.324L171.989 367.644ZM166.203 339.829L171.874 367.364L139.851 356.188L166.203 339.829Z" fill="#1A1F29" stroke="#1A1F29" stroke-width="0.4"/>
<path d="M104.387 354.844H104.602L118.027 312.466L117.866 312.331L93.2413 325.589L93.1911 325.728L104.387 354.844ZM117.726 312.651L104.483 354.489L93.4384 325.76L117.726 312.651Z" fill="#1A1F29" stroke="#1A1F29" stroke-width="0.4"/>
<path d="M139.586 356.327L139.701 356.185L133.857 333.337L133.678 333.273L104.426 354.727L104.49 354.933L139.586 356.327ZM133.678 333.572L139.443 356.11L104.824 354.731L133.678 333.572Z" fill="#1A1F29" stroke="#1A1F29" stroke-width="0.4"/>
<path d="M133.657 333.433L133.857 333.394L144.938 294.844L144.762 294.72L117.855 312.338L117.826 312.501L133.657 333.433ZM144.63 295.079L133.7 333.124L118.084 312.469L144.63 295.079Z" fill="#1A1F29" stroke="#1A1F29" stroke-width="0.4"/>
<path d="M242.392 366.439L242.546 366.311L237.8 341.422L237.653 341.333L203.346 351.047V351.26L242.392 366.439ZM237.595 341.589L242.284 366.151L203.751 351.172L237.595 341.589Z" fill="#1A1F29" stroke="#1A1F29" stroke-width="0.4"/>
<path d="M203.346 351.264L203.489 351.122L194.886 322.08L194.717 322.016L166.225 339.545L166.254 339.751L203.346 351.264ZM194.696 322.286L203.21 350.983L166.548 339.605L194.696 322.286Z" fill="#1A1F29" stroke="#1A1F29" stroke-width="0.4"/>
<path d="M166.261 339.755L166.397 339.644V311.385L166.218 311.289L133.682 333.269L133.725 333.475L166.261 339.755ZM166.168 311.602V339.506L134.04 333.305L166.168 311.602Z" fill="#1A1F29" stroke="#1A1F29" stroke-width="0.4"/>
<path d="M166.211 311.467L166.383 311.431L181.511 283.171L181.371 283.011L144.806 294.699L144.77 294.898L166.211 311.467ZM181.174 283.314L166.247 311.203L145.067 294.848L181.174 283.314Z" fill="#1A1F29" stroke="#1A1F29" stroke-width="0.4"/>
<path d="M194.853 322.194L221.059 296.288L221.016 296.1L181.443 283.022L181.299 283.168L194.663 322.133L194.853 322.194ZM220.765 296.26L194.825 321.902L181.59 283.307L220.765 296.26Z" fill="#1A1F29" stroke="#1A1F29" stroke-width="0.4"/>
<path d="M166.343 339.74L194.835 322.208L194.814 322.005L166.325 311.278L166.168 311.385V339.644L166.343 339.74ZM194.516 322.133L166.397 339.435V311.548L194.516 322.133Z" fill="#1A1F29" stroke="#1A1F29" stroke-width="0.4"/>
<path d="M194.778 322.226L247.891 320.046L247.963 319.847L221.055 296.125H220.912L194.707 322.027L194.778 322.226ZM247.597 319.829L195.065 321.988L220.983 296.366L247.597 319.829Z" fill="#1A1F29" stroke="#1A1F29" stroke-width="0.4"/>
<path d="M203.425 351.264L237.717 341.557V341.344L194.803 322.009L194.646 322.144L203.249 351.189L203.425 351.264ZM237.355 341.422L203.471 351.022L194.954 322.325L237.355 341.422Z" fill="#1A1F29" stroke="#1A1F29" stroke-width="0.4"/>
<path d="M5.79272 265.6L32.1699 241.493V241.326L12.2956 222.766L12.102 222.834L5.59552 265.5L5.79272 265.6ZM31.9262 241.422L5.87515 265.227L12.3028 223.076L31.9262 241.422Z" fill="#1A1F29" stroke="#1A1F29" stroke-width="0.4"/>
<path d="M50.5567 287.602L50.6499 287.413L28.8398 261.596L28.6391 261.646L23.1902 286.24L23.2941 286.379L50.5567 287.602ZM28.8148 261.924L50.3237 287.364L23.459 286.158L28.8148 261.924Z" fill="#1A1F29" stroke="#1A1F29" stroke-width="0.4"/>
<path d="M38.4794 319.68L70.4956 299.968L70.4346 299.758H38.4185L38.3037 299.872V319.584L38.4794 319.68ZM70.026 299.986L38.5296 319.378V299.986H70.026Z" fill="#1A1F29" stroke="#1A1F29" stroke-width="0.4"/>
<path d="M58.2426 344.103L58.4111 343.986L51.9047 305.959L51.7218 305.888L25.5167 325.596V325.788L58.2426 344.103ZM51.7075 306.183L58.1602 343.787L25.8107 325.675L51.7075 306.183Z" fill="#1A1F29" stroke="#1A1F29" stroke-width="0.4"/>
<path d="M48.9007 396.217L70.5352 359.595L70.424 359.42L50.5533 360.992L50.4458 361.099L48.6892 396.16L48.9007 396.217ZM70.2233 359.659L48.9401 395.701L50.6716 361.212L70.2233 359.659Z" fill="#1A1F29" stroke="#1A1F29" stroke-width="0.4"/>
<path d="M62.6268 419.452L62.8096 419.349L58.4146 373.483H58.1887L48.6925 409.241L48.7355 409.362L62.6268 419.452ZM58.2461 374.13L62.5479 419.118L48.9255 409.195L58.2461 374.13Z" fill="#1A1F29" stroke="#1A1F29" stroke-width="0.4"/>
<path d="M52.2917 351.267L52.3813 351.061L29.8722 336.16L29.6966 336.277L31.9837 346.123L32.0662 346.208L52.2917 351.267ZM29.9833 336.508L51.7074 350.883L32.1988 346.005L29.9833 336.508Z" fill="#1A1F29" stroke="#1A1F29" stroke-width="0.4"/>
<path d="M229.01 110.261L237.022 113.753L238.624 121.077L222.561 127.822H211.774L206.497 123.054L204.038 115.378L213.297 93.8666L223.851 79.6409L242.973 85.0986L229.01 84.5226L230.612 93.7884L222.299 90.4924L218.811 96.4231L223.711 103.538L214.588 100.263L207.436 115.378L210.838 120.924L214.47 112.732L215.878 122.588L222.191 117.209L219.277 121.728L231.824 121.077L232.595 114.293L229.01 110.261Z" fill="#1A1F29"/>
<path d="M213.767 67.584L194.305 91.6942L189.028 99.7973V113.287L196.416 125.148L206.497 123.054L197.703 119.044L193.602 110.261L192.817 103.73L199.23 107.509L194.305 101.54L200.291 101.426L195.929 92.5867L209.193 92.4693L203.801 87.1218L210.483 75.0435L217.753 78.5173L215.76 71.5307L226.665 67.584H213.767Z" fill="#1A1F29"/>
<path d="M230.831 56.1422L219.807 54.7769L200.291 65.7066L177.101 80.5084L173.656 90.9866L181.464 106.926L178.628 91.6942L181.464 83.7475L188.164 80.7253L186.759 77.3546L201.456 67.8897L202.862 71.5306L206.497 63.9786L219.807 58.3964L230.831 56.1422Z" fill="#1A1F29"/>
<path d="M213.767 67.584L199.231 77.3547L183.597 91.6942L181.464 106.926L189.028 113.287L185.246 106.308V94.9511L189.028 90.4355L193.366 85.2622L200.292 78.2827L213.767 67.584Z" fill="#1A1F29"/>
<path d="M196.417 125.148L195.929 136.306L185.368 138.581L177.101 129.017L172.739 118.542L181.464 106.926L177.101 118.542L180.883 127.822L187.386 121.152L188.949 125.614L184.576 129.678L186.314 134.336L192.545 132.299L196.417 125.148Z" fill="#1A1F29"/>
<path d="M230.831 56.1422L253.103 75.0436L287.313 102.827C287.313 102.827 305.381 121.497 304.305 121.728C303.23 121.959 289.156 138.29 289.156 138.29L255.398 146.325L223.711 144.956L196.535 136.491L219.632 139.15L241.607 141.895L263.474 140.964L261.818 135.275L243.424 129.689L238.617 121.088L251.397 126.322L276.369 130.02L287.306 126.901L284.46 109.344L267.342 98.9653L263.474 90.9973L244.245 73.6427L232.53 62.3929L230.831 56.1422Z" fill="#1A1F29"/>
<path d="M304.305 121.728L314.637 156.572L335.529 203.94L353.453 244.473L371.378 291.388L381.91 334.887L383.749 377.7L391.327 391.822L386.043 404.804L365.839 415.282L338.286 411.865L288.919 416.875L236.111 413.913L185.368 403.666L142.432 382.258L125.899 378.389L105.924 388.864L88.6598 423.708L67.348 398.869L74.9263 357.195L61.8381 336.242L80.6656 297.301L80.4577 333.614L84.3759 366.848L74.9263 386.208L88.9072 396.164L104.501 375.637L94.6537 360.871L111.89 360.16L106.846 343.996C106.846 343.996 108.839 322.83 109.308 322.599C109.778 322.368 122.049 299.865 122.049 299.865L117.389 322.716L122.049 353.582L130.412 365.163L138.618 348.882L138.034 370.628L155.814 376.907L188.214 385.589L216.23 372.978L223.851 342.61L226.583 376.121L254.15 393.216L301.47 398.905L312.02 380.697L321.05 366.336L331.482 391.822L361.344 401.028L358.139 392.267L369.969 396.22L381.1 387.15L357.494 377.703L374.106 364.59L357.494 326.734L361.247 291.392L334.296 254.933L320.462 188.06L294.651 157.369L304.291 143.172L304.305 121.728Z" fill="#1A1F29"/>
<path d="M255.397 146.325L261.825 168.416L267.561 199.385L264.334 224.665L262.037 254.955L270.321 292.978L283.868 313.244L257.477 297.767L246.213 284.8L222.345 263.15L197.087 253.131H162.877L147.953 242.428L122.006 227.851L81.3646 222.837L53.8116 226.709L20.7344 216.427L37.7264 242.428L38.4147 262.012L56.554 280.686L80.662 297.312L67.9108 281.12L50.5566 263.15L46.3372 242.428V231.086L76.586 238.066L87.6058 262.012C87.6058 262.012 122.235 244.235 122.038 244.174C121.841 244.114 145.996 265.508 145.996 265.508L139.586 322.112L174.136 348.306L156.782 305.995L170.853 273.305L219.606 277.387L236.097 302.631L241.191 329.479L257.72 314.098L283.854 331.282H299.419L317.981 356.224L313.723 336.644L300.254 316.8L287.163 302.34L277.785 284.8L291.59 265.291L273.569 237.148L277.785 207.378L276.612 171.502L255.397 146.325Z" fill="#1A1F29"/>
<path d="M88.6599 423.719C126.497 460.347 175.62 483.341 228.18 489.028C280.74 494.715 333.706 482.768 378.616 455.094C423.526 427.42 457.791 385.617 475.935 336.361C494.079 287.105 495.057 233.24 478.713 183.368C462.368 133.496 429.643 90.4965 385.767 61.2369C341.89 31.9773 289.392 18.1462 236.66 21.9529C183.927 25.7597 134.002 46.9847 94.8597 82.2374C55.7171 117.49 29.6153 164.737 20.7238 216.43L-0.000183105 210.119C10.2537 154.18 38.9858 103.216 81.6671 65.2615C124.348 27.3069 178.551 4.51994 235.732 0.492772C292.912 -3.5344 349.817 11.4272 397.478 43.0192C445.138 74.6111 480.843 121.037 498.963 174.977C517.084 228.918 516.59 287.306 497.559 340.938C478.528 394.569 442.043 440.394 393.854 471.188C345.666 501.982 288.515 515.994 231.411 511.015C174.307 506.037 120.498 482.35 78.4646 443.691L88.6599 423.719Z" fill="#1A1F29"/>
<ellipse rx="3.68404" ry="3.65715" transform="matrix(-1 0 0 1 195.173 321.829)" fill="#1A1F29"/>
<ellipse rx="3.68404" ry="3.65714" transform="matrix(-1 0 0 1 314.904 270.629)" fill="#1A1F29"/>
<ellipse rx="2.76302" ry="2.74286" transform="matrix(-1 0 0 1 301.089 209.371)" fill="#1A1F29"/>
<ellipse rx="2.76302" ry="2.74286" transform="matrix(-1 0 0 1 284.511 375.771)" fill="#1A1F29"/>
<ellipse rx="2.76302" ry="2.74286" transform="matrix(-1 0 0 1 109.519 278.857)" fill="#1A1F29"/>
</g>
<defs>
<clipPath id="clip0_25_1884">
<rect width="512" height="512" fill="white" transform="matrix(-1 0 0 1 512 0)"/>
</clipPath>
</defs>
</svg>
