<svg width="512" height="512" viewBox="0 0 512 512" fill="none" xmlns="http://www.w3.org/2000/svg">
<circle cx="256" cy="256" r="256" fill="#1A1F29"/>
<path d="M140.929 371.325L152.853 347.423L166.531 340.248L177.864 342.902L207.353 357.611H207.373L242.245 364.654L278.548 366.689L312.48 363.246L331.405 365.592H331.452L345.337 358.393L345.374 358.351L349.002 349.429V349.363L343.804 339.676L342.54 310.269L335.288 280.357L322.97 248.1L310.652 220.242L296.291 187.684L289.194 163.735L289.179 163.706L277.501 150.715L253.989 131.62L238.685 118.631L238.643 118.612L231.068 117.673H231.018L217.606 125.185L201.667 135.361L201.635 135.403L199.267 142.604V142.663L204.613 153.577L198.644 161.521V161.597L201.635 168.811L201.65 168.833L207.328 175.409L207.407 175.433L214.645 173.874L233.718 179.808H233.738L255.457 180.746L259.86 195.873L263.801 217.133L261.584 234.484L260.005 255.304V255.326L265.686 281.474V281.501L274.826 295.152L256.987 284.688L249.264 275.775L232.846 260.9L232.824 260.886L215.466 253.997H215.436H191.951L181.714 246.666L163.878 236.646H163.848L135.918 233.203H135.899L116.981 235.862L94.2417 228.873L105.85 246.766L106.323 260.206L106.345 260.258L118.811 273.092L135.335 284.492L122.425 311.197V311.271L131.403 325.645L126.202 354.258L126.217 354.322L140.929 371.325ZM166.531 340.089H166.477L152.75 347.291L152.715 347.323L140.922 371.318L126.374 354.234L131.575 325.625V325.569L122.603 311.205L135.524 284.48L135.497 284.38L118.929 272.955L106.496 260.153L106.025 246.712L106.01 246.671L94.259 228.846L116.968 235.989H117.003L135.926 233.33L163.821 236.783L181.638 246.803L191.886 254.153L191.933 254.168H215.421L232.75 261.045L249.15 275.895L256.876 284.81L256.896 284.827L275.043 295.469L275.149 295.359L265.846 281.43L260.172 255.319L261.749 234.513L263.966 217.143V217.121L260.025 195.834L255.605 180.643L255.531 180.587L233.768 179.649L214.685 173.703H214.643L207.432 175.26L201.79 168.73L198.804 161.587L204.774 153.64V153.56L199.423 142.631L201.77 135.488L217.683 125.33L231.077 117.832L238.601 118.766L253.888 131.74L277.393 150.837L289.048 163.806L296.143 187.738L310.506 220.303L322.824 248.161L335.127 280.404L342.383 310.303L343.644 339.713V339.745L348.837 349.403L345.233 358.264L331.395 365.441L312.485 363.095H312.467L278.541 366.538L242.262 364.502L207.41 357.464L177.913 342.756H177.896L166.531 340.089Z" fill="#FE5448"/>
<path d="M251.072 149.361L270.082 161.883L267.088 150.642L251.072 149.361Z" fill="#2E3645"/>
<path d="M333.122 321.404L324.931 337.646L316.722 319.494L333.122 321.404Z" fill="#2E3645"/>
<path d="M270.458 189.443L283.752 210.178L275.849 215.144L270.458 189.443Z" fill="#2E3645"/>
<path d="M126.15 272.652L152.12 287.205L144.214 272.652H126.15Z" fill="#2E3645"/>
<path d="M289.613 235.175L296.142 253.381L286.063 255.106L289.613 235.175Z" fill="#2E3645"/>
<path d="M312.835 272.337L314.303 297.955L298.536 284.69L312.835 272.337Z" fill="#2E3645"/>
<path d="M264.947 317.426L280.699 333.169L250.266 336.36L264.947 317.426Z" fill="#2E3645"/>
<path d="M219.595 280.181L198.381 292.911L223.133 295.567L219.595 280.181Z" fill="#2E3645"/>
<path d="M204.636 153.628L204.786 153.606L206.252 143.137L206.178 143.047L199.348 142.558L199.269 142.67L204.636 153.628ZM206.082 143.198L204.665 153.328L199.471 142.727L206.082 143.198Z" fill="#FE5448" stroke="#FE5448" stroke-width="0.4"/>
<path d="M206.227 143.183L216.969 133.325L216.905 133.191L201.699 135.361L201.64 135.476L206.104 143.164L206.227 143.183ZM216.676 133.377L206.195 143.003L201.84 135.498L216.676 133.377Z" fill="#FE5448" stroke="#FE5448" stroke-width="0.4"/>
<path d="M216.961 133.333L226.951 126.62L226.919 126.478L217.658 125.185L217.567 125.256L216.828 133.262L216.961 133.333ZM226.693 126.603L217.011 133.11L217.718 125.354L226.693 126.603Z" fill="#FE5448" stroke="#FE5448" stroke-width="0.4"/>
<path d="M209.856 158.024L209.982 157.946L206.249 143.108H206.094L204.628 153.577L204.655 153.648L209.856 158.024ZM206.195 143.538L209.77 157.748L204.791 153.562L206.195 143.538Z" fill="#FE5448" stroke="#FE5448" stroke-width="0.4"/>
<path d="M206.173 143.203H213.532L213.606 143.152L216.991 133.294L216.863 133.211L206.119 143.069L206.173 143.203ZM213.475 143.047H206.375L216.742 133.536L213.475 143.047Z" fill="#FE5448" stroke="#FE5448" stroke-width="0.4"/>
<path d="M209.829 157.983L209.984 157.966V148.694V148.65L206.249 143.083L206.109 143.144L209.829 157.983ZM209.829 148.719V157.325L206.363 143.543L209.829 148.719Z" fill="#FE5448" stroke="#FE5448" stroke-width="0.4"/>
<path d="M209.841 148.738H209.972L213.586 143.169L213.52 143.047H206.16L206.094 143.169L209.841 148.738ZM213.387 143.203L209.905 148.55L206.321 143.203H213.387Z" fill="#FE5448" stroke="#FE5448" stroke-width="0.4"/>
<path d="M213.586 143.174L226.961 126.603L226.855 126.49L216.865 133.203L216.833 133.243L213.451 143.101L213.586 143.174ZM226.52 126.908L213.751 142.729L216.981 133.318L226.52 126.908Z" fill="#FE5448" stroke="#FE5448" stroke-width="0.4"/>
<path d="M215.045 166.164L220.282 159.451L220.231 159.327L209.918 157.887L209.839 158.007L214.914 166.159L215.045 166.164ZM220.073 159.464L214.99 165.981L210.063 158.066L220.073 159.464Z" fill="#FE5448" stroke="#FE5448" stroke-width="0.4"/>
<path d="M214.997 166.194L221.928 164.757L221.987 164.657L220.294 159.383L220.156 159.359L214.918 166.071L214.997 166.194ZM221.809 164.62L215.174 165.998L220.191 159.569L221.809 164.62Z" fill="#FE5448" stroke="#FE5448" stroke-width="0.4"/>
<path d="M220.161 159.459L220.292 159.373L213.606 143.096L213.465 143.083L209.839 148.65V148.748L220.161 159.459ZM213.51 143.294L219.991 159.051L210.009 148.684L213.51 143.294Z" fill="#FE5448" stroke="#FE5448" stroke-width="0.4"/>
<path d="M220.292 159.434L226.658 144.647L226.594 144.54L213.537 143.049L213.453 143.154L220.141 159.434H220.292ZM226.47 144.684L220.22 159.2L213.655 143.218L226.47 144.684Z" fill="#FE5448" stroke="#FE5448" stroke-width="0.4"/>
<path d="M226.577 144.696L226.663 144.618L226.986 126.556L226.845 126.505L213.471 143.076L213.522 143.203L226.577 144.696ZM226.823 126.784L226.505 144.53L213.68 143.064L226.823 126.784Z" fill="#FE5448" stroke="#FE5448" stroke-width="0.4"/>
<path d="M232.982 168.029L244.022 163.386L244.049 163.261L237.441 155.827L237.308 155.852L232.874 167.921L232.982 168.029ZM243.859 163.291L233.088 167.814L237.412 156.038L243.859 163.291Z" fill="#FE5448" stroke="#FE5448" stroke-width="0.4"/>
<path d="M225.485 168.014H225.594L237.438 155.947L237.342 155.825L221.874 164.622L221.859 164.749L225.485 168.014ZM236.933 156.233L225.534 167.848L222.043 164.693L236.933 156.233Z" fill="#FE5448" stroke="#FE5448" stroke-width="0.4"/>
<path d="M225.537 168.034H232.95L233.024 167.982L237.458 155.913L237.328 155.832L225.483 167.902L225.537 168.034ZM232.896 167.877H225.724L237.183 156.204L232.896 167.877Z" fill="#FE5448" stroke="#FE5448" stroke-width="0.4"/>
<path d="M220.238 159.481L237.402 155.964L237.441 155.832L226.643 144.564L226.513 144.586L220.147 159.373L220.238 159.481ZM237.237 155.84L220.361 159.297L226.621 144.757L237.237 155.84Z" fill="#FE5448" stroke="#FE5448" stroke-width="0.4"/>
<path d="M237.325 155.94L237.461 155.874L233.916 134.826L233.773 134.794L226.523 144.569V144.669L237.325 155.94ZM233.788 135.036L237.261 155.649L226.688 144.618L233.788 135.036Z" fill="#FE5448" stroke="#FE5448" stroke-width="0.4"/>
<path d="M233.776 134.889L233.914 134.863L238.715 118.714L238.597 118.626L226.87 126.493L226.856 126.608L233.776 134.889ZM238.496 118.878L233.803 134.677L227.026 126.571L238.496 118.878Z" fill="#FE5448" stroke="#FE5448" stroke-width="0.4"/>
<path d="M226.89 126.632L226.971 126.588L231.122 117.791L231.011 117.691L217.599 125.203L217.629 125.349L226.89 126.632ZM230.876 117.94L226.853 126.468L217.88 125.217L230.876 117.94Z" fill="#FE5448" stroke="#FE5448" stroke-width="0.4"/>
<path d="M243.149 135.207L253.957 131.757L253.984 131.622L238.681 118.631L238.552 118.71L243.048 135.153L243.149 135.207ZM253.775 131.649L243.182 135.034L238.774 118.905L253.775 131.649Z" fill="#FE5448" stroke="#FE5448" stroke-width="0.4"/>
<path d="M261.074 151.343L277.452 150.854L277.499 150.718L253.989 131.62L253.863 131.708L261.008 151.292L261.074 151.343ZM277.235 150.705L261.126 151.194L254.11 131.933L277.235 150.705Z" fill="#FE5448" stroke="#FE5448" stroke-width="0.4"/>
<path d="M237.458 155.908L243.206 135.153L243.132 135.056L233.839 134.762L233.757 134.853L237.303 155.901L237.458 155.908ZM243.026 135.207L237.401 155.524L233.93 134.921L243.026 135.207Z" fill="#FE5448" stroke="#FE5448" stroke-width="0.4"/>
<path d="M248.411 154.073L261.089 151.341L261.133 151.216L243.193 135.087L243.063 135.166L248.323 154.017L248.411 154.073ZM260.904 151.216L248.451 153.904L243.277 135.373L260.904 151.216Z" fill="#FE5448" stroke="#FE5448" stroke-width="0.4"/>
<path d="M243.93 163.371L244.061 163.354L248.466 154.029L248.38 153.919L237.37 155.81L237.323 155.94L243.93 163.371ZM248.259 154.097L243.97 163.178L237.535 155.94L248.259 154.097Z" fill="#FE5448" stroke="#FE5448" stroke-width="0.4"/>
<path d="M274.545 166.993L289.142 163.845L289.187 163.716L277.509 150.725L277.371 150.764L274.449 166.893L274.545 166.993ZM288.972 163.721L274.622 166.814L277.494 150.95L288.972 163.721Z" fill="#FE5448" stroke="#FE5448" stroke-width="0.4"/>
<path d="M258.357 172.506L274.553 166.99L274.587 166.866L261.134 151.216L260.996 151.258L258.256 172.425L258.357 172.506ZM274.393 166.885L258.424 172.318L261.134 151.46L274.393 166.885Z" fill="#FE5448" stroke="#FE5448" stroke-width="0.4"/>
<path d="M258.288 172.499L258.401 172.394L248.463 153.958H248.323L243.918 163.283L243.947 163.381L258.288 172.499ZM248.399 154.171L258.121 172.203L244.078 163.291L248.399 154.171Z" fill="#FE5448" stroke="#FE5448" stroke-width="0.4"/>
<path d="M278.706 175.226L278.788 175.113L274.599 166.88L274.503 166.844L258.308 172.357L258.322 172.508L278.706 175.226ZM274.489 167.012L278.578 175.052L258.672 172.398L274.489 167.012Z" fill="#FE5448" stroke="#FE5448" stroke-width="0.4"/>
<path d="M278.775 175.201L289.184 163.821L289.11 163.691L274.511 166.841L274.457 166.951L278.645 175.184L278.775 175.201ZM288.903 163.897L278.736 175.013L274.644 166.971L288.903 163.897Z" fill="#FE5448" stroke="#FE5448" stroke-width="0.4"/>
<path d="M255.534 180.748L278.736 175.226V175.072L258.35 172.354L258.263 172.406L255.45 180.646L255.534 180.748ZM278.287 175.165L255.637 180.555L258.387 172.511L278.287 175.165Z" fill="#FE5448" stroke="#FE5448" stroke-width="0.4"/>
<path d="M233.763 179.808L258.354 172.506L258.374 172.367L244.031 163.254L243.923 163.278L233.674 179.693L233.763 179.808ZM258.152 172.406L233.925 179.6L244.026 163.43L258.152 172.406Z" fill="#FE5448" stroke="#FE5448" stroke-width="0.4"/>
<path d="M233.719 179.808L233.82 179.727L233.029 167.951L232.926 167.882L214.623 173.711V173.86L233.719 179.808ZM232.879 168.061L233.655 179.624L214.909 173.784L232.879 168.061Z" fill="#FE5448" stroke="#FE5448" stroke-width="0.4"/>
<path d="M214.684 173.855L225.574 168.024L225.591 167.897L221.962 164.62H221.846L214.583 173.728L214.684 173.855ZM225.411 167.938L214.958 173.537L221.93 164.793L225.411 167.938Z" fill="#FE5448" stroke="#FE5448" stroke-width="0.4"/>
<path d="M207.407 175.426L214.665 173.862L214.727 173.789L215.064 166.123L214.924 166.072L207.33 175.304L207.407 175.426ZM214.572 173.716L207.594 175.218L214.894 166.343L214.572 173.716Z" fill="#FE5448" stroke="#FE5448" stroke-width="0.4"/>
<path d="M201.724 168.852L214.998 166.194L215.05 166.076L209.975 157.924H209.844L201.645 168.735L201.724 168.852ZM214.855 166.062L201.897 168.659L209.891 158.102L214.855 166.062Z" fill="#FE5448" stroke="#FE5448" stroke-width="0.4"/>
<path d="M198.736 161.651L209.93 158.039L209.958 157.905L204.759 153.535H204.644L198.647 161.519L198.736 161.651ZM209.748 157.934L198.923 161.426L204.717 153.709L209.748 157.934Z" fill="#FE5448" stroke="#FE5448" stroke-width="0.4"/>
<path d="M296.208 187.791L296.304 187.694L289.201 163.745L289.048 163.76L286.614 185.37L286.675 185.455L296.208 187.791ZM289.161 164.163L296.117 187.608L286.784 185.321L289.161 164.163Z" fill="#FE5448" stroke="#FE5448" stroke-width="0.4"/>
<path d="M310.544 220.337L310.66 220.242L296.299 187.684L296.149 187.713L295.238 210.552L295.274 210.623L310.544 220.337ZM296.292 188.058L310.406 220.066L295.393 210.513L296.292 188.058Z" fill="#FE5448" stroke="#FE5448" stroke-width="0.4"/>
<path d="M322.867 248.205L322.968 248.1L310.65 220.242H310.502L303.934 241.297L303.981 241.395L322.867 248.205ZM310.601 220.496L322.749 247.988L304.116 241.27L310.601 220.496Z" fill="#FE5448" stroke="#FE5448" stroke-width="0.4"/>
<path d="M335.16 280.44L335.275 280.348L322.957 248.105H322.807L317.951 269.365L317.986 269.449L335.16 280.44ZM322.913 248.403L335.044 280.172L318.126 269.336L322.913 248.403Z" fill="#FE5448" stroke="#FE5448" stroke-width="0.4"/>
<path d="M342.432 310.342L342.545 310.254L335.288 280.357L335.142 280.338L323.297 300.833L323.329 300.941L342.432 310.342ZM335.179 280.585L342.343 310.127L323.462 300.838L335.179 280.585Z" fill="#FE5448" stroke="#FE5448" stroke-width="0.4"/>
<path d="M343.679 339.762L343.802 339.694L342.538 310.269L342.405 310.215L324.751 326.871V326.991L343.679 339.762ZM342.391 310.437L343.637 339.535L324.941 326.92L342.391 310.437Z" fill="#FE5448" stroke="#FE5448" stroke-width="0.4"/>
<path d="M348.914 349.478L349 349.363L343.792 339.659L343.693 339.625L328.887 345.317L328.899 345.466L348.914 349.478ZM343.686 339.796L348.781 349.293L329.195 345.365L343.686 339.796Z" fill="#FE5448" stroke="#FE5448" stroke-width="0.4"/>
<path d="M331.452 365.592L345.337 358.393L345.349 358.261L328.964 345.329L328.838 345.4L331.346 365.531L331.452 365.592ZM345.157 358.31L331.479 365.397L329.015 345.566L345.157 358.31Z" fill="#FE5448" stroke="#FE5448" stroke-width="0.4"/>
<path d="M331.405 365.6L331.472 365.468L315.355 349.339L315.222 349.378L312.403 363.151L312.47 363.246L331.405 365.6ZM315.345 349.561L331.198 365.416L312.573 363.107L315.345 349.561Z" fill="#FE5448" stroke="#FE5448" stroke-width="0.4"/>
<path d="M278.564 366.697L312.487 363.254L312.522 363.109L292.86 351.238L292.759 351.252L278.497 366.565L278.564 366.697ZM312.239 363.122L278.753 366.521L292.833 351.404L312.239 363.122Z" fill="#FE5448" stroke="#FE5448" stroke-width="0.4"/>
<path d="M278.549 366.697L278.605 366.557L260.156 351.563H260.057L242.216 364.515L242.258 364.654L278.549 366.697ZM260.101 351.724L278.317 366.528L242.487 364.517L260.101 351.724Z" fill="#FE5448" stroke="#FE5448" stroke-width="0.4"/>
<path d="M259.973 195.936L270.778 189.925V189.788L255.556 180.604L255.438 180.695L259.857 195.875L259.973 195.936ZM270.584 189.851L259.99 195.738L255.657 180.832L270.584 189.851Z" fill="#FE5448" stroke="#FE5448" stroke-width="0.4"/>
<path d="M263.935 217.197L275.146 206.552V206.432L259.99 195.787L259.867 195.865L263.809 217.153L263.935 217.197ZM274.967 206.505L263.93 216.982L260.047 196.027L274.967 206.505Z" fill="#FE5448" stroke="#FE5448" stroke-width="0.4"/>
<path d="M261.705 234.586L274.375 228.255L274.397 228.13L263.937 217.087L263.802 217.131L261.584 234.506L261.705 234.586ZM274.21 228.162L261.767 234.379L263.937 217.316L274.21 228.162Z" fill="#FE5448" stroke="#FE5448" stroke-width="0.4"/>
<path d="M260.118 255.407L275.117 250.187L275.151 250.062L261.73 234.459L261.592 234.506L260.013 255.321L260.118 255.407ZM274.957 250.082L260.175 255.214L261.73 234.706L274.957 250.082Z" fill="#FE5448" stroke="#FE5448" stroke-width="0.4"/>
<path d="M265.837 281.518L276.442 267.669L276.428 267.56L260.148 255.27L260.022 255.348L265.704 281.496L265.837 281.518ZM276.27 267.638L265.814 281.288L260.215 255.522L276.27 267.638Z" fill="#FE5448" stroke="#FE5448" stroke-width="0.4"/>
<path d="M275.147 295.447L285.792 280.421L285.723 280.299L265.768 281.394L265.706 281.516L275.014 295.445L275.147 295.447ZM285.57 280.462L275.085 295.264L265.916 281.543L285.57 280.462Z" fill="#FE5448" stroke="#FE5448" stroke-width="0.4"/>
<path d="M270.761 189.93L286.715 185.455L286.755 185.331L278.778 175.101H278.645L270.67 189.827L270.761 189.93ZM286.56 185.335L270.897 189.734L278.728 175.297L286.56 185.335Z" fill="#FE5448" stroke="#FE5448" stroke-width="0.4"/>
<path d="M275.161 206.535L286.755 185.428L286.664 185.316L270.709 189.793L270.653 189.888L275.006 206.53L275.161 206.535ZM286.536 185.507L275.117 206.278L270.835 189.905L286.536 185.507Z" fill="#FE5448" stroke="#FE5448" stroke-width="0.4"/>
<path d="M295.301 210.633L295.39 210.53L286.768 185.36L286.622 185.348L275.019 206.466L275.073 206.579L295.301 210.633ZM286.679 185.575L295.198 210.452L275.211 206.444L286.679 185.575Z" fill="#FE5448" stroke="#FE5448" stroke-width="0.4"/>
<path d="M274.365 228.259L287.203 223.897L287.243 223.78L275.156 206.454L275.011 206.496L274.272 228.181L274.365 228.259ZM287.053 223.795L274.422 228.086L275.161 206.75L287.053 223.795Z" fill="#FE5448" stroke="#FE5448" stroke-width="0.4"/>
<path d="M303.961 241.39L304.094 241.314L295.393 210.542L295.25 210.523L287.12 223.79V223.885L303.961 241.39ZM295.289 210.758L303.858 241.06L287.278 223.827L295.289 210.758Z" fill="#FE5448" stroke="#FE5448" stroke-width="0.4"/>
<path d="M275.117 250.187L289.899 244.992L289.931 244.867L274.393 228.128L274.257 228.181L274.996 250.116L275.117 250.187ZM289.739 244.884L275.176 250.009L274.437 228.391L289.739 244.884Z" fill="#FE5448" stroke="#FE5448" stroke-width="0.4"/>
<path d="M289.896 244.999L304.037 241.402L304.074 241.272L287.236 223.77L287.1 223.834L289.798 244.933L289.896 244.999ZM303.867 241.285L289.943 244.826L287.287 224.054L303.867 241.285Z" fill="#FE5448" stroke="#FE5448" stroke-width="0.4"/>
<path d="M276.447 267.662L289.945 244.962L289.852 244.85L275.07 250.045L275.018 250.124L276.307 267.628L276.447 267.662ZM289.699 245.07L276.44 267.367L275.174 250.172L289.699 245.07Z" fill="#FE5448" stroke="#FE5448" stroke-width="0.4"/>
<path d="M285.664 280.421H285.792L296.363 265.629L296.292 265.507L276.366 267.545L276.31 267.67L285.664 280.421ZM296.142 265.68L285.725 280.245L276.524 267.689L296.142 265.68Z" fill="#FE5448" stroke="#FE5448" stroke-width="0.4"/>
<path d="M318.026 269.458L318.109 269.346L304.089 241.292L303.944 241.304L296.23 265.561L296.292 265.661L318.026 269.458ZM304.035 241.536L317.898 269.277L296.408 265.524L304.035 241.536Z" fill="#FE5448" stroke="#FE5448" stroke-width="0.4"/>
<path d="M296.381 265.607L304.094 241.351L303.998 241.25L289.857 244.848L289.803 244.948L296.23 265.607H296.381ZM303.9 241.439L296.307 265.321L289.978 244.979L303.9 241.439Z" fill="#FE5448" stroke="#FE5448" stroke-width="0.4"/>
<path d="M289.819 311.195H289.943L303.197 291.889L303.12 291.767L275.072 295.33L275.026 295.46L289.819 311.195ZM302.968 291.941L289.866 311.016L275.245 295.46L302.968 291.941Z" fill="#FE5448" stroke="#FE5448" stroke-width="0.4"/>
<path d="M303.089 291.907L303.207 291.821L296.383 265.566L296.242 265.539L285.664 280.331L285.683 280.441L303.089 291.907ZM296.272 265.759L303.015 291.662L285.849 280.355L296.272 265.759Z" fill="#FE5448" stroke="#FE5448" stroke-width="0.4"/>
<path d="M323.325 300.943L323.433 300.858L318.117 269.368L317.971 269.339L303.067 291.796L303.099 291.911L323.325 300.943ZM317.993 269.59L323.253 300.741L303.249 291.806L317.993 269.59Z" fill="#FE5448" stroke="#FE5448" stroke-width="0.4"/>
<path d="M242.245 364.661L242.327 364.537L227.136 343.904L227.025 343.887L207.348 357.477L207.376 357.618L242.245 364.661ZM227.05 344.058L242.078 364.466L207.587 357.501L227.05 344.058Z" fill="#FE5448" stroke="#FE5448" stroke-width="0.4"/>
<path d="M207.353 357.611L207.464 357.513L198.297 332.683L198.186 332.639L177.847 342.758V342.897L207.353 357.611ZM198.179 332.817L207.248 357.381L178.059 342.829L198.179 332.817Z" fill="#FE5448" stroke="#FE5448" stroke-width="0.4"/>
<path d="M177.864 342.905L177.96 342.819L176.009 324.921L175.863 324.89L166.455 340.126L166.504 340.244L177.864 342.905ZM175.876 325.166L177.792 342.726L166.645 340.116L175.876 325.166Z" fill="#FE5448" stroke="#FE5448" stroke-width="0.4"/>
<path d="M152.832 347.448L166.559 340.248L166.581 340.126L151.871 323.929L151.733 323.985L152.718 347.382L152.832 347.448ZM166.396 340.158L152.869 347.245L151.9 324.188L166.396 340.158Z" fill="#FE5448" stroke="#FE5448" stroke-width="0.4"/>
<path d="M140.93 371.325L152.864 347.401L152.773 347.291L126.264 354.178L126.222 354.302L140.93 371.325ZM152.645 347.487L140.93 371.325L126.42 354.3L152.645 347.487Z" fill="#FE5448" stroke="#FE5448" stroke-width="0.4"/>
<path d="M152.736 347.421L152.871 347.364L151.886 323.966L151.799 323.892L131.48 325.532L131.43 325.664L152.736 347.421ZM151.733 324.054L152.704 347.164L131.662 325.674L151.733 324.054Z" fill="#FE5448" stroke="#FE5448" stroke-width="0.4"/>
<path d="M131.425 325.652H131.548L144.172 303.991L144.078 303.876L122.46 311.139L122.418 311.253L131.425 325.652ZM143.943 304.088L131.489 325.459L122.62 311.253L143.943 304.088Z" fill="#FE5448" stroke="#FE5448" stroke-width="0.4"/>
<path d="M122.521 311.28L144.142 304.018L144.188 303.912L135.507 284.409H135.364L122.432 311.178L122.521 311.28ZM144.009 303.898L122.649 311.073L135.433 284.644L144.009 303.898Z" fill="#FE5448" stroke="#FE5448" stroke-width="0.4"/>
<path d="M135.391 284.509L135.515 284.446L135.372 259.95L135.244 259.889L118.819 272.958V273.082L135.391 284.509ZM135.217 260.111L135.357 284.304L118.999 273.024L135.217 260.111Z" fill="#FE5448" stroke="#FE5448" stroke-width="0.4"/>
<path d="M106.402 260.263L135.293 260.018L135.347 259.884L122.551 247.665H122.448L106.353 260.128L106.402 260.263ZM135.098 259.874L106.634 260.104L122.492 247.824L135.098 259.874Z" fill="#FE5448" stroke="#FE5448" stroke-width="0.4"/>
<path d="M122.492 247.8L122.569 247.687L117.045 235.891L116.92 235.869L105.873 246.668L105.925 246.802L122.492 247.8ZM116.949 236.057L122.369 247.636L106.11 246.658L116.949 236.057Z" fill="#FE5448" stroke="#FE5448" stroke-width="0.4"/>
<path d="M122.499 247.8L150.161 247.201L150.215 247.067L135.965 233.208H135.852L122.438 247.665L122.499 247.8ZM149.971 247.047L122.679 247.638L135.911 233.374L149.971 247.047Z" fill="#FE5448" stroke="#FE5448" stroke-width="0.4"/>
<path d="M171.868 263.967L171.991 263.884L163.915 236.685L163.792 236.644L150.112 247.059V247.184L171.868 263.967ZM163.797 236.842L171.769 263.701L150.289 247.128L163.797 236.842Z" fill="#FE5448" stroke="#FE5448" stroke-width="0.4"/>
<path d="M171.951 263.977L191.963 254.151V254.016L181.704 246.661L181.591 246.685L171.835 263.867L171.951 263.977ZM191.776 254.068L172.111 263.723L181.697 246.839L191.776 254.068Z" fill="#FE5448" stroke="#FE5448" stroke-width="0.4"/>
<path d="M155.445 272.264L155.563 272.181L150.247 247.106L150.116 247.062L135.251 259.891V260.016L155.445 272.264ZM150.119 247.269L155.374 272.036L135.436 259.94L150.119 247.269Z" fill="#FE5448" stroke="#FE5448" stroke-width="0.4"/>
<path d="M161.008 294.907L161.114 294.817L155.553 272.176L155.435 272.129L135.394 284.377V284.514L161.008 294.907ZM155.425 272.318L160.924 294.705L135.611 284.441L155.425 272.318Z" fill="#FE5448" stroke="#FE5448" stroke-width="0.4"/>
<path d="M179.497 282.801L179.603 282.698L171.988 263.882L171.88 263.84L155.443 272.132V272.274L179.497 282.801ZM171.872 264.014L179.384 282.586L155.662 272.2L171.872 264.014Z" fill="#FE5448" stroke="#FE5448" stroke-width="0.4"/>
<path d="M204.601 274.737H204.739L215.508 254.117L215.436 254.002H191.926L191.86 254.121L204.601 274.737ZM215.311 254.158L204.666 274.536L192.069 254.158H215.311Z" fill="#FE5448" stroke="#FE5448" stroke-width="0.4"/>
<path d="M231.839 283.761L231.942 283.691L232.874 260.964L232.76 260.891L204.633 274.624V274.769L231.839 283.761ZM232.711 261.096L231.787 283.578L204.875 274.681L232.711 261.096Z" fill="#FE5448" stroke="#FE5448" stroke-width="0.4"/>
<path d="M250.294 300.051L250.424 299.988L249.284 275.846L249.173 275.778L231.829 283.63L231.809 283.759L250.294 300.051ZM249.121 275.956L250.257 299.809L231.997 283.708L249.121 275.956Z" fill="#FE5448" stroke="#FE5448" stroke-width="0.4"/>
<path d="M250.37 300.069L275.097 295.479L275.125 295.335L256.978 284.69L256.864 284.727L250.282 299.961L250.37 300.069ZM274.863 295.362L250.474 299.888L256.963 284.871L274.863 295.362Z" fill="#FE5448" stroke="#FE5448" stroke-width="0.4"/>
<path d="M270.919 315.655L289.889 311.219L289.928 311.09L275.147 295.35L275.011 295.386L270.823 315.562L270.919 315.655ZM289.726 311.097L271.003 315.474L275.129 295.567L289.726 311.097Z" fill="#FE5448" stroke="#FE5448" stroke-width="0.4"/>
<path d="M270.899 315.657L270.949 315.515L250.402 299.929L250.284 299.959L243.273 314.746L243.342 314.858L270.899 315.657ZM250.385 300.112L270.658 315.493L243.467 314.702L250.385 300.112Z" fill="#FE5448" stroke="#FE5448" stroke-width="0.4"/>
<path d="M204.643 274.771L204.737 274.656L191.993 254.038L191.892 254.009L171.88 263.835V263.98L204.643 274.771ZM191.906 254.183L204.498 274.554L172.131 263.892L191.906 254.183Z" fill="#FE5448" stroke="#FE5448" stroke-width="0.4"/>
<path d="M324.769 326.996L324.885 326.923L323.436 300.868L323.301 300.816L307.115 317.434L307.135 317.558L324.769 326.996ZM323.291 301.056L324.722 326.793L307.305 317.475L323.291 301.056Z" fill="#FE5448" stroke="#FE5448" stroke-width="0.4"/>
<path d="M307.144 317.571L307.25 317.485L303.209 291.826L303.066 291.794L289.812 311.1L289.849 311.217L307.144 317.571ZM303.084 292.048L307.072 317.39L289.999 311.117L303.084 292.048Z" fill="#FE5448" stroke="#FE5448" stroke-width="0.4"/>
<path d="M315.321 349.476L328.939 345.466L328.994 345.373L324.884 326.92H324.734L315.225 349.402L315.321 349.476ZM328.824 345.336L315.436 349.278L324.783 327.184L328.824 345.336Z" fill="#FE5448" stroke="#FE5448" stroke-width="0.4"/>
<path d="M292.826 351.382L315.306 349.478L315.355 349.346L300.69 334.586L300.564 334.608L292.747 351.272L292.826 351.382ZM315.124 349.337L292.952 351.216L300.663 334.774L315.124 349.337Z" fill="#FE5448" stroke="#FE5448" stroke-width="0.4"/>
<path d="M300.657 334.716L324.83 327.001L324.845 326.859L307.21 317.426L307.099 317.468L300.561 334.613L300.657 334.716ZM324.606 326.92L300.766 334.527L307.203 317.607L324.606 326.92Z" fill="#FE5448" stroke="#FE5448" stroke-width="0.4"/>
<path d="M300.591 334.706L300.707 334.608L289.958 311.109L289.869 311.065L270.899 315.501L270.875 315.642L300.591 334.706ZM289.832 311.234L300.45 334.43L271.099 315.613L289.832 311.234Z" fill="#FE5448" stroke="#FE5448" stroke-width="0.4"/>
<path d="M260.106 351.702L292.818 351.382L292.865 351.243L275.127 338.103H275.028L260.05 351.56L260.106 351.702ZM292.584 351.228L260.311 351.543L275.092 338.267L292.584 351.228Z" fill="#FE5448" stroke="#FE5448" stroke-width="0.4"/>
<path d="M260.087 351.7L260.17 351.58L246.672 331.84L246.566 331.818L227.028 343.885L227.05 344.029L260.087 351.7ZM246.586 331.989L259.927 351.502L227.272 343.926L246.586 331.989Z" fill="#FE5448" stroke="#FE5448" stroke-width="0.4"/>
<path d="M275.095 338.242L300.645 334.718L300.677 334.574L270.944 315.513L270.823 315.591L275.011 338.179L275.095 338.242ZM300.414 334.591L275.147 338.076L271.013 315.743L300.414 334.591Z" fill="#FE5448" stroke="#FE5448" stroke-width="0.4"/>
<path d="M275.065 338.24L275.161 338.149L270.973 315.564L270.852 315.513L246.564 331.808L246.591 331.949L275.065 338.24ZM270.845 315.711L274.984 338.061L246.803 331.847L270.845 315.711Z" fill="#FE5448" stroke="#FE5448" stroke-width="0.4"/>
<path d="M227.04 344.026L227.144 343.931L219.851 321.432L219.74 321.385L198.186 332.641V332.783L227.04 344.026ZM219.731 321.568L226.944 343.821L198.413 332.7L219.731 321.568Z" fill="#FE5448" stroke="#FE5448" stroke-width="0.4"/>
<path d="M198.196 332.785L198.299 332.695L194.358 313.526L194.237 313.475L175.893 324.865L175.908 325.004L198.196 332.785ZM194.22 313.668L198.117 332.592L176.11 324.912L194.22 313.668Z" fill="#FE5448" stroke="#FE5448" stroke-width="0.4"/>
<path d="M151.738 323.988H151.886L161.112 294.861L161.001 294.768L144.078 303.881L144.044 303.976L151.738 323.988ZM160.905 294.988L151.804 323.743L144.214 303.998L160.905 294.988Z" fill="#FE5448" stroke="#FE5448" stroke-width="0.4"/>
<path d="M175.927 325.007L176.006 324.909L171.991 309.206L171.867 309.162L151.765 323.907L151.809 324.049L175.927 325.007ZM171.867 309.367L175.829 324.858L152.038 323.91L171.867 309.367Z" fill="#FE5448" stroke="#FE5448" stroke-width="0.4"/>
<path d="M171.853 309.272L171.99 309.245L179.605 282.75L179.485 282.664L160.993 294.773L160.973 294.885L171.853 309.272ZM179.394 282.911L171.882 309.059L161.151 294.863L179.394 282.911Z" fill="#FE5448" stroke="#FE5448" stroke-width="0.4"/>
<path d="M246.579 331.957L246.685 331.869L243.423 314.763L243.322 314.702L219.745 321.378V321.525L246.579 331.957ZM243.282 314.878L246.505 331.759L220.024 321.463L243.282 314.878Z" fill="#FE5448" stroke="#FE5448" stroke-width="0.4"/>
<path d="M219.745 321.527L219.844 321.429L213.931 301.469L213.815 301.425L194.235 313.472L194.254 313.614L219.745 321.527ZM213.801 301.611L219.652 321.334L194.456 313.514L213.801 301.611Z" fill="#FE5448" stroke="#FE5448" stroke-width="0.4"/>
<path d="M194.259 313.617L194.353 313.541V294.118L194.23 294.052L171.87 309.159L171.9 309.301L194.259 313.617ZM194.195 294.267V313.446L172.117 309.184L194.195 294.267Z" fill="#FE5448" stroke="#FE5448" stroke-width="0.4"/>
<path d="M194.225 294.174L194.343 294.15L204.74 274.727L204.644 274.617L179.515 282.65L179.49 282.786L194.225 294.174ZM204.508 274.825L194.25 293.993L179.695 282.752L204.508 274.825Z" fill="#FE5448" stroke="#FE5448" stroke-width="0.4"/>
<path d="M213.909 301.547L231.918 283.742L231.888 283.612L204.693 274.624L204.594 274.725L213.778 301.505L213.909 301.547ZM231.716 283.722L213.889 301.347L204.794 274.82L231.716 283.722Z" fill="#FE5448" stroke="#FE5448" stroke-width="0.4"/>
<path d="M194.316 313.607L213.896 301.557L213.882 301.417L194.303 294.045L194.195 294.118V313.541L194.316 313.607ZM213.677 301.505L194.353 313.397V294.23L213.677 301.505Z" fill="#FE5448" stroke="#FE5448" stroke-width="0.4"/>
<path d="M213.857 301.569L250.358 300.071L250.407 299.934L231.915 283.63H231.817L213.808 301.432L213.857 301.569ZM250.156 299.922L214.054 301.405L231.866 283.796L250.156 299.922Z" fill="#FE5448" stroke="#FE5448" stroke-width="0.4"/>
<path d="M219.799 321.527L243.366 314.856V314.709L213.874 301.42L213.766 301.513L219.679 321.476L219.799 321.527ZM243.117 314.763L219.831 321.361L213.978 301.637L243.117 314.763Z" fill="#FE5448" stroke="#FE5448" stroke-width="0.4"/>
<path d="M83.9807 262.65L102.108 246.082V245.967L88.4497 233.211L88.3167 233.257L83.8452 262.582L83.9807 262.65ZM101.94 246.033L84.0374 262.394L88.4546 233.423L101.94 246.033Z" fill="#FE5448" stroke="#FE5448" stroke-width="0.4"/>
<path d="M114.744 277.772L114.808 277.642L99.8196 259.898L99.6816 259.933L95.9369 276.836L96.0084 276.931L114.744 277.772ZM99.8023 260.123L114.584 277.608L96.1217 276.78L99.8023 260.123Z" fill="#FE5448" stroke="#FE5448" stroke-width="0.4"/>
<path d="M106.444 299.819L128.447 286.271L128.405 286.127H106.402L106.324 286.205V299.753L106.444 299.819ZM128.124 286.283L106.479 299.611V286.283H128.124Z" fill="#FE5448" stroke="#FE5448" stroke-width="0.4"/>
<path d="M120.026 316.605L120.142 316.525L115.671 290.389L115.545 290.34L97.5361 303.886V304.018L120.026 316.605ZM115.535 290.543L119.97 316.388L97.7382 303.939L115.535 290.543Z" fill="#FE5448" stroke="#FE5448" stroke-width="0.4"/>
<path d="M113.606 352.423L128.474 327.253L128.398 327.133L114.742 328.213L114.668 328.286L113.461 352.384L113.606 352.423ZM128.26 327.297L113.633 352.069L114.823 328.364L128.26 327.297Z" fill="#FE5448" stroke="#FE5448" stroke-width="0.4"/>
<path d="M123.039 368.393L123.165 368.322L120.144 336.798H119.989L113.462 361.374L113.491 361.457L123.039 368.393ZM120.028 337.242L122.985 368.163L113.622 361.343L120.028 337.242Z" fill="#FE5448" stroke="#FE5448" stroke-width="0.4"/>
<path d="M115.936 321.529L115.998 321.388L100.529 311.146L100.408 311.227L101.98 317.993L102.037 318.052L115.936 321.529ZM100.605 311.385L115.535 321.265L102.128 317.913L100.605 311.385Z" fill="#FE5448" stroke="#FE5448" stroke-width="0.4"/>
<path d="M237.382 155.886L242.888 158.286L243.99 163.32L232.95 167.956H225.537L221.911 164.679L220.221 159.403L226.584 144.618L233.837 134.841L246.978 138.592L237.382 138.196L238.484 144.564L232.77 142.299L230.373 146.375L233.741 151.265L227.471 149.014L222.556 159.403L224.894 163.215L227.39 157.584L228.358 164.358L232.697 160.661L230.694 163.767L239.316 163.32L239.846 158.657L237.382 155.886Z" fill="#FE5448"/>
<path d="M226.906 126.554L213.532 143.125L209.905 148.694V157.966L214.983 166.118L221.91 164.679L215.867 161.922L213.049 155.886L212.509 151.397L216.917 153.995L213.532 149.892L217.646 149.813L214.648 143.738L223.763 143.658L220.058 139.982L224.65 131.681L229.646 134.068L228.276 129.266L235.771 126.554H226.906Z" fill="#FE5448"/>
<path d="M238.634 118.69L231.058 117.752L217.646 125.264L201.709 135.437L199.342 142.639L204.708 153.594L202.759 143.125L204.708 137.663L209.312 135.586L208.346 133.269L218.447 126.764L219.413 129.266L221.911 124.076L231.058 120.239L238.634 118.69Z" fill="#FE5448"/>
<path d="M226.907 126.554L216.917 133.269L206.173 143.125L204.707 153.594L209.905 157.966L207.306 153.169V145.363L209.905 142.26L212.886 138.704L217.646 133.907L226.907 126.554Z" fill="#FE5448"/>
<path d="M214.983 166.118L214.648 173.786L207.391 175.35L201.71 168.777L198.711 161.578L204.708 153.594L201.71 161.578L204.309 167.956L208.778 163.371L209.852 166.438L206.846 169.231L208.041 172.433L212.323 171.032L214.983 166.118Z" fill="#FE5448"/>
<path d="M238.634 118.69L253.94 131.681L277.45 150.776C277.45 150.776 289.867 163.608 289.127 163.767C288.388 163.926 278.716 175.15 278.716 175.15L255.517 180.673L233.741 179.732L215.064 173.913L230.937 175.741L246.039 177.628L261.067 176.988L259.929 173.078L247.288 169.239L243.984 163.327L252.767 166.924L269.929 169.466L277.445 167.323L275.489 155.256L263.725 148.122L261.067 142.646L247.852 130.718L239.801 122.986L238.634 118.69Z" fill="#FE5448"/>
<path d="M289.127 163.767L296.227 187.716L310.585 220.271L322.903 248.13L335.221 280.375L342.459 310.271L343.723 339.696L348.931 349.403L345.3 358.325L331.415 365.526L312.48 363.178L278.554 366.621L242.262 364.585L207.39 357.543L177.883 342.829L166.521 340.17L152.794 347.369L140.93 371.318L126.283 354.246L131.492 325.603L122.497 311.202L135.436 284.438L135.293 309.396L137.986 332.238L131.492 345.544L141.1 352.386L151.816 338.279L145.049 328.13L156.894 327.641L153.427 316.532C153.427 316.532 154.797 301.984 155.12 301.826C155.443 301.667 163.876 286.2 163.876 286.2L160.673 301.906L163.876 323.12L169.623 331.079L175.262 319.89L174.861 334.835L187.08 339.151L209.346 345.119L228.599 336.451L233.837 315.579L235.714 338.611L254.659 350.36L287.179 354.27L294.429 341.756L300.635 331.886L307.804 349.403L328.326 355.729L326.123 349.708L334.253 352.425L341.903 346.191L325.68 339.698L337.096 330.686L325.68 304.668L328.259 280.377L309.738 255.319L300.231 209.357L282.493 188.263L289.117 178.505L289.127 163.767Z" fill="#FE5448"/>
<path d="M255.516 180.673L259.934 195.856L263.875 217.141L261.658 234.515L260.079 255.334L265.772 281.467L275.082 295.396L256.945 284.758L249.205 275.846L232.802 260.966L215.443 254.08H191.933L181.677 246.724L163.846 236.705L135.916 233.259L116.981 235.921L94.2493 228.853L105.927 246.724L106.4 260.184L118.866 273.019L135.433 284.446L126.67 273.317L114.744 260.966L111.844 246.724V238.929L132.632 243.726L140.205 260.184C140.205 260.184 164.004 247.966 163.868 247.924C163.733 247.883 180.332 262.587 180.332 262.587L175.927 301.491L199.672 319.494L187.745 290.413L197.415 267.946L230.92 270.751L242.252 288.102L245.753 306.554L257.113 295.983L275.072 307.793H285.769L298.526 324.936L295.599 311.478L286.343 297.84L277.346 287.901L270.902 275.846L280.389 262.437L268.004 243.095L270.902 222.634L270.096 197.977L255.516 180.673Z" fill="#FE5448"/>
<path d="M140.93 371.325C166.933 396.499 200.691 412.303 236.812 416.212C272.933 420.121 309.332 411.909 340.196 392.889C371.06 373.869 394.607 345.137 407.076 311.284C419.546 277.431 420.218 240.409 408.985 206.132C397.752 171.856 375.263 142.302 345.11 122.192C314.957 102.081 278.879 92.5754 242.64 95.1918C206.4 97.8081 172.09 112.396 145.19 136.625C118.29 160.854 100.353 193.327 94.2421 228.856L80 224.518C87.0468 186.071 106.792 151.044 136.124 124.958C165.456 98.8715 202.706 83.2101 242.002 80.4422C281.298 77.6743 320.405 87.9575 353.158 109.671C385.912 131.384 410.449 163.292 422.902 200.365C435.355 237.439 435.015 277.569 421.937 314.43C408.858 351.29 383.784 382.786 350.668 403.95C317.552 425.115 278.276 434.746 239.033 431.324C199.789 427.902 162.81 411.623 133.923 385.052L140.93 371.325Z" fill="#FE5448"/>
</svg>
